<svg xmlns="http://www.w3.org/2000/svg" xmlns:xlink="http://www.w3.org/1999/xlink" width="25" height="25"><defs><linearGradient id="a" x1="50%" x2="50%" y1="100%" y2="0%"><stop offset="0%" stop-color="#B7FCFF"/><stop offset="100%" stop-color="#6BD2FF"/></linearGradient><linearGradient id="b" x1="50%" x2="50%" y1="0%" y2="100%"><stop offset="0%" stop-color="#ACF7FF"/><stop offset="100%" stop-color="#E7FEFF"/></linearGradient><rect id="c" width="13.259" height="16.177" x=".1" y=".615" rx="2"/></defs><g fill="none" fill-rule="evenodd" transform="translate(4 3)"><ellipse cx="8.5" cy="18" fill="#005DD4" opacity=".25" rx="8.5" ry="2"/><g transform="translate(1.9 .688)"><path fill="#4FC2FF" d="M2.35 14.296h8.352l2.197 1.93H.554z"/><path fill="#8EDDFF" d="M2.35 3.26L.181.92h12.962l-2.156 2.34z"/><path fill="url(#a)" d="M2.468 2.56h8.416v11.036H2.468z" transform="translate(0 .733)"/><path fill="#4FC2FF" d="M.156 1.168l2.286 1.969v11.192L.156 15.557z"/><path fill="#8EDDFF" d="M13.092 1.198v15.225l-2.39-2.105V3.414z"/><path fill="#FFF" d="M11.745 2.368l.81 13.205.498.496V1.452z"/><g fill="#4395FF"><path d="M.384 1.721l1.505 13.412 10.963 1.245H.384z"/><path d="M4.754 5.137v7.05h4.13l1.637 1.71H2.876L2.658 3.182z"/></g><path fill="#FFF" d="M.592.962l.424.51 10.68.944L12.91.962z"/><path fill="url(#b)" d="M3.015 2.81L4.74 4.403h4.162v7.065l1.521 1.63-.08-10.74z" transform="translate(0 .733)"/><g stroke="#064BA5"><path d="M2.797 3.293V13.97h7.77V3.293h-7.77z"/><path stroke-linecap="round" d="M12.737 1.197l-2.273 2.156"/><path stroke-linecap="square" d="M.742 1.324l1.66 1.519m8.082 11l2.412 2.2-2.412-2.2z"/><path stroke-linecap="round" d="M2.876 13.923L.68 15.957"/></g><mask id="d" fill="#fff"><use xlink:href="#c"/></mask><use stroke="#064BA5" stroke-linecap="round" stroke-linejoin="round" xlink:href="#c"/><g fill="#FFF" mask="url(#d)"><path d="M-.146 6.113c1.622-.378 1.85-.67 2.377-2.434.404 1.593.635 1.911 2.257 2.434-1.535.433-1.708.954-2.287 2.055-.755-1.187-.725-1.65-2.347-2.055z"/></g></g></g></svg>