<svg xmlns="http://www.w3.org/2000/svg" viewBox="0 0 3000 3000" xmlns:xlink="http://www.w3.org/1999/xlink"><g clip-path="url(#kittyClipPath)"><g id="tailFur"><clipPath id="tailFurClipPath"><path fill="none" d="M2518.1 1775.9c67.6-29 132.5 39.9 146.6 73.7 48 115.1-49.4 194.9-49.4 194.9-36.6 34.8-88.5 67.7-157.3 88.8-175.3 53.8-339.2-38.4-422.2-99l-34.7-24.9-36.1 140.1 220.6 76.5a852.5 852.5 0 0 0 229 11.7c98.1-8.4 186.9-29.1 266-104.6 93.6-89.2 148.9-239.5 82.8-373.6-44.5-90.3-152-191.5-273.6-171.9-89 14.4-190.9 94.4-182.7 186.5 5.8 64 64.6 132.1 133.1 133.9 48.3 1.2 112.1-30.2 112.1-73.4-.1-34.5-40.8-73.1-100.9-79.4"></path></clipPath><g clip-path="url(#tailFurClipPath)"><path fill="#ffef85" d="M1904 1577.4H2843V2245.94H1904z"></path><path fill="#eef8f8" d="M2293.4,1584.6c-104.7,11.8-108.8,25.6-108.8,25.6s21.3-2.6,53.1,17.6c38.3,24.2,25.7,48.7,25.7,48.7l-27.5,94.5c157.3,50.1,268,47.1,275.3,48.3,0,0-111.3-49.7-177.5-114.2,0,0,68,.8,176.3,26,0,0-28.4-34.5-100.8-88.3,0,0,271.2,10.8,377.2,252.8,0,0,132-220-282.3-453.9l-8.2-6.6-44.7,44.6s13-43.6,6.7-62c0,0-58.4,29-105.2,19.6l-10.4-.4,23.6,42.4s-62.5,32.3-85.1,63.4Z"></path><path fill="#ffef85" d="M2663.9,1853.1s15.3,93.8,76.3,176.4c0,0-98.1-31.2-140.3-67.1-54.9-46.6-32.4-82.5,12.7-95.8S2663.9,1853.1,2663.9,1853.1Z"></path><path fill="#d1dadf" d="M2857.8,1999c-1.3-2.6-99.1-127.1-156.9-174.2,0,0,23.9,132.8,79.4,216.2C2829.2,2114.4,2897.5,2077.7,2857.8,1999Z"></path><path fill="#eef8f8" d="M2601.9,1839c2.7-2.7-89.9,20.9-212.8,9.6C2389.1,1848.6,2484,1958.6,2601.9,1839Z"></path><defs><linearGradient id="tailShadowGradient" x1="2364.15" y1="2291.47" x2="2364.15" y2="2013.47" gradientUnits="userSpaceOnUse"><stop offset="0" stop-color="gray"></stop><stop offset=".27" stop-color="#7d7d7d"></stop><stop offset=".46" stop-color="#747474"></stop><stop offset=".64" stop-color="#646464"></stop><stop offset=".8" stop-color="#4d4d4d"></stop><stop offset=".95" stop-color="#303030"></stop><stop offset="1" stop-color="#242424"></stop></linearGradient><linearGradient id="tailShadowGradient2" x1="2579.15" y1="1935.2" x2="2579.15" y2="1441.6" gradientUnits="userSpaceOnUse"><stop offset="0" stop-color="#fff" stop-opacity="0"></stop><stop offset=".72" stop-color="#fff"></stop></linearGradient><linearGradient id="tailShadowGradient3" x1="2583.8" y1="2124.84" x2="2583.8" y2="1726.66" href="#tailShadowGradient" xlink:href="#tailShadowGradient"></linearGradient></defs><g clip-path="url(#tailShadowClipPath)" style="mix-blend-mode:overlay"><path d="M2307.1 1774.1s77.1-188.9 277.1-114.6 203.7 275.7 203.7 275.7l134.3-263.7-234-212.5-344-17.4-108 123.9z" opacity=".35" fill="url(#tailShadowGradient2)" style="mix-blend-mode:overlay"></path></g><g clip-path="url(#tailShadowClipPath)" style="mix-blend-mode:multiply"><path d="M2135.9 2084.1c107 52 71.6 104 199.2 113.8 208.3 32.6 329.5-41.9 390.8-121l100.2-44.4-96 259-828-9.1 54-268.9s122.5 42.7 179.8 70.6z" opacity=".25" fill="url(#tailShadowGradient)" style="mix-blend-mode:multiply"></path><path d="M2519.6 1734.3c8.4-2.3 109.1-43.4 164.5 92.2 57.5 140.6-26.3 224.4-201.1 298.4l96.1-317.4s-20.1-11.2-61-31.6-52.7-18.9-52.7-18.9 20.5-10.4 54.2-22.7z" opacity=".25" fill="url(#tailShadowGradient3)" style="mix-blend-mode:multiply"></path></g></g></g><g id="tail"><path d="M2515.9 1770l5.8-2.2 1.6-.5 1.6-.5 3.3-1 3.3-.8 3.2-.7 3.3-.6 3.3-.5a92.5 92.5 0 0 1 26.4.8 110 110 0 0 1 25 7.6 138.2 138.2 0 0 1 22.6 12.5 169 169 0 0 1 20 16 181.2 181.2 0 0 1 17.5 18.7 139.6 139.6 0 0 1 14.5 21.4l1.5 3 1.4 3.1.3.8v.9l.6 1.4 1.1 2.9 2.2 5.8 2 6.2 1 3.1c.3 1 .7 2.1.9 3.1l1.5 6.2.8 3.1.6 3.2 1.1 6.3c.4 2.1.5 4.2.8 6.4l.4 3.2.2 1.6v1.6l.3 6.4v6.4a154.3 154.3 0 0 1-2.3 25.6l-1.2 6.3c-.5 2.1-1 4.2-1.5 6.2s-.5 2.1-.8 3.1l-.9 3.1-.9 3.1-.5 1.5-.5 1.5-2.1 6-2.4 5.9c-.8 2-1.7 3.9-2.6 5.8l-1.3 2.9-1.4 2.9a193.8 193.8 0 0 1-12.9 22 213.5 213.5 0 0 1-15.5 20.2c-2.8 3.2-5.6 6.3-8.6 9.4l-4.6 4.5-2.4 2.2-2.6 2.2.3-.3a366.6 366.6 0 0 1-68.8 51 404.9 404.9 0 0 1-38.1 19.4q-19.5 8.7-39.8 15.6l-10.2 3.3-2.5.8h-.8l-.6.2-1.3.4-5.1 1.4-10.2 2.8-10.5 2.5-5.3 1.2-5.3 1-10.5 2-10.6 1.5-5.3.7-5.3.6-10.7 1-10.7.6c-7.1.5-14.3.4-21.4.5l-10.7-.3-5.4-.2-5.3-.3-10.7-.7-10.6-1.1-5.3-.6-5.3-.7-10.6-1.5c-7-1.3-14.1-2.4-21-4-14-2.8-27.7-6.5-41.4-10.6l-10.2-3.2-10.1-3.4c-3.4-1.1-6.7-2.4-10-3.6s-6.7-2.4-10-3.8l-9.9-4-9.8-4.2-9.7-4.4-9.7-4.5c-12.8-6.1-25.4-12.7-37.8-19.6s-24.5-14.3-36.5-21.9-23.6-15.7-35-24l-34.2-24.6 9.7-3.5-35.8 140.3-4-7.5 220.6 76.5-.9-.2a866.3 866.3 0 0 0 126.3 14q31.8 1.1 63.6-.1c21.2-.8 42.3-2.5 63.4-4.9a628.3 628.3 0 0 0 62.5-10 412.3 412.3 0 0 0 60.4-18 344.9 344.9 0 0 0 56.3-27.9 331.7 331.7 0 0 0 50.1-37.9l5.8-5.3.7-.7.4-.3.3-.3 1.4-1.4 2.8-2.8c3.9-3.7 7.4-7.5 11-11.3l1.3-1.4 1.3-1.5 2.6-2.9c1.7-2 3.5-3.9 5.2-5.9 3.3-4.1 6.8-8 9.9-12.2l4.8-6.2 4.6-6.4 2.3-3.2 2.2-3.3 4.4-6.5c5.6-8.9 11.1-17.8 16-27.1 2.5-4.6 4.8-9.3 7.1-14 1.2-2.3 2.2-4.8 3.3-7.1s2.2-4.8 3.2-7.2l3-7.3 1.5-3.6 1.4-3.7 2.7-7.4 2.4-7.5c1.7-5 3-10 4.5-15.1.4-1.3.7-2.5 1-3.8l.9-3.8c.6-2.5 1.3-5.1 1.8-7.6l1.6-7.7c.2-1.3.6-2.6.7-3.9l.6-3.9 1.2-7.7.9-7.8a282.3 282.3 0 0 0 .3-62.5l-.4-3.9c-.1-1.3-.4-2.6-.5-3.9l-1.1-7.7-.3-1.9-.4-1.9-.8-3.8c-.5-2.6-.9-5.1-1.5-7.7l-1.9-7.6-.9-3.8-1.1-3.8-2.2-7.5c-.3-1.3-.8-2.5-1.2-3.7l-1.3-3.7c-13.7-39.4-36.7-75.5-64.5-106.9-7-7.8-14.4-15.3-22-22.5s-15.7-13.9-23.9-20.4-16.9-12.3-25.8-17.8l-6.7-4-3.4-2-3.5-1.8c-2.3-1.2-4.6-2.5-6.9-3.6l-7-3.4-3.6-1.6-3.6-1.5-3.6-1.5-3.6-1.4-7.3-2.7-7.4-2.4c-2.5-.8-5-1.4-7.5-2.1s-5-1.4-7.5-1.9l-7.6-1.6-7.7-1.2a183.9 183.9 0 0 0-30.9-1.9h-3.9l-3.9.3-7.7.6-7.7 1-1.9.3h-.8l-1 .2-3.9.7-3.9.7-3.7.9-3.7.8-3.8 1c-2.5.7-5 1.3-7.5 2.1s-5 1.5-7.4 2.4a238.4 238.4 0 0 0-28.8 12 265.3 265.3 0 0 0-27.2 15.4l-6.5 4.3-6.4 4.5-6.2 4.8c-2.1 1.6-4 3.3-6 5a224.5 224.5 0 0 0-22.3 21.7 177.5 177.5 0 0 0-18.6 24.7c-10.9 17.4-18.4 36.9-20.4 57.1-.2 2.5-.6 5-.5 7.6v7.6l.2 3.8v3.7l.5 4c.2 1.3.4 2.5.6 3.7s1 4.9 1.5 7.4.6 2.5.9 3.7.6 2.5 1 3.7 1.5 4.9 2.4 7.3l1.3 3.6 1.5 3.6a154.6 154.6 0 0 0 14.6 27 157 157 0 0 0 19.6 23.7c3.6 3.7 7.4 7 11.4 10.3a147.3 147.3 0 0 0 12.4 9 140.1 140.1 0 0 0 13.2 7.6 124 124 0 0 0 14 5.9 116.7 116.7 0 0 0 14.5 4 105 105 0 0 0 14.9 1.9h11.3l3.8-.3a138.1 138.1 0 0 0 15.1-2.2 144.7 144.7 0 0 0 14.8-3.8 136.8 136.8 0 0 0 14.4-5.3 118.7 118.7 0 0 0 26.2-15.3c7.9-6.1 14.7-13.6 19-22.1a42.5 42.5 0 0 0 4.2-13.3v-7.1a7.8 7.8 0 0 0-.1-.9v-.8c-.1-.6-.1-1.1-.2-1.7s-.3-2.3-.6-3.5a55 55 0 0 0-5.1-13.6 71.7 71.7 0 0 0-8.3-12.4 102 102 0 0 0-22.9-20.1 132.7 132.7 0 0 0-27.8-13.7q-7.4-2.6-15-4.5c-5.1-1.2-10.2-2.2-15.4-3a2.5 2.5 0 0 1 .6-5c21.6 1.5 43.2 7.6 62.3 18.9a106.8 106.8 0 0 1 25.9 21 81.9 81.9 0 0 1 10 13.8 65.5 65.5 0 0 1 6.5 16.1c.4 1.4.6 2.9.9 4.3s.4 3.2.6 4.6v8.8a52.1 52.1 0 0 1-4.9 17.2 68.6 68.6 0 0 1-9.6 14.7 89.8 89.8 0 0 1-12.3 11.9 128.7 128.7 0 0 1-28.7 17.4 154.4 154.4 0 0 1-31.7 10.3 151.2 151.2 0 0 1-16.6 2.5l-4.2.3-4.3.2h-8.4a118.3 118.3 0 0 1-16.8-2.1 124 124 0 0 1-16.3-4.6 137.3 137.3 0 0 1-15.5-6.6 147.7 147.7 0 0 1-14.5-8.4 160.3 160.3 0 0 1-13.4-9.9c-4.2-3.6-8.4-7.3-12.3-11.3a171.7 171.7 0 0 1-21-25.7 167.3 167.3 0 0 1-15.7-29.3l-1.6-3.9-1.4-3.9c-1-2.6-1.7-5.3-2.6-7.9s-.7-2.7-1.1-4-.7-2.7-1-4.1-1.2-5.4-1.6-8.3-.5-2.9-.7-4.2l-.5-4v-4.5l-.2-4.2v-8.4c0-2.8.3-5.6.6-8.4a135 135 0 0 1 7.6-32.6 161.5 161.5 0 0 1 14.7-29.9 190 190 0 0 1 19.9-26.4 236.9 236.9 0 0 1 23.6-22.9c2.1-1.7 4.2-3.5 6.3-5.2l6.5-5 6.7-4.8 6.8-4.6a277.8 277.8 0 0 1 28.5-16.2 250.9 250.9 0 0 1 30.3-12.6c2.6-1 5.2-1.7 7.8-2.5s5.3-1.5 7.9-2.3l4-1.1 4.1-.9 4.1-.9 4-.7 3.9-.7 1-.2h1.2l2-.3 8.2-1.1 8.2-.6 4.1-.3h4.1a196.3 196.3 0 0 1 32.9 2l8.2 1.3 8.1 1.7c2.7.5 5.3 1.3 8 2s5.3 1.3 7.9 2.2l7.8 2.5 7.7 2.8 3.8 1.5 3.8 1.6 3.8 1.6 3.7 1.7 7.4 3.5c2.5 1.2 4.8 2.5 7.3 3.8l3.6 1.9 3.5 2.1 7.1 4.1c9.3 5.7 18.2 12 26.9 18.6s16.9 13.7 24.8 21.2 15.5 15.2 22.7 23.3 14.1 16.5 20.6 25.2 12.6 17.7 18.3 27c2.8 4.7 5.6 9.3 8.2 14.2l2 3.6 1.8 3.6 1.8 3.6.5.9.3.5.2.5.9 1.9 3.4 7.4c.6 1.2 1.2 2.5 1.7 3.7l1.5 3.8 3.1 7.6c1 2.5 1.8 5.1 2.7 7.7l1.4 3.9c.5 1.3.9 2.6 1.3 3.9l2.3 7.8 1.2 3.9 1 4 1.9 8c.6 2.7 1.1 5.4 1.6 8l.8 4 .4 2 .3 2 1.2 8.1c.2 1.4.4 2.7.6 4.1l.4 4.1a294.8 294.8 0 0 1-.3 65.3l-1 8.1-1.3 8.1-.6 4c-.2 1.3-.5 2.7-.8 4l-1.6 8c-.5 2.7-1.3 5.3-1.9 7.9l-1 4c-.3 1.3-.6 2.6-1 3.9-1.5 5.2-2.9 10.5-4.6 15.6l-2.5 7.7-2.8 7.7-1.4 3.8-1.5 3.8-3.1 7.5c-1.1 2.5-2.2 5-3.3 7.4s-2.2 5-3.4 7.4c-2.4 4.9-4.7 9.8-7.4 14.5-5 9.6-10.7 18.9-16.5 28.1l-4.5 6.8-2.3 3.4-2.4 3.3-4.8 6.6-5 6.5c-3.3 4.3-6.8 8.5-10.2 12.7-1.7 2.1-3.6 4.1-5.4 6.1l-2.7 3-1.4 1.5-1.4 1.5c-3.8 4-7.5 8-11.3 11.7l-2.8 2.8-1.4 1.4-.4.4-.4.3-.8.7-6 5.5a344.1 344.1 0 0 1-51.9 39.3 357.4 357.4 0 0 1-58.3 28.9 424.8 424.8 0 0 1-62.2 18.6 640.4 640.4 0 0 1-63.9 10.3c-21.3 2.4-42.8 4.1-64.3 5s-43 .9-64.5.1a878.7 878.7 0 0 1-128.1-14.2h-.5l-.4-.2-220.6-76.5-5.4-1.9 1.4-5.6 36.2-140.2 2.3-8.8 7.4 5.3 34.2 24.6c11.3 8.3 22.8 16.1 34.5 23.7s23.7 14.7 35.8 21.5 24.5 13.3 37 19.3l9.5 4.4 9.5 4.3 9.6 4.1 9.7 3.9c3.2 1.3 6.5 2.5 9.7 3.7s6.5 2.5 9.8 3.5l9.9 3.4 9.9 3.1c13.3 4 26.7 7.6 40.3 10.4 6.8 1.5 13.6 2.6 20.4 3.9l10.3 1.5 5.1.7 5.2.5 10.3 1.1 10.4.7 5.2.3 5.2.2 10.4.3c6.9-.1 13.8 0 20.7-.5l10.4-.6 10.3-1 5.2-.5 5.1-.7 10.3-1.5 10.2-1.9 5.1-.9 5-1.2 10-2.3 10.1-2.8 5.1-1.4 1.3-.4.6-.2h.5l2.5-.8 9.9-3.2q19.7-6.7 38.7-15.2a392.4 392.4 0 0 0 37-18.8 354.1 354.1 0 0 0 65.7-49.9h.1l.2-.2 2.1-1.8 2.2-2 4.2-4.2c2.8-2.8 5.5-5.8 8.1-8.8a201 201 0 0 0 14.5-19 181.3 181.3 0 0 0 12.1-20.6l1.3-2.7 1.2-2.7c.8-1.8 1.7-3.6 2.4-5.5l2.2-5.5 2-5.6.5-1.4.4-1.4.9-2.8.9-2.8c.3-.9.5-1.9.7-2.9s1-3.8 1.4-5.8l1.1-5.8a141.8 141.8 0 0 0 2.1-23.6v-6l-.3-5.9v-1.5l-.2-1.5-.3-2.9c-.2-2-.4-3.9-.7-5.9l-1-5.8-.5-2.9-.7-2.9-1.4-5.8c-.2-1-.5-1.9-.8-2.8l-.9-2.8-1.7-5.6-2.2-5.8-1.1-2.9-.6-1.4v-.7l-.3-.6-1.2-2.6-1.3-2.5a127.3 127.3 0 0 0-13.2-19.4 164.1 164.1 0 0 0-34.8-32.2c-13-8.8-27.6-15.5-42.7-18.1a79.9 79.9 0 0 0-22.8-.7l-2.8.4-2.8.5-2.8.6-2.7.7-2.6.8-1.3.4-1.4.5-5.8 2.2a6.3 6.3 0 0 1-4.8-11.8z" fill="#31323d"></path></g></g><g clip-path="url(#kittyClipPath)"><g id="bodyFur"><clipPath id="furClipPath"><path d="M2200.5 2195.7c-43-29.4-132.4-61.7-179.8-75.5l-.8-.3a248.1 248.1 0 0 0 6.4-155.8l-174.8-568.6c14.6-15.2 23.3-25.6 23.3-25.6 42.4 27.2 109.7-3.5 137.1-18.2a3.1 3.1 0 0 0-1.5-5.9c-53.6 0-129.9-41.6-129.9-41.6 60.7 16.1 84-1.1 91.8-10.5a3.1 3.1 0 0 0-2.3-5.2c-19.6-.9-86-12.3-134.4-122.4-6.6-15.1-13.6-30-21.2-44.7-14.6-28.2-38.8-72.8-66.6-117.1l1.3-7.1 50-205.4c6.6-27.3-24.5-47.9-47-31.2L1620.9 858l-2.1 2.6-4.9-3.1A240.6 240.6 0 0 0 1559 836l-3.3-.8c10-28.5 40.9-44.3 40.9-44.3-35.9-33.7-100 19.4-100 19.4-37-35.7 17.4-102.7 17.4-102.7-64.8-29.4-112.8 85.4-112.8 85.4-4.7-56.4-86.1-64.9-86.1-64.9 27.1 29.7 13.6 82.9 13.6 82.9-38.1-37.3-110.7-2.4-110.7-2.4 29.7 2.9 48.9 15.7 60.8 28l-3 .8a240.6 240.6 0 0 0-79 39l-131-81.2c-23.3-14.4-52.1 7.3-44.7 33.7l57.5 202.6 4.2 14.9c-13.6 32.5-24.1 61.9-29.8 78.5q-5.3 15.7-12.1 30.8c-40.9 107.2-130.3 143.6-160.1 153.1a3.1 3.1 0 0 0 .1 6c20.6 5.7 72.8 17.4 111-21 0 0-37.3 51.7-83.2 70.2a3.1 3.1 0 0 0 .9 6.1c16.5 1.6 47.9.7 87.8-18.6 0 0-21.7 30.1-40.8 44.4a3.2 3.2 0 0 0 2.3 5.7c15.5-1.7 34.4-5.1 45.5-11.9l.5 12.2c.5 11.7 8.6 24.2 21.3 36.7l-107 561a248.9 248.9 0 0 0 12.6 117.5l-.6.3c-38.1 9.1-130.4 43.4-184.5 78.3-26.5 17.1-10.1 55.9 23.2 55.3l266.9-5.2q6.8 4.1 13.8 7.9l.2 3.4c.4 23.3-6.7 42.4-29.9 43.6-15.6.8-28.2 9.9-30.6 21.1-4.7 21.5 5.8 38.9 27.2 40.4l84.3 5c26.4 1.6 51.9-11.3 65.3-34.1a71.4 71.4 0 0 0 8.8-23.9l5-26.6h533.6l3.5 20.7a71.6 71.6 0 0 0 43.1 54.3 53.5 53.5 0 0 0 22.3 4l91.8-3c22-2.2 30.1-15.7 27.9-36.9-.7-6.9-6.2-24.5-24.5-25.5-15.8-.9-25.2-8.6-28.1-21.9a246.8 246.8 0 0 0 65.4-28.1l261.5 5.1c33.2.3 49.2-37.8 23.1-55.6z" fill="none"></path></clipPath><g clip-path="url(#furClipPath)"><path fill="#d1dadf" d="M18.2 11.6H2984.2V2977.46H18.2z"></path><path fill="#d1dadf" d="M731.9 563.3H2241.3V2387.39H731.9z"></path><path fill="#ffef85" d="M1993.5,1917.3c-153.7,59.5-199.1-6-199.1-6,62.2-126.1,77.5-194.4,77.5-194.4-130.5,111.1-222.7,159.7-222.7,159.7,46.7-136.9,164.6-284.5,164.6-284.5-7.8,5.9-185.9,94.9-305,204.9-.6.5-1.6,2.2-4.9-1-17.7-17.2-29.3-24.9-54.6-49h0c-25.2,24.1-36.9,31.8-54.6,49-3.3,3.2-4.3,1.5-4.9,1-119-110-297.1-199-305-204.9,0,0,118,147.6,164.6,284.5,0,0-92.2-48.6-222.7-159.7,0,0,15.4,68.3,77.5,194.4,0,0-45.3,65.5-199.1,6,0,0-131.9-4-66.4,210.3l6.6,15,91.2-31.5s-47.2,52.2-51.2,82.5c0,0,99.6,10.6,157.1,56.5l13.9,7.9-4.9-124.8s30-9,63,15.1c6.8,5-35.9-116.4-31-111.1,23,25,77.9,96.6,128,100l14.6-72c135.4,50,160.1,50.1,160.1,50.1s-22.7-24.8-58.3-63.1c-14.2-15.2-87.7-95.8-89.1-107.7,43.3,13.4,87.1,21.4,87.1,21.4l26.1-29a1334.2,1334.2,0,0,0-69.8-133.2c4.6,4.4,46.8,23.8,112.4,80.7l54.8-60.4,54.8,60.4c65.6-56.9,107.9-76.3,112.4-80.7a1359.6,1359.6,0,0,0-69.8,133.2l26.2,29s43.7-8,87-21.4c-1.3,11.9-74.9,92.5-89,107.7-35.6,38.3-58.4,63.1-58.4,63.1s28.8-.1,164.1-50.1l10.7,72c50-3.4,105-75,128-100,4.8-5.3-37.9,116.1-31,111.1,33-24.1,76.2-14.2,76.2-14.2l-10.6,113.3V2269c21.4,17.5,129.6-79.5,129.6-79.5,17.3-16.3,29.3-44,29.3-44l20.4-55.2,56.7,16.8C2151.5,1892.8,1993.5,1917.3,1993.5,1917.3Z"></path><path fill="#eef8f8" d="M1196.9,2198.1c24.1-6.9,110.4-31.2,120.4-31.2,0,0-20.4,79.8-126.6,165.9l-18.2-11.3Z"></path><path fill="#ffef85" d="M1390.1,2329.5c-8-92.1-18.9-136-18.9-136-10,16.9-95.2,136-95.2,136Z"></path><path fill="#eef8f8" d="M979.2,1671.1s-.3,114.7,66.6,214.8c0,0-107.6-37.9-153.8-81.3-60.2-56.5-35.6-100.1,13.9-116.1S979.2,1671.1,979.2,1671.1Z"></path><path fill="#ffef85" d="M966.3,1647.5c48,32.5,115.4,75.7,159.9,94.5,0,0-58.2-117.4-134.9-189.9-4.6-4.4-38.5-31.5-63.7,15.2C916.9,1587.2,933.5,1625.3,966.3,1647.5Z"></path><path fill="#ffef85" d="M1070.2,1513.5c-4.2.2,170.6,99.2,260.9,202.4C1331.1,1715.9,1256.7,1507.6,1070.2,1513.5Z"></path><path fill="#ffef85" d="M1508.3,2329.5c8-92.1,18.9-136,18.9-136,9.9,16.9,95.2,136,95.2,136Z"></path><path fill="#eef8f8" d="M1463.2,2205.3v-.2c.1-1.4.1-2.8.2-4.2v-.6c.1-1.3.1-2.6.2-3.9v-.7c.1-1.3.1-2.6.2-3.8v-.8l.3-3.7v-.9c.1-1.2.2-2.5.2-3.7a1.9,1.9,0,0,0,.1-.8l.3-3.8v-.7l.3-4.2v-.2c.3-4.5.8-8.9,1.2-13.2a2.8,2.8,0,0,0,.1-.9c.2-1.1.3-2.3.4-3.4s.1-.8.2-1.3l.3-2.8a7.7,7.7,0,0,0,.2-1.5,25.1,25.1,0,0,0,.4-2.7,7.7,7.7,0,0,0,.2-1.5c.2-.9.3-1.7.4-2.5l.3-1.7.3-2.4.3-1.6a18.5,18.5,0,0,0,.4-2.3l.3-1.7c.2-.7.3-1.5.5-2.2l.3-1.6c.1-.8.3-1.5.4-2.3a8.3,8.3,0,0,1,.4-1.5.6.6,0,0,1,.1-.4c96.7-103.8,110.9-134.4,110.9-134.4a437.5,437.5,0,0,0-48.2,18.1c-1-10.8-85.2-136.7-85.2-136.7h0l-5.2,7.5s-79.2,118.4-80.2,129.2a437.5,437.5,0,0,0-48.2-18.1s14.2,30.6,110.9,134.4a.6.6,0,0,1,.1.4,8.3,8.3,0,0,0,.4,1.5c.1.8.3,1.5.4,2.3l.3,1.6c.2.7.3,1.5.5,2.2l.3,1.7a18.5,18.5,0,0,0,.4,2.3,8.8,8.8,0,0,1,.2,1.7,15.7,15.7,0,0,1,.4,2.3l.3,1.7c.1.8.2,1.6.4,2.5a7.7,7.7,0,0,0,.2,1.5l.3,2.7a7.7,7.7,0,0,1,.2,1.5,27,27,0,0,1,.4,2.8c.1.5.1.9.2,1.3l.3,3.4c.1.3.1.6.2.9.4,4.3.9,8.7,1.2,13.2v.2c.2,1.4.3,2.8.4,4.2v.7l.3,3.8v.8l.3,3.7v.9c.1,1.2.2,2.4.2,3.7a1.9,1.9,0,0,1,.1.8c0,1.2.1,2.5.2,3.8v.7c.1,1.3.1,2.6.2,3.9v.6c.1,1.4.1,2.8.2,4.2v.2c2.1,63-3.4,124.2-3.4,124.2h34.8S1461.1,2268.3,1463.2,2205.3Z"></path><path fill="#ffef85" d="M1424.3,535.1c231.8,0,215.1,214.9,215.1,214.9,3.3,1.8-13.9,140.6-122,214.6,0,0-11.6-44.1-22.2-71.9,0,0-10.6,97.7-32.8,130.5,0,0-2.8-84.9-18.8-113.9,0,0,8.2,72.4-10.1,103.2,0,0-15,25.6-19.3,25.6h-5c-4.3,0-19.3-25.6-19.3-25.6-18.3-30.8-10.1-103.2-10.1-103.2-16,29-18.8,113.9-18.8,113.9-22.2-32.8-32.8-130.5-32.8-130.5-10.6,27.8-22.2,71.9-22.2,71.9-108.1-74-125.3-212.8-122-214.6,0,0-16.8-214.9,215.1-214.9Z"></path><path fill="#eef8f8" d="M1707.7,2332.8c-106.2-86.1-126.6-165.9-126.6-165.9,9.7,0,91.3,22.9,118.2,30.5,5.3,1.6-2.6,27.2-2.6,27.2l10.8,11.3,17.9,89.1Z"></path><path fill="#ffef85" d="M1508.3,2329.5c8-92.1,18.9-136,18.9-136,9.9,16.9,95.2,136,95.2,136Z"></path><path fill="#eef8f8" d="M1961.8,1718.1c-12.2-.1-12.4-5.2-13.2-2-10.4,41.8-53.3,105.8-96,169.8,0,0,107.5-37.9,153.8-81.3,60.1-56.5,36.3-102.6-13.9-116.1C1987.2,1703.5,1975.5,1718.3,1961.8,1718.1Z"></path><path fill="#ffef85" d="M1989.5,1607.1c-2.1,2.3-142.4,103.1-217.3,134.9,0,0,65.4-131.9,148.9-202.5C1994.6,1477.4,2055,1536.7,1989.5,1607.1Z"></path><path fill="#ffef85" d="M1828.2,1513.5c4.2.2-170.6,99.2-260.9,202.4C1567.3,1715.9,1641.7,1507.6,1828.2,1513.5Z"></path><path fill="#ffef85" d="M920.7,2083.5s21.9,128,127.9,164.8v13.9H729.3V2163Z"></path><path fill="#ffef85" d="M2030.9,2083.5s-21.9,128-127.9,164.8v13.9h319.3V2163Z"></path></g></g><g id="shadow" style="mix-blend-mode:multiply"><defs><clipPath id="shadowClipPath"><path d="M2200.5 2195.7c-43-29.4-132.4-61.7-179.8-75.5l-.8-.3a248.1 248.1 0 0 0 6.4-155.8l-174.8-568.6c14.6-15.2 23.3-25.6 23.3-25.6 42.4 27.2 109.7-3.5 137.1-18.2a3.1 3.1 0 0 0-1.5-5.9c-53.6 0-129.9-41.6-129.9-41.6 60.7 16.1 84-1.1 91.8-10.5a3.1 3.1 0 0 0-2.3-5.2c-19.6-.9-86-12.3-134.4-122.4-6.6-15.1-13.6-30-21.2-44.7-14.6-28.2-38.8-72.8-66.6-117.1l1.3-7.1 50-205.4c6.6-27.3-24.5-47.9-47-31.2L1620.9 858l-2.1 2.6-4.9-3.1A240.6 240.6 0 0 0 1559 836l-3.3-.8c10-28.5 40.9-44.3 40.9-44.3-35.9-33.7-100 19.4-100 19.4-37-35.7 17.4-102.7 17.4-102.7-64.8-29.4-112.8 85.4-112.8 85.4-4.7-56.4-86.1-64.9-86.1-64.9 27.1 29.7 13.6 82.9 13.6 82.9-38.1-37.3-110.7-2.4-110.7-2.4 29.7 2.9 48.9 15.7 60.8 28l-3 .8a240.6 240.6 0 0 0-79 39l-131-81.2c-23.3-14.4-52.1 7.3-44.7 33.7l57.5 202.6 4.2 14.9c-13.6 32.5-24.1 61.9-29.8 78.5q-5.3 15.7-12.1 30.8c-40.9 107.2-130.3 143.6-160.1 153.1a3.1 3.1 0 0 0 .1 6c20.6 5.7 72.8 17.4 111-21 0 0-37.3 51.7-83.2 70.2a3.1 3.1 0 0 0 .9 6.1c16.5 1.6 47.9.7 87.8-18.6 0 0-21.7 30.1-40.8 44.4a3.2 3.2 0 0 0 2.3 5.7c15.5-1.7 34.4-5.1 45.5-11.9l.5 12.2c.5 11.7 8.6 24.2 21.3 36.7l-107 561a248.9 248.9 0 0 0 12.6 117.5l-.6.3c-38.1 9.1-130.4 43.4-184.5 78.3-26.5 17.1-10.1 55.9 23.2 55.3l266.9-5.2q6.8 4.1 13.8 7.9l.2 3.4c.4 23.3-6.7 42.4-29.9 43.6-15.6.8-28.2 9.9-30.6 21.1-4.7 21.5 5.8 38.9 27.2 40.4l84.3 5c26.4 1.6 51.9-11.3 65.3-34.1a71.4 71.4 0 0 0 8.8-23.9l5-26.6h533.6l3.5 20.7a71.6 71.6 0 0 0 43.1 54.3 53.5 53.5 0 0 0 22.3 4l91.8-3c22-2.2 30.1-15.7 27.9-36.9-.7-6.9-6.2-24.5-24.5-25.5-15.8-.9-25.2-8.6-28.1-21.9a246.8 246.8 0 0 0 65.4-28.1l261.5 5.1c33.2.3 49.2-37.8 23.1-55.6z" fill="none"></path></clipPath><linearGradient id="shadowGradient" x1="1721.47" y1="787.6" x2="1721.47" y2="997.24" gradientUnits="userSpaceOnUse"><stop offset="0" stop-color="gray"></stop><stop offset=".14" stop-color="#797979"></stop><stop offset=".35" stop-color="#646464"></stop><stop offset=".6" stop-color="#434343"></stop><stop offset=".89" stop-color="#141414"></stop><stop offset="1"></stop></linearGradient><linearGradient id="shadowGradient2" x1="1027.09" y1="934.24" x2="1148.15" y2="934.24" href="#shadowGradient" xlink:href="#shadowGradient"></linearGradient></defs><g clip-path="url(#shadowClipPath)"><path d="M1020.9 1433.2c-5.4 0 42.7 35.7 61.5 45.6-25.2 6.1-37.3 68.9-37.4 69.2-20.1 133.2-33.5 328-39.9 378.8a910.2 910.2 0 0 0-6.8 98.4v3.4c23.5 26 47.6 88.8 52.6 176.8l1.3 49s-31.3-.8-81-.8c-62 0-110.8-111.7-79.2-278.2M959.5 1395.5a100.4 100.4 0 0 0 47.6-29 3.4 3.4 0 0 1 5.7 3.2 191.6 191.6 0 0 1-19.6 45.2 5.2 5.2 0 0 1-2 2.2 1.8 1.8 0 0 1-2.5-.7M910.2 1367.1c17.1-4.7 33.2-12.3 49.2-19.9s33.3-16 46.5-27.9a3.4 3.4 0 0 1 5.3 4 132.6 132.6 0 0 1-43.9 49.6M884.9 1312.7c27.6-3.1 55-9.4 80.3-20.8 19.8-8.9 36-22.6 52-37.5a1.7 1.7 0 0 1 2.5 2.2q-13.6 18.2-28.5 35.4c-11.2 12.9-23.9 26.1-40.6 29.7" fill="#7f7f7f" opacity=".2" style="mix-blend-mode:multiply"></path><path d="M1796.7 801.2s-17.5-43.2-81.6 24.2c-33.7 40.5-68.9 54-68.9 54L1749 997.2z" opacity=".4" fill="url(#shadowGradient)" style="mix-blend-mode:multiply"></path><path d="M1027.9 853.3s-9.4-38.9 34.7-20.8c18.5 7.6 50.7 40.6 63.5 56l22 35-65.3 117.3z" opacity=".4" fill="url(#shadowGradient2)" style="mix-blend-mode:multiply"></path><path d="M1226.5 2040.4c-24.3 147.7 54.3 178.3 68.5 181.6 86.5 15.5 223.8 8.8 268.5-7 41.8-14.8 129.9-58.5 108-189.5l43 256.8h-533.6z" fill="#7f7f7f" opacity=".15" style="mix-blend-mode:multiply"></path><path d="M1854.3 2157.4s29.9-91.4 66.3-124.9c-39.4 75 14.1 92.7 28.1 87.7 53.7-19.2 75-66.7 79.2-150l65.3 116.3s-55 256-204 214l-38.7-18.1zM1280.9 847.4a118.7 118.7 0 0 1 28.6 36.3 4.6 4.6 0 0 0 8.8-2.3c-.9-15.5-3.8-30.6-11.8-43.7-15.6-25.4-48.4-36.7-78-32.8-7.6 1-15.8 2.8-22.5-.9M1325 802.3a285.5 285.5 0 0 1 18.7 59.9 4.6 4.6 0 0 0 8.9.8c7.8-20.8 11.4-43.1 8.7-65.1-3.3-27.2-16.8-53.6-38.7-70.1-4.8-3.6-10.7-6.9-16.5-5.3M1401.1 775.5a178.8 178.8 0 0 0 .2 34.4 4.6 4.6 0 0 0 9 1.1c8.4-22.4 22.3-42.7 39.3-59.6 21.8-21.6 48.6-37.7 76.8-49.6-21.7-13.9-51.2-14.2-73.2-.8-7.4 4.5-14.1 10.8-16.8 19M1502.4 779.4a359.3 359.3 0 0 0-10.2 53.5 4.6 4.6 0 0 0 8 3.7c25.1-27 62-42.9 98.9-41.9 2.1.1 4.5.1 5.6-2.8a6.8 6.8 0 0 0 .3-3.4c-1.5-9.9-9.3-17.6-18-22.3a56.2 56.2 0 0 0-45.6-3.3" fill="#7f7f7f" opacity=".2" style="mix-blend-mode:multiply"></path><path d="M1087.2 1037.5s44.1-157.9 191.6-200.7l17 25.4c-81.5 23.6-167.5 135.3-182.2 181.3s-55.7 135.7-124.7 198.5" fill="#7f7f7f" opacity=".2" style="mix-blend-mode:multiply"></path></g></g><g id="highlight" style="mix-blend-mode:overlay"><defs><clipPath id="highlightClipPath"><path d="M2200.5 2195.7c-43-29.4-132.4-61.7-179.8-75.5l-.8-.3a248.1 248.1 0 0 0 6.4-155.8l-174.8-568.6c14.6-15.2 23.3-25.6 23.3-25.6 42.4 27.2 109.7-3.5 137.1-18.2a3.1 3.1 0 0 0-1.5-5.9c-53.6 0-129.9-41.6-129.9-41.6 60.7 16.1 84-1.1 91.8-10.5a3.1 3.1 0 0 0-2.3-5.2c-19.6-.9-86-12.3-134.4-122.4-6.6-15.1-13.6-30-21.2-44.7-14.6-28.2-38.8-72.8-66.6-117.1l1.3-7.1 50-205.4c6.6-27.3-24.5-47.9-47-31.2L1620.9 858l-2.1 2.6-4.9-3.1A240.6 240.6 0 0 0 1559 836l-3.3-.8c10-28.5 40.9-44.3 40.9-44.3-35.9-33.7-100 19.4-100 19.4-37-35.7 17.4-102.7 17.4-102.7-64.8-29.4-112.8 85.4-112.8 85.4-4.7-56.4-86.1-64.9-86.1-64.9 27.1 29.7 13.6 82.9 13.6 82.9-38.1-37.3-110.7-2.4-110.7-2.4 29.7 2.9 48.9 15.7 60.8 28l-3 .8a240.6 240.6 0 0 0-79 39l-131-81.2c-23.3-14.4-52.1 7.3-44.7 33.7l57.5 202.6 4.2 14.9c-13.6 32.5-24.1 61.9-29.8 78.5q-5.3 15.7-12.1 30.8c-40.9 107.2-130.3 143.6-160.1 153.1a3.1 3.1 0 0 0 .1 6c20.6 5.7 72.8 17.4 111-21 0 0-37.3 51.7-83.2 70.2a3.1 3.1 0 0 0 .9 6.1c16.5 1.6 47.9.7 87.8-18.6 0 0-21.7 30.1-40.8 44.4a3.2 3.2 0 0 0 2.3 5.7c15.5-1.7 34.4-5.1 45.5-11.9l.5 12.2c.5 11.7 8.6 24.2 21.3 36.7l-107 561a248.9 248.9 0 0 0 12.6 117.5l-.6.3c-38.1 9.1-130.4 43.4-184.5 78.3-26.5 17.1-10.1 55.9 23.2 55.3l266.9-5.2q6.8 4.1 13.8 7.9l.2 3.4c.4 23.3-6.7 42.4-29.9 43.6-15.6.8-28.2 9.9-30.6 21.1-4.7 21.5 5.8 38.9 27.2 40.4l84.3 5c26.4 1.6 51.9-11.3 65.3-34.1a71.4 71.4 0 0 0 8.8-23.9l5-26.6h533.6l3.5 20.7a71.6 71.6 0 0 0 43.1 54.3 53.5 53.5 0 0 0 22.3 4l91.8-3c22-2.2 30.1-15.7 27.9-36.9-.7-6.9-6.2-24.5-24.5-25.5-15.8-.9-25.2-8.6-28.1-21.9a246.8 246.8 0 0 0 65.4-28.1l261.5 5.1c33.2.3 49.2-37.8 23.1-55.6z" fill="none"></path></clipPath><linearGradient id="highlightGradient" x1="1982.16" y1="2256.39" x2="1982.16" y2="1369.83" gradientUnits="userSpaceOnUse"><stop offset="0" stop-color="#fff" stop-opacity="0"></stop><stop offset=".72" stop-color="#fff"></stop></linearGradient><linearGradient id="highlightGradient2" x1="2116.32" y1="2248.97" x2="2116.32" y2="2113.28" href="#highlightGradient" xlink:href="#highlightGradient"></linearGradient><linearGradient id="highlightGradient3" x1="1044.74" y1="2253.08" x2="1044.74" y2="2117.39" gradientTransform="matrix(-1 0 0 1 1878.82 0)" href="#highlightGradient" xlink:href="#highlightGradient"></linearGradient><linearGradient id="highlightGradient4" x1="1841.6" y1="1322.67" x2="2023.46" y2="1322.67" href="#highlightGradient" xlink:href="#highlightGradient"></linearGradient><linearGradient id="highlightGradient5" x1="1540.47" y1="1061.99" x2="1985.64" y2="1061.99" href="#highlightGradient" xlink:href="#highlightGradient"></linearGradient><linearGradient id="highlightGradient6" x1="916.62" y1="1844.05" x2="1050.67" y2="1844.05" href="#highlightGradient" xlink:href="#highlightGradient"></linearGradient></defs><g clip-path="url(#highlightClipPath)" opacity=".3"><path d="M1822.2 1426.8c65.5 192.8 120.8 423.9 147.8 543.6 46.1 204.7-81.2 286-81.2 286l61.1-35.5s63-74.8 72.5-107.6c20.8-71.9 139-33 117.2-147.7-31.7-166.5-264.8-595.8-264.8-595.8s-53.8 53.6-52.6 57z" fill="url(#highlightGradient)" style="mix-blend-mode:overlay"></path><path d="M1999.2 2162.4s113.2 21.1 98.4 83.6l92.6 3 43.3-6.5-4.3-68.5-206.8-60.7z" fill="url(#highlightGradient2)"></path><path d="M951.2 2166.5s-113.2 21.1-98.4 83.6l-92.6 3-43.3-6.5 4.3-68.5 206.8-60.7z" opacity=".7" fill="url(#highlightGradient3)"></path><path d="M1898.6 1313.5a235 235 0 0 1-53.2-24.9 2.4 2.4 0 0 0-3.2 3.6c27.3 32 63 57.8 104.3 63.6 19.5 2.7 39.3.9 58.9-1.1 6.3-.6 12.9-1.4 18-5.2" fill="url(#highlightGradient4)" style="mix-blend-mode:overlay"></path><path d="M1985.6 1289.8a142.1 142.1 0 0 1-45.5 1c-43.6-6.1-82.5-32.5-111.3-65.8s-43.7-73.3-61.6-113.5a1039.6 1039.6 0 0 0-62.4-118.9 385.5 385.5 0 0 0-119.4-121.9c-8-5.1-39.4-16.4-45-24 0 0-.7-5 4.8-12.7s38.4 6.5 46.3 11c96 55 89.3 67 132.5 130 37.1 54.2 90.1 146.5 126.3 221.4" fill="url(#highlightGradient5)" style="mix-blend-mode:overlay"></path><path d="M1041.7 1452l-93.6 502.5s-53.5 175 102.2 279l.3 20.2s-124.5-57.2-133.5-215.2 100-604 100-604z" fill="url(#highlightGradient6)" style="mix-blend-mode:overlay"></path></g></g><g id="bodyMask"><path d="M2200.5 2195.7c-43-29.4-132.4-61.7-179.8-75.5l-.8-.3a248.1 248.1 0 0 0 6.4-155.8l-174.8-568.6c14.6-15.2 23.3-25.6 23.3-25.6 42.4 27.2 109.7-3.5 137.1-18.2a3.1 3.1 0 0 0-1.5-5.9c-53.6 0-129.9-41.6-129.9-41.6 60.7 16.1 84-1.1 91.8-10.5a3.1 3.1 0 0 0-2.3-5.2c-19.6-.9-86-12.3-134.4-122.4-6.6-15.1-13.6-30-21.2-44.7-14.6-28.2-38.8-72.8-66.6-117.1l1.3-7.1 50-205.4c6.6-27.3-24.5-47.9-47-31.2L1620.9 858l-2.1 2.6-4.9-3.1A240.6 240.6 0 0 0 1559 836l-3.3-.8c10-28.5 40.9-44.3 40.9-44.3-35.9-33.7-100 19.4-100 19.4-37-35.7 17.4-102.7 17.4-102.7-64.8-29.4-112.8 85.4-112.8 85.4-4.7-56.4-86.1-64.9-86.1-64.9 27.1 29.7 13.6 82.9 13.6 82.9-38.1-37.3-110.7-2.4-110.7-2.4 29.7 2.9 48.9 15.7 60.8 28l-3 .8a240.6 240.6 0 0 0-79 39l-131-81.2c-23.3-14.4-52.1 7.3-44.7 33.7l57.5 202.6 4.2 14.9c-13.6 32.5-24.1 61.9-29.8 78.5q-5.3 15.7-12.1 30.8c-40.9 107.2-130.3 143.6-160.1 153.1a3.1 3.1 0 0 0 .1 6c20.6 5.7 72.8 17.4 111-21 0 0-37.3 51.7-83.2 70.2a3.1 3.1 0 0 0 .9 6.1c16.5 1.6 47.9.7 87.8-18.6 0 0-21.7 30.1-40.8 44.4a3.2 3.2 0 0 0 2.3 5.7c15.5-1.7 34.4-5.1 45.5-11.9l.5 12.2c.5 11.7 8.6 24.2 21.3 36.7l-107 561a248.9 248.9 0 0 0 12.6 117.5l-.6.3c-38.1 9.1-130.4 43.4-184.5 78.3-26.5 17.1-10.1 55.9 23.2 55.3l266.9-5.2q6.8 4.1 13.8 7.9l.2 3.4c.4 23.3-6.7 42.4-29.9 43.6-15.6.8-28.2 9.9-30.6 21.1-4.7 21.5 5.8 38.9 27.2 40.4l84.3 5c26.4 1.6 51.9-11.3 65.3-34.1a71.4 71.4 0 0 0 8.8-23.9l5-26.6h533.6l3.5 20.7a71.6 71.6 0 0 0 43.1 54.3 53.5 53.5 0 0 0 22.3 4l91.8-3c22-2.2 30.1-15.7 27.9-36.9-.7-6.9-6.2-24.5-24.5-25.5-15.8-.9-25.2-8.6-28.1-21.9a246.8 246.8 0 0 0 65.4-28.1l261.5 5.1c33.2.3 49.2-37.8 23.1-55.6z" fill="none"></path></g><g id="body"><path fill="none" stroke="#31323d" stroke-width="12.5" stroke-miterlimit="10" d="M1620.8 858.1l131.2-97.4c22.5-16.7 53.7 3.9 47 31.2l-50 205.4-1.3 7.1m-550.9-127.9l-131-81.2c-23.3-14.4-52.1 7.3-44.7 33.7l57.5 202.6 4.2 14.9" stroke-linecap="round"></path><path fill="#fff" stroke="#31323d" stroke-width="12.5" stroke-miterlimit="10" d="M1714.5 2282.4h-533.6" stroke-linecap="round"></path><path fill="none" stroke="#31323d" stroke-width="12.5" stroke-miterlimit="10" d="M1851.5 1395.4l174.8 568.6c39 137.9-45.2 275-175.8 309.9m-799.8-20.2c-89.2-47.1-145.7-146.2-131.5-254.1l106.3-558.8" stroke-linecap="round"></path><path fill="#31323d" d="M1228.6 2040.8c-1.7 15.3-3.8 30.4-6 45.6l-3.5 22.7-3.8 22.6c-2.6 15.1-5.4 30.1-8.1 45.2l-8.3 45.1-16.6 90.3a76.3 76.3 0 0 1-3.5 12.1 77.5 77.5 0 0 1-5.4 11.4 75.5 75.5 0 0 1-16 19.4 78.7 78.7 0 0 1-45.9 18.8l-6.3.2h-6.1l-11.5-.7-22.9-1.3-45.8-2.8h-4.7l-1.8-.3a44.1 44.1 0 0 1-6.7-1.7 35.7 35.7 0 0 1-12.3-7.3 34.7 34.7 0 0 1-8.3-11.7 40.4 40.4 0 0 1-3.1-13.5 50.7 50.7 0 0 1 1-13.2l.2-.8v-1.7l.3-1.1a26.9 26.9 0 0 1 1.5-3.6 30.2 30.2 0 0 1 4.1-6.2 37.9 37.9 0 0 1 11-8.8 45.9 45.9 0 0 1 12.7-4.5 49 49 0 0 1 6.6-.9l2.7-.2 2.1-.3a22 22 0 0 0 4.3-1.2 18.5 18.5 0 0 0 3.8-1.9c4.6-3 7.7-8.4 9.4-14.8a70.5 70.5 0 0 0 1.8-20.8l-.9-22.9-1.9-45.9c-.6-15.3-1.3-30.6-1.8-45.9v.5c-.6-5-1.3-9.9-2-14.9-.4-2.5-.8-4.9-1.2-7.4s-.9-4.9-1.4-7.3-1-4.9-1.6-7.3l-1.8-7.2q-1.9-7.2-4.4-14.2c-.8-2.3-1.7-4.6-2.6-6.9s-1.8-4.6-2.9-6.8l-1.5-3.4-1.6-3.3-1.7-3.3-1.8-3.3-1.8-3.2-1.9-3.2-4-6.3c-1.4-2.1-2.8-4.1-4.3-6.2l-2.2-3-2.3-3a2.2 2.2 0 0 1 3.4-2.9l5.4 5.6q2.6 2.9 5.1 5.9c1.7 2 3.3 4 4.8 6.1l2.3 3.2 2.2 3.2c1.5 2.2 2.9 4.3 4.2 6.6l2 3.4 1.9 3.4q1.9 3.4 3.5 7c1.1 2.4 2.2 4.7 3.2 7.2q3 7.2 5.4 14.7c1.6 5 3 10 4.2 15q.9 3.8 1.7 7.6c.5 2.5 1.1 5.1 1.5 7.6.9 5.1 1.7 10.2 2.4 15.3v.5c.9 15.3 1.6 30.6 2.4 45.8l2.3 45.8 1.1 22.9a94.4 94.4 0 0 1-.1 12.3 71.8 71.8 0 0 1-1.9 12.5 54.5 54.5 0 0 1-2 6.3 42.8 42.8 0 0 1-3.1 6.2 33.3 33.3 0 0 1-9.8 10.4 35.1 35.1 0 0 1-13.2 5.3l-3.5.5-3 .2a35 35 0 0 0-4.7.6 31.9 31.9 0 0 0-8.8 3.2 23.9 23.9 0 0 0-6.9 5.5 16.1 16.1 0 0 0-2.2 3.3 13 13 0 0 0-1.2 3.7 36.6 36.6 0 0 0-.7 9.6 26.2 26.2 0 0 0 2 8.7 20.4 20.4 0 0 0 4.9 6.9 21.4 21.4 0 0 0 7.3 4.3 30.1 30.1 0 0 0 4.4 1.1l1 .2h3.9l45.8 2.7 22.9 1.4 11.5.7h10.5a64.5 64.5 0 0 0 37.6-15.2 61.4 61.4 0 0 0 13.1-15.7 65 65 0 0 0 7.4-19.2l17.4-90.1 8.7-45.1c2.9-15 5.8-30 8.8-45l4.7-22.5 5-22.4c3.4-14.9 7-29.8 11-44.6a2.2 2.2 0 0 1 4.9.6z"></path><path fill="#31323d" d="M1095.2 2319.6h-.5l-1.7.2a18.6 18.6 0 0 0-5.8 2 22.5 22.5 0 0 0-6.7 5.5 30.2 30.2 0 0 0-2.9 4 38.9 38.9 0 0 0-2.4 4.6l-.5 1.2-.5 1.2-.5 1.2-.4 1.3c-.5 1.7-.9 3.4-1.3 5l-.5 2.4c-.2.8-.3 1.6-.4 2.4s-.4 3-.6 4.4-.2 2.6-.3 3.7-.1 2.1-.2 2.9v2.7a6.3 6.3 0 1 1-12.5-.6 6.9 6.9 0 0 1 .1-.8l.5-2.7c.2-.9.3-1.9.6-3.1s.5-2.6.9-4.1.8-3.1 1.3-4.8l.8-2.6.9-2.7c.7-1.8 1.4-3.7 2.3-5.5l.6-1.4.7-1.4.7-1.4.8-1.4a46.9 46.9 0 0 1 3.6-5.2 37.5 37.5 0 0 1 4.2-4.5 28.8 28.8 0 0 1 9.4-5.8 23.9 23.9 0 0 1 7.7-1.5h3.1a2.2 2.2 0 1 1-.5 4.8zm-42.5-4.7h-.6l-1.6.4-2.5.9-.7.3-.8.4-1.6.9-1.7 1.1-1.7 1.3-.9.7-.8.8-1.6 1.7-1.5 2-.7 1-.6 1.1-1.3 2.2-1.1 2.4c-.3.8-.7 1.6-1 2.4l-.8 2.5-.8 2.4-.6 2.5a42.3 42.3 0 0 0-1 4.7l-.6 4.3a35.4 35.4 0 0 0-.3 3.7l-.2 2.8-.2 2.5v.4a6.3 6.3 0 1 1-12.5-.8 6.9 6.9 0 0 1 .1-.8l.5-2.7.6-3.1c.3-1.2.4-2.5.9-4l1.3-4.7a51.3 51.3 0 0 1 1.8-5.2l1-2.7 1.3-2.7 1.3-2.7c.5-.9 1.1-1.8 1.6-2.7l1.7-2.6 1.9-2.4.9-1.2 1.1-1.1 2.1-2.1 2.2-1.8 1.1-.9 1.2-.7 2.2-1.4 2.2-1.1 2.1-.8 1-.4 1-.3a26.5 26.5 0 0 1 3.2-.7l2.2-.2h.8a2.2 2.2 0 1 1 .4 4.4zm621-289.7l2.2 9.4c1.4 6.1 3.4 15.1 5.8 26.6 1.2 5.7 2.5 12.1 3.9 19l4.4 22.5 4.8 25.6 5 28.4 23.3 135.3c1.1 6.1 2 12.8 3.6 17.8a63.3 63.3 0 0 0 7.2 15.7 65.1 65.1 0 0 0 25.9 23.4l4.1 1.9 1.1.4 1 .4 2 .7a45.4 45.4 0 0 0 8.4 1.7l4.3.3h4.6l10-.3 40.1-1.4 39.4-1.2 2.5-.3 1.2-.2.9-.2 1.9-.4 1.9-.6a21.7 21.7 0 0 0 6.5-3.5 17 17 0 0 0 4.3-5.4c.2-.6.6-1.1.7-1.7l.6-1.8a30.4 30.4 0 0 0 .8-3.9 37.8 37.8 0 0 0 .4-4.1v-2.1s0-1.4-.1-2.2l-.2-2.2v-.3a.3.3 0 1 1 0-.1v-1.6l-.2-.8-.2-.9c-.1-.6-.4-1.3-.6-1.9-1.7-5-4.7-9.3-8.4-11.7a17.3 17.3 0 0 0-6.4-2.3l-1.8-.2-2.6-.2h-1.2l-1.5-.2-2.9-.5a39.5 39.5 0 0 1-10.9-4.2 30.1 30.1 0 0 1-9.1-8 34 34 0 0 1-5.3-10.4 47.2 47.2 0 0 1-1.9-10.7c-.1-.9-.1-1.7-.1-2.6v-7.2l.2-9.1.8-35.4.2-8.6v-4.6l.3-4.2.3-4.2c.1-1.4.2-2.7.4-4.2l1-8.4a250.4 250.4 0 0 1 6.4-31.5 277 277 0 0 1 9.1-28l2.7-6.4c.9-2.1 1.7-4.2 2.7-6.2l2.8-5.9c.9-1.9 1.8-3.9 2.8-5.7l2.9-5.4 1.4-2.6 1.5-2.5 2.9-4.9c.9-1.6 1.8-3.2 2.8-4.7l5.6-8.7 5.4-7.7 2.6-3.5 2.5-3.2c1.6-2.1 3.1-4.1 4.6-5.8l4.1-4.9 3.5-4 6.6-7.1a2.2 2.2 0 0 1 3.4 2.8l-5.6 7.8c-3.6 5.1-8.8 12.6-14.9 22.5l-4.7 7.8-4.8 8.8c-.9 1.5-1.7 3.1-2.5 4.7l-2.5 4.9-1.3 2.5-1.2 2.6-2.5 5.4a290.9 290.9 0 0 0-17.7 50.6l-.9 3.6-.4 1.8-.4 1.8-1.5 7.4-.4 1.9-.3 1.9-.6 3.8-.6 3.9-.3 1.9-.2 1.9-.9 7.8c-.2 1.3-.2 2.7-.3 4.1l-.3 4.2-.3 4.2v12.5l-.5 35.4v15.8s0 1.4.1 2a33.7 33.7 0 0 0 1.4 7.5 20.3 20.3 0 0 0 3.2 6.2c2.7 3.6 6.9 5.8 12 6.9l1.8.3.9.2h1.2l2.2.2 3 .3a31.3 31.3 0 0 1 11.7 4.2 31.8 31.8 0 0 1 9 8.5 40.3 40.3 0 0 1 5.4 10.5c.3.9.6 1.8.8 2.8l.4 1.4.3 1.6v2.9l.2 2.7c.1.9.1 1.8.1 2.8s.1 1.8 0 2.8a52 52 0 0 1-.5 5.7 44.4 44.4 0 0 1-1.2 5.8l-1 2.9c-.3 1-.8 1.9-1.3 2.9a31.3 31.3 0 0 1-7.9 10.1 35.8 35.8 0 0 1-10.9 6l-2.8.9-3 .7-1.5.3-1.3.2-2.5.3h-5.7l-5 .2-10 .4-20.1.7-40.1 1.3-10 .3h-5.4l-5.6-.4a59.7 59.7 0 0 1-11-2.3l-2.7-.9-1.4-.5-1.2-.5-4.9-2.3a79.2 79.2 0 0 1-31.4-28.6 77.2 77.2 0 0 1-8.7-19.2l-.7-2.6-.3-1.3c-.1-.4-.2-.9-.3-1.3l-.5-2.3-.2-1.2v-1.4l-1.5-9.3-22-135.6-4.5-28.5-3.8-25.7-3.2-22.7c-1-7-1.8-13.4-2.5-19.3-1.5-11.6-2.5-20.8-3.2-27.1l-1-9.6a2.2 2.2 0 0 1 3.8-.6z"></path><path fill="#31323d" d="M1783.2 2307.4h3.2a34.8 34.8 0 0 1 8 1.7 33.5 33.5 0 0 1 5.1 2.1 34.2 34.2 0 0 1 5.3 3.3 37.9 37.9 0 0 1 5 4.5c.7.9 1.5 1.7 2.2 2.7l1 1.4 1 1.5a46.8 46.8 0 0 1 3.3 6.1 56.5 56.5 0 0 1 2.4 6.2c.4 1 .6 2 .9 3s.5 2 .7 2.9l.6 2.8.4 2.6c.3 1.7.4 3.2.6 4.6s.3 2.5.3 3.5l.2 3.1a6.3 6.3 0 0 1-12.5.8 6.4 6.4 0 0 1 0-.7v-.3l.2-2.7c.1-.9.1-1.9.1-3.1s.1-2.6 0-4v-2.3l-.2-2.4c-.1-.8-.2-1.7-.3-2.5s-.2-1.8-.4-2.6a47.1 47.1 0 0 0-1.3-5.3 38.1 38.1 0 0 0-2.1-5.2l-.6-1.3-.7-1.2c-.4-.8-1-1.6-1.5-2.3a30.5 30.5 0 0 0-3.5-4.1 29.3 29.3 0 0 0-8-5.5 29.5 29.5 0 0 0-6.6-2.2l-1.9-.3h-.7a2.2 2.2 0 0 1-.2-4.8zm50.6-3.2h3.2a34.8 34.8 0 0 1 8 1.7 33.5 33.5 0 0 1 5.1 2.1 34.2 34.2 0 0 1 5.3 3.3 37.9 37.9 0 0 1 5 4.5c.7.9 1.5 1.7 2.2 2.7l1 1.4 1 1.5a46.8 46.8 0 0 1 3.3 6.1 56.6 56.6 0 0 1 2.4 6.2c.4 1 .6 2 .9 3s.5 2 .7 2.9l.6 2.8.4 2.6c.3 1.7.4 3.2.6 4.6s.3 2.5.3 3.5l.2 3.1a6.3 6.3 0 1 1-12.5.1v-.3l.2-2.7c.1-.9.1-1.9.1-3.1s.1-2.6 0-4v-2.3l-.2-2.4c-.1-.8-.2-1.7-.3-2.5s-.2-1.8-.4-2.6a47.1 47.1 0 0 0-1.3-5.3 38 38 0 0 0-2.1-5.2l-.6-1.3-.7-1.2c-.4-.8-1-1.6-1.5-2.3a30.5 30.5 0 0 0-3.5-4.1 29.3 29.3 0 0 0-8-5.5 29.5 29.5 0 0 0-6.6-2.2l-1.9-.3h-.7a2.2 2.2 0 0 1-.2-4.8z"></path><path fill="none" stroke="#31323d" stroke-width="12.5" stroke-miterlimit="10" d="M931.3 2117.4c-38.1 9.1-130.4 43.4-184.5 78.3-26.5 17.1-10.1 55.9 23.2 55.3l280.4-5.5" stroke-linecap="round"></path><path fill="#31323d" d="M840.5 2200.1l-.7.2-2 .6-3.1 1-4 1.5-4.5 2.1a49.4 49.4 0 0 0-4.7 2.8 36 36 0 0 0-4.4 3.5 26.3 26.3 0 0 0-3.7 4.2l-.8 1.1-.7 1.2a21.4 21.4 0 0 0-1.1 2.4c-.2.4-.3.8-.4 1.2a8.9 8.9 0 0 0-.3 1.2 18.1 18.1 0 0 0-.4 2.4v3.6c0 .4.1.8.1 1.2a15.6 15.6 0 0 0 .3 2.2c.2.7.3 1.4.5 2.1a36.6 36.6 0 0 0 1.2 3.6 29.8 29.8 0 0 0 1.2 2.8l1.2 2.4.2.3a6.3 6.3 0 0 1-11.3 5.5l-.3-.7-1.1-3.1c-.4-1-.7-2.2-1.1-3.7a48 48 0 0 1-1-4.9c-.1-.9-.2-1.9-.3-2.9a24.9 24.9 0 0 1-.1-3.2v-1.7l.2-1.7c.1-.6.1-1.2.2-1.7l.4-1.8a27.7 27.7 0 0 1 1-3.5 16.1 16.1 0 0 1 .7-1.7l.8-1.7a30.5 30.5 0 0 1 2-3.2l1.1-1.5 1.2-1.4a34.5 34.5 0 0 1 5.4-4.9 43.4 43.4 0 0 1 5.8-3.6 56.1 56.1 0 0 1 5.7-2.6l5.2-1.8 4.4-1.2 3.5-.7 2.3-.3h.8a2.2 2.2 0 0 1 .8 4.4h-.1zm-47.5 2h-.6l-1.7.5a38.1 38.1 0 0 0-5.9 2.5 32.6 32.6 0 0 0-3.6 2.2 29.2 29.2 0 0 0-3.5 2.9 23.5 23.5 0 0 0-2.9 3.7 18.7 18.7 0 0 0-2 4.2 21.2 21.2 0 0 0-.6 2.2c-.1.8-.3 1.5-.3 2.3a24.7 24.7 0 0 0 .1 4.6 34.5 34.5 0 0 0 .8 4.3c.4 1.4.7 2.7 1.2 3.9l.6 1.7.7 1.5.6 1.3.6 1.1 1.1 2.1v.2a6.3 6.3 0 0 1-11.2 5.6l-.3-.8-.9-2.7-.5-1.4-.5-1.7-.5-1.9c-.2-.7-.3-1.4-.5-2.2s-.6-3.3-.8-5.1a44.7 44.7 0 0 1-.2-5.9 34.2 34.2 0 0 1 .8-6.3c.2-1.1.6-2.1.9-3.2a29.7 29.7 0 0 1 1.3-3.1 26.9 26.9 0 0 1 3.6-5.6 31 31 0 0 1 4.5-4.3 35.8 35.8 0 0 1 4.8-3 38.6 38.6 0 0 1 4.6-2 43.3 43.3 0 0 1 7.1-2l2-.3h.8a2.2 2.2 0 0 1 .8 4.4h-.4z"></path><path fill="none" stroke="#31323d" stroke-width="12.5" stroke-miterlimit="10" d="M2020.7 2120.2c47.5 13.8 136.8 46.1 179.8 75.5 26.1 17.8 10.1 55.9-23.2 55.3l-261.6-5.1" stroke-linecap="round"></path><path fill="#31323d" d="M2107.6 2193.7h.8l2.3.4 3.5.8 4.5 1.4 5.2 2a58.4 58.4 0 0 1 5.6 2.8 45.8 45.8 0 0 1 5.7 3.8 36.7 36.7 0 0 1 5.3 5.1l1.2 1.5 1.1 1.6a31 31 0 0 1 1.9 3.3c.3.6.5 1.2.8 1.7s.5 1.2.7 1.8l.6 1.8.3.9.2.9a26.4 26.4 0 0 1 .6 3.5 25.1 25.1 0 0 1 .2 3.4 42.1 42.1 0 0 1-.4 6.2 50.3 50.3 0 0 1-1 5c-.4 1.5-.7 2.8-1.1 3.7l-1.1 3.2a6.3 6.3 0 0 1-11.8-4.1l.3-.7.2-.3 1.2-2.4c.4-.8.7-1.7 1.2-2.8s.8-2.3 1.2-3.7a31.5 31.5 0 0 0 .8-4.4 15.7 15.7 0 0 0 .1-2.4 16.7 16.7 0 0 0-.1-2.5v-1.2l-.2-1.3c-.1-.4-.2-.8-.4-1.3a12.8 12.8 0 0 0-.4-1.3 21.8 21.8 0 0 0-1.1-2.5l-.7-1.2-.8-1.2a28.5 28.5 0 0 0-3.7-4.4 38.4 38.4 0 0 0-4.4-3.8 51.5 51.5 0 0 0-4.7-3l-4.5-2.3a66.6 66.6 0 0 0-7.1-2.9l-2-.6-.7-.2h-.1a2.2 2.2 0 0 1 .8-4.3zm47.5 2h.8l2.1.4a44.7 44.7 0 0 1 7.1 2.4 40.4 40.4 0 0 1 4.5 2.3 38.2 38.2 0 0 1 4.7 3.3 33.1 33.1 0 0 1 4.4 4.5 30 30 0 0 1 4.8 8.8c.4 1.1.6 2.2.9 3.2s.4 2.2.6 3.3.3 2.2.2 3.2.1 2.1 0 3.1l-.2 2.9c-.3 1.8-.5 3.6-.8 5.2l-.5 2.3-.6 2-.5 1.8-.5 1.4-.9 2.7a6.3 6.3 0 0 1-11.8-4.1l.3-.7v-.3l1.1-2.2.6-1.2.6-1.4.7-1.6.6-1.7c.5-1.2.8-2.6 1.2-4l.4-2.2c.2-.7.2-1.5.3-2.3s.1-1.5.1-2.3-.1-1.6-.1-2.4-.2-1.6-.3-2.4a20.2 20.2 0 0 0-.6-2.3 20.6 20.6 0 0 0-2-4.4 25.7 25.7 0 0 0-2.9-3.9 31.5 31.5 0 0 0-3.5-3.2 34.4 34.4 0 0 0-3.6-2.4 39.4 39.4 0 0 0-5.9-2.9l-1.7-.6-.6-.2h-.1a2.2 2.2 0 0 1 1.1-4.1zM1290.8 864.6a52.1 52.1 0 0 0-2.3-5.3c-.9-1.8-1.8-3.5-2.9-5.2a80.7 80.7 0 0 0-6.9-9.6 79.4 79.4 0 0 0-17.5-15.6 81.2 81.2 0 0 0-21-9.8 90 90 0 0 0-11.3-2.7l-5.8-.8-5.8-.5h-.1a6.2 6.2 0 0 1-2-11.8l3.6-1.6 3.5-1.5 7.1-2.7q7.1-2.5 14.5-4.5a152.8 152.8 0 0 1 30.1-5 94.5 94.5 0 0 1 31.1 3 69.1 69.1 0 0 1 7.6 2.6 63.5 63.5 0 0 1 14.1 8 68.6 68.6 0 0 1 6.2 5.3l-10.4 2.9.5-2.4.5-2.5c.3-1.7.6-3.4.8-5.1.5-3.4.8-6.9 1.1-10.4a117.4 117.4 0 0 0-.4-20.6 78.3 78.3 0 0 0-4.6-19.6 52.4 52.4 0 0 0-10-16.5l-.2-.3a6.2 6.2 0 0 1 5.5-10.2l3.9.6 3.7.7 7.4 1.6q7.3 1.8 14.5 4.2a129.1 129.1 0 0 1 27.5 12.9c8.6 5.5 16.6 12.5 22.6 21.2a64.3 64.3 0 0 1 4 6.8 59.9 59.9 0 0 1 3.1 7.3 59.1 59.1 0 0 1 2.1 7.6 65.8 65.8 0 0 1 1 7.8l-8.6-1.4c1.3-3.2 2.7-6.2 4.1-9.2s2.9-6 4.5-8.9q4.6-8.8 9.9-17.4c3.5-5.7 7.3-11.2 11.3-16.6a166.5 166.5 0 0 1 13.1-15.5c2.3-2.5 4.8-4.8 7.4-7.1a99.5 99.5 0 0 1 8.1-6.5 87 87 0 0 1 8.9-5.6 67.5 67.5 0 0 1 9.7-4.4 60.2 60.2 0 0 1 10.5-2.7 53.1 53.1 0 0 1 11-.6 55.9 55.9 0 0 1 10.9 1.5 67.3 67.3 0 0 1 10.3 3.5 6.1 6.1 0 0 1 2.4 9.5v.2l-2 2.6-2 2.8-3.9 5.7q-3.8 5.7-7.1 11.7a128.7 128.7 0 0 0-10.7 24.8c-2.6 8.5-3.8 17.2-2.8 25.4a36.4 36.4 0 0 0 3.5 11.6 35.4 35.4 0 0 0 3.1 5.1 41.8 41.8 0 0 0 4 4.6l-8.3-.3 2.9-2.3 2.9-2.1 5.8-4.1q5.9-4 12.1-7.5a141.4 141.4 0 0 1 26.3-11.8 90 90 0 0 1 14.4-3.4 64.6 64.6 0 0 1 15.3-.5 49 49 0 0 1 15.3 3.9 46.2 46.2 0 0 1 7 3.8 51.8 51.8 0 0 1 6.2 4.9 6.2 6.2 0 0 1-1.7 10.2h-.4l-2.4 1-2.5 1.1-5 2.4q-5 2.5-9.7 5.5a116.9 116.9 0 0 0-17.8 13.2 68.7 68.7 0 0 0-13.8 16.9 42.5 42.5 0 0 0-5.7 20.7 2.5 2.5 0 0 1-5 .2 49.6 49.6 0 0 1-.1-6.1 48 48 0 0 1 2.3-12.1 52.5 52.5 0 0 1 2.2-5.7 76.4 76.4 0 0 1 13.8-20 126.5 126.5 0 0 1 18.1-15.9q4.8-3.5 10-6.7l5.2-3.1 2.7-1.5 2.8-1.4-1.8 10.3a39.4 39.4 0 0 0-4.6-3.6 33.7 33.7 0 0 0-5.1-2.8 36.5 36.5 0 0 0-11.4-2.9c-8-.7-16.5.7-24.7 3.4a129.1 129.1 0 0 0-24 10.8q-5.8 3.3-11.3 7l-5.5 3.8-2.7 2-2.5 2h-.1a6.2 6.2 0 0 1-8.3-.4 54.1 54.1 0 0 1-5.4-6.1 47.9 47.9 0 0 1-4.3-7 48.9 48.9 0 0 1-4.7-15.5 63.6 63.6 0 0 1 0-15.7 88.7 88.7 0 0 1 3.2-14.9 141 141 0 0 1 11.8-27.3q3.6-6.4 7.6-12.6l4.1-6.1 2.2-3 2.3-3 2.3 9.6a55.1 55.1 0 0 0-8.2-3 43.7 43.7 0 0 0-8.5-1.4 41.1 41.1 0 0 0-8.6.3 48.4 48.4 0 0 0-8.5 2 56 56 0 0 0-8.2 3.5 75.8 75.8 0 0 0-7.8 4.7 88.6 88.6 0 0 0-7.3 5.6c-2.4 2-4.7 4.1-6.9 6.3a156 156 0 0 0-12.6 14.2c-3.9 5-7.6 10.2-11.1 15.6s-6.8 10.9-9.9 16.5q-2.3 4.2-4.5 8.5c-1.4 2.8-2.9 5.8-4.1 8.6a4.5 4.5 0 0 1-8.6-1.4 56.8 56.8 0 0 0-1.1-6.6 49.8 49.8 0 0 0-1.9-6.4 50.4 50.4 0 0 0-2.8-6 54.6 54.6 0 0 0-3.6-5.6 67.5 67.5 0 0 0-20.2-17.7 118 118 0 0 0-25.5-11c-4.5-1.4-9-2.5-13.6-3.5l-6.9-1.3-3.4-.5-3.3-.4 5.3-10.4a64.9 64.9 0 0 1 12.5 20.5 90.7 90.7 0 0 1 5.4 22.7 129.8 129.8 0 0 1 .4 22.9q-.4 5.7-1.2 11.3-.4 2.8-.9 5.6l-.5 2.8c-.2 1-.4 1.8-.7 2.9a6.2 6.2 0 0 1-10.3 3h-.1a56.2 56.2 0 0 0-4.9-4.2 51 51 0 0 0-11.1-6.4 56.7 56.7 0 0 0-6.3-2.1 82.2 82.2 0 0 0-27-2.5 140.3 140.3 0 0 0-27.6 4.6q-6.8 1.8-13.5 4.2l-6.6 2.5-3.2 1.3-3.1 1.4-2.1-11.9 6.4 1 6.4 1.4a101.1 101.1 0 0 1 12.4 3.9 90.9 90.9 0 0 1 22.6 12.7 87.2 87.2 0 0 1 24.4 29.5q1.4 2.9 2.7 5.8a56.2 56.2 0 0 1 2.2 6.1 2.5 2.5 0 0 1-4.8 1.5z"></path><path fill="#31323d" d="M1784.2 1453.3l5.7-5.2 2.9-2.6 2.8-2.6 5.6-5.2 5.5-5.3 2.8-2.6 2.8-2.7 5.5-5.4 5.4-5.4 5.4-5.4 5.3-5.5 5.3-5.5 5.3-5.6 5.2-5.6 5.2-5.7 5.1-5.7 5-5.7 4.9-5.7a6.3 6.3 0 0 1 8.1-1.3 58.8 58.8 0 0 0 14.9 6.7 75.6 75.6 0 0 0 16.5 2.8c11.3.7 22.9-.6 34.2-3.1a217.4 217.4 0 0 0 33.6-10.5q8.2-3.3 16.3-7.1l8-3.9 3.9-2 2-1 1-.5h.2l-.2.2-.3.2a3.7 3.7 0 0 0-1.2 2.4 3.4 3.4 0 0 0 .6 2.2 3.7 3.7 0 0 0 2.1 1.5h-5.6l-4.9-.3a179.9 179.9 0 0 1-18.6-2.7c-6.1-1.2-12.2-2.7-18.1-4.3s-11.9-3.4-17.7-5.4c-11.7-3.9-23.1-8.4-34.3-13.3q-8.4-3.7-16.7-7.6c-5.6-2.7-11-5.3-16.5-8.3a6.9 6.9 0 0 1 5-12.8h.1c13.3 3.5 26.9 6 40.3 6.3a91 91 0 0 0 19.6-1.6 51.3 51.3 0 0 0 17.3-6.6 32.7 32.7 0 0 0 6.7-5.6l.7-.8-.3.3-.3.7v.4a3.9 3.9 0 0 0 .4 3.2 4 4 0 0 0 2.8 1.8h-2l-5.8-.6-5.6-.9c-3.7-.7-7.4-1.7-11-2.8a136.4 136.4 0 0 1-39.8-20.1 185.9 185.9 0 0 1-32.2-30.1 252.5 252.5 0 0 1-25.2-35.7c-3.7-6.3-7.1-12.6-10.4-19.1-1.6-3.2-3.3-6.5-4.7-9.8l-2.2-4.9-1.1-2.5-1.1-2.4c-5.7-12.8-11.6-25.6-18-38s-13.1-25-19.8-37.4-13.6-24.7-20.7-36.9c-14.1-24.4-28.8-48.5-44.3-71.9q-11.7-17.6-24.1-34.5c-8.4-11.2-17.1-22.3-26.2-32.7a235.8 235.8 0 0 0-30-28.4q-8.1-6.4-16.7-12.1l-17.7-11.6.4.3-7.5-3.9-7.6-3.7-7.8-3.4-3.9-1.6-4-1.5-8-2.8-8.1-2.5-4.1-1.1-2-.6-.7-.2-.5-.2-1-.3-8.3-2.5a6.3 6.3 0 0 1 3.5-12l8.4 2.4 1.9.5 2.2.6 4.3 1.2 8.6 2.6 8.5 2.9 4.2 1.6 4.2 1.6 8.2 3.5 8.1 3.8 8 4.1.4.2h.1l17.9 11.5q9.1 6 17.7 12.7a249.2 249.2 0 0 1 31.8 29.8c9.6 10.8 18.5 22 27.1 33.4s16.8 23.1 24.7 35 15.6 23.8 23.1 36 14.7 24.4 21.9 36.7 14.1 24.7 20.9 37.2 13.5 25 20 37.7 12.6 25.7 18.4 38.8c2.9 6.5 5.7 12.7 8.9 18.9s6.4 12.3 9.9 18.2a238.3 238.3 0 0 0 23.8 33.6 171.7 171.7 0 0 0 29.7 27.8 136.2 136.2 0 0 0 17.2 10.6 116.6 116.6 0 0 0 18.5 7.6c3.2 1 6.4 1.8 9.6 2.4l4.8.8 4.7.5h3.3a10.1 10.1 0 0 1 4 1.6 10.3 10.3 0 0 1 3 3.1 10.5 10.5 0 0 1 1.5 4 10.4 10.4 0 0 1-.3 4.3l-.4 1-.6 1.3-.4.6h-1.1l-.4.5-1.1 1.2a46.7 46.7 0 0 1-9.6 8 65.2 65.2 0 0 1-22.1 8.5 104.9 104.9 0 0 1-22.7 1.8c-15-.4-29.5-3.1-43.5-6.8l5.1-12.8c5.1 2.7 10.5 5.4 15.9 8s10.8 5.1 16.3 7.4c10.9 4.8 22 9.2 33.2 13q8.4 2.9 16.9 5.3c5.7 1.6 11.4 3 17.1 4.2a166.6 166.6 0 0 0 17.2 2.6l4.2.3h6.4l1.7.2a9.7 9.7 0 0 1 5.8 4 9.9 9.9 0 0 1 1.7 6.5 9.6 9.6 0 0 1-3.2 6.3l-.7.6-.5.3-.3.2-.5.3h-.3l-1 .5-2.1 1.1-4.1 2.1-8.3 4q-8.4 3.9-17 7.3a230.3 230.3 0 0 1-35.6 10.9c-12.2 2.6-24.9 4.1-37.8 3.2a88.2 88.2 0 0 1-19.2-3.4 70.9 70.9 0 0 1-18-8.2l8.2-1.3-5.2 5.9-5.2 5.8c-3.5 3.8-7.1 7.6-10.7 11.3l-5.5 5.5-5.6 5.5-5.6 5.4-5.7 5.3c-3.8 3.5-7.7 6.9-11.6 10.3l-6 5-6 4.9-6.1 4.8-6.2 4.7-3.1 2.3-3.2 2.2-6.4 4.4a2.5 2.5 0 0 1-3.4-3.4zm-703.1 27.7l-6.9-3.8-6.8-3.9q-6.8-4-13.5-8.2a247.5 247.5 0 0 1-25.7-18.7 143.5 143.5 0 0 1-11.8-11 87 87 0 0 1-10.3-13 47.5 47.5 0 0 1-6.8-16.3c-.1-.8-.3-1.5-.4-2.3s-.1-.8-.1-1.2v-1.1l-.3-3.9-.6-7.8 9.5 5a57 57 0 0 1-7.3 3.7q-3.7 1.6-7.4 2.7c-2.5.8-4.9 1.4-7.4 2.1l-7.3 1.7c-4.9.9-9.8 1.7-14.8 2.3l-3.7.4h-2.2a9.3 9.3 0 0 1-2.7-.7 9.4 9.4 0 0 1-4.1-3.4 9.5 9.5 0 0 1-1.6-4.9 9.3 9.3 0 0 1 1.4-5.3 9.6 9.6 0 0 1 1.7-2l.5-.4h.2l.4-.3 1.4-1.1 5.1-4.4 5-4.8c3.3-3.3 6.5-6.8 9.6-10.3s6.2-7.2 9.2-10.9l4.4-5.6 4.2-5.6 7.8 9.3-6.1 2.8c-2 1-4.1 1.8-6.2 2.7l-3.1 1.3-3.2 1.2-3.2 1.2-3.2 1.1-6.4 2.1-6.5 1.8-6.6 1.6-6.6 1.4-3.3.6-3.4.5-6.8.8c-4.5.4-9.1.7-13.6.7h-6.9l-3.4-.2H908l-.7-.2-.6-.2a9.3 9.3 0 0 1-4.1-2.8 9.5 9.5 0 0 1-1.8-9.1 9.3 9.3 0 0 1 2.7-4.1 9.7 9.7 0 0 1 2-1.3l.7-.3.4-.2 1.5-.6 1.5-.6.8-.3.7-.3c3.6-1.7 7.3-3.7 10.9-5.7s7.1-4.4 10.6-6.8 6.8-4.9 10.1-7.6 6.5-5.4 9.7-8.3c6.3-5.7 12.3-11.7 18.1-18q4.3-4.7 8.4-9.6l4-4.9 3.8-5 9.5 8.1a95.4 95.4 0 0 1-43.8 25.4c-16.5 4.4-33.7 4.5-50.1 2.2q-6.2-.9-12.2-2.2l-6-1.4-3-.8-1.5-.4h-1.1a9.3 9.3 0 0 1-2.2-1.1 9.4 9.4 0 0 1 1.8-16.4l1.1-.4 1.4-.5 2.7-.9q5.5-1.9 10.9-4.1a254.8 254.8 0 0 0 78.4-50.1 244.7 244.7 0 0 0 30.8-35.1 251.2 251.2 0 0 0 23.7-40.3c1.6-3.5 3.2-7.1 4.7-10.7l2.2-5.4.5-1.4.3-.7.2-.5v-.2l.2-.3 1.2-2.7q4.7-10.8 8.7-21.9l1.9-5.6 2-5.7 4-11.4q4.1-11.3 8.3-22.6 8.5-22.5 18-44.7c6.3-14.8 12.9-29.5 20-43.9s14.7-28.8 23-42.7 17.4-27.5 28.2-40l4.1-4.6 4.2-4.5 8.3-8.6 1-1.1.3-.3h.1l.3-.3.5-.5 2.2-2.1 2.2-2.1 2.3-2.1 4.7-4.1 4.7-3.9a248.4 248.4 0 0 1 86.7-45.2 6.2 6.2 0 0 1 3.5 12 235.9 235.9 0 0 0-82.3 42.9l-4.5 3.7-4.4 3.8-2.2 1.9-2.2 2.1-2.2 2.1-.5.5-.3.3-1 1.1-8.3 8.6-4 4.2-3.8 4.3c-10 11.8-18.8 24.8-26.9 38.3s-15.5 27.5-22.5 41.7-13.5 28.7-19.8 43.3-12.1 29.4-17.8 44.3q-4.2 11.2-8.3 22.4l-4 11.3-1.9 5.6-2 5.7q-4.1 11.5-9 22.7l-1.2 2.8-.2.3v.2h.1l-.3.7-.6 1.4-2.3 5.7c-1.6 3.8-3.2 7.5-5 11.2a263.6 263.6 0 0 1-24.8 42.3 257.2 257.2 0 0 1-32.4 36.9 267.3 267.3 0 0 1-82.3 52.6q-5.7 2.3-11.5 4.3l-2.9 1-1.4.5a1 1 0 1 1 .3-.3 3.3 3.3 0 0 0 1-1.2 3 3 0 0 0 0-2.7 3.2 3.2 0 0 0-1.1-1.2l-.8-.4h.3l1.4.4 2.8.7 5.6 1.3q5.7 1.2 11.3 2.1c15.2 2.2 30.6 2 45.1-1.9a82.9 82.9 0 0 0 38.2-22.1 6.2 6.2 0 0 1 9.5 8.1l-4.2 5.4-4.2 5.2q-4.3 5.1-8.8 10.1c-6 6.6-12.3 12.9-19 18.9q-5 4.5-10.2 8.7c-3.5 2.8-7.1 5.5-10.8 8.1s-7.5 5-11.4 7.4-7.9 4.4-12.2 6.4l-.8.4-.8.3-1.5.6-1.5.6-.4.2.6-.4a3.2 3.2 0 0 0 1-1.4 3 3 0 0 0 .1-1.5 3.1 3.1 0 0 0-.7-1.4 3.3 3.3 0 0 0-1.4-1h1.7l3.1.2h6.2c4.2 0 8.3-.3 12.5-.7l6.2-.8 3.1-.5 3.1-.6 6.2-1.3 6.1-1.5 6.1-1.7 6-1.9 3-1 3-1.1 3-1.1 2.9-1.2c1.9-.8 3.9-1.6 5.8-2.5l5.8-2.7h.1a6.2 6.2 0 0 1 7.7 9.3l-4.5 6-4.6 5.8q-4.6 5.7-9.5 11.3c-3.3 3.7-6.6 7.3-10.2 10.9l-5.5 5.2c-1.9 1.7-3.8 3.3-5.9 5l-1.4 1.1-.4.3.6-.7a3.3 3.3 0 0 0 .5-1.8 3 3 0 0 0-.5-1.5 3.1 3.1 0 0 0-1.4-1.1l-.9-.2h-.4l3.5-.4c4.7-.6 9.3-1.3 13.9-2.2l6.8-1.5 6.6-1.8c2.2-.7 4.2-1.4 6.3-2.3a44.8 44.8 0 0 0 5.6-2.8h.1a6.2 6.2 0 0 1 8.6 2.2 6.3 6.3 0 0 1 .9 2.9v13.4s.1 1 .1 1.6a36.5 36.5 0 0 0 4.5 12.7 77 77 0 0 0 8.4 12 134.5 134.5 0 0 0 10.4 11 239.8 239.8 0 0 0 23.8 19.5q6.3 4.6 12.7 8.8l6.5 4.2 6.6 4.1a2.5 2.5 0 0 1-2.5 4.3z"></path></g></g><defs><clipPath id="littleFoot__c"><path fill="#d1dadf" d="M1229.5,2034.1s-29.3,89.6-33.2,181.4l5.3,5.1c4.6,4.6,9.2,8.3,9.2,11.5,0,6.7-5.3,18.9-5.3,18.9s16.7,8.5,16.7,19.1a19.2,19.2,0,0,1-8.2,15.7c8.4,23,23.5,17.9,1.5,48.7-23.4,32.7-35.4,46.5-49.4,51.8,7.8-44.3-29.1-69.2-29.1-69.2-31-19.6-79-1.4-79-1.4-5.3-5.4-18.7-16.8-45.6-15.3s-43.2,12.9-43.2,12.9c-10-2.7-22.6,1.7-22.6,1.7l.9-2.4s-5.4-33.4,51.4-32.5l.7-2.1c9-19,31.3-17.2,31.3-17.2-2.5-10,13.9-24.7,13.9-24.7,16.4-152.3-44.4-206.8-44.4-206.8Z"></path></clipPath><linearGradient id="littleFoot__b" x1="1336.95" x2="825.61" y1="2414.06" y2="2003.39" gradientUnits="userSpaceOnUse"><stop offset="0" stop-color="#fff"></stop><stop offset=".09" stop-color="#f8f8f8"></stop><stop offset=".22" stop-color="#e3e3e3"></stop><stop offset=".37" stop-color="#c1c1c1"></stop><stop offset=".55" stop-color="#939393"></stop><stop offset=".75" stop-color="#575757"></stop><stop offset=".96" stop-color="#0f0f0f"></stop><stop offset="1"></stop></linearGradient><linearGradient id="littleFoot__a" x1="910.99" x2="1078.84" y1="2190.82" y2="2190.82" gradientUnits="userSpaceOnUse"><stop offset="0" stop-color="#fff" stop-opacity="0"></stop><stop offset=".72" stop-color="#fff"></stop></linearGradient><linearGradient id="littleFoot__d" x1="1037.21" x2="1142.82" y1="2312.24" y2="2312.24" xlink:href="#littleFoot__a"></linearGradient><clipPath id="littleFoot__e"><path fill="#d1dadf" d="M1672.1,2025.5s28.5,90.1,30.7,181.9l-5.6,5c-4.8,4.6-9.7,8.2-9.7,11.4-.1,6.7,5.1,19,5.1,19s-17.3,8.1-17.5,18.8a19,19,0,0,0,8.1,15.8c-9.1,22.8-24.6,17.5-2.5,48.7,23.5,33.1,35.5,47.1,49.9,52.7-7.2-44.5,31.3-68.6,31.3-68.6,32.3-19.1,81.4.1,81.4.1,5.6-5.3,19.6-16.5,47.3-14.5s44.3,13.7,44.3,13.7c10.3-2.5,23.2,2.1,23.2,2.1l-.9-2.3s6.2-33.3-52.4-33.5l-.6-2.1c-8.9-19.2-31.9-17.8-31.9-17.8,2.8-10-18.9-28.1-18.9-28.1,9.5-152.6,66.9-194.6,66.9-194.6Z"></path></clipPath><linearGradient id="littleFoot__f" x1="1868.27" x2="1341.39" y1="2413.3" y2="1990.15" gradientTransform="matrix(-1, -0.02, -0.02, 1, 3469.84, 30.33)" xlink:href="#littleFoot__b"></linearGradient><linearGradient id="littleFoot__g" x1="1431.7" x2="1598.21" y1="2189.36" y2="2189.36" gradientTransform="matrix(-1, -0.02, -0.02, 1, 3469.84, 30.33)" xlink:href="#littleFoot__a"></linearGradient><linearGradient id="littleFoot__h" x1="1561.77" x2="1670.59" y1="2305.14" y2="2305.14" gradientTransform="matrix(-1, -0.02, -0.02, 1, 3469.84, 30.33)" xlink:href="#littleFoot__a"></linearGradient><linearGradient id="littleFoot__i" x1="497.86" x2="1399.34" y1="2351.36" y2="2023.25" xlink:href="#littleFoot__b"></linearGradient><linearGradient id="littleFoot__j" x1="678.59" x2="1021.77" y1="2411.38" y2="1816.99" xlink:href="#littleFoot__a"></linearGradient><linearGradient id="littleFoot__k" x1="781.73" x2="836.93" y1="2180.32" y2="2277.95" xlink:href="#littleFoot__a"></linearGradient><linearGradient id="littleFoot__l" x1="2506.25" x2="3407.73" y1="2351.36" y2="2023.25" gradientTransform="matrix(-1, 0, 0, 1, 4964.83, 0)" xlink:href="#littleFoot__b"></linearGradient><linearGradient id="littleFoot__m" x1="2686.98" x2="3030.16" y1="2411.38" y2="1816.99" gradientTransform="matrix(-1, 0, 0, 1, 4964.83, 0)" xlink:href="#littleFoot__a"></linearGradient><linearGradient id="littleFoot__n" x1="2790.12" x2="2845.32" y1="2180.32" y2="2277.95" gradientTransform="matrix(-1, 0, 0, 1, 4964.83, 0)" xlink:href="#littleFoot__a"></linearGradient></defs><g><path fill="#ffef85" d="M1165.4,2386.5a44.3,44.3,0,0,1-10.6,2.3s-80.8,26.7-117.7-6c0,0-61.6,12.7-83.6-15.6,0,0-42.7,10.6-42.7-11.2s12.4-37.8,35.9-43.2l-1,4.4s8-5.7,23.6-2.9c0,0,54.9-30.5,88.2,3,0,0,106-37.9,108.1,65.5"></path><path fill="#d1dadf" d="M1229.5,2034.1s-29.3,89.6-33.2,181.4l5.3,5.1c4.6,4.6,9.2,8.3,9.2,11.5,0,6.7-5.3,18.9-5.3,18.9s16.7,8.5,16.7,19.1a19.2,19.2,0,0,1-8.2,15.7c8.4,23,23.5,17.9,1.5,48.7-23.4,32.7-35.4,46.5-49.4,51.8,7.8-44.3-29.1-69.2-29.1-69.2-31-19.6-79-1.4-79-1.4-5.3-5.4-18.7-16.8-45.6-15.3s-43.2,12.9-43.2,12.9c-10-2.7-22.6,1.7-22.6,1.7l.9-2.4s-5.4-33.4,51.4-32.5l.7-2.1c9-19,31.3-17.2,31.3-17.2-2.5-10,13.9-24.7,13.9-24.7,16.4-152.3-44.4-206.8-44.4-206.8Z"></path><g clip-path="url(#littleFoot__c)"><path fill="#ffef85" d="M1053.2,2179.4l-1.8-46.2s30-9,63,15.1c6.8,5-35.9-116.4-31-111.1,23,25,77.9,96.6,128,100l14.6-72,5.3-38.2H1001l22,34.2,17.8,51.7Z"></path></g><path style="mix-blend-mode:multiply" fill="url(#littleFoot__b)" d="M1229.5,2034.1h0c-49.8,73.7-46.5,160.5-46.5,160.5-13.6,26.6-11.7,37-13.3,48.6s17.5,21.8,12.8,34.2,14.3,34.2-3.7,43.4-25.5,15.1-25.5,15.1-6.3,12.9-32.4,25.8c-31.8,15.8-63.2,13-82.7,5.5-1.5-.6-4.4-20-5.5-20.4l-3.2-1.3c-25.3,15.8-62.5,17.5-79.9,11.2-1-.4-.9-4.6-1.7-4.9l-8-2.8c-9.6,6.1-15,7.8-26.4,5.5-.6,3.1-2.7,1.6-2.7,5,0,21.8,42.7,11.2,42.7,11.2,22,28.3,83.6,15.6,83.6,15.6,36.9,32.7,117.7,6,117.7,6a44.3,44.3,0,0,0,10.6-2.3l.8-.7c0,.2-.1.3-.1.5,14-5.3,26-19.1,49.4-51.8,22-30.8,6.9-25.7-1.5-48.7a19.2,19.2,0,0,0,8.2-15.7c0-10.6-16.7-19.1-16.7-19.1s5.3-12.2,5.3-18.9-4.6-10.4-9.2-15l-5.3-5.1C1198,2156.3,1220.6,2090.3,1229.5,2034.1Z" opacity=".4"></path><path style="mix-blend-mode:overlay" fill="url(#littleFoot__a)" d="M1044.9,2236.1s-16.4,14.7-13.9,24.7c0,0-22.4-1.8-31.3,17.2l-.7,2.1c-53.5-.8-51.9,28.7-51.5,32.2l-.8.5c-22.1,5.1-34.4,19.8-35.7,39.5l5.4-.3c11.5-22.7,37.8-28.4,37.8-28.4-7.3,8.9-5.2,20.5-5.2,20.5,30.7-28.6,100.4-27.6,100.4-27.6l-29-16.2c-6.1-13,30.3-24.8,30.3-24.8h0c-6.3-17.4,21.1-40.3,21.1-40.3,10.7-21.3,6-65.1,6-65.1-7.6-63.6-41-119.3-77.3-140.8h0S1058.8,2074.1,1044.9,2236.1Z" opacity=".2"></path><path fill="#ffef85" d="M1226.3,2032.1s2.6.6,2.6,1.9-1.7,1.4-5.6,1.4-218.9-3.7-219.2-3.9-3.7-1-3.4-2.8,7.2-1.2,7.2-1.2Z"></path><path style="mix-blend-mode:overlay" fill="url(#littleFoot__d)" d="M1126.5,2269.7s-17.9,23.7-14.9,41.7c0,0,20.7-2.4,31.2,11.1,0,0-75.5,2.3-104.6,32.3,0,0-8-25.3,21.6-44.7C1059.8,2310.1,1072.5,2271.6,1126.5,2269.7Z" opacity=".3"></path><path fill="#31323d" d="M1050.6,2278a94.2,94.2,0,0,0-11.8.6,111.9,111.9,0,0,0-11.6,1.8,104.6,104.6,0,0,0-22.2,7.1,69.3,69.3,0,0,0-18.8,12.5,54.5,54.5,0,0,0-12.4,17.8l-2.6,2.8h0l-.6.4-.7.4-1.4.9-2.7,1.9c-1.7,1.4-3.4,2.8-5,4.3a36.5,36.5,0,0,0-7.4,10,18.8,18.8,0,0,0-1.9,10.8,23.9,23.9,0,0,0,4.4,10.7h0a6.2,6.2,0,0,1-10.2,7.2h0a43.2,43.2,0,0,1-4.2-7.6,31.6,31.6,0,0,1-2.2-18,31.4,31.4,0,0,1,2.8-8.5,48.9,48.9,0,0,1,10-13.5,62,62,0,0,1,6.2-5.3l3.2-2.4,1.7-1.1.9-.5,1-.6h0l-2.6,2.7a64.9,64.9,0,0,1,16.7-20.4,81.5,81.5,0,0,1,22.4-12.6,116.4,116.4,0,0,1,24.5-5.8q6.2-.7,12.3-.9a104.8,104.8,0,0,1,12.5.3,2.5,2.5,0,0,1-.2,5Z"></path><path fill="#31323d" d="M1126.5,2272.2a86.1,86.1,0,0,0-21,3.3,58.2,58.2,0,0,0-18.6,8.9,48.6,48.6,0,0,0-13.4,14.8,61.8,61.8,0,0,0-4.3,9,68.2,68.2,0,0,0-2.8,9.8l-5.1,4.5h0l-.6.2-.8.2-1.8.7a22.1,22.1,0,0,0-3.4,1.8,23,23,0,0,0-6,5.2,35.1,35.1,0,0,0-7,14.8,68.8,68.8,0,0,0-1.2,17.7,118.4,118.4,0,0,0,2.7,18.4h0a6.2,6.2,0,0,1-12.2,2.7h0a125.4,125.4,0,0,1-3-20.4,80.4,80.4,0,0,1,1.5-21.2,47.9,47.9,0,0,1,9.7-20.2,40.2,40.2,0,0,1,8.8-7.6,51.2,51.2,0,0,1,5.2-2.7l2.8-1.1,1.5-.4.8-.2h1l-5,4.6a87.8,87.8,0,0,1,4.3-11.1,64.3,64.3,0,0,1,6.1-10.4,58.5,58.5,0,0,1,17.4-16.2,67.7,67.7,0,0,1,21.7-8.3,96.8,96.8,0,0,1,22.7-1.6,2.5,2.5,0,0,1,2.4,2.6,2.6,2.6,0,0,1-2.4,2.4Z"></path><path fill="#31323d" d="M941.4,2315.4l1.8-1.3,1.8-1.1,3.9-1.8a38,38,0,0,1,8.2-2.1,48,48,0,0,1,8.5-.3l2.1.2h-1l.8-.5,1.8-.9a135.4,135.4,0,0,1,14.7-6.3,101.5,101.5,0,0,1,15.5-4.3,82.3,82.3,0,0,1,32.8-.3,58.2,58.2,0,0,1,16,5.9,56.3,56.3,0,0,1,13.6,10.2h0l-6.5-1.5,2.5-.8,2.5-.7,4.9-1.2c3.2-.8,6.5-1.4,9.8-2a147.2,147.2,0,0,1,20-1.8,105.9,105.9,0,0,1,20.2,1.6,73.8,73.8,0,0,1,19.7,6.6,59.1,59.1,0,0,1,16.6,12.8,62.6,62.6,0,0,1,10.9,17.5,84.7,84.7,0,0,1,5.5,19.5,120.2,120.2,0,0,1,1.6,19.8,4.2,4.2,0,0,1-4,4.1,4.1,4.1,0,0,1-4-3.9,127.6,127.6,0,0,0-2-18.5,77.4,77.4,0,0,0-5.4-17.3,54.7,54.7,0,0,0-9.8-14.7,48.1,48.1,0,0,0-14-10.1c-10.6-5.1-22.9-6.6-35-6.1a124.1,124.1,0,0,0-18.2,2.3c-3,.6-6,1.2-9,2l-4.4,1.3-2.2.7-2,.7a6.3,6.3,0,0,1-6.3-1.3l-.2-.2h0a45.6,45.6,0,0,0-10.7-7.9,50.1,50.1,0,0,0-12.7-4.3c-8.8-1.6-18.3-1-27.6.9a135.4,135.4,0,0,0-27.3,8.7l-1.6.8-.8.4-.7.3-1.3.5a12.4,12.4,0,0,1-2.7.3h-1.9l-1.6-.3c-2.2-.4-4.5-.7-6.7-.9l-6.9-.4h-7.7a2.6,2.6,0,0,1-2.5-2.6A2.6,2.6,0,0,1,941.4,2315.4Z"></path><path fill="#31323d" d="M1002,2026.9l5.3,5.7c1.7,1.9,3.4,3.9,5,5.9s3.2,4.1,4.8,6.1a37.1,37.1,0,0,1,2.3,3.2l2.2,3.2c2.9,4.3,5.5,8.8,8,13.4a38.4,38.4,0,0,1,1.8,3.5l1.7,3.5c1.2,2.3,2.1,4.8,3.2,7.1a214.5,214.5,0,0,1,9.7,29.7,292.5,292.5,0,0,1,5.8,30.5v.5c.4,6.8.7,13.5,1.1,20.3l.9,20.3,1.6,40.7.2,5v2.8a12.4,12.4,0,0,1-1.2,5.3,11.5,11.5,0,0,1-3.5,4.1,10.9,10.9,0,0,1-2.3,1.4l-.6.2-.5.2h-.3a10.1,10.1,0,0,0-2.7,1.7,22.9,22.9,0,0,0-4.9,6,18.4,18.4,0,0,0-1.7,3.8,10.7,10.7,0,0,0-.7,1.9v.6l-.4,1a15.4,15.4,0,0,1-.8,1.9,17.3,17.3,0,0,1-5.3,6.1,20.2,20.2,0,0,1-3.6,1.8l-1,.4-.8.2-1.1.3a34.9,34.9,0,0,0-7.9,3.4,27.3,27.3,0,0,0-11.1,12,6.3,6.3,0,0,1-8.3,3,6.2,6.2,0,0,1-3-8.3h0a39.3,39.3,0,0,1,6.7-9.9,41.9,41.9,0,0,1,9.4-7.5,53.1,53.1,0,0,1,10.7-4.6l1.4-.4h.6l.9-.4a4.7,4.7,0,0,0,1.3-1.5.8.8,0,0,1,.2-.4l.2-.8c.3-1,.6-2,1-3a44.5,44.5,0,0,1,2.5-5.4,56.5,56.5,0,0,1,3.4-5.1,31.9,31.9,0,0,1,4.5-4.5,22.3,22.3,0,0,1,6-3.6l.9-.3h-.1l-.2.3a.6.6,0,0,0-.1.4v-2.3l-.3-5.1-2-40.6-1-20.3c-.3-6.8-.5-13.5-.7-20.3v.5c-1.1-9.9-2.5-19.8-4.4-29.5a213,213,0,0,0-7.8-28.7c-.8-2.3-1.6-4.7-2.5-6.9l-1.5-3.5c-.4-1.1-.9-2.2-1.4-3.4-2.1-4.5-4.3-8.9-6.7-13.2l-1.8-3.3-1.9-3.2c-1.4-2.1-2.6-4.2-4.1-6.3s-2.8-4.1-4.3-6.1l-4.5-6h-.1a2.5,2.5,0,0,1,.5-3.5A2.6,2.6,0,0,1,1002,2026.9Z"></path><path fill="#31323d" d="M1232,2034.7c-3.1,18.8-6.7,37.5-10.2,56.1l-5.2,28-5.1,27.9c-1.7,9.4-3.4,18.7-5,28s-3,18.6-4.4,27.9l-1,6.9v.5a.5.5,0,0,0-.1.3v1.5a4.8,4.8,0,0,0,.4,1.8,7.4,7.4,0,0,0,2.3,3.3,31.2,31.2,0,0,0,4.9,3.6l3.4,2.4,2,1.8a11.1,11.1,0,0,1,2.1,3.1,13.1,13.1,0,0,1,.8,2.1c.1.4.1.8.2,1.2v1.1a19.3,19.3,0,0,1-.1,2.5l-.2,1.1-.2,1.1c-.1.7-.3,1.3-.4,2a73.7,73.7,0,0,1-2.2,7.5c-.9,2.4-1.7,4.7-2.8,7.1l-2.9-8.1,1.5.8,1.3.8,2.6,1.6c1.6,1.2,3.3,2.4,4.9,3.8a31,31,0,0,1,8.3,10.8,16.1,16.1,0,0,1,1.2,3.9l.3,2.1v2a25.3,25.3,0,0,1-1.3,7.1,24.3,24.3,0,0,1-3.3,6.4,31.1,31.1,0,0,1-2.3,2.8l-1.3,1.3-.6.6-.4.3h-.2a4.7,4.7,0,0,0,1.6-3,5.5,5.5,0,0,0-.2-1.8v-.2h.1v.3l.9,2.2a28.2,28.2,0,0,0,2.3,4.2,49.4,49.4,0,0,0,2.7,4.2c1,1.5,2.1,2.9,3.3,4.8a22.1,22.1,0,0,1,3,6.9,20.1,20.1,0,0,1,0,8.1,44.2,44.2,0,0,1-5.1,11.8c-1.9,3.4-4.1,6.5-6.2,9.6l-6.3,8.8-12.5,17.9-6.4,9c-2.3,3-4.6,6-7.2,9a41.1,41.1,0,0,1-9.9,8.3,31.2,31.2,0,0,1-6.6,2.6,37.6,37.6,0,0,1-6.5.9l1.4-.2-8.3,2.3-8.2,2c-5.5,1.2-11.1,2.3-16.6,3.3a274.7,274.7,0,0,1-33.9,3.8,155.6,155.6,0,0,1-34.6-2.2,90.7,90.7,0,0,1-17.1-5.2,59.4,59.4,0,0,1-15.8-9.8l5.4,1.4-5.8,1-5.7.8-11.4,1a150.1,150.1,0,0,1-23.2-.5,91.8,91.8,0,0,1-23.2-5.4,58.3,58.3,0,0,1-11-5.9,47.2,47.2,0,0,1-9.5-8.9l6.5,2.2-3,.7-3,.6-5.9.8a82.4,82.4,0,0,1-12.2.7,41.2,41.2,0,0,1-13.1-2.1,24.9,24.9,0,0,1-6.9-3.8,17,17,0,0,1-5.1-7.2,14.5,14.5,0,0,1-1-4.1,15,15,0,0,1-.2-2v-1.7c0-2.2.2-4.3.4-6.4a51.1,51.1,0,0,1,3.2-12.5,45.5,45.5,0,0,1,6.5-11.3,45,45,0,0,1,9.5-9,47.1,47.1,0,0,1,11.2-6.1l6-2.1,1.5-.4c.4-.1,1.5-.4.3,0a3.6,3.6,0,0,0-2.1,3.1v-.6a4.1,4.1,0,0,1,.1-1.1,6.4,6.4,0,0,1,.3-2,17.4,17.4,0,0,1,1.1-3.9,25.2,25.2,0,0,1,3.8-6.4,33.7,33.7,0,0,1,10.2-8.8c7.3-4.5,15.1-6.9,22.8-8.6a93.4,93.4,0,0,1,11.6-1.9,113,113,0,0,1,11.6-.8,4,4,0,0,1,4.1,3.9,4,4,0,0,1-2.9,4h-.1c-7.2,1.9-14.4,3.8-21.3,6a103.8,103.8,0,0,0-19.1,8.3,29.6,29.6,0,0,0-7,5.8,12.8,12.8,0,0,0-2,3.2,14.2,14.2,0,0,0-.5,1.6,2.2,2.2,0,0,0-.1.8v1.2a8.8,8.8,0,0,1-5.1,7.5,6.9,6.9,0,0,1-1.8.6l-.6.2-1.2.3a33.9,33.9,0,0,0-4.8,1.7,45.1,45.1,0,0,0-8.7,4.6,33.6,33.6,0,0,0-11.6,14.8,37.8,37.8,0,0,0-2.4,9.5,40.3,40.3,0,0,0-.3,4.9v2a5,5,0,0,0,.4,1.3,5.2,5.2,0,0,0,1.4,2,11.1,11.1,0,0,0,3.1,1.6,31.2,31.2,0,0,0,9.2,1.4,61.7,61.7,0,0,0,10.4-.6,46.7,46.7,0,0,0,5.2-.8l2.7-.5,2.5-.5h0a6.1,6.1,0,0,1,6.4,2.2c3.7,4.8,9.1,8.4,15.2,10.9a76.9,76.9,0,0,0,19.9,4.5,136.2,136.2,0,0,0,21.2.5c3.6-.2,7.1-.5,10.7-.9l5.3-.7,5.1-.9h.1a6.3,6.3,0,0,1,5.3,1.4,46.2,46.2,0,0,0,12.4,7.7,71.5,71.5,0,0,0,14.7,4.4,138.2,138.2,0,0,0,31.6,2,249.8,249.8,0,0,0,32.2-3.6c5.4-.9,10.7-2,16-3.2l7.9-1.9,7.8-2.2h0l1.4-.2a17,17,0,0,0,7.8-2.1,24.5,24.5,0,0,0,6.7-5.7c4.4-4.9,8.5-10.9,12.7-16.8l12.5-17.9,6.3-8.8c2-2.9,4-5.8,5.6-8.7a30.6,30.6,0,0,0,3.6-8.1,5.4,5.4,0,0,0,.1-2.8,9.3,9.3,0,0,0-1.4-3c-1.6-2.5-4.1-5.7-6.1-9.1a47.4,47.4,0,0,1-2.9-5.4l-1.2-2.8-.2-.4h0v-.6a6.7,6.7,0,0,1-.4-3.1,8.2,8.2,0,0,1,2.8-5.4l.5-.4.3-.3.7-.7,1.2-1.4a12.6,12.6,0,0,0,1.6-3.3,13.6,13.6,0,0,0,.7-3.5v-.8c0-.2-.1-.4-.1-.6a9.3,9.3,0,0,0-.4-1.3,19.2,19.2,0,0,0-5-6.2,37.3,37.3,0,0,0-3.8-2.8,13.7,13.7,0,0,0-2-1.3l-1-.6-1-.6h-.1a6.3,6.3,0,0,1-2.7-8,100.6,100.6,0,0,0,4.2-12.4,7.7,7.7,0,0,0,.2-1.5l.2-.7v-.6a4.9,4.9,0,0,0,.1-1.1h0v.5a4.3,4.3,0,0,0,.1.5c.3.5.1.1-.5-.4l-2.5-1.7a47.1,47.1,0,0,1-6.6-4.8,21.2,21.2,0,0,1-5.7-8.3,15.2,15.2,0,0,1-1.2-5.1,20.9,20.9,0,0,1-.1-2.5c0-.4.1-.9.1-1.3s0-.4.1-.5v-.5l.9-7.2c1.3-9.6,2.7-19,4.3-28.4s3.4-18.8,5.2-28.2,4-18.7,6.1-28,4.5-18.5,6.8-27.8c4.8-18.4,9.8-36.8,15.5-55a2.5,2.5,0,0,1,3.1-1.6A2.6,2.6,0,0,1,1232,2034.7Z"></path><path fill="#31323d" d="M1185.4,2194a71.8,71.8,0,0,0,3.4,6.8,44.9,44.9,0,0,0,4,6.3,30.4,30.4,0,0,0,4.6,5.4,18.1,18.1,0,0,0,4.9,3.4,6.4,6.4,0,0,1,3.4,8.3,6.4,6.4,0,0,1-8.3,3.4,4.2,4.2,0,0,1-1.4-.9l-.4-.2a29.6,29.6,0,0,1-6.5-7.4,44.3,44.3,0,0,1-4-7.8,61.4,61.4,0,0,1-2.7-7.9,73,73,0,0,1-1.8-8.1,2.4,2.4,0,0,1,2-2.9,2.6,2.6,0,0,1,2.8,1.5Z"></path><path fill="#ffef85" d="M1731.2,2379a43.3,43.3,0,0,0,10.9,2.5s82.8,28.2,121.5-3.8c0,0,63.2,13.9,86.4-14,0,0,43.8,11.5,44.2-10.4s-12-38.1-36.1-43.8l.9,4.4s-8.2-5.8-24.2-3.3c0,0-56-31.6-91,1.2,0,0-108.5-39.8-112.6,63.5"></path><path fill="#d1dadf" d="M1672.1,2025.5s28.5,90.1,30.7,181.9l-5.6,5c-4.8,4.6-9.7,8.2-9.7,11.4-.1,6.7,5.1,19,5.1,19s-17.3,8.1-17.5,18.8a19,19,0,0,0,8.1,15.8c-9.1,22.8-24.6,17.5-2.5,48.7,23.5,33.1,35.5,47.1,49.9,52.7-7.2-44.5,31.3-68.6,31.3-68.6,32.3-19.1,81.4.1,81.4.1,5.6-5.3,19.6-16.5,47.3-14.5s44.3,13.7,44.3,13.7c10.3-2.5,23.2,2.1,23.2,2.1l-.9-2.3s6.2-33.3-52.4-33.5l-.6-2.1c-8.9-19.2-31.9-17.8-31.9-17.8,2.8-10-18.9-28.1-18.9-28.1,9.5-152.6,66.9-194.6,66.9-194.6Z"></path><g clip-path="url(#littleFoot__e)"><path fill="#eef8f8" d="M1849.9,2255.7a5.6,5.6,0,0,0,.1.7C1850.1,2256.9,1850.1,2256.6,1849.9,2255.7Z"></path><path fill="#ffef85" d="M1670.9,2016c1.3,12.3,3.2,29.2,5.7,49.2l10.7,72c50-3.4,105-75,128-100,4.8-5.3-37.9,116.1-31,111.1,33-24.1,80.3-13.5,80.3-13.5l24.7-57.6,36.5-51.6,4.1-5.9Z"></path></g><path style="mix-blend-mode:multiply" fill="url(#littleFoot__f)" d="M1672.1,2025.5h0c49.9,74.6,44.8,161.4,44.8,161.4,13.5,26.7,11.3,37.1,12.8,48.8s-18.5,21.4-13.9,33.9-15.4,34,2.9,43.5,26,15.6,26,15.6,6.2,13,32.9,26.4c32.5,16.3,64.9,14.2,85.1,7,1.5-.6,4.9-19.9,6-20.3l3.4-1.2c25.7,16.3,64,18.7,82.1,12.7,1-.3,1-4.6,1.8-4.9l8.3-2.7c9.8,6.3,15.4,8.2,27.2,6,.5,3.1,2.7,1.8,2.6,5.1-.4,21.9-44.2,10.4-44.2,10.4-23.2,27.9-86.4,14-86.4,14-38.7,32-121.4,3.8-121.4,3.8a42.3,42.3,0,0,1-10.9-2.5l-.8-.7c0,.2.1.3.1.5-14.4-5.6-26.4-19.6-49.9-52.7-22.1-31.2-6.6-25.9,2.5-48.7a19,19,0,0,1-8.1-15.8c.2-10.7,17.5-18.8,17.5-18.8s-5.2-12.3-5.1-19c-.7-8.2,5-10.3,9.8-14.9l5.6-5C1702.1,2148.3,1680.2,2081.8,1672.1,2025.5Z" opacity=".4"></path><path style="mix-blend-mode:overlay" fill="url(#littleFoot__g)" d="M1853.4,2227.8s21.6,18.1,18.8,28.1c0,0,23.1-1.4,31.9,17.8l.7,2.1c55.1.1,52.9,29.6,52.4,33.1l.8.6c22.7,5.4,35.1,20.4,36.1,40.2l-5.6-.5c-11.4-22.9-38.4-29.1-38.4-29.1,7.4,9,4.9,20.6,4.9,20.6-31-29.2-102.9-29.5-102.9-29.5l30.2-15.6c6.6-12.9-26.4-28.8-26.4-28.8h0c11.2-12.8-17.7-35.8-17.7-35.8-16.8-1.9-2-67-2-67,12-65.3,46.2-110,84.1-130.8h0S1864.2,2077.5,1853.4,2227.8Z" opacity=".2"></path><path fill="#ffef85" d="M1675.1,2023.9s-5.3,1.6-2.2,2.7,239.6,9.6,244,9.1,4.9-4-1.6-4.2Z"></path><path style="mix-blend-mode:overlay" fill="url(#littleFoot__h)" d="M1766.7,2260s24.9,27,21.5,44.9c0,0-21.3-2.7-32.4,10.5,0,0,77.8,3.8,107.1,34.3,0,0,8.8-25.2-21.4-45C1841.5,2304.7,1827.3,2254.4,1766.7,2260Z" opacity=".3"></path><path fill="#31323d" d="M1855.8,2264.3c2.2-.1,4.2-.1,6.3,0l6.1.4q6.1.6,12.3,1.8a101.3,101.3,0,0,1,23.7,7.8,83.9,83.9,0,0,1,21.2,14,80.1,80.1,0,0,1,16,20.2l-2.4-2.6h0l1,.6.8.6,1.8,1.1,3.2,2.4a78.7,78.7,0,0,1,6.2,5.3,50.2,50.2,0,0,1,10.1,13.7,31.7,31.7,0,0,1,2.8,8.7,29,29,0,0,1,.1,9.3,32.2,32.2,0,0,1-2.7,8.8,40.3,40.3,0,0,1-4.5,7.5,6.2,6.2,0,0,1-8.7,1.2,6.2,6.2,0,0,1-1.3-8.7h0a22.2,22.2,0,0,0,4.8-10.5,17.9,17.9,0,0,0-1.8-10.8,37.3,37.3,0,0,0-7.5-10.1,53.7,53.7,0,0,0-5.1-4.4l-2.7-2-1.4-.9-.7-.4-.6-.4-2.5-2.5a68.9,68.9,0,0,0-12.3-18.4,80.5,80.5,0,0,0-17.8-13.9,96.6,96.6,0,0,0-21.3-8.8c-3.8-1.1-7.6-1.9-11.4-2.6l-5.8-.8c-2-.3-4-.4-5.8-.5h-.1a2.5,2.5,0,0,1-2.4-2.6A2.6,2.6,0,0,1,1855.8,2264.3Z"></path><path fill="#31323d" d="M1766.7,2257.5a104.8,104.8,0,0,1,24.9,1.7,70.9,70.9,0,0,1,24,9.1,66.1,66.1,0,0,1,19.2,17.7,79.1,79.1,0,0,1,6.9,11.1c1.9,3.8,3.6,7.8,5.2,11.8l-4.9-4.2h1l.8.2,1.5.5,2.8,1.1a28.6,28.6,0,0,1,5.2,2.7,40.2,40.2,0,0,1,8.8,7.6,47.1,47.1,0,0,1,9.8,20.4,77.5,77.5,0,0,1,1.2,21.4,124.2,124.2,0,0,1-3.5,20.4,6.2,6.2,0,1,1-12.1-2.9h0a115.9,115.9,0,0,0,3.1-18.4,61.9,61.9,0,0,0-.9-17.8,34.1,34.1,0,0,0-7.1-14.8,23,23,0,0,0-6-5.2,39,39,0,0,0-3.5-1.9l-1.8-.7-.9-.2-.6-.2h.1l-4.9-4.2a98.6,98.6,0,0,0-3.8-10.8,72.9,72.9,0,0,0-5.2-10,58,58,0,0,0-15.2-16.4,65.6,65.6,0,0,0-20.7-9.7,100.9,100.9,0,0,0-23.4-3.4h0a2.5,2.5,0,0,1-2.4-2.6A2.4,2.4,0,0,1,1766.7,2257.5Z"></path><path fill="#31323d" d="M1961.2,2316.6h-3.6l-3.6-.2-7.2.2-6.9.8-1.7.3h-1.8a8.4,8.4,0,0,1-2.7-.4l-1.3-.4-.3-.2h-.5l-.8-.4-1.7-.8a141.5,141.5,0,0,0-28-9.3c-9.6-2.1-19.3-2.9-28.5-1.4a46.1,46.1,0,0,0-13.2,4.1,45.2,45.2,0,0,0-11.3,7.7h0l-.3.2a6,6,0,0,1-6.1,1.1l-2.1-.7-2.2-.8-4.5-1.3c-3-.8-6.1-1.6-9.2-2.2a128.7,128.7,0,0,0-18.5-2.6,94.8,94.8,0,0,0-18.5.5,61.1,61.1,0,0,0-17.5,4.6,49.1,49.1,0,0,0-14.9,9.7,51.7,51.7,0,0,0-10.6,14.4,63.2,63.2,0,0,0-3.5,8.5,66.3,66.3,0,0,0-2.5,9,113.8,113.8,0,0,0-2.6,18.7h0a4,4,0,1,1-7.9-.3,114.4,114.4,0,0,1,2.1-20.2,86,86,0,0,1,2.5-10,71.5,71.5,0,0,1,3.7-9.7,59.8,59.8,0,0,1,5.3-9.1,58.5,58.5,0,0,1,6.7-8.2,60.6,60.6,0,0,1,17.5-12.2,75.9,75.9,0,0,1,20.1-5.9,102.1,102.1,0,0,1,20.6-1.1,137,137,0,0,1,20.3,2.2c3.4.6,6.7,1.3,10,2.1l4.9,1.3,2.5.8,2.6.8-6.5,1.3h0a59.3,59.3,0,0,1,14.3-10,66.7,66.7,0,0,1,16.5-5.5c11.4-2.1,22.8-1.3,33.6.9a119.5,119.5,0,0,1,15.8,4.6,133.7,133.7,0,0,1,15,6.6l1.8,1,.9.5h.1l-.4-.2c-.2,0-.5-.1-.7,0h.2l2.2-.2a49.1,49.1,0,0,1,8.6.5,39.9,39.9,0,0,1,8.4,2.2l3.9,1.8,1.9,1.2,1.8,1.3a2.6,2.6,0,0,1,.4,3.6,2.7,2.7,0,0,1-2,.9Z"></path><path fill="#31323d" d="M1922.5,2034.2l-4.6,6c-1.6,2-3,4-4.5,6.1s-2.9,4.1-4.3,6.2-2.8,4.2-4.1,6.3c-2.7,4.2-5.3,8.6-7.7,13s-4.7,8.8-6.8,13.3a263.1,263.1,0,0,0-11,27.8,267.2,267.2,0,0,0-7.6,28.9v-.4c-1.2,9.9-2.6,19.7-4,29.6s-2.9,19.7-4.4,29.6l-2.1,14.8-.6,3.7v1.3a1.5,1.5,0,0,0,.1.7,3.4,3.4,0,0,0,1.1,2.3h.7a11.8,11.8,0,0,1,2.2,1.4,22.5,22.5,0,0,1,3.7,3.1,31.3,31.3,0,0,1,5.5,7.2,37.3,37.3,0,0,1,3.7,8.1,26.9,26.9,0,0,1,1.2,9.7l-5.7-6.7h1.6l1.4.2a14,14,0,0,1,2.8.6,46.1,46.1,0,0,1,5.3,1.5,49.9,49.9,0,0,1,10.2,4.8,39.4,39.4,0,0,1,8.9,7.4l1.9,2.2,1.7,2.4.8,1.3.7,1.2,1.4,2.6a6.4,6.4,0,0,1-2.6,8.5,6.3,6.3,0,0,1-8.4-2.6l-.4-.6-.9-1.8-.5-.9-.6-.8-1.1-1.6-1.3-1.5a26,26,0,0,0-6.2-5.2,40.7,40.7,0,0,0-7.6-3.6l-4.2-1.2-2-.4-1-.2h-1a6.3,6.3,0,0,1-5.6-6.7,14,14,0,0,0-.8-5,27,27,0,0,0-2.4-5.5,25.3,25.3,0,0,0-3.6-4.7l-2-1.7-1-.6h-.1l-.4-.2-.6-.4a3.8,3.8,0,0,1-1.3-.9,15.6,15.6,0,0,1-6-10.4c-.1-1-.1-2.1-.1-3.1a1.7,1.7,0,0,1,.1-.7v-.7l.2-.9.5-3.7,2-14.9c1.3-9.8,2.6-19.7,4-29.6s2.8-19.8,4.4-29.6v-.2a.4.4,0,0,1,.1-.3,225.3,225.3,0,0,1,9.1-30,228.7,228.7,0,0,1,13-28.5c2.5-4.6,5.2-9,8-13.4s5.8-8.7,8.9-12.9c1.6-2,3.1-4.1,4.8-6.1l4.9-6c1.8-1.9,3.5-3.9,5.2-5.8l5.4-5.6a2.4,2.4,0,0,1,3.5,0,2.6,2.6,0,0,1,.3,3.3Z"></path><path fill="#31323d" d="M1674.5,2025.1c4.4,18.3,8.2,36.7,12,55.1,1.8,9.2,3.7,18.4,5.4,27.7s3.4,18.5,5,27.8c.8,4.6,1.5,9.3,2.3,13.9l2.1,14c1.3,9.3,2.6,18.7,3.7,28.1l.8,7.1.4,3.5v2a19.3,19.3,0,0,1,.1,2.4,21.8,21.8,0,0,1-.8,4.9,17.8,17.8,0,0,1-5.7,9,31.6,31.6,0,0,1-3.6,2.6l-2.6,1.6-.3.3a1.4,1.4,0,0,0,.3-.5c0-.2.1-.3.1-.5h0v.6a1.5,1.5,0,0,0,.1.6,13.6,13.6,0,0,0,.4,2.7,71,71,0,0,0,4.1,12.3,6.3,6.3,0,0,1-3,8h-.1l-1,.5-1,.6-2.1,1.2-4,2.8a20.4,20.4,0,0,0-5.3,6.1,4.3,4.3,0,0,0-.5,1.3,4.3,4.3,0,0,1-.1.5v.8a11.3,11.3,0,0,0,.6,3.6,13.7,13.7,0,0,0,1.6,3.2l1.2,1.5.7.7.3.3.5.4a7.6,7.6,0,0,1,2.8,5.4,6.9,6.9,0,0,1-.4,3.2v1.1l-1.4,2.8a46.8,46.8,0,0,1-3,5.4c-2.2,3.4-4.9,6.6-6.5,9a7.5,7.5,0,0,0-1.5,3,6,6,0,0,0,0,2.7,34.8,34.8,0,0,0,3.6,8.2c1.7,2.9,3.7,5.9,5.7,8.8l6.4,9,12.5,18.2c2.1,3,4.2,6,6.3,8.8s4.3,5.7,6.5,8.2a26.4,26.4,0,0,0,6.7,5.7,19.7,19.7,0,0,0,8.1,2.2l1.3.2h.1l7.9,2.2q4,1.2,8.1,2.1c5.5,1.3,11,2.5,16.4,3.5a249,249,0,0,0,33.2,4.2,137.1,137.1,0,0,0,32.7-1.4,77.4,77.4,0,0,0,15.2-4.1,49.7,49.7,0,0,0,13.1-7.5,6.6,6.6,0,0,1,5.2-1.3h.1l5.3,1,5.4.8c3.7.5,7.3.9,11,1.1a144.2,144.2,0,0,0,21.8,0,81.8,81.8,0,0,0,20.7-4.2c6.4-2.3,12.1-5.8,16.1-10.6a6.2,6.2,0,0,1,6.3-2.1h.1l2.5.6,2.6.5a47.1,47.1,0,0,0,5.2.9,74,74,0,0,0,10.4.8,31.9,31.9,0,0,0,9.5-1,10.2,10.2,0,0,0,3.5-1.4,5.5,5.5,0,0,0,1.9-1.8,5.4,5.4,0,0,0,.7-2.6v-2.2a20.9,20.9,0,0,0-.1-2.5,39.3,39.3,0,0,0-.6-4.8,25.2,25.2,0,0,0-1.3-4.7,32.1,32.1,0,0,0-10.7-15.2,41.1,41.1,0,0,0-8.3-5.1,37.1,37.1,0,0,0-4.6-1.9l-2.5-.8-1.2-.3-.6-.2-.6-.2-1.3-.5a10.8,10.8,0,0,1-2.3-1.8,12.9,12.9,0,0,1-1.3-1.8,8.9,8.9,0,0,1-.9-2.2l-.9-2.2c-.7-1.4-1.4-2.8-2.2-4.1a34.7,34.7,0,0,0-6.3-7,59.7,59.7,0,0,0-17.3-9.9,177.2,177.2,0,0,0-20.6-6.5h0a4,4,0,0,1-2.9-4.9,4.2,4.2,0,0,1,4-3,89.6,89.6,0,0,1,23.3,3.2l2.9.9,2.8,1,2.9,1.2,2.8,1.3a51.2,51.2,0,0,1,10.6,7,44.5,44.5,0,0,1,8.4,9.9,47.5,47.5,0,0,1,3.1,5.9l1.2,3v.4l-.5-.6a2.9,2.9,0,0,0-1.2-.9l-.6-.3h-.2c-.1,0,0,.1,0,.1h.2l.8.2,1.4.4,3,1,5.8,2.3a55.4,55.4,0,0,1,10.8,6.7,50.1,50.1,0,0,1,4.8,4.4,64,64,0,0,1,4.1,5,47,47,0,0,1,5.9,11.6,48.5,48.5,0,0,1,1.6,6.3q.6,3.2.9,6.3c.1,1,.1,2.1.1,3.1v3.4a17.6,17.6,0,0,1-8.5,14.1,25.4,25.4,0,0,1-6.9,2.9,44.1,44.1,0,0,1-12.8,1.4,94.1,94.1,0,0,1-12-.9l-5.9-1-2.9-.6-3-.7,6.4-2a45.2,45.2,0,0,1-9.9,8.7,55.4,55.4,0,0,1-11.5,5.6,92.7,92.7,0,0,1-23.9,5,171.9,171.9,0,0,1-23.8,0l-11.7-1.2c-2-.3-3.9-.5-5.8-.9s-3.9-.6-6-1.1l5.3-1.2a61.5,61.5,0,0,1-16.4,9.5,103.3,103.3,0,0,1-17.7,4.8,157,157,0,0,1-35.5,1.5,269.1,269.1,0,0,1-34.8-4.4c-5.7-1.1-11.3-2.3-17-3.6l-8.4-2.2-8.5-2.4,1.4.2a32,32,0,0,1-6.6-1,32.7,32.7,0,0,1-6.5-2.6,39.8,39.8,0,0,1-10-8.4c-2.7-3-5-6-7.3-9.1s-4.3-6.1-6.4-9.1l-12.6-18.1-6.3-9c-2.2-3.1-4.3-6.3-6.3-9.7-1-1.8-1.9-3.5-2.8-5.5a27.5,27.5,0,0,1-2.2-6.5,18.9,18.9,0,0,1,0-8.2,21.1,21.1,0,0,1,3.3-6.9,52.3,52.3,0,0,1,3.5-4.7l2.9-4.2a28.6,28.6,0,0,0,2.4-4.2c.3-.7.7-1.4,1-2.2v-.3h.1v.2a3.7,3.7,0,0,0-.2,1.8,4.4,4.4,0,0,0,1.5,3.1l-.5-.5-.7-.6-1.3-1.3a31.1,31.1,0,0,1-2.3-2.8,25.5,25.5,0,0,1-3.3-6.6,29.3,29.3,0,0,1-1.2-7.2v-.9c0-.4.1-.7.1-1.1a14.6,14.6,0,0,1,.3-2.2,16.4,16.4,0,0,1,1.4-3.9,24.1,24.1,0,0,1,4-6,49.5,49.5,0,0,1,4.8-4.5,58.8,58.8,0,0,1,5.1-3.6,22.6,22.6,0,0,1,2.6-1.6l1.4-.7,1.4-.8-3,8.1c-1-2.4-1.9-4.6-2.7-7a57.5,57.5,0,0,1-2.1-7.4c-.3-1.4-.6-2.7-.8-4.2a3.7,3.7,0,0,0-.1-1.1v-2a4.1,4.1,0,0,1,.1-1.1,8,8,0,0,1,.5-2.1,9.9,9.9,0,0,1,2.1-3.5,14.1,14.1,0,0,1,2.3-2.1l3.3-2.2a8.4,8.4,0,0,0,3.2-2.8,3,3,0,0,0,.6-1.4,6.4,6.4,0,0,0,.3-2v-2.7l-.4-3.4-.9-6.9c-1.3-9.3-2.5-18.5-3.9-27.8l-4.1-27.8-4-27.9c-1.4-9.2-2.7-18.5-4-27.9-2.4-18.6-4.8-37.2-6.5-56a2.5,2.5,0,0,1,2.3-2.7A2.4,2.4,0,0,1,1674.5,2025.1Z"></path><path fill="#31323d" d="M1719.3,2187.6c-.6,2.8-1.3,5.4-2.1,8.1a63.7,63.7,0,0,1-3,7.9,45.4,45.4,0,0,1-4.3,7.7,30.6,30.6,0,0,1-6.8,7.2l-.3.2a6.3,6.3,0,1,1-7.5-10.2l1.5-.8a17.6,17.6,0,0,0,5.1-3.3,40,40,0,0,0,4.8-5.2,69,69,0,0,0,4.2-6.3,63.3,63.3,0,0,0,3.6-6.8h0a2.6,2.6,0,0,1,3.4-1.2A2.7,2.7,0,0,1,1719.3,2187.6Z"></path><path fill="#ffef85" d="M1035.8,2240.8s-89,22.7-175.5,15.4c1.8-23.1-18.6-43.4-18.6-43.4-26.5-26.5-58.4-7.8-58.4-7.8-19.9-7.6-42.3-.8-42.3-.8-5-1.7-16.2-2.1-16.2-2.1,8.3-7.8,57.4-52.2,109.8-56.4a14.3,14.3,0,0,1,.8-2.7c13.2-30.4,97.1-29.2,97.1-29.2S969.1,2217.3,1035.8,2240.8Z"></path><path fill="#ffef85" d="M859.4,2256.1c-6.2-.5,6.6.9,0,0,0,0-66.2,4.9-94-7.1,0,0-39,10-46.2-7.8,0,0-31.5,8-33-7,0,0,7.4-30.7,38.3-32,0,0,10.3.3,16.5,2,17.6-6.5,39.3.6,39.3.6a15.9,15.9,0,0,1,3.9,1.8,42.2,42.2,0,0,1,7.7-3.7s42.3-12.9,61.5,30.1A72.6,72.6,0,0,1,859.4,2256.1Z"></path><path style="mix-blend-mode:multiply" fill="url(#littleFoot__i)" d="M929.7,2113.7s-24,.9-28.3,5.3c-3.5,6.1,2.7,18,10.4,26.5,13.3,14.7,56,82,23.4,72.8,0,0-16.1-13.9-41.6-25.2,0,0,.8,22.2-39.4,31.1,0,0-28,23.6-84.4,11.9,0,0-4.3-5.7-4.3-11.2l5-8.4s-22.8,26.7-48.1,20.1l1.6-20.8s-15.3,17-33.4,16.7a26.1,26.1,0,0,0-4,.2,11,11,0,0,0-.4,1.5c1.5,15.3,34.1,6.7,33,7,7.2,17.8,46.2,7.8,46.2,7.8,27.8,12,94,7.1,94,7.1l1.9.2c71.9,5.8,161.2-8,171.6-13.7C1032.9,2242.6,960.9,2201.5,929.7,2113.7Z" opacity=".4"></path><path style="mix-blend-mode:overlay" fill="url(#littleFoot__j)" d="M933.1,2112.3c-16.5,1.2-88.4,9.5-97.6,30.7a9,9,0,0,0-.8,2.7c-52.4,4.2-101.4,48.5-109.8,56.4h-.3c-31,1.3-38.4,32-38.4,32s2.1,3.1,2.6,4c11.6-18.5,35.2-23.6,35.2-23.6V2236c12.3-24.4,54-30.2,54-30.2l-13.7-4.7c48.7-41,124.9-34.4,124.9-34.4-7.4-12.5-20.4-17.6-20.4-17.6,6.7-6.7,58.4-14.4,67.7-17.6Z" opacity=".3"></path><path style="mix-blend-mode:overlay" fill="url(#littleFoot__k)" d="M770,2233.1s51.5-29,74.3-15.6c0,0-19.9-24.7-54.4-12.7C789.9,2204.8,769.8,2216.2,770,2233.1Z" opacity=".4"></path><path fill="#31323d" d="M758,2246.4a63.4,63.4,0,0,1,3.4-20.5,45,45,0,0,1,11.7-17.8,52.4,52.4,0,0,1,13.2-8.7l2.5-1,1.2-.5h.8l.7-.2a59.5,59.5,0,0,1,10.1-1.8,69.5,69.5,0,0,1,10.2-.2,53.6,53.6,0,0,1,19.9,5,49.2,49.2,0,0,1,16.2,12.7,63.7,63.7,0,0,1,10.1,17.4,96.6,96.6,0,0,1,5.3,18.9,4,4,0,0,1-7.9,1.5h0a92.3,92.3,0,0,0-5.2-17.2,56.6,56.6,0,0,0-9.1-14.7,39.3,39.3,0,0,0-13.4-9.9,43.6,43.6,0,0,0-16.4-3.7,61.9,61.9,0,0,0-8.6.4,71.7,71.7,0,0,0-8.3,1.7l-.5.2h-.3l-.9.4-1.9.8-3.6,2a35.4,35.4,0,0,0-6.4,5,34.2,34.2,0,0,0-8.2,13.7,52.4,52.4,0,0,0-2.1,16.4,6.2,6.2,0,0,1-6,6.5,6.3,6.3,0,0,1-6.5-6.1Z"></path><path fill="#31323d" d="M779.5,2207.2a87.8,87.8,0,0,0-10.2-2.1,73.4,73.4,0,0,0-10.4-.6c-6.9.1-13.7,1.2-19.3,4.2a24.5,24.5,0,0,0-7.1,5.6,26.8,26.8,0,0,0-4.6,7.8,48.4,48.4,0,0,0-2.5,19.1,6.3,6.3,0,0,1-5.9,6.6,6.3,6.3,0,0,1-6.6-6v-.5h0a59.8,59.8,0,0,1,5.3-23.4,36.1,36.1,0,0,1,7.3-10.2,33.4,33.4,0,0,1,10.4-6.8,45.1,45.1,0,0,1,11.6-3,56.4,56.4,0,0,1,11.6-.2,84.1,84.1,0,0,1,11.2,1.7l5.4,1.4,5.4,1.7a2.5,2.5,0,0,1-1.5,4.8Z"></path><path fill="#31323d" d="M829.7,2140.5a17.9,17.9,0,0,1,2.5-4.1,29.7,29.7,0,0,1,3-3.1,39.9,39.9,0,0,1,6.1-4.3,99.5,99.5,0,0,1,12.4-5.9,232.7,232.7,0,0,1,25.1-7.6c8.4-2,16.8-3.7,25.2-5.3s16.9-2.8,25.5-4a6.3,6.3,0,0,1,6.6,4.2h.1a212.3,212.3,0,0,0,16.8,37,296.2,296.2,0,0,0,22.9,33.9,317,317,0,0,0,27.5,30.4,270.8,270.8,0,0,0,31.4,26.2h.1l.8.8a10.4,10.4,0,0,1,1.9,2.9,9.7,9.7,0,0,1,.7,3.2,7.8,7.8,0,0,1-.2,2.7,2.7,2.7,0,0,1-.3,1.2,1.4,1.4,0,0,1-.2.6c0,.2-.1.3-.3.8a5.8,5.8,0,0,1-3.7,3.3h-.1a83.1,83.1,0,0,1-11.3,2.6l-11,1.6c-7.3.9-14.5,1.6-21.8,2.1-14.5,1.2-28.9,1.9-43.4,2.4s-28.9.8-43.4.9-29-.2-43.5-.6h.7c-8.1.6-16,.9-24,1s-16.1,0-24.1-.3-16.1-1-24.2-2.1c-4.1-.6-8.2-1.3-12.2-2.3a68.1,68.1,0,0,1-12.4-3.9l4.1.3-3.4.8-3.3.6-6.5,1a87.4,87.4,0,0,1-13.6.6,44,44,0,0,1-14.3-2.7,23.3,23.3,0,0,1-7.2-4.3,19.4,19.4,0,0,1-5.3-7.4l7.3,3.7-3.1.7-3,.5-6.1.8a51,51,0,0,1-12.9-.2,28.6,28.6,0,0,1-7.3-2.2,15.1,15.1,0,0,1-6.7-7.2,15.4,15.4,0,0,1-.7-9.7l.4-1.2.3-.7.6-1.5c.4-1,.9-2,1.3-2.9a58.5,58.5,0,0,1,6.8-10.9,50.7,50.7,0,0,1,9.6-8.9,44.7,44.7,0,0,1,11.8-5.8,48,48,0,0,1,12.9-2.3l-4.2,1.9c1.3-1.4,2.5-2.5,3.8-3.7l3.9-3.5,7.9-6.6c5.4-4.4,10.9-8.5,16.5-12.4a200.9,200.9,0,0,1,36.2-20.3,155.2,155.2,0,0,1,19.8-7,122.5,122.5,0,0,1,20.8-3.7,93.9,93.9,0,0,1,21.2.6,90.2,90.2,0,0,1,10.3,2.3,69.3,69.3,0,0,1,9.9,3.7,2.5,2.5,0,0,1,1.2,3.3,2.6,2.6,0,0,1-2.7,1.5h-.1c-3.2-.6-6.4-1-9.7-1.3s-6.4-.5-9.6-.5-6.4.2-9.6.5-6.3.7-9.5,1.2a148.2,148.2,0,0,0-18.6,4.5,165.1,165.1,0,0,0-18.1,7,242.5,242.5,0,0,0-34.1,19c-5.4,3.7-10.7,7.5-15.9,11.6-2.6,2-5.1,4.1-7.6,6.2l-3.6,3.3-3.5,3.2h-.1a5.8,5.8,0,0,1-4.1,1.7,38.6,38.6,0,0,0-9.6,1.6,26.5,26.5,0,0,0-8.4,4.2,37.5,37.5,0,0,0-12.3,14.9l-1.1,2.3c-.1.4-.3.8-.4,1.1l-.2.6a.3.3,0,0,0-.1.2,2.6,2.6,0,0,0,.1,1.5,2,2,0,0,0,.9.9,17.3,17.3,0,0,0,3.6,1.1c5.9.9,13.5-.1,20-1.6h.1a6.1,6.1,0,0,1,7.2,3.7,8.6,8.6,0,0,0,2,2.7,10.3,10.3,0,0,0,3.6,2,31.9,31.9,0,0,0,10.2,1.9,90.8,90.8,0,0,0,11.6-.5l5.9-.9,2.9-.6,2.8-.6h0a6.7,6.7,0,0,1,4,.3,60.9,60.9,0,0,0,10.2,3.3c3.6.8,7.4,1.5,11.1,2a220.7,220.7,0,0,0,23,2q11.7.5,23.4.3c7.8-.1,15.6-.4,23.3-.9h.7q21.4.6,42.9.6c14.4-.1,28.7-.3,43.1-.9s28.6-1.2,42.8-2.3l21.3-2.1c3.5-.4,6.9-1,10.4-1.5a81.8,81.8,0,0,0,9.7-2.2l-3.8,3.4v.2h-.1v.3a3.1,3.1,0,0,0,.2.8l.6,1,1,.8a287.9,287.9,0,0,1-32.9-27.4,318.4,318.4,0,0,1-28.6-31.7,281.5,281.5,0,0,1-23.9-35.4,230.4,230.4,0,0,1-17.9-39.1l6.7,4.1c-8.2,1.1-16.5,2.4-24.8,3.9s-16.4,3.2-24.4,5.2a195.8,195.8,0,0,0-23.6,7.1,94.3,94.3,0,0,0-10.6,4.9,50.9,50.9,0,0,0-4.2,3l-1.5,1.5-.8,1.3v.3a6.2,6.2,0,0,1-8.4,2.8A6.1,6.1,0,0,1,829.7,2140.5Z"></path><path fill="#ffef85" d="M1920.6,2240.8s89.1,22.7,175.6,15.4c-1.8-23.1,18.6-43.4,18.6-43.4,26.5-26.5,58.4-7.8,58.4-7.8,19.8-7.6,42.2-.8,42.2-.8,5-1.7,16.2-2.1,16.2-2.1-8.3-7.8-57.4-52.2-109.8-56.4a9,9,0,0,0-.8-2.7c-13.1-30.4-97.1-29.2-97.1-29.2S1987.3,2217.3,1920.6,2240.8Z"></path><path fill="#ffef85" d="M2097.1,2256.1c6.1-.5-6.7.9,0,0,0,0,66.2,4.9,93.9-7.1,0,0,39,10,46.3-7.8,0,0,31.5,8,33-7,0,0-7.4-30.7-38.4-32,0,0-10.2.3-16.5,2-17.5-6.5-39.3.6-39.3.6a16.1,16.1,0,0,0-3.8,1.8,43.2,43.2,0,0,0-7.8-3.7s-42.2-12.9-61.5,30.1A74,74,0,0,0,2097.1,2256.1Z"></path><path style="mix-blend-mode:multiply" fill="url(#littleFoot__l)" d="M2026.8,2113.7s23.9.9,28.2,5.3c3.5,6.1-13.5,49.1-23.2,66.2-11.9,21.1-51.6,53-18.9,43.9,0,0,26.6-5.6,49.9-36,0,0-.8,22.2,39.4,31.1,0,0,28.1,23.6,84.4,11.9,0,0,4.3-5.7,4.3-11.2l-5-8.4s22.8,26.7,48.1,20.1l-1.5-20.8s15.2,17,33.3,16.7a26.1,26.1,0,0,1,4,.2l.5,1.5c-1.6,15.3-34.2,6.7-33,7-7.3,17.8-46.3,7.8-46.3,7.8-27.7,12-93.9,7.1-93.9,7.1l-1.9.2c-72,5.8-161.3-8-171.6-13.7C1923.6,2242.6,1995.5,2201.5,2026.8,2113.7Z" opacity=".4"></path><path style="mix-blend-mode:overlay" fill="url(#littleFoot__m)" d="M2023.3,2112.3c16.6,1.2,88.5,9.5,97.7,30.7a11.2,11.2,0,0,1,.7,2.7c52.4,4.2,101.5,48.5,109.8,56.4h.4c30.9,1.3,38.3,32,38.3,32s-2.1,3.1-2.5,4c-11.6-18.5-35.3-23.6-35.3-23.6V2236c-12.4-24.4-54-30.2-54-30.2l13.6-4.7c-48.6-41-124.9-34.4-124.9-34.4,7.4-12.5,20.5-17.6,20.5-17.6-6.8-6.7-58.5-14.4-67.8-17.6Z" opacity=".3"></path><path style="mix-blend-mode:overlay" fill="url(#littleFoot__n)" d="M2186.4,2233.1s-51.5-29-74.2-15.6c0,0,19.8-24.7,54.3-12.7C2166.5,2204.8,2186.7,2216.2,2186.4,2233.1Z" opacity=".4"></path><path fill="#31323d" d="M2185.9,2246.2a47.1,47.1,0,0,0-2.1-16.4,34.2,34.2,0,0,0-8.2-13.7,38.5,38.5,0,0,0-6.3-5c-1.2-.7-2.4-1.4-3.7-2l-1.9-.8-.9-.4h-.3l-.5-.2a71.7,71.7,0,0,0-8.3-1.7,61.2,61.2,0,0,0-8.6-.4,42.7,42.7,0,0,0-16.3,3.7,38.4,38.4,0,0,0-13.4,9.9,54.1,54.1,0,0,0-9.1,14.7,92.6,92.6,0,0,0-5.3,17.2h0a4,4,0,0,1-4.7,3.1,3.9,3.9,0,0,1-3.1-4.6,89.9,89.9,0,0,1,5.2-18.9,63.7,63.7,0,0,1,10.1-17.4,49.2,49.2,0,0,1,16.2-12.7,53.6,53.6,0,0,1,20-5,67.9,67.9,0,0,1,10.1.2,59.5,59.5,0,0,1,10.1,1.8l.7.2h.8l1.3.5,2.4,1a41.6,41.6,0,0,1,4.7,2.4,43.1,43.1,0,0,1,8.6,6.3,44.7,44.7,0,0,1,11.6,17.8,60.8,60.8,0,0,1,3.4,20.5,6.3,6.3,0,0,1-12.5.1Z"></path><path fill="#31323d" d="M2175.3,2202.4l5.4-1.7,5.4-1.4a84.1,84.1,0,0,1,11.2-1.7,56.4,56.4,0,0,1,11.6.2,44.1,44.1,0,0,1,11.6,3,33.8,33.8,0,0,1,10.5,6.8,40.5,40.5,0,0,1,7.3,10.2,61.5,61.5,0,0,1,5.2,23.4h0a6.3,6.3,0,0,1-6,6.5,6.4,6.4,0,0,1-6.5-6v-.6a48.3,48.3,0,0,0-2.4-19.1,32.1,32.1,0,0,0-4.6-7.8,24.9,24.9,0,0,0-7.2-5.6c-5.6-2.9-12.4-4.1-19.2-4.2a71.7,71.7,0,0,0-10.4.6,85.4,85.4,0,0,0-10.3,2.1h-.1a2.4,2.4,0,0,1-3-1.7A2.5,2.5,0,0,1,2175.3,2202.4Z"></path><path fill="#31323d" d="M2115.3,2145.5a6.6,6.6,0,0,0-.8-1.3l-1.5-1.4a21.2,21.2,0,0,0-4.4-3,77.9,77.9,0,0,0-10.9-4.8,208.5,208.5,0,0,0-24.1-6.7c-8.3-1.9-16.6-3.4-25.1-4.8s-16.9-2.5-25.2-3.4l6.5-4.2a223.2,223.2,0,0,1-19.1,40.8,321.6,321.6,0,0,1-25.8,36.6,336,336,0,0,1-30.6,32.5,296.4,296.4,0,0,1-35.1,27.9l-2.8-11.4c14.9,1.5,30,2.9,45,4s30.1,2.2,45.2,3,30.1,1.3,45.1,1.4,30.1,0,45-.8h.8c7.7.5,15.6.8,23.4.9s15.6,0,23.3-.3a216,216,0,0,0,23-2c3.8-.5,7.5-1.2,11.1-2a60.9,60.9,0,0,0,10.2-3.3,7,7,0,0,1,4-.3h.1a19.6,19.6,0,0,0,2.8.6l2.9.6,5.8.9a90.8,90.8,0,0,0,11.6.5,32.6,32.6,0,0,0,10.3-1.9,10.7,10.7,0,0,0,3.5-2,7.3,7.3,0,0,0,2-2.7,6.4,6.4,0,0,1,7.2-3.8h.1c6.6,1.5,14.2,2.5,20,1.6a15.5,15.5,0,0,0,3.6-1.1,2,2,0,0,0,.9-.9,2.6,2.6,0,0,0,.1-1.5v-.2l-.2-.6a11.7,11.7,0,0,1-.5-1.1c-.3-.8-.7-1.5-1-2.3a38.3,38.3,0,0,0-12.3-14.9,28.1,28.1,0,0,0-8.5-4.2,37,37,0,0,0-9.5-1.6,6.3,6.3,0,0,1-4.2-1.7h0l-3.5-3.2-3.7-3.3c-2.5-2.1-5-4.2-7.6-6.2-5.1-4.1-10.5-7.9-15.9-11.6a242.5,242.5,0,0,0-34.1-19,171.7,171.7,0,0,0-18-7,154.1,154.1,0,0,0-18.7-4.5,121.1,121.1,0,0,0-19.1-1.7c-3.2,0-6.4.2-9.6.5s-6.5.7-9.7,1.3h-.1a2.5,2.5,0,0,1-1.4-4.8c12.7-5.9,27.3-7.8,41.3-6.6a120.8,120.8,0,0,1,20.8,3.7,149.9,149.9,0,0,1,19.8,7,194.3,194.3,0,0,1,36.2,20.3c5.7,3.9,11.2,8,16.5,12.4l7.9,6.6,3.9,3.5,3.9,3.7-4.3-1.9a48,48,0,0,1,12.9,2.3,43.2,43.2,0,0,1,11.8,5.8,45.3,45.3,0,0,1,9.6,8.9,53.7,53.7,0,0,1,6.8,10.9,25.5,25.5,0,0,1,1.3,2.9l.6,1.5.3.7.4,1.2a15.4,15.4,0,0,1-.7,9.7,14.7,14.7,0,0,1-6.7,7.2,27.4,27.4,0,0,1-7.3,2.2,51,51,0,0,1-12.9.2l-6.1-.8-3-.5-3.1-.7,7.4-3.7a21.8,21.8,0,0,1-5.3,7.4,25.9,25.9,0,0,1-7.2,4.3,45,45,0,0,1-14.4,2.7,86.1,86.1,0,0,1-13.5-.6l-6.6-1-3.3-.6-3.3-.8,4-.3a64.8,64.8,0,0,1-12.3,3.9c-4.1,1-8.2,1.7-12.2,2.3-8.2,1.1-16.2,1.7-24.3,2.1s-16,.4-24,.3-16-.4-24.1-1h.9c-15.4.9-30.7,1.1-45.9.9s-30.4-.7-45.6-1.5-30.4-1.7-45.5-2.9-30.3-2.5-45.5-4.1a6.2,6.2,0,0,1-5.5-6.9,6.1,6.1,0,0,1,2.7-4.5h0a279.2,279.2,0,0,0,33.6-26.7,311,311,0,0,0,29.4-31.3,275.9,275.9,0,0,0,24.7-35,207.8,207.8,0,0,0,18.1-38.5h0a6.3,6.3,0,0,1,6.6-4.2c8.7,1,17.3,2.2,25.9,3.6s17.2,3,25.8,4.9a205.7,205.7,0,0,1,25.7,7.2,78.1,78.1,0,0,1,12.7,5.6,39.8,39.8,0,0,1,6.4,4.3l3,3a22.5,22.5,0,0,1,2.7,4.3,6.2,6.2,0,0,1-3.2,8.2,6.3,6.3,0,0,1-8.2-2.9Z"></path></g><g id="eye"><defs><linearGradient id="eyeColor1" x2="0%" y2="100%"><stop offset="0%" stop-color="#729100"></stop></linearGradient><linearGradient id="eyeColor2" x2="0%" y2="100%"><stop offset="0%" stop-color="#729100"></stop></linearGradient></defs><defs><clipPath id="eyeClipPath"><circle cx="1703.3" cy="1110.7" r="129.7" fill="#fff" stroke="#31323d" stroke-width="10" stroke-miterlimit="10" transform="translate(-130.9 232.9) rotate(-7.5)" stroke-linecap="round"></circle></clipPath><clipPath id="eyeClipPath2"><circle cx="1162" cy="1128.5" r="129.7" fill="#fff" stroke="#31323d" stroke-width="10" stroke-miterlimit="10" transform="translate(-137.9 162.1) rotate(-7.5)" stroke-linecap="round"></circle></clipPath></defs><circle cx="1703.3" cy="1110.7" r="129.7" fill="#fff" transform="translate(-130.9 232.9) rotate(-7.5)"></circle><g clip-path="url(#eyeClipPath)"><circle cx="1730.3" cy="1113.2" r="106.1" fill="url(#eyeColor1)" transform="translate(-131 236.4) rotate(-7.5)"></circle><circle cx="1727.3" cy="1115.1" r="83" fill="#31323d" transform="translate(-131.3 236.1) rotate(-7.5)"></circle><circle cx="1766.6" cy="1045.2" r="44.2" fill="#fff" transform="translate(-121.8 240.6) rotate(-7.5)"></circle></g><circle cx="1703.3" cy="1110.7" r="129.7" fill="none" stroke="#31323d" stroke-width="10" stroke-miterlimit="10" transform="translate(-130.9 232.9) rotate(-7.5)" stroke-linecap="round"></circle><circle cx="1162" cy="1128.5" r="129.7" fill="#fff" transform="translate(-137.9 162.1) rotate(-7.5)"></circle><g clip-path="url(#eyeClipPath2)"><circle cx="1129" cy="1136.6" r="106.1" fill="url(#eyeColor2)" transform="translate(-139.3 157.8) rotate(-7.5)"></circle><circle cx="1126" cy="1138.5" r="83" fill="#31323d" transform="translate(-139.5 157.4) rotate(-7.5)"></circle><circle cx="1165.3" cy="1068.6" r="44.2" fill="#fff" transform="translate(-130 162) rotate(-7.5)"></circle></g><circle cx="1162" cy="1128.5" r="129.7" fill="none" stroke="#31323d" stroke-width="10" stroke-miterlimit="10" transform="translate(-137.9 162.1) rotate(-7.5)" stroke-linecap="round"></circle></g><g id="mouth"><path fill="#31323d" d="M1371.7,1227.7a14.8,14.8,0,0,1,2.3-16.1c8.2-9.5,26.4-23.8,61.9-26.8s53.2,8,61.9,16.1a14.7,14.7,0,0,1,3.8,15.9h0a20.9,20.9,0,0,1-17.2,13.7c-10,1.1-23.6,5.1-31.4,18.3a12.4,12.4,0,0,1-1.7,2.3l-.3.3a17.6,17.6,0,0,1-25.3.6h0s-8.2-11.9-35.2-11.9a20.8,20.8,0,0,1-18.7-12.1Z"></path><path style="mix-blend-mode:multiply" fill="#595959" d="M1368.9,1376.3s-34.3,128.1,60.1,123.5c44.7-2.2,54.4-51.1,54.4-51.1s-44.5,14.7-74.8-8.4S1368.9,1376.3,1368.9,1376.3Z" opacity=".2"></path><path fill="#31323d" d="M1484.6,1450.9a50.9,50.9,0,0,1-4.5,3.1c-1.6,1-3.2,1.8-4.8,2.7a54.9,54.9,0,0,1-5.1,2.1,56,56,0,0,1-5.4,1.7,66.4,66.4,0,0,1-22.2,2.2,81.2,81.2,0,0,1-42-14.7,77.7,77.7,0,0,1-16.4-15.5A73.1,73.1,0,0,1,1373,1413a80.2,80.2,0,0,1-5.1-21.5,67.2,67.2,0,0,1-.1-11c.1-1.8.3-3.6.5-5.4a49.9,49.9,0,0,1,1.1-5.3,2.5,2.5,0,0,1,3-1.9,2.6,2.6,0,0,1,1.9,2.3h0a21.1,21.1,0,0,1,.2,2.5l.3,2.5c.2,1.6.4,3.3.7,4.9a74.3,74.3,0,0,0,2.1,9.6,82.3,82.3,0,0,0,7.1,18,83.7,83.7,0,0,0,4.8,8.2c1.8,2.5,3.7,5,5.7,7.4a82.6,82.6,0,0,0,48.8,26.4,75.4,75.4,0,0,0,38.1-3.3h0a2.6,2.6,0,0,1,3.3,1.5A2.6,2.6,0,0,1,1484.6,1450.9Z"></path><path fill="#31323d" d="M1447.9,1253.7l-.8,2.9-.8,3c-.5,2-1,4.1-1.4,6.1-.9,4.2-1.7,8.3-2.4,12.5s-1.1,8.4-1.4,12.6c-.2,2-.2,4.1-.2,6.2v6.3a182,182,0,0,0,2.5,25.4c.7,4.2,1.7,8.4,2.8,12.5a85.3,85.3,0,0,0,4.2,12h0a2.6,2.6,0,0,1-1.3,3.3,2.5,2.5,0,0,1-3.2-1,124.2,124.2,0,0,1-10.8-24.8,196.7,196.7,0,0,1-6.1-26.3c-.3-2.3-.6-4.6-.8-6.9s-.2-4.5-.4-6.8c-.3-4.6-.3-9.2-.3-13.7s.4-9.1.7-13.7l.6-6.8.4-3.4c.2-1.2.3-2.2.5-3.5v-.2a9.4,9.4,0,1,1,18.5,2.9A3.2,3.2,0,0,1,1447.9,1253.7Z"></path><path fill="#31323D" d="M1542.7,1278.1c15-3.1,30-5.5,45.1-7.2s30.3-2.9,45.5-3.4c30.3-.9,60.8.5,90.8,5.5a351.5,351.5,0,0,1,44.3,10.3,280.5,280.5,0,0,1,42.3,16.9,221.1,221.1,0,0,1,38.2,24.4,201.8,201.8,0,0,1,31.9,32.1,200.5,200.5,0,0,0-32.7-31.1,225,225,0,0,0-38.5-23.2,277.2,277.2,0,0,0-42.2-15.5,331.2,331.2,0,0,0-44.1-8.9,455.9,455.9,0,0,0-89.7-3c-14.9.9-29.8,2.5-44.7,4.6s-29.5,4.8-44,8.2h0a4.9,4.9,0,0,1-6-3.7,5,5,0,0,1,3.7-6Z"></path><path fill="#31323D" d="M1715.6,1228.8c-12.9.4-25.7,1.3-38.5,2.6s-25.6,3.2-38.2,5.5-25.2,5.1-37.6,8.4-24.6,6.9-36.7,11.1h0a5,5,0,1,1-3.3-9.5h.3c12.6-3.4,25.3-6.4,38.1-8.9s25.6-4.4,38.5-5.9,25.8-2.6,38.7-3.1S1702.7,1228.4,1715.6,1228.8Z"></path><path fill="#31323D" d="M1556.4,1301.3l5.9-.9a14.5,14.5,0,0,1,2.9-.4l3-.3,2.9-.2,3-.2h8.8l3,.2,2.9.2a25.8,25.8,0,0,1,2.9.3l5.8.8,5.8,1.2a139.4,139.4,0,0,1,22.2,6.9,166.3,166.3,0,0,1,20.7,10.3,219.1,219.1,0,0,1,36.7,27.4c5.6,5.1,11,10.5,16.1,16.1a220.6,220.6,0,0,1,14.5,17.5c-4.8-5.8-10.1-11.3-15.4-16.6a219.5,219.5,0,0,0-16.9-15.1,206.2,206.2,0,0,0-37.4-24.9,160.1,160.1,0,0,0-20.5-8.8,134.5,134.5,0,0,0-21.4-5.5l-5.5-.7-5.4-.5-2.8-.2H1580l-5.4.4-2.7.3-2.7.3-2.7.4-2.6.5-5.4,1.1h-.3a4.9,4.9,0,0,1-5.9-3.9,4.9,4.9,0,0,1,3.8-5.9Z"></path><path fill="#31323D" d="M1345.9,1303.2c-15-2.9-29.9-5.9-44.9-8.5s-29.9-5-45-6.7c-30.1-3.5-60.5-5.1-90.8-3.1a324.3,324.3,0,0,0-45,6,236.8,236.8,0,0,0-43.4,13.4,180.9,180.9,0,0,0-39.4,22.5,169.3,169.3,0,0,0-32.2,32.2,167.1,167.1,0,0,1,31.4-33.1,186.9,186.9,0,0,1,39.2-23.9,238.3,238.3,0,0,1,43.6-14.8,330.2,330.2,0,0,1,45.4-7.3c30.6-2.9,61.4-2.1,92,.6,15.2,1.4,30.5,3.3,45.6,5.5s30.3,4.9,45.3,7.4h0a5,5,0,0,1-1.6,9.8Z"></path><path fill="#31323D" d="M1171.2,1244.5a267.9,267.9,0,0,1,79.5-2.4,278,278,0,0,1,77.5,21.3,5,5,0,1,1-4,9.1h-.3a263.6,263.6,0,0,0-73.9-25.3A263.5,263.5,0,0,0,1171.2,1244.5Z"></path><path fill="#31323D" d="M1333,1326.9a97.3,97.3,0,0,0-21.4-3.3,106.6,106.6,0,0,0-21.8,2,135.1,135.1,0,0,0-41.2,16.8,192,192,0,0,0-18.6,12.8c-6,4.6-11.8,9.5-17.4,14.6s-10.9,10.6-16.1,16.2a221.8,221.8,0,0,0-14.6,17.5,223.5,223.5,0,0,1,13.7-18.3c4.9-5.9,9.9-11.7,15.3-17.2s10.9-10.7,16.7-15.7a169.1,169.1,0,0,1,18.4-14.1,138.1,138.1,0,0,1,42.1-19.9,108.4,108.4,0,0,1,23.5-3.5,107.2,107.2,0,0,1,23.9,2.5,5,5,0,0,1-2.1,9.7h-.4Z"></path><path fill="#31323d" d="M1427,1334.3s-5.4,17.5,14.3,23.5c10.8,3.3,11.7-1.1,7.2-7.5l-9.7-14.3s-1.9-5.5-7.1-5.5A4.4,4.4,0,0,0,1427,1334.3Z"></path></g></svg>