<svg xmlns="http://www.w3.org/2000/svg" viewBox="0 0 3000 3000" xmlns:xlink="http://www.w3.org/1999/xlink"><g id="item_j"></g><g id="item_i"></g><mask id="hooktail_mask"><g fill="white"><path d="M0 0h3000v3000H0z"></path><path d="M0 0h3000v3000H0z"></path></g><g fill="black"><path d="M2399.9,1601.2a38.3,38.3,0,0,1,19.5,3.8l14.1,8.6c-25.9,53.4-14.1,96.3.5,123a151.2,151.2,0,0,0,38.5,45.7c10,8.6,28.1,16.7,51.7,16.7a111.4,111.4,0,0,0,13.8-.9,121.9,121.9,0,0,0,24.1-5.7h31.8v155.1H2251.8V1636.6h86.1Z"></path></g></mask><g clip-path="url(#kittyClipPath)" mask=""><g id="tailFur"><clipPath id="tailFurClipPath"><path d="M2843.8 1635s-3.6 27-26.7 75.5c-31.4-98.7-91-197.3-168.6-256-1.8-1.3-4.6-3.2-8.3-5.6-161.3-100.9-374.7-31.8-447.1 144.2l-6.7 16c40.7-31.8 96.3-51.8 96.3-51.8s-19.9 27.2-35.1 47.6c-47.1 63-78 149.5-54.1 228.9 7.5 24.9 26.4 49 50.3 71-121.3 19.7-207.2 143.9-207.2 143.9l-116 136.8 169.4 35.3 96.5 3.5c51.6 15.5 117.1 26.6 199.1 26.6 242.5 0 413.1-159 449.1-329.9 2.8-13.4 5.7-26.8 8.8-40.1 11.3-49.6 34.4-173.2.3-245.9z" fill="none"></path></clipPath><g clip-path="url(#tailFurClipPath)"><path fill="#42414c" d="M1904 1390.5h973.4v855.44H1904z"></path><path d="M2541.6 1691.6c-47.4 3.3-95.3 9.2-124.4 46.8 1.5-34.6 20.6-67.9 49.6-86.7a245.7 245.7 0 0 0-139.8 100.8 223.7 223.7 0 0 1 36.3-94.8 360.3 360.3 0 0 0-94.9 94c2.8-49.1 14.9-98.9 43.8-138.7s76.7-67.8 125.7-64.3 95.5 43.7 97.8 92.8" fill="#42414c"></path><path d="M2282.7 1557.4s-19.9 27.2-35.1 47.6c-47.1 63-78 149.5-54.1 228.9 19.3 64.1 114.8 123.2 174.2 153q9.4 1.1 19.1 1.5a5 5 0 0 0-.4-1.4c-9.7-21.4 6.3-60.3 19-78 15.9-22.3 42.2-34.2 66.2-47.4s48.6-30.9 55.7-57.3l-5 57.7c37.9-18.6 69.3-49.7 89.3-86.9a198.4 198.4 0 0 0 18.5-49.1c-17.9-126-127-217.2-252.6-205.4-44.4 4.2-83.5 20.3-115.2 45.1 12.3-5.4 20.4-8.3 20.4-8.3z" fill="#cf5be8"></path><path d="M2627.8 1730.4a316.7 316.7 0 0 0-43.8-159.8 3 3 0 0 1 3.4-4.4 120.9 120.9 0 0 1 67 51.2 3 3 0 0 0 5.4-2.3 223.7 223.7 0 0 0-86.3-128.9 3 3 0 0 1 2.5-5.4 272 272 0 0 1 100.1 50.8 3 3 0 0 0 4.6-3.7c-30.4-60.4-84.1-108.2-146.1-135.5-66.3-29.2-141.3-35.8-212.9-24.5-55.4 8.8-110.4 28.9-152.5 66s-69.7 93-64.4 148.9c2.6 27.8 13.9 55.6 35 73.8 22.8 19.6 54.5 26.1 84.5 24s58.8-11.9 87.2-21.6" fill="#cf5be8"></path><defs><clipPath id="tailShadowClipPath"><path d="M2843.8 1635s-3.6 27-26.7 75.5c-31.4-98.7-91-197.3-168.6-256-1.8-1.3-4.6-3.2-8.3-5.6-161.3-100.9-374.7-31.8-447.1 144.2l-6.7 16c40.7-31.8 96.3-51.8 96.3-51.8s-19.9 27.2-35.1 47.6c-47.1 63-78 149.5-54.1 228.9 7.5 24.9 26.4 49 50.3 71-121.3 19.7-207.2 143.9-207.2 143.9l-116 136.8 169.4 35.3 96.5 3.5c51.6 15.5 117.1 26.6 199.1 26.6 242.5 0 413.1-159 449.1-329.9 2.8-13.4 5.7-26.8 8.8-40.1 11.3-49.6 34.4-173.2.3-245.9z" fill="none"></path></clipPath><linearGradient id="tailShadowGradient" x1="2539.72" y1="1739.67" x2="2539.72" y2="1283.42" gradientUnits="userSpaceOnUse"><stop offset="0" stop-color="#fff" stop-opacity="0"></stop><stop offset=".72" stop-color="#fff"></stop></linearGradient><linearGradient id="tailShadowGradient2" x1="2371.12" y1="1885.86" x2="2523.5" y2="1885.86" href="#tailShadowGradient" xlink:href="#tailShadowGradient"></linearGradient><linearGradient id="tailShadowGradient3" x1="2703.65" y1="1891.5" x2="2893.32" y2="1891.5" href="#tailShadowGradient" xlink:href="#tailShadowGradient"></linearGradient><linearGradient id="tailShadowGradient4" x1="2524.03" y1="1787.87" x2="2627.37" y2="1787.87" href="#tailShadowGradient" xlink:href="#tailShadowGradient"></linearGradient></defs><g clip-path="url(#tailShadowClipPath)"><path fill="none" d="M2841.2 2267.2l-937.3-21.3 265.6-916 742.4 60-70.7 877.3z"></path></g><g clip-path="url(#tailShadowClipPath)" style="mix-blend-mode:multiply"><path d="M2010.4 2076.9s112.9-156 137.5-146.1c-100.8 117.4-26.2 185.8 23 200.3 199.6 59 530.9 111 665.9-164.6l-219 299.4-649.5-3z" fill="#7f7f7f" opacity=".25" style="mix-blend-mode:multiply"></path><path d="M2238 1890.9c-25.5 5.8-25 6.1-25 6.1 3.6 3.7 35.6 103.9 139.1 118.9a6.9 6.9 0 0 0 7.3-9.5c-2.3-5.3-4.4-13-5.7-24.1" fill="#7f7f7f" opacity=".3" style="mix-blend-mode:multiply"></path><path d="M2628.8 1731.1s-19.6 101.4-52.6 138.4a114.9 114.9 0 0 1-69.7 37.5 3.6 3.6 0 0 1-4-4.3c2.3-13-2.2-28.3-2.2-28.3s-121.7 64.6-113.7 115.6c0 0-16-71.9 67.7-119.2s69.7-65.3 69.7-65.3l-1.7 54.7c56.8-11.1 106.5-129.1 106.5-129.1z" fill="#7f7f7f" opacity=".25" style="mix-blend-mode:multiply"></path><path d="M2195.3 1591.4c1-5.3 4.5-9.8 8-13.8a191.2 191.2 0 0 1 106.3-60.8 3.6 3.6 0 0 1 2.9 6.4 173.3 173.3 0 0 0-31.4 31.3c-6.1 7.8-11.5 16.3-18.9 22.9-13.2 11.9-31.1 16.9-48.3 21.6" fill="#7f7f7f" opacity=".25" style="mix-blend-mode:multiply"></path></g><g clip-path="url(#tailShadowClipPath)" style="mix-blend-mode:overlay"><path d="M2262.3 1500s151.6-146.4 378 7.5c93 66.9 162 232.2 162 232.2l14.7-29.2-59.7-377.6-233.3-49.5-150.6 20.2z" opacity=".3" fill="url(#tailShadowGradient)" style="mix-blend-mode:overlay"></path><path d="M2374.2 1931.5c4.8-27.9 20.8-44.5 43-62s47.5-30.9 70-48c16-12.1 28.1-22.6 34.1-39.4a1.2 1.2 0 0 1 2.3.5l-.7 14.7a75.2 75.2 0 0 1-1 13.8 49.5 49.5 0 0 1-8.9 19.2c-24.8 34-74.1 40.5-103.1 71-18.7 19.7-26.5 47.5-26.4 74.2 0 4 2.9 16.3-2.6 14.8-3.7-1-8-8.8-8.7-14.2-2.1-14.8-.6-29.9 2-44.6z" opacity=".3" fill="url(#tailShadowGradient2)" style="mix-blend-mode:overlay"></path><path d="M2842.4 1647.5c5.9 118.9-1.6 137.7-27.2 261.3-20 96.7-86.2 192.2-111.5 226.7 40.5-19.6 59.6-30.7 86.7-66.6s47.7-76.5 65.6-117.8c13.7-31.6 26.1-64.1 32.6-97.9 3.9-20.2 5.7-40.9 4.2-61.4s-6.8-42.4-12-63.3l-12.9-51.9" opacity=".3" fill="url(#tailShadowGradient3)" style="mix-blend-mode:overlay"></path><path d="M2616.4 1728.1c2.5-3.2 6.3-6.7 10-5 3.4 12.3-2.5 25.1-8.3 36.4-10.6 20.5-21.6 41.3-37.9 57.6a149.8 149.8 0 0 1-30.6 23.5c-2.2 1.3-23.3 16.1-25.4 11.4-1.1-2.6 21.2-20.7 23-22.9 17.8-20.8 34.4-37.4 48.5-59.3 8-12.3 11.6-29.9 20.7-41.7z" opacity=".3" fill="url(#tailShadowGradient4)" style="mix-blend-mode:overlay"></path></g></g></g><g id="tail"><g fill="none" stroke="#31323d" stroke-linecap="round" stroke-width="12.5"><path d="M2817.2 1710.6c-31.3-98.7-91-197.4-168.7-256.1-1.8-1.3-4.6-3.2-8.3-5.6-161.3-100.9-374.7-31.8-447.1 144.2l-6.7 16c40.7-31.8 96.3-51.8 96.3-51.8s-19.9 27.2-35.1 47.6c-47.1 63-78 149.5-54.1 228.9 20.6 68.7 128.7 131.6 186.3 158.8 4.1 2 8.5-1.6 6.6-5.7-9.7-21.4 6.3-60.3 19-78 15.9-22.3 42.2-34.2 66.2-47.4s48.6-30.9 55.7-57.3l-5 57.7c37.9-18.6 69.3-49.7 89.3-86.9a198.2 198.2 0 0 0 18.9-50.6" stroke-linejoin="round"></path><path d="M2036.6 2048.8s85.9-124.2 207.2-143.9" stroke-miterlimit="10"></path><path d="M2186.4 2224.4c51.6 15.5 117.1 26.6 199.1 26.6 242.5 0 413.1-159 449.1-329.9 2.8-13.4 5.7-26.8 8.8-40.1 11.5-49.7 34.6-173.3.4-246 0 0-4.8 35.4-37.9 97.8" stroke-linejoin="round"></path></g></g></g><g id="item_h"></g><g clip-path="url(#kittyClipPath)"><g id="bodyFur"><clipPath id="furClipPath"><path d="M1206.4,868c-10.2-22.6-28.8-40.8-50.7-52.5s-46.7-17-71.5-17.6c-19.9-.5-40.6,2.3-57.7,12.7-26.3,16.1-39.6,48.4-38.9,79.2s13.5,60.1,29.8,86.3a336.3,336.3,0,0,0,63.3,74.9v0.2c-12.7,30.6-22.4,57.9-27.8,73.8a172.1,172.1,0,0,1-9.7,21.8,302,302,0,0,1-50.9,70.6,408.2,408.2,0,0,0-28.3,32.7c-24.8,32-46.5,66.1-63.3,103.3,21.2-15,43.8-22.6,64.2-36.7-14.1,25.9-20.2,55.2-26.1,84a465.4,465.4,0,0,1,65.1-44.9c-8.4,27.2.5,57.8,18.6,79.8l2.4,2.8v5.5l-28.6,150.3L979.3,1684l-60,315.5a248.9,248.9,0,0,0,12.6,117.5l-0.6.3c-38.1,9.1-130.4,43.4-184.5,78.3-26.5,17.1-10.1,55.9,23.2,55.3l266.9-5.2q6.8,4.1,13.8,7.9l0.2,3.4c0.4,23.3-6.7,42.4-29.9,43.6-15.6.8-28.2,9.9-30.6,21.1-4.7,21.5,5.8,38.9,27.2,40.4l84.3,5c26.4,1.6,51.9-11.3,65.3-34.1a71.4,71.4,0,0,0,8.8-23.9l5-26.6h533.6l3.5,20.7a71.6,71.6,0,0,0,43.1,54.3,53.5,53.5,0,0,0,22.3,4l91.8-3c22-2.2,30.1-15.7,27.9-36.9-0.7-6.9-6.2-24.5-24.5-25.5-15.8-.9-25.2-8.6-28.1-21.9h0a246.8,246.8,0,0,0,65.4-28.1l261.5,5.1c33.3,0.6,49.2-37.5,23.2-55.3-43-29.4-132.4-61.7-179.8-75.5l-0.8-.3a248.1,248.1,0,0,0,6.4-155.8l-88.4-287.5-29.7-96.5-50.6-164.7v-2.5c12.8-22.4,17.1-50.1,7.6-73.9a465.4,465.4,0,0,1,68.5,39.5c-8.2-28.3-16.7-57-32.8-81.6,21.5,12.4,52.2,18.7,71.9,29.9-21.3-32.8-45.2-70.4-76.3-96.4-37-30.9-54.3-55-82.3-109-12-23.1-30.4-57.3-52-93.3l0.4-.2a336.4,336.4,0,0,0,60-86.4c13.4-27.7,23-58.3,20.5-88.9s-19.2-61.5-47-74.6c-18-8.5-38.9-9.1-58.7-6.5-24.6,3.2-48.7,11.1-69.2,25.1s-37.1,34-44.9,57.5l-3.1,7.7-6.3-4.1a240.6,240.6,0,0,0-54.9-21.5l-10.1-3-2.2-1.4c15.3-25.7,49.9-40.7,49.9-40.7-26.7-27.5-75,2-75,2,18.3-46.5,101.9-59.5,101.9-59.5-104.8-85-197.2,24-197.2,24-9-24,15.3-59,15.3-59-62.7,3-61.3,57-70,57-46.7-44-107.4-29-107.4-29,31.9,8,64.2,78,64.2,78-77.9-36-110.3,4.3-110.3,4.3,28.7,2.8,47,15.2,58.4,27.5l-2.1,1.7a240.5,240.5,0,0,0-67.8,31.7V868Z" fill="none"></path></clipPath><g clip-path="url(#furClipPath)"><path fill="#42414c" d="M724.1 562.8h1509.4v1824.09H724.1z"></path><path fill="#9eeec5" d="M1181.5 2294.7c-5.6-14.6 3.2-56.8 20.7-141.2 10.4-50.5 18.8-83.5 24-105 23.2-97.1 54-233.8 68-286 8-30 31.6-49 72.1-49.1 18.5-.1 46.5 11.1 60.5 25.8a15.7 15.7 0 0 0 23.2-.4c22.8-25 67.4-37.7 98.2-28.1 59.3 18.5 89.2 134.4 122.3 320 6.9 38.6 13.7 77.2 20.7 115.8 4 22.6 7.9 45.3 12 68 9.4 53.2 9.6 54.1 9.3 56.2-9.7 78.5-486.6 140.6-531 24z"></path><path fill="#cf5be8" d="M1167.1 2332.9l-28.1 27.9-44.1 5.8-105.8-10.6v-43.4c32.6-15.1 63.1-58.2 63.1-58.2 37.6-20 50.5-79.6 56.8-133.2a3.6 3.6 0 0 1 7.1.1c5.4 65.1 25.3 144.3 66.4 152.6 4 17.1-15.4 59-15.4 59zM1848.8 2257.5c42.5 28.3 56.7 55.1 56.7 55.1v43.4l-105.7 10.6-44.2-5.8-28-27.9s-7.7-43-13.1-75.4c57.5 1.4 68.4-87.2 69.6-142.4a3.4 3.4 0 0 1 6.8-.6c10 48.6 29.7 124.2 57.9 143z"></path><path fill="#cf5be8" d="M931.3 2117.4s33.5 95.1 119.1 136.1l-297.7-2.5-22-32.7 8.5-23.6c56.8-29.8 121.7-55.1 192.1-77.3zM2029.3 2100.7s-28 105.8-132.6 155.8l333.5 4v-80zM1603.3 850.4l50.9 36.4 49.3 52.7 49.3 76.6 38.9 63.3c5.2-8.1 1193.7-742.5 1192.5-747.9-2-8.7 0-319.9 0-319.9H1959.8zM1222.2 859.5L818 11.6H18.2v903.2l1046 176.5 38.8-90 28.2-56.9 24.8-29.6 38.3-35.3 27.9-20z"></path></g></g><g id="shadow" style="mix-blend-mode:multiply"><defs><clipPath id="shadowClipPath"><path d="M1206.4,868c-10.2-22.6-28.8-40.8-50.7-52.5s-46.7-17-71.5-17.6c-19.9-.5-40.6,2.3-57.7,12.7-26.3,16.1-39.6,48.4-38.9,79.2s13.5,60.1,29.8,86.3a336.3,336.3,0,0,0,63.3,74.9v0.2c-12.7,30.6-22.4,57.9-27.8,73.8a172.1,172.1,0,0,1-9.7,21.8,302,302,0,0,1-50.9,70.6,408.2,408.2,0,0,0-28.3,32.7c-24.8,32-46.5,66.1-63.3,103.3,21.2-15,43.8-22.6,64.2-36.7-14.1,25.9-20.2,55.2-26.1,84a465.4,465.4,0,0,1,65.1-44.9c-8.4,27.2.5,57.8,18.6,79.8l2.4,2.8v5.5l-28.6,150.3L979.3,1684l-60,315.5a248.9,248.9,0,0,0,12.6,117.5l-0.6.3c-38.1,9.1-130.4,43.4-184.5,78.3-26.5,17.1-10.1,55.9,23.2,55.3l266.9-5.2q6.8,4.1,13.8,7.9l0.2,3.4c0.4,23.3-6.7,42.4-29.9,43.6-15.6.8-28.2,9.9-30.6,21.1-4.7,21.5,5.8,38.9,27.2,40.4l84.3,5c26.4,1.6,51.9-11.3,65.3-34.1a71.4,71.4,0,0,0,8.8-23.9l5-26.6h533.6l3.5,20.7a71.6,71.6,0,0,0,43.1,54.3,53.5,53.5,0,0,0,22.3,4l91.8-3c22-2.2,30.1-15.7,27.9-36.9-0.7-6.9-6.2-24.5-24.5-25.5-15.8-.9-25.2-8.6-28.1-21.9h0a246.8,246.8,0,0,0,65.4-28.1l261.5,5.1c33.3,0.6,49.2-37.5,23.2-55.3-43-29.4-132.4-61.7-179.8-75.5l-0.8-.3a248.1,248.1,0,0,0,6.4-155.8l-88.4-287.5-29.7-96.5-50.6-164.7v-2.5c12.8-22.4,17.1-50.1,7.6-73.9a465.4,465.4,0,0,1,68.5,39.5c-8.2-28.3-16.7-57-32.8-81.6,21.5,12.4,52.2,18.7,71.9,29.9-21.3-32.8-45.2-70.4-76.3-96.4-37-30.9-54.3-55-82.3-109-12-23.1-30.4-57.3-52-93.3l0.4-.2a336.4,336.4,0,0,0,60-86.4c13.4-27.7,23-58.3,20.5-88.9s-19.2-61.5-47-74.6c-18-8.5-38.9-9.1-58.7-6.5-24.6,3.2-48.7,11.1-69.2,25.1s-37.1,34-44.9,57.5l-3.1,7.7-6.3-4.1a240.6,240.6,0,0,0-54.9-21.5l-10.1-3-2.2-1.4c15.3-25.7,49.9-40.7,49.9-40.7-26.7-27.5-75,2-75,2,18.3-46.5,101.9-59.5,101.9-59.5-104.8-85-197.2,24-197.2,24-9-24,15.3-59,15.3-59-62.7,3-61.3,57-70,57-46.7-44-107.4-29-107.4-29,31.9,8,64.2,78,64.2,78-77.9-36-110.3,4.3-110.3,4.3,28.7,2.8,47,15.2,58.4,27.5l-2.1,1.7a240.5,240.5,0,0,0-67.8,31.7V868Z" fill="none"></path></clipPath><linearGradient id="shadowGradient" x1="1180.91" y1="2153.98" x2="1714.46" y2="2153.98" gradientUnits="userSpaceOnUse"><stop offset="0" stop-color="gray"></stop><stop offset=".27" stop-color="#7d7d7d"></stop><stop offset=".46" stop-color="#747474"></stop><stop offset=".64" stop-color="#646464"></stop><stop offset=".8" stop-color="#4d4d4d"></stop><stop offset=".95" stop-color="#303030"></stop><stop offset="1" stop-color="#242424"></stop></linearGradient><linearGradient id="shadowGradient2" x1="1734.36" y1="814.46" x2="1734.36" y2="1014.81" gradientUnits="userSpaceOnUse"><stop offset="0" stop-color="gray"></stop><stop offset=".14" stop-color="#797979"></stop><stop offset=".35" stop-color="#646464"></stop><stop offset=".6" stop-color="#434343"></stop><stop offset=".89" stop-color="#141414"></stop><stop offset="1"></stop></linearGradient><linearGradient id="shadowGradient3" x1="990.36" y1="1436.81" x2="990.36" y2="2254.41" href="#shadowGradient" xlink:href="#shadowGradient"></linearGradient><linearGradient id="shadowGradient4" x1="1971.82" y1="1970.17" x2="1971.82" y2="2305.13" href="#shadowGradient" xlink:href="#shadowGradient"></linearGradient><linearGradient id="shadowGradient5" x1="1694.09" y1="767.31" x2="1694.09" y2="956.85" gradientTransform="matrix(-.98 .19 .19 .98 2599.64 -240.56)" href="#shadowGradient2" xlink:href="#shadowGradient2"></linearGradient><linearGradient id="shadowGradient6" x1="906.71" y1="1302.99" x2="1004.85" y2="1302.99" href="#shadowGradient" xlink:href="#shadowGradient"></linearGradient><linearGradient id="shadowGradient7" x1="941.39" y1="1384.36" x2="1103.34" y2="1384.36" href="#shadowGradient" xlink:href="#shadowGradient"></linearGradient><linearGradient id="shadowGradient8" x1="1067.86" y1="969.65" x2="1293.19" y2="969.65" href="#shadowGradient" xlink:href="#shadowGradient"></linearGradient><linearGradient id="shadowGradient9" x1="1268.41" y1="774.71" x2="1368.68" y2="774.71" href="#shadowGradient" xlink:href="#shadowGradient"></linearGradient><linearGradient id="shadowGradient10" x1="1367.32" y1="731.28" x2="1439.55" y2="731.28" href="#shadowGradient" xlink:href="#shadowGradient"></linearGradient><linearGradient id="shadowGradient11" x1="1424.95" y1="727.23" x2="1626.39" y2="727.23" href="#shadowGradient" xlink:href="#shadowGradient"></linearGradient><linearGradient id="shadowGradient12" x1="1506.49" y1="803.26" x2="1602.78" y2="803.26" href="#shadowGradient" xlink:href="#shadowGradient"></linearGradient><linearGradient id="shadowGradient13" x1="1219.06" y1="833.25" x2="1296.18" y2="833.25" href="#shadowGradient" xlink:href="#shadowGradient"></linearGradient></defs><g clip-path="url(#shadowClipPath)"><path d="M1213.2,2110.7c-22.2,91.8,60.8,117.5,83.2,119.2,41.2,3.1,203.6,5.6,287.7-7.9,43.8-7,109.2-65.4,87.3-196.3l43,256.8H1180.9Z" opacity=".2" fill="url(#shadowGradient)" style="mix-blend-mode:multiply"></path><path d="M1098.7,1480.3c-23.8,16.2-43.5,24.2-45.2,84-21.5,150.6-39.4,290.9-48.3,362.6a910.2,910.2,0,0,0-6.8,98.4v3.4c23.5,26,47.6,88.8,52.6,176.8l1.3,49s-31.3-.8-81-0.8c-62,0-110.8-111.7-79.2-278.2,28.4-149.5,110.2-538.7,110.2-538.7S1032.2,1452.1,1098.7,1480.3Z" opacity=".2" fill="url(#shadowGradient3)" style="mix-blend-mode:multiply"></path><path d="M1854.3,2157.4s29.9-91.4,66.3-124.9c-39.4,75,14.1,92.7,28.1,87.7,53.7-19.2,75-66.7,79.2-150l65.3,116.3s-55,256-204,214l-38.7-18.1Z" opacity=".2" fill="url(#shadowGradient4)" style="mix-blend-mode:multiply"></path><path d="M1654.6,883.3s43.5-74.5,97.3-68.5,71.6,67.3,57.7,100.5-55.5,99.5-55.5,99.5l-20.3-37-36.3-54.5Z" opacity=".4" fill="url(#shadowGradient2)" style="mix-blend-mode:multiply"></path><path d="M1173.5,887s-56.9-64.9-108.5-48.8-57.5,79.7-37.6,109.6,60.1,78.7,60.1,78.7l20.6-35.1,30.7-57.1Z" opacity=".4" fill="url(#shadowGradient5)" style="mix-blend-mode:multiply"></path><path d="M999.2,1267.4a4.1,4.1,0,0,1,5.1,5.8c-2.1,3.7-4.1,7.3-5.2,8.7a172.9,172.9,0,0,1-16.6,18.3,175.7,175.7,0,0,1-40.2,28.7c-3.7,1.9-30.4,11.3-34.4,9.6-6.1-2.6,14.1-12.3,16.3-15.1a184.5,184.5,0,0,1,36.9-34.9A189.5,189.5,0,0,1,999.2,1267.4Z" opacity=".2" fill="url(#shadowGradient6)" style="mix-blend-mode:multiply"></path><path d="M998.7,1365.8a43.5,43.5,0,0,1-8.7,5.6c-11,5.9-28.2,18.7-41.2,18.2-15.9-.5-1.8-20.1,2.6-26.7,22-32.6,56-54.8,91.7-72a4.1,4.1,0,0,1,5.1,6.1l-22.9,32.4-1.9,3.5a197.2,197.2,0,0,0,76.6,131.7l0.2,0.2c6.3,4.7,2.1,14.7-5.6,13.3a116.7,116.7,0,0,1-97.1-116.8" opacity=".2" fill="url(#shadowGradient7)" style="mix-blend-mode:multiply"></path><path d="M1293.2,863.8s-156.7,71.4-225.3,237.5c0,0,58.5-222.8,206.4-263.3Z" opacity=".2" fill="url(#shadowGradient8)" style="mix-blend-mode:multiply"></path><path d="M1268.4,724.3c46.4,12,85,49.2,100,94.6a4.6,4.6,0,0,1-7.3,5.1c-18.8-15.4-44-24.3-57.9-44.3" opacity=".2" fill="url(#shadowGradient9)" style="mix-blend-mode:multiply"></path><path d="M1367.3,735.9a334.9,334.9,0,0,0,12.9,42.2,4.6,4.6,0,0,0,8.9-.8c3.7-17.5,11.3-34.3,20.6-49.7,7-11.6,15.6-23.1,27.3-29.4a4.7,4.7,0,0,0,.8-7.7c-12.2-10.1-30.9-12.2-44.8-4.2" opacity=".2" fill="url(#shadowGradient10)" style="mix-blend-mode:multiply"></path><path d="M1626.4,736.6c-36.9-9.1-76.1-11.9-112.8-2-31.9,8.6-61.8,27.7-80,55a4.6,4.6,0,0,1-8.5-2.5,166.7,166.7,0,0,1,5.1-45.6l86.7-78.7,102.7,42" opacity=".2" fill="url(#shadowGradient11)" style="mix-blend-mode:multiply"></path><path d="M1536.1,776.4c-14.1,12.5-22.7,29.5-29.3,47.4a4.6,4.6,0,0,0,7.5,5c23.4-21.7,54.9-34.5,86.5-41,0.8-.2,1.9-0.6,1.9-1.4s-1.8-.5-1.2.1" opacity=".2" fill="url(#shadowGradient12)" style="mix-blend-mode:multiply"></path><path d="M1219.1,804.8c18.1-6.4,45.1-3.2,60.1,8.3,18.3,14,21,39.2,12.2,51.7-7.1-17.6-12.6-34.5-30.8-39.7" opacity=".2" fill="url(#shadowGradient13)" style="mix-blend-mode:multiply"></path></g></g><g id="highlight" style="mix-blend-mode:overlay"><defs><clipPath id="highlightClipPath"><path d="M1206.4,868c-10.2-22.6-28.8-40.8-50.7-52.5s-46.7-17-71.5-17.6c-19.9-.5-40.6,2.3-57.7,12.7-26.3,16.1-39.6,48.4-38.9,79.2s13.5,60.1,29.8,86.3a336.3,336.3,0,0,0,63.3,74.9v0.2c-12.7,30.6-22.4,57.9-27.8,73.8a172.1,172.1,0,0,1-9.7,21.8,302,302,0,0,1-50.9,70.6,408.2,408.2,0,0,0-28.3,32.7c-24.8,32-46.5,66.1-63.3,103.3,21.2-15,43.8-22.6,64.2-36.7-14.1,25.9-20.2,55.2-26.1,84a465.4,465.4,0,0,1,65.1-44.9c-8.4,27.2.5,57.8,18.6,79.8l2.4,2.8v5.5l-28.6,150.3L979.3,1684l-60,315.5a248.9,248.9,0,0,0,12.6,117.5l-0.6.3c-38.1,9.1-130.4,43.4-184.5,78.3-26.5,17.1-10.1,55.9,23.2,55.3l266.9-5.2q6.8,4.1,13.8,7.9l0.2,3.4c0.4,23.3-6.7,42.4-29.9,43.6-15.6.8-28.2,9.9-30.6,21.1-4.7,21.5,5.8,38.9,27.2,40.4l84.3,5c26.4,1.6,51.9-11.3,65.3-34.1a71.4,71.4,0,0,0,8.8-23.9l5-26.6h533.6l3.5,20.7a71.6,71.6,0,0,0,43.1,54.3,53.5,53.5,0,0,0,22.3,4l91.8-3c22-2.2,30.1-15.7,27.9-36.9-0.7-6.9-6.2-24.5-24.5-25.5-15.8-.9-25.2-8.6-28.1-21.9h0a246.8,246.8,0,0,0,65.4-28.1l261.5,5.1c33.3,0.6,49.2-37.5,23.2-55.3-43-29.4-132.4-61.7-179.8-75.5l-0.8-.3a248.1,248.1,0,0,0,6.4-155.8l-88.4-287.5-29.7-96.5-50.6-164.7v-2.5c12.8-22.4,17.1-50.1,7.6-73.9a465.4,465.4,0,0,1,68.5,39.5c-8.2-28.3-16.7-57-32.8-81.6,21.5,12.4,52.2,18.7,71.9,29.9-21.3-32.8-45.2-70.4-76.3-96.4-37-30.9-54.3-55-82.3-109-12-23.1-30.4-57.3-52-93.3l0.4-.2a336.4,336.4,0,0,0,60-86.4c13.4-27.7,23-58.3,20.5-88.9s-19.2-61.5-47-74.6c-18-8.5-38.9-9.1-58.7-6.5-24.6,3.2-48.7,11.1-69.2,25.1s-37.1,34-44.9,57.5l-3.1,7.7-6.3-4.1a240.6,240.6,0,0,0-54.9-21.5l-10.1-3-2.2-1.4c15.3-25.7,49.9-40.7,49.9-40.7-26.7-27.5-75,2-75,2,18.3-46.5,101.9-59.5,101.9-59.5-104.8-85-197.2,24-197.2,24-9-24,15.3-59,15.3-59-62.7,3-61.3,57-70,57-46.7-44-107.4-29-107.4-29,31.9,8,64.2,78,64.2,78-77.9-36-110.3,4.3-110.3,4.3,28.7,2.8,47,15.2,58.4,27.5l-2.1,1.7a240.5,240.5,0,0,0-67.8,31.7V868Z" fill="none"></path></clipPath><linearGradient id="highlightGradient" x1="1964.92" y1="2256.39" x2="1964.92" y2="1328.23" gradientUnits="userSpaceOnUse"><stop offset="0" stop-color="#fff" stop-opacity="0"></stop><stop offset=".72" stop-color="#fff"></stop></linearGradient><linearGradient id="highlightGradient2" x1="1773.56" y1="1348.98" x2="1773.56" y2="834.22" href="#highlightGradient" xlink:href="#highlightGradient"></linearGradient><linearGradient id="highlightGradient3" x1="909.45" y1="1840.28" x2="1050.73" y2="1840.28" href="#highlightGradient" xlink:href="#highlightGradient"></linearGradient><linearGradient id="highlightGradient4" x1="2116.32" y1="2248.97" x2="2116.32" y2="2113.28" href="#highlightGradient" xlink:href="#highlightGradient"></linearGradient><linearGradient id="highlightGradient5" x1="1044.74" y1="2253.08" x2="1044.74" y2="2117.39" gradientTransform="matrix(-1 0 0 1 1878.82 0)" href="#highlightGradient" xlink:href="#highlightGradient"></linearGradient><linearGradient id="highlightGradient6" x1="1812.61" y1="1046.81" x2="1812.61" y2="742.81" href="#highlightGradient" xlink:href="#highlightGradient"></linearGradient><linearGradient id="highlightGradient7" x1="1042.43" y1="1071.47" x2="1042.43" y2="760.81" href="#highlightGradient" xlink:href="#highlightGradient"></linearGradient><linearGradient id="highlightGradient8" x1="1836.79" y1="1333.41" x2="1942.75" y2="1333.41" href="#highlightGradient" xlink:href="#highlightGradient"></linearGradient><linearGradient id="highlightGradient9" x1="1779.56" y1="1394.6" x2="1887.12" y2="1394.6" href="#highlightGradient" xlink:href="#highlightGradient"></linearGradient></defs><g clip-path="url(#highlightClipPath)" opacity=".3"><path d="M1787.7,1470.2c35,4.6,45.1,40.9,48.7,51.8,65.8,196.2,106.1,326.5,133.6,448.3,46.1,204.7-81.2,286-81.2,286l61.1-35.5s63-74.8,72.5-107.6c20.8-71.9,139-33,117.2-147.7-17.4-91.4-84.4-388.2-141.3-637.4" fill="url(#highlightGradient)"></path><path d="M1818.5,1109.9c-48.5-68.6-116.8-160.1-135.8-194-20.7-36.8-78.6-66.4-129.5-81.7l-9,14.9s62.6,21,84.6,52.3c0,0,93.9,112.8,157.7,229.1a387.2,387.2,0,0,0,58.4,79.8c20.9,22.1,48.5,50,79.3,77.7,67,60.3,78.8,60.8,78.8,60.8Z" fill="url(#highlightGradient2)"></path><path d="M1050.7,1460.5l-42.6-25.7s-147.3,576.6-82,676c0,0,42.1,98.3,110.7,134.9-66.7-90.9-116.7-144.9-96.7-256.9S1050.7,1460.5,1050.7,1460.5Z" fill="url(#highlightGradient3)"></path><path d="M1999.2,2162.4s113.2,21.1,98.4,83.6l92.6,3,43.3-6.5-4.3-68.5-206.8-60.7Z" fill="url(#highlightGradient4)"></path><path d="M951.2,2166.5s-113.2,21.1-98.4,83.6l-92.6,3-43.3-6.5,4.3-68.5,206.8-60.7Z" opacity=".7" fill="url(#highlightGradient5)"></path><path d="M1712.5,781.2s44.3-4.7,75.3,21c33.6,27.8,34.3,52.4,32,93.4-1.9,33.1-31.3,72.3-65.7,119.3l37.3,32,119.3-198s8-98.7-8.7-100.7-129.3-5.3-129.3-5.3Z" fill="url(#highlightGradient6)"></path><path d="M1129.5,807.1c-39.3-1.3-82.2,0-110.3,46-30.3,49.7,12.3,109,12.3,109l56,73-27.4,36.3s-94-78.7-94-82-12-135.3-10.7-138.7,37.3-56,40-58,92-32,92-32Z" fill="url(#highlightGradient7)"></path><path d="M1917.3,1308.2a301.8,301.8,0,0,0-76.5-40.1,3,3,0,0,0-2.8,5.2c17.3,13.2,34.3,26.9,49.5,42.5,19.2,19.9,35.5,43.2,43.6,69.6,1.7,5.7,4.3,12.6,10.2,13.4a143.5,143.5,0,0,0-2.7-54.7c-0.4-1.8-1-3.7-2.4-4.9s-4-1-4.7.7" fill="url(#highlightGradient8)" style="mix-blend-mode:overlay"></path><path d="M1887.1,1370.5a358.8,358.8,0,0,0-60.8-52.6,3,3,0,0,0-4.6,3.1c5.6,28.1,1,57.5-5.2,85.6-5.5,25.2-14.3,52.9-37,65.3,39.2-13.1,77.8-34.2,100.4-68.8" fill="url(#highlightGradient9)" style="mix-blend-mode:overlay"></path><path d="M1999.2,2162.4s113.2,21.1,98.4,83.6l92.6,3,43.3-6.5-4.3-68.5-206.8-60.7Z" fill="url(#highlightGradient4)"></path><path d="M951.2,2166.5s-113.2,21.1-98.4,83.6l-92.6,3-43.3-6.5,4.3-68.5,206.8-60.7Z" opacity=".7" fill="url(#highlightGradient5)"></path></g></g><g id="bodyMask"><path d="M1206.4,868c-10.2-22.6-28.8-40.8-50.7-52.5s-46.7-17-71.5-17.6c-19.9-.5-40.6,2.3-57.7,12.7-26.3,16.1-39.6,48.4-38.9,79.2s13.5,60.1,29.8,86.3a336.3,336.3,0,0,0,63.3,74.9v0.2c-12.7,30.6-22.4,57.9-27.8,73.8a172.1,172.1,0,0,1-9.7,21.8,302,302,0,0,1-50.9,70.6,408.2,408.2,0,0,0-28.3,32.7c-24.8,32-46.5,66.1-63.3,103.3,21.2-15,43.8-22.6,64.2-36.7-14.1,25.9-20.2,55.2-26.1,84a465.4,465.4,0,0,1,65.1-44.9c-8.4,27.2.5,57.8,18.6,79.8l2.4,2.8v5.5l-28.6,150.3L979.3,1684l-60,315.5a248.9,248.9,0,0,0,12.6,117.5l-0.6.3c-38.1,9.1-130.4,43.4-184.5,78.3-26.5,17.1-10.1,55.9,23.2,55.3l266.9-5.2q6.8,4.1,13.8,7.9l0.2,3.4c0.4,23.3-6.7,42.4-29.9,43.6-15.6.8-28.2,9.9-30.6,21.1-4.7,21.5,5.8,38.9,27.2,40.4l84.3,5c26.4,1.6,51.9-11.3,65.3-34.1a71.4,71.4,0,0,0,8.8-23.9l5-26.6h533.6l3.5,20.7a71.6,71.6,0,0,0,43.1,54.3,53.5,53.5,0,0,0,22.3,4l91.8-3c22-2.2,30.1-15.7,27.9-36.9-0.7-6.9-6.2-24.5-24.5-25.5-15.8-.9-25.2-8.6-28.1-21.9h0a246.8,246.8,0,0,0,65.4-28.1l261.5,5.1c33.3,0.6,49.2-37.5,23.2-55.3-43-29.4-132.4-61.7-179.8-75.5l-0.8-.3a248.1,248.1,0,0,0,6.4-155.8l-88.4-287.5-29.7-96.5-50.6-164.7v-2.5c12.8-22.4,17.1-50.1,7.6-73.9a465.4,465.4,0,0,1,68.5,39.5c-8.2-28.3-16.7-57-32.8-81.6,21.5,12.4,52.2,18.7,71.9,29.9-21.3-32.8-45.2-70.4-76.3-96.4-37-30.9-54.3-55-82.3-109-12-23.1-30.4-57.3-52-93.3l0.4-.2a336.4,336.4,0,0,0,60-86.4c13.4-27.7,23-58.3,20.5-88.9s-19.2-61.5-47-74.6c-18-8.5-38.9-9.1-58.7-6.5-24.6,3.2-48.7,11.1-69.2,25.1s-37.1,34-44.9,57.5l-3.1,7.7-6.3-4.1a240.6,240.6,0,0,0-54.9-21.5l-10.1-3-2.2-1.4c15.3-25.7,49.9-40.7,49.9-40.7-26.7-27.5-75,2-75,2,18.3-46.5,101.9-59.5,101.9-59.5-104.8-85-197.2,24-197.2,24-9-24,15.3-59,15.3-59-62.7,3-61.3,57-70,57-46.7-44-107.4-29-107.4-29,31.9,8,64.2,78,64.2,78-77.9-36-110.3,4.3-110.3,4.3,28.7,2.8,47,15.2,58.4,27.5l-2.1,1.7a240.5,240.5,0,0,0-67.8,31.7V868Z" fill="none"></path></g><g id="body"><path d="M1850.5 2273.9c130.6-34.8 214.8-171.9 175.8-309.9l-168.7-548.7M1180.9 2282.4L1714.5 2282.4M1024.9 1444L919.2 1999.6c-14.2 107.9 42.3 207 131.5 254.1" fill="none" stroke="#31323d" stroke-linecap="round" stroke-miterlimit="10" stroke-width="12.5"></path><path d="M1228.6,2040.8c-1.7,15.3-3.8,30.4-6,45.6l-3.5,22.7-3.8,22.6c-2.6,15.1-5.4,30.1-8.1,45.2l-8.3,45.1-16.6,90.3a76.3,76.3,0,0,1-3.5,12.1,77.5,77.5,0,0,1-5.4,11.4,75.5,75.5,0,0,1-16,19.4,78.7,78.7,0,0,1-45.9,18.8l-6.3.2h-6.1l-11.5-.7-22.9-1.3-45.8-2.8h-4.7l-1.8-.3a44.1,44.1,0,0,1-6.7-1.7,35.7,35.7,0,0,1-12.3-7.3,34.7,34.7,0,0,1-8.3-11.7,40.4,40.4,0,0,1-3.1-13.5,50.7,50.7,0,0,1,1-13.2l0.2-.8v-1.7l0.3-1.1a26.9,26.9,0,0,1,1.5-3.6,30.2,30.2,0,0,1,4.1-6.2,37.9,37.9,0,0,1,11-8.8,45.9,45.9,0,0,1,12.7-4.5,49,49,0,0,1,6.6-.9l2.7-.2,2.1-.3a22,22,0,0,0,4.3-1.2,18.5,18.5,0,0,0,3.8-1.9c4.6-3,7.7-8.4,9.4-14.8a70.5,70.5,0,0,0,1.8-20.8l-0.9-22.9-1.9-45.9c-0.6-15.3-1.3-30.6-1.8-45.9v0.5c-0.6-5-1.3-9.9-2-14.9-0.4-2.5-.8-4.9-1.2-7.4s-0.9-4.9-1.4-7.3-1-4.9-1.6-7.3-1.2-4.8-1.8-7.2q-1.9-7.2-4.4-14.2c-0.8-2.3-1.7-4.6-2.6-6.9s-1.8-4.6-2.9-6.8l-1.5-3.4-1.6-3.3-1.7-3.3-1.8-3.3-1.8-3.2-1.9-3.2-4-6.3c-1.4-2.1-2.8-4.1-4.3-6.2l-2.2-3-2.3-3h0a2.2,2.2,0,0,1,3.4-2.9l5.4,5.6q2.6,2.9,5.1,5.9c1.7,2,3.3,4,4.8,6.1l2.3,3.2,2.2,3.2c1.5,2.2,2.9,4.3,4.2,6.6l2,3.4,1.9,3.4q1.9,3.4,3.5,7c1.1,2.4,2.2,4.7,3.2,7.2q3,7.2,5.4,14.7c1.6,5,3,10,4.2,15q0.9,3.8,1.7,7.6c0.5,2.5,1.1,5.1,1.5,7.6,0.9,5.1,1.7,10.2,2.4,15.3v0.5c0.9,15.3,1.6,30.6,2.4,45.8l2.3,45.8,1.1,22.9a94.4,94.4,0,0,1-.1,12.3,71.8,71.8,0,0,1-1.9,12.5,54.5,54.5,0,0,1-2,6.3,42.8,42.8,0,0,1-3.1,6.2,33.3,33.3,0,0,1-9.8,10.4,35.1,35.1,0,0,1-13.2,5.3l-3.5.5-3,.2a35,35,0,0,0-4.7.6,31.9,31.9,0,0,0-8.8,3.2,23.9,23.9,0,0,0-6.9,5.5,16.1,16.1,0,0,0-2.2,3.3,13,13,0,0,0-1.2,3.7,36.6,36.6,0,0,0-.7,9.6,26.2,26.2,0,0,0,2,8.7,20.4,20.4,0,0,0,4.9,6.9,21.4,21.4,0,0,0,7.3,4.3,30.1,30.1,0,0,0,4.4,1.1l1,0.2h3.9l45.8,2.7,22.9,1.4,11.5,0.7h10.5a64.5,64.5,0,0,0,37.6-15.2,61.4,61.4,0,0,0,13.1-15.7,65,65,0,0,0,7.4-19.2l17.4-90.1,8.7-45.1c2.9-15,5.8-30,8.8-45l4.7-22.5,5-22.4c3.4-14.9,7-29.8,11-44.6A2.2,2.2,0,0,1,1228.6,2040.8Z" fill="#31323d"></path><path d="M1095.2 2319.6h-.5l-1.7.2a18.6 18.6 0 0 0-5.8 2 22.5 22.5 0 0 0-6.7 5.5 30.2 30.2 0 0 0-2.9 4 38.9 38.9 0 0 0-2.4 4.6l-.5 1.2-.5 1.2-.5 1.2-.4 1.3c-.5 1.7-.9 3.4-1.3 5l-.5 2.4c-.2.8-.3 1.6-.4 2.4s-.4 3-.6 4.4-.2 2.6-.3 3.7-.1 2.1-.2 2.9v2.7a6.3 6.3 0 1 1-12.5-.6 6.9 6.9 0 0 1 .1-.8l.5-2.7c.2-.9.3-1.9.6-3.1s.5-2.6.9-4.1.8-3.1 1.3-4.8l.8-2.6.9-2.7c.7-1.8 1.4-3.7 2.3-5.5l.6-1.4.7-1.4.7-1.4.8-1.4a46.9 46.9 0 0 1 3.6-5.2 37.5 37.5 0 0 1 4.2-4.5 28.8 28.8 0 0 1 9.4-5.8 23.9 23.9 0 0 1 7.7-1.5h3.1A2.2 2.2 0 1 1 1095.2 2319.6zM1052.7 2314.9h-.6l-1.6.4-2.5.9-.7.3-.8.4-1.6.9-1.7 1.1-1.7 1.3-.9.7-.8.8-1.6 1.7-1.5 2-.7 1-.6 1.1-1.3 2.2-1.1 2.4c-.3.8-.7 1.6-1 2.4l-.8 2.5-.8 2.4-.6 2.5a42.3 42.3 0 0 0-1 4.7l-.6 4.3a35.4 35.4 0 0 0-.3 3.7l-.2 2.8-.2 2.5v.4a6.3 6.3 0 1 1-12.5-.8 6.9 6.9 0 0 1 .1-.8l.5-2.7.6-3.1c.3-1.2.4-2.5.9-4l1.3-4.7a51.3 51.3 0 0 1 1.8-5.2l1-2.7 1.3-2.7 1.3-2.7c.5-.9 1.1-1.8 1.6-2.7l1.7-2.6 1.9-2.4.9-1.2 1.1-1.1 2.1-2.1 2.2-1.8 1.1-.9 1.2-.7 2.2-1.4 2.2-1.1 2.1-.8 1-.4 1-.3a26.5 26.5 0 0 1 3.2-.7l2.2-.2h.8A2.2 2.2 0 1 1 1052.7 2314.9zM1673.7 2025.2l2.2 9.4c1.4 6.1 3.4 15.1 5.8 26.6 1.2 5.7 2.5 12.1 3.9 19l4.4 22.5 4.8 25.6 5 28.4 23.3 135.3c1.1 6.1 2 12.8 3.6 17.8a63.3 63.3 0 0 0 7.2 15.7 65.1 65.1 0 0 0 25.9 23.4l4.1 1.9 1.1.4 1 .4 2 .7a45.4 45.4 0 0 0 8.4 1.7l4.3.3h4.6l10-.3 40.1-1.4 39.4-1.2 2.5-.3 1.2-.2.9-.2 1.9-.4 1.9-.6a21.7 21.7 0 0 0 6.5-3.5 17 17 0 0 0 4.3-5.4c.2-.6.6-1.1.7-1.7l.6-1.8a30.4 30.4 0 0 0 .8-3.9 37.8 37.8 0 0 0 .4-4.1c0-.7 0-1.4 0-2.1s0-1.4-.1-2.2l-.2-2.2v-.3a.3.3 0 1 1 0-.1v-1.6l-.2-.8-.2-.9c-.1-.6-.4-1.3-.6-1.9-1.7-5-4.7-9.3-8.4-11.7a17.3 17.3 0 0 0-6.4-2.3l-1.8-.2-2.6-.2h-1.2l-1.5-.2-2.9-.5a39.5 39.5 0 0 1-10.9-4.2 30.1 30.1 0 0 1-9.1-8 34 34 0 0 1-5.3-10.4 47.2 47.2 0 0 1-1.9-10.7c-.1-.9-.1-1.7-.1-2.6s0-1.8 0-2.6v-4.6l.2-9.1.8-35.4.2-8.6v-3.7c0-.8 0-.4 0-.6v-.3l.3-4.2.3-4.2c.1-1.4.2-2.7.4-4.2l1-8.4a250.4 250.4 0 0 1 6.4-31.5 277 277 0 0 1 9.1-28l2.7-6.4c.9-2.1 1.7-4.2 2.7-6.2l2.8-5.9c.9-1.9 1.8-3.9 2.8-5.7l2.9-5.4 1.4-2.6 1.5-2.5 2.9-4.9c.9-1.6 1.8-3.2 2.8-4.7l5.6-8.7 5.4-7.7 2.6-3.5 2.5-3.2c1.6-2.1 3.1-4.1 4.6-5.8l4.1-4.9 3.5-4 6.6-7.1a2.2 2.2 0 0 1 3.4 2.8h0l-5.6 7.8c-3.6 5.1-8.8 12.6-14.9 22.5l-4.7 7.8-4.8 8.8c-.9 1.5-1.7 3.1-2.5 4.7l-2.5 4.9-1.3 2.5-1.2 2.6-2.5 5.4a290.9 290.9 0 0 0-17.7 50.6l-.9 3.6-.4 1.8-.4 1.8-1.5 7.4-.4 1.9-.3 1.9-.6 3.8-.6 3.9-.3 1.9-.2 1.9-.9 7.8c-.2 1.3-.2 2.7-.3 4.1l-.3 4.2-.3 4.2v.3c0-.1 0 .5 0-.1v12.3l-.5 35.4v13.7c0 .8 0 1.4 0 2.1s0 1.4.1 2a33.7 33.7 0 0 0 1.4 7.5 20.3 20.3 0 0 0 3.2 6.2c2.7 3.6 6.9 5.8 12 6.9l1.8.3.9.2h1.2l2.2.2 3 .3a31.3 31.3 0 0 1 11.7 4.2 31.8 31.8 0 0 1 9 8.5 40.3 40.3 0 0 1 5.4 10.5c.3.9.6 1.8.8 2.8l.4 1.4.3 1.6v2.9l.2 2.7c.1.9.1 1.8.1 2.8s.1 1.8 0 2.8a52 52 0 0 1-.5 5.7 44.4 44.4 0 0 1-1.2 5.8l-1 2.9c-.3 1-.8 1.9-1.3 2.9a31.3 31.3 0 0 1-7.9 10.1 35.8 35.8 0 0 1-10.9 6l-2.8.9-3 .7-1.5.3-1.3.2-2.5.3h-5.7l-5 .2-10 .4-20.1.7-40.1 1.3-10 .3h-5.4l-5.6-.4a59.7 59.7 0 0 1-11-2.3l-2.7-.9-1.4-.5-1.2-.5-4.9-2.3a79.2 79.2 0 0 1-31.4-28.6 77.2 77.2 0 0 1-8.7-19.2l-.7-2.6-.3-1.3c-.1-.4-.2-.9-.3-1.3l-.5-2.3-.2-1.2v-1.4l-1.5-9.3-22-135.6-4.5-28.5-3.8-25.7-3.2-22.7c-1-7-1.8-13.4-2.5-19.3-1.5-11.6-2.5-20.8-3.2-27.1l-1-9.6A2.2 2.2 0 0 1 1673.7 2025.2z" fill="#31323d"></path><path d="M1783.2 2307.4h3.2a34.8 34.8 0 0 1 8 1.7 33.5 33.5 0 0 1 5.1 2.1 34.2 34.2 0 0 1 5.3 3.3 37.9 37.9 0 0 1 5 4.5c.7.9 1.5 1.7 2.2 2.7l1 1.4 1 1.5a46.8 46.8 0 0 1 3.3 6.1 56.5 56.5 0 0 1 2.4 6.2c.4 1 .6 2 .9 3s.5 2 .7 2.9l.6 2.8.4 2.6c.3 1.7.4 3.2.6 4.6s.3 2.5.3 3.5l.2 3.1a6.3 6.3 0 0 1-12.5.8 6.4 6.4 0 0 1 0-.7v-.3l.2-2.7c.1-.9.1-1.9.1-3.1s.1-2.6 0-4v-2.3l-.2-2.4c-.1-.8-.2-1.7-.3-2.5s-.2-1.8-.4-2.6a47.1 47.1 0 0 0-1.3-5.3 38.1 38.1 0 0 0-2.1-5.2l-.6-1.3-.7-1.2c-.4-.8-1-1.6-1.5-2.3a30.5 30.5 0 0 0-3.5-4.1 29.3 29.3 0 0 0-8-5.5 29.5 29.5 0 0 0-6.6-2.2l-1.9-.3h-.7A2.2 2.2 0 0 1 1783.2 2307.4zM1833.8 2304.2h3.2a34.8 34.8 0 0 1 8 1.7 33.5 33.5 0 0 1 5.1 2.1 34.2 34.2 0 0 1 5.3 3.3 37.9 37.9 0 0 1 5 4.5c.7.9 1.5 1.7 2.2 2.7l1 1.4 1 1.5a46.8 46.8 0 0 1 3.3 6.1 56.6 56.6 0 0 1 2.4 6.2c.4 1 .6 2 .9 3s.5 2 .7 2.9l.6 2.8.4 2.6c.3 1.7.4 3.2.6 4.6s.3 2.5.3 3.5l.2 3.1a6.3 6.3 0 1 1-12.5.1v-.3l.2-2.7c.1-.9.1-1.9.1-3.1s.1-2.6 0-4v-2.3l-.2-2.4c-.1-.8-.2-1.7-.3-2.5s-.2-1.8-.4-2.6a47.1 47.1 0 0 0-1.3-5.3 38 38 0 0 0-2.1-5.2l-.6-1.3-.7-1.2c-.4-.8-1-1.6-1.5-2.3a30.5 30.5 0 0 0-3.5-4.1 29.3 29.3 0 0 0-8-5.5 29.5 29.5 0 0 0-6.6-2.2l-1.9-.3h-.7A2.2 2.2 0 0 1 1833.8 2304.2z" fill="#31323d"></path><path d="M931.3,2117.4c-38.1,9.1-130.4,43.4-184.5,78.3-26.5,17.1-10.1,55.9,23.2,55.3l280.4-5.5" fill="none" stroke="#31323d" stroke-linecap="round" stroke-miterlimit="10" stroke-width="12.5"></path><path d="M840.5 2200.1l-.7.2-2 .6-3.1 1-4 1.5-4.5 2.1a49.4 49.4 0 0 0-4.7 2.8 36 36 0 0 0-4.4 3.5 26.3 26.3 0 0 0-3.7 4.2l-.8 1.1-.7 1.2a21.4 21.4 0 0 0-1.1 2.4c-.2.4-.3.8-.4 1.2a8.9 8.9 0 0 0-.3 1.2 18.1 18.1 0 0 0-.4 2.4v1.2c0 .4 0 .8 0 1.2v1.2c0 .4.1.8.1 1.2a15.6 15.6 0 0 0 .3 2.2c.2.7.3 1.4.5 2.1a36.6 36.6 0 0 0 1.2 3.6 29.8 29.8 0 0 0 1.2 2.8l1.2 2.4.2.3a6.3 6.3 0 0 1-11.3 5.5l-.3-.7-1.1-3.1c-.4-1-.7-2.2-1.1-3.7a48 48 0 0 1-1-4.9c-.1-.9-.2-1.9-.3-2.9a24.9 24.9 0 0 1-.1-3.2c0-.5 0-1.1 0-1.7l.2-1.7c.1-.6.1-1.2.2-1.7l.4-1.8a27.7 27.7 0 0 1 1-3.5 16.1 16.1 0 0 1 .7-1.7l.8-1.7a30.5 30.5 0 0 1 2-3.2l1.1-1.5 1.2-1.4a34.5 34.5 0 0 1 5.4-4.9 43.4 43.4 0 0 1 5.8-3.6 56.1 56.1 0 0 1 5.7-2.6l5.2-1.8 4.4-1.2 3.5-.7 2.3-.3h.8a2.2 2.2 0 0 1 .8 4.4h-.1zM793 2202.1h-.6l-1.7.5a38.1 38.1 0 0 0-5.9 2.5 32.6 32.6 0 0 0-3.6 2.2 29.2 29.2 0 0 0-3.5 2.9 23.5 23.5 0 0 0-2.9 3.7 18.7 18.7 0 0 0-2 4.2 21.2 21.2 0 0 0-.6 2.2c-.1.8-.3 1.5-.3 2.3a24.7 24.7 0 0 0 .1 4.6 34.5 34.5 0 0 0 .8 4.3c.4 1.4.7 2.7 1.2 3.9l.6 1.7.7 1.5.6 1.3.6 1.1 1.1 2.1v.2a6.3 6.3 0 0 1-11.2 5.6l-.3-.8-.9-2.7-.5-1.4-.5-1.7-.5-1.9c-.2-.7-.3-1.4-.5-2.2s-.6-3.3-.8-5.1a44.7 44.7 0 0 1-.2-5.9 34.2 34.2 0 0 1 .8-6.3c.2-1.1.6-2.1.9-3.2a29.7 29.7 0 0 1 1.3-3.1 26.9 26.9 0 0 1 3.6-5.6 31 31 0 0 1 4.5-4.3 35.8 35.8 0 0 1 4.8-3 38.6 38.6 0 0 1 4.6-2 43.3 43.3 0 0 1 7.1-2l2-.3h.8a2.2 2.2 0 0 1 .8 4.4H793z" fill="#31323d"></path><path d="M2020.7,2120.2c47.5,13.8,136.8,46.1,179.8,75.5,26.1,17.8,10.1,55.9-23.2,55.3l-261.6-5.1" fill="none" stroke="#31323d" stroke-linecap="round" stroke-miterlimit="10" stroke-width="12.5"></path><path d="M2107.6 2193.7h.8l2.3.4 3.5.8 4.5 1.4 5.2 2a58.4 58.4 0 0 1 5.6 2.8 45.8 45.8 0 0 1 5.7 3.8 36.7 36.7 0 0 1 5.3 5.1l1.2 1.5 1.1 1.6a31 31 0 0 1 1.9 3.3c.3.6.5 1.2.8 1.7s.5 1.2.7 1.8l.6 1.8.3.9.2.9a26.4 26.4 0 0 1 .6 3.5 25.1 25.1 0 0 1 .2 3.4 42.1 42.1 0 0 1-.4 6.2 50.3 50.3 0 0 1-1 5c-.4 1.5-.7 2.8-1.1 3.7l-1.1 3.2a6.3 6.3 0 0 1-11.8-4.1l.3-.7.2-.3 1.2-2.4c.4-.8.7-1.7 1.2-2.8s.8-2.3 1.2-3.7a31.5 31.5 0 0 0 .8-4.4 15.7 15.7 0 0 0 .1-2.4 16.7 16.7 0 0 0-.1-2.5V2224l-.2-1.3c-.1-.4-.2-.8-.4-1.3a12.8 12.8 0 0 0-.4-1.3 21.8 21.8 0 0 0-1.1-2.5l-.7-1.2-.8-1.2a28.5 28.5 0 0 0-3.7-4.4 38.4 38.4 0 0 0-4.4-3.8 51.5 51.5 0 0 0-4.7-3l-4.5-2.3a66.6 66.6 0 0 0-7.1-2.9l-2-.6-.7-.2h-.1A2.2 2.2 0 0 1 2107.6 2193.7zM2155.1 2195.7h.8l2.1.4a44.7 44.7 0 0 1 7.1 2.4 40.4 40.4 0 0 1 4.5 2.3 38.2 38.2 0 0 1 4.7 3.3 33.1 33.1 0 0 1 4.4 4.5 30 30 0 0 1 4.8 8.8c.4 1.1.6 2.2.9 3.2s.4 2.2.6 3.3.3 2.2.2 3.2.1 2.1 0 3.1l-.2 2.9c-.3 1.8-.5 3.6-.8 5.2l-.5 2.3-.6 2-.5 1.8-.5 1.4-.9 2.7a6.3 6.3 0 0 1-11.8-4.1l.3-.7v-.3l1.1-2.2.6-1.2.6-1.4.7-1.6.6-1.7c.5-1.2.8-2.6 1.2-4l.4-2.2c.2-.7.2-1.5.3-2.3s.1-1.5.1-2.3-.1-1.6-.1-2.4-.2-1.6-.3-2.4a20.2 20.2 0 0 0-.6-2.3 20.6 20.6 0 0 0-2-4.4 25.7 25.7 0 0 0-2.9-3.9 31.5 31.5 0 0 0-3.5-3.2 34.4 34.4 0 0 0-3.6-2.4 39.4 39.4 0 0 0-5.9-2.9l-1.7-.6-.6-.2H2154A2.2 2.2 0 0 1 2155.1 2195.7z" fill="#31323d"></path><path d="M1623.3 854c7.8-23.5 24.4-43.6 44.9-57.5s44.7-21.9 69.2-25.1c19.8-2.6 40.6-2 58.7 6.5 27.8 13.2 44.5 44 47 74.6s-7.1 61.2-20.5 88.9a336.4 336.4 0 0 1-60 86.4M1206.4 868c-10.2-22.6-28.8-40.8-50.7-52.5s-46.7-17-71.5-17.6c-19.9-.5-40.6 2.3-57.7 12.7-26.3 16.1-39.6 48.4-38.9 79.2s13.5 60.1 29.8 86.3a336.3 336.3 0 0 0 63.3 74.9" fill="none" stroke="#31323d" stroke-linecap="round" stroke-miterlimit="10" stroke-width="12.5"></path><path d="M1093.1 1482.7l-5.2-1.3-5.3-1.5-5.2-1.7-5.1-1.8-5.1-2-5-2.2-5-2.4-4.9-2.6-4.8-2.7-4.7-3-4.6-3.1-4.5-3.3-4.3-3.6-4.1-3.8-4-4-3.8-4.2-3.5-4.3-3.4-4.7-3.1-4.8-2.8-5-2.5-5.1-2.2-5.3-1.9-5.4c-.6-1.8-1-3.7-1.6-5.5s-.8-3.7-1.2-5.6-.6-3.8-.9-5.7-.3-3.8-.5-5.7-.1-3.9-.1-5.8.2-3.9.3-5.8.5-3.8.7-5.8l1.2-5.7 1.7-5.6h0l9.1 7.3-8.4 4.9-8.3 5.1-8.2 5.3-8.1 5.5-8 5.6-7.9 5.8-7.7 6-7.6 6.1h0a6.2 6.2 0 0 1-10.1-6.1l2.3-10.8q1.1-5.4 2.4-10.9l1.3-5.4 1.3-5.4 1.4-5.4 1.5-5.4 1.6-5.4 1.7-5.4 1.8-5.4 2-5.3 2.1-5.3 2.3-5.2 2.5-5.2 2.7-5.1 9 8.1-4 2.7-4.1 2.5-4.1 2.4-4.1 2.3-8.3 4.4-8.3 4.2-8.2 4.2-8 4.3-3.9 2.3-3.8 2.3-3.7 2.4-3.7 2.5h-.1a6.2 6.2 0 0 1-9.2-7.8c5.7-12.6 12-24.9 18.8-36.9s14.1-23.7 21.8-35.2 15.8-22.6 24.3-33.4a413.6 413.6 0 0 1 27.1-31.4c4.7-4.9 9.1-9.8 13.5-14.9s8.5-10.3 12.5-15.7a282.4 282.4 0 0 0 21.6-33.7c3.2-5.8 6.2-11.8 8.9-17.8 1.3-3 2.5-6 3.6-9l3.4-9.7q6.8-19.4 14.2-38.5t15.5-38.1c5.4-12.6 11-25.1 17-37.5s12.3-24.6 19-36.6a395.3 395.3 0 0 1 22.2-35.1c4.1-5.6 8.3-11.2 13-16.5l1.7-2 1.8-1.9 3.6-3.8 7.1-7.3 3.8-3.9 3.7-3.5 3.9-3.5 4-3.5q8-6.8 16.5-12.9a248.5 248.5 0 0 1 75.2-36.4 6.2 6.2 0 0 1 3.5 12H1276a236 236 0 0 0-71.3 34.5q-8.1 5.8-15.7 12.3l-3.7 3.2-3.7 3.3-3.7 3.5-3.3 3.5-7.1 7.3-3.4 3.6-1.7 1.8-1.6 1.9c-4.3 4.9-8.3 10.3-12.3 15.6a383 383 0 0 0-21.4 34c-6.6 11.7-12.8 23.7-18.7 35.9s-11.4 24.5-16.8 37-10.4 25-15.3 37.7-9.6 25.4-14.1 38.2l-3.3 9.6c-1.2 3.4-2.5 6.8-4 10-2.9 6.5-6 12.6-9.3 18.8a294.9 294.9 0 0 1-22.5 35.1q-6.2 8.4-13 16.3c-4.5 5.3-9.2 10.5-14 15.4a401.1 401.1 0 0 0-26.3 30.5c-8.3 10.6-16.2 21.6-23.8 32.7s-14.6 22.6-21.3 34.3-12.7 23.7-18.3 35.9l-9.3-7.7 4-2.7 4-2.6 4.1-2.5 4.1-2.4 8.3-4.5 8.3-4.3 8.2-4.2 8-4.3 3.9-2.2 3.9-2.3 3.8-2.4 3.7-2.5a6.3 6.3 0 0 1 9.1 8.1h0l-2.4 4.7-2.3 4.8-2.1 4.9-2 5-1.9 5-1.7 5.1-1.6 5.1-1.5 5.2-1.4 5.2-1.4 5.3-1.3 5.3-1.2 5.3q-1.2 5.3-2.3 10.7L945 1402l-10.1-6.1 7.8-6.3 7.9-6.1 8.1-6 8.2-5.8 8.3-5.6 8.4-5.4 8.5-5.2 8.7-5.1a6.2 6.2 0 0 1 9.2 6.8v.5h0l-1.1 4.7-.8 4.8-.5 4.8v4.9l.2 4.9.5 4.9.8 4.8c.4 1.6.7 3.2 1.1 4.8l1.3 4.8 1.6 4.7 1.8 4.6 2.1 4.5 2.3 4.4 2.5 4.3 2.7 4 3.1 4.1 3.2 3.9 3.4 3.8 3.6 3.6 3.7 3.5 3.9 3.3 4 3.2 4.1 3 4.2 2.9 4.4 2.8 4.5 2.7 4.5 2.5 4.6 2.4 4.7 2.3 4.8 2.2 4.8 2.1 4.9 2A2.5 2.5 0 0 1 1093.1 1482.7zM1784.7 1467.9l4.8-2.4 4.6-2.5 4.6-2.6 4.5-2.7 4.4-2.8 4.3-2.9 4.2-3 4.1-3.1 4-3.3 3.9-3.4 3.7-3.5 3.6-3.6 3.4-3.8 3.3-3.9 3.1-4 2.9-4.1 2.7-4.4 2.3-4.2 2.2-4.5 1.9-4.6 1.7-4.7 1.5-4.7 1.2-4.8 1-4.8c.2-1.6.4-3.3.7-4.9l.4-4.9v-4.9l-.2-4.9-.5-4.8-.8-4.8-1.2-4.7-1.5-4.6h0v-.5a6.2 6.2 0 0 1 8.6-7.5l9 4.4 8.9 4.5 8.8 4.7 8.7 4.9 8.6 5.1 8.5 5.3 8.4 5.5 8.3 5.6-9.6 6.9-3.1-10.6-3.2-10.5-1.7-5.2-1.7-5.2-1.8-5.1-1.8-5.1-1.9-5-2-5-2.1-4.9-2.3-4.9-2.4-4.8-2.5-4.7-2.7-4.6-2.8-4.5a6.3 6.3 0 0 1 8.3-8.9h0l4 2.2 4.2 2 4.3 1.9 4.4 1.8 4.4 1.7 4.5 1.7 9.1 3.3 9.2 3.3 4.6 1.7 4.6 1.8 4.7 1.9 4.6 2 4.6 2.2 4.6 2.5-8.3 8.8c-6.8-10.4-13.5-20.8-20.5-31s-14.1-20.1-21.8-29.7a255.3 255.3 0 0 0-24.5-26.9l-3.3-3.1-3.4-3-7.1-6.1-7.1-6.3-6.9-6.5a250.7 250.7 0 0 1-25.4-28.6 319.5 319.5 0 0 1-20.9-31.8c-6.4-10.9-12.3-21.9-18-33s-11.5-21.9-17.5-32.8-11.9-21.7-18.1-32.4-12.4-21.4-18.8-32c-3.2-5.3-6.5-10.5-9.7-15.8l-9.9-15.7-10.2-15.5c-3.5-5.1-6.9-10.2-10.5-15.3-7.1-10.1-14.4-20-22-29.7l-5.7-7.2-5.9-7-3-3.5-1.5-1.7-1.6-1.7-3.1-3.3-3.1-3.3a238.9 238.9 0 0 0-27.2-24c-4.8-3.7-9.8-7.1-14.9-10.4l-15.7-10.1.4.3-7.5-3.9-7.7-3.6-7.8-3.4-3.9-1.6-4-1.5-8-2.8-8.1-2.5-4.1-1.1-2.1-.5-.7-.2-.5-.2-1-.3-8.4-2.5a6.2 6.2 0 1 1 3.5-12l8.4 2.5 1.9.5 2.2.6 4.3 1.2 8.5 2.6 8.4 2.9 4.2 1.6 4.2 1.6 8.2 3.5 8.1 3.8 7.9 4.1.4.2h0l15.7 10.1c5.3 3.4 10.6 7.1 15.6 10.9a251.4 251.4 0 0 1 28.6 25.3l3.3 3.5 3.2 3.5 1.6 1.7 1.6 1.8 3.1 3.6 6.1 7.2 5.9 7.4c7.8 9.8 15.2 20 22.4 30.2 3.6 5.1 7.1 10.3 10.6 15.5l10.3 15.7 10 15.8c3.3 5.3 6.6 10.6 9.8 16q9.7 16 19 32.3c6.2 10.8 12.3 21.7 18.3 32.7s11.8 22 17.6 33 11.5 21.9 17.7 32.4a307.2 307.2 0 0 0 20.1 30.5 238 238 0 0 0 24.1 27.1l6.7 6.2 6.8 6 7.1 6.1 3.6 3.2 3.5 3.3a267.7 267.7 0 0 1 25.7 28.2c15.8 19.7 29.4 40.9 43 61.7a6.2 6.2 0 0 1-8.1 8.9h-.2l-4-2.1-4.2-2-4.3-1.9-4.4-1.8-4.5-1.7-4.5-1.6-9.1-3.2-9.2-3.3-4.6-1.7-4.6-1.8-4.6-1.9-4.6-2.1-4.6-2.3-4.5-2.5 8.4-8.8 3.1 4.9 2.9 5 2.7 5 2.5 5.1 2.4 5.2 2.3 5.2 2.1 5.2 2 5.3 1.9 5.3 1.8 5.3 1.8 5.3 1.7 5.3 3.2 10.6 3.1 10.6a6.2 6.2 0 0 1-9.5 6.9h0l-8.1-5.5-8.2-5.3-8.3-5.1-8.4-5-8.5-4.8-8.6-4.6-8.7-4.4-8.8-4.2 8.5-8h0l2.1 5.4 1.6 5.6q.6 2.8 1.2 5.7c.3 1.9.5 3.8.8 5.7s.3 3.8.3 5.8 0 3.8 0 5.8-.2 3.8-.4 5.7-.5 3.8-.8 5.7-.7 3.7-1.1 5.6-1 3.7-1.5 5.5l-1.8 5.4-2.1 5.3-2.4 5.2-2.7 5-3 5-3.1 4.6-3.4 4.5-3.6 4.3-3.8 4.1-4 3.9-4.2 3.7-4.3 3.5-4.4 3.3-4.6 3.1-4.7 2.9-4.7 2.8-4.8 2.6-4.9 2.4-5 2.2-5 2.1-5.1 1.9-5.1 1.7A2.5 2.5 0 0 1 1784.7 1467.9z" fill="#31323d"></path><path d="M1290.8,864.6a52.2,52.2,0,0,0-2.3-5.3c-0.9-1.8-1.8-3.5-2.9-5.2s-2.1-3.3-3.3-5-2.3-3.2-3.6-4.7l-1.9-2.2-2-2.2c-1.4-1.4-2.8-2.8-4.2-4.1l-2.2-1.9-2.3-1.8c-1.6-1.2-3.1-2.3-4.8-3.4s-3.3-2.1-5-3-3.4-1.8-5.2-2.6-3.6-1.5-5.3-2.3l-2.7-1-2.8-.9-2.8-.8-2.8-.7c-1.9-.5-3.8-0.8-5.7-1.2l-2.9-.4-2.9-.4-5.8-.5a6.2,6.2,0,0,1-4.3-10.1h0.1l0.5-.6,0.4-.4,0.8-.8,1.5-1.5,3.2-2.7a61.7,61.7,0,0,1,6.7-4.6,68.3,68.3,0,0,1,7.2-3.7l1.8-.8,1.9-.7,3.8-1.4a77.2,77.2,0,0,1,7.7-2.1l3.9-.8,3.9-.6,3.9-.4,3.9-.3h7.8l3.9,0.2,3.9,0.3c2.6,0.3,5.1.6,7.7,1s5.1,0.9,7.6,1.5l3.7,0.9,3.7,1,7.3,2.2,7.2,2.5,7.1,2.8,6.9,3.1-8.3,8.3-2.7-5.6-2.9-5.6q-3-5.6-6.1-11.1l-3.2-5.4-3.3-5.4-3.5-5.3-3.6-5.2-3.7-5-3.9-4.8c-1.3-1.6-2.7-3.1-4-4.7l-2.1-2.2-2.1-2.1-2.2-2.1-2.2-1.9c-1.5-1.3-3.1-2.4-4.6-3.5l-2.4-1.5-2.4-1.3-2.4-1-2.4-.8h-0.4a6.2,6.2,0,0,1,.4-12l2-.4,1.9-.4,3.8-.6,7.5-.8,7.5-.4h7.6l3.8,0.2,3.8,0.3,7.5,0.8,3.7,0.6,3.7,0.7,7.4,1.6c2.4,0.7,4.9,1.3,7.3,2.1s4.8,1.7,7.2,2.5,4.7,1.9,7,3,4.6,2.2,6.8,3.4l3.3,1.9,3.3,2,3.2,2.1,3.1,2.2c2.1,1.5,4,3.1,6,4.7l2.9,2.5,2.8,2.5-4.3-1.7h-0.8l-0.7.2-0.9.5-0.3.2a10.8,10.8,0,0,0,.9-1.6c0.7-1.5,1.4-3.3,2.2-5.2,1.5-3.8,3.1-7.7,5-11.6a81.3,81.3,0,0,1,6.7-11.3,65.7,65.7,0,0,1,8.9-10,59.2,59.2,0,0,1,5.2-4.3,62.3,62.3,0,0,1,5.6-3.7,66.4,66.4,0,0,1,5.9-3.1c2-.9,4.1-1.8,6.2-2.5s4.2-1.3,6.3-1.9l6.4-1.4,6.4-.9,3.2-.3,3.2-.2a6.2,6.2,0,0,1,5.5,9.7h-0.1l-1.9,3-1.9,3.2q-1.9,3.2-3.5,6.6a102.2,102.2,0,0,0-5.7,13.7c-0.4,1.2-.7,2.3-1.1,3.5s-0.6,2.3-.9,3.5-0.5,2.3-.7,3.5-0.3,2.3-.4,3.4-0.1,2.3-.1,3.4v1.7c0,0.5.1,1.1,0.1,1.6s0.1,1.1.2,1.6a12.3,12.3,0,0,0,.3,1.6,27.9,27.9,0,0,0,.9,3l-10.6-1.8,2.5-2.8,2.5-2.6,5.1-5c3.5-3.3,7.1-6.4,10.7-9.4a200.7,200.7,0,0,1,23.4-16.5,169.1,169.1,0,0,1,25.8-12.8,138.8,138.8,0,0,1,27.9-7.8,120.3,120.3,0,0,1,14.5-1.6,125.3,125.3,0,0,1,14.6.2,132.2,132.2,0,0,1,14.5,1.9,128.1,128.1,0,0,1,27.7,8.8l3.3,1.5,3.3,1.6,3.2,1.7,3.2,1.7,3.1,1.8,3.1,1.9c2.1,1.2,4,2.6,6,4s3.9,2.8,5.8,4.2l5.7,4.4a6.2,6.2,0,0,1-2.8,11h-0.2l-7.2,1.4-7.3,1.7q-7.2,1.8-14.4,4l-3.5,1.1-3.5,1.2-7,2.6-6.8,2.8-3.4,1.5-3.3,1.6-3.3,1.7-3.2,1.8-3.2,1.8-3.1,1.9-3,2-2.9,2.1c-1.9,1.5-3.8,2.9-5.6,4.5s-3.5,3.2-5.1,4.9l-2.3,2.6-2.2,2.7a32.1,32.1,0,0,0-2,2.8l-1,1.4-0.8,1.5-0.8,1.5a11.5,11.5,0,0,0-.8,1.5l-1.4,3.1-9.1-7.6,2.4-1.4,2.4-1.3,4.8-2.3q4.8-2.2,9.8-4l5.1-1.7,5.2-1.4,2.6-.6,2.7-.5,2.7-.5,2.7-.4,5.5-.5h5.6l2.8,0.2,2.8,0.4,2.8,0.5,2.8,0.7,2.8,0.9,2.7,1a46.3,46.3,0,0,1,5.3,2.6,45.4,45.4,0,0,1,4.8,3.4,49.6,49.6,0,0,1,4.4,3.9h0l0.2,0.2a6.1,6.1,0,0,1-.1,8.6,6.2,6.2,0,0,1-2.1,1.3l-2.4,1-2.5,1.1-5,2.4c-3.3,1.7-6.6,3.5-9.7,5.5l-4.7,3-4.6,3.2-2.2,1.7-2.2,1.7-2.1,1.8-2.1,1.8c-1.4,1.2-2.7,2.5-4,3.8s-2.5,2.7-3.6,4.1l-1.7,2.1-1.6,2.2-1.5,2.3-1.4,2.3c-0.5.8-.8,1.6-1.3,2.4a24.6,24.6,0,0,0-1.1,2.5c-0.3.8-.7,1.7-1,2.5l-0.8,2.6c-0.3.9-.4,1.8-0.6,2.6a21,21,0,0,0-.5,2.7,45.6,45.6,0,0,0-.4,5.4v0.3a2.5,2.5,0,0,1-5-.1,50.8,50.8,0,0,1,0-6.1,25.4,25.4,0,0,1,.3-3.1c0.2-1,.3-2,0.5-3.1l0.7-3c0.2-1,.6-2,0.9-3a29.7,29.7,0,0,1,1-2.9c0.4-1,.7-1.9,1.2-2.8l1.3-2.8,1.5-2.7,1.6-2.6,1.7-2.5c1.1-1.7,2.4-3.3,3.7-4.9s2.6-3.1,4-4.6l2.1-2.2,2.1-2.1,2.2-2.1,2.3-2,4.6-3.8,4.8-3.6q4.8-3.5,10-6.7l5.2-3.1,2.7-1.5,2.8-1.4-2,10.1h0a37.4,37.4,0,0,0-3.1-2.8,33,33,0,0,0-3.4-2.4,33.9,33.9,0,0,0-3.8-1.8l-2-.8-2-.6-2.1-.5-2.1-.4-2.2-.3-2.2-.2h-4.5l-4.5.4-2.3.3-2.3.4-2.3.5-2.3.5-4.5,1.3-4.5,1.5c-3,1.1-5.9,2.3-8.8,3.6l-4.3,2.1-2.1,1.1-1.9,1.1-0.3.2a6.2,6.2,0,0,1-8.8-7.8l1.7-3.9a17.2,17.2,0,0,1,1-1.9l1-1.9,1.1-1.8,1.2-1.8c0.8-1.2,1.5-2.4,2.4-3.4l2.6-3.3,2.8-3.1c1.9-2,3.9-3.9,6-5.7s4.2-3.5,6.4-5.1l3.3-2.3,3.4-2.2,3.4-2.1,3.5-2,3.5-1.9,3.6-1.8,3.6-1.7,3.6-1.6,7.3-3,7.4-2.7,3.7-1.3,3.7-1.2q7.5-2.4,15.1-4.2l7.7-1.8,7.9-1.5-3,11-5.3-4.1c-1.8-1.3-3.6-2.7-5.4-3.9l-5.6-3.7-2.8-1.8-2.9-1.7-2.9-1.6-2.9-1.5-3-1.4-3-1.4a115.7,115.7,0,0,0-25-8,119.9,119.9,0,0,0-13-1.7,112.9,112.9,0,0,0-13.1-.1,107.9,107.9,0,0,0-13.1,1.4,126.4,126.4,0,0,0-25.4,7.1,156.7,156.7,0,0,0-23.9,11.8,188.2,188.2,0,0,0-21.9,15.5c-3.5,2.8-6.8,5.8-10.1,8.9l-4.8,4.7-2.3,2.4-2.1,2.3-0.2.2a6.1,6.1,0,0,1-8.7.6,6.2,6.2,0,0,1-1.8-2.7,40,40,0,0,1-1.3-4.6,21.9,21.9,0,0,1-.5-2.3c-0.1-.8-0.3-1.5-0.3-2.3s-0.2-1.5-.2-2.3V746c0-1.5,0-3,.2-4.5s0.3-2.9.5-4.4,0.5-2.9.8-4.2,0.7-2.8,1-4.2,0.8-2.7,1.2-4a114.5,114.5,0,0,1,6.4-15.4q1.8-3.7,3.9-7.3l2.1-3.6,2.3-3.6,5.4,9.8-2.8.2-2.8.3-5.6.8-5.5,1.2-5.3,1.6a52.4,52.4,0,0,0-18.6,10.9,59.3,59.3,0,0,0-12.9,17.7c-1.7,3.4-3.1,6.9-4.6,10.7-0.8,1.9-1.5,3.8-2.5,6a22.2,22.2,0,0,1-2.1,3.7,11.2,11.2,0,0,1-2.3,2.4,9.1,9.1,0,0,1-2.2,1.2l-1.4.4h-1.5a5.8,5.8,0,0,1-4-1.5l-0.2-.2-2.5-2.3-2.6-2.2c-1.8-1.4-3.5-2.9-5.4-4.2l-2.8-2-2.9-1.9-2.9-1.8-3-1.7c-2-1.1-4-2.1-6.1-3.1s-4.2-1.8-6.3-2.7-4.3-1.6-6.4-2.3-4.4-1.3-6.6-1.9l-6.7-1.5-3.4-.6-3.4-.5-6.8-.8-3.4-.2h-10.3l-6.9.4-6.8.7-3.3.5-1.6.3-1.5.3V720.4l3.7,1.2,3.5,1.5,3.3,1.7,3.1,1.9c2,1.4,3.9,2.8,5.7,4.3l2.6,2.3,2.5,2.4,2.4,2.4,2.3,2.5c1.5,1.7,3,3.4,4.4,5.1s2.8,3.5,4.2,5.2l4,5.4,3.8,5.4,3.6,5.5,3.5,5.6,3.4,5.7q3.3,5.7,6.4,11.5l3,5.9,2.9,6a6.2,6.2,0,0,1-8.1,8.4h-0.2l-6.5-2.9-6.6-2.6-6.7-2.4-6.8-2-3.4-.9-3.4-.8c-2.3-.5-4.6-1-6.9-1.3s-4.6-.7-6.9-0.9l-3.5-.3-3.5-.2h-6.9l-3.4.2-3.4.4-3.4.5-3.3.7a64.7,64.7,0,0,0-6.5,1.8l-3.2,1.1-1.6.6-1.5.7a55.8,55.8,0,0,0-5.9,3.1,49.1,49.1,0,0,0-5.4,3.7l-2.4,2.1-1.1,1.1-0.5.5-0.3.4-4.3-10.1,6.4,1.1,3.2,0.7,3.2,0.7c2.1,0.6,4.2,1.1,6.3,1.8l3.1,1,3.1,1.1,3,1.2,3,1.3c1.9,1,3.9,1.9,5.8,3s3.7,2.2,5.6,3.4,3.6,2.4,5.3,3.8,3.4,2.7,5,4.1l2.4,2.2,2.3,2.3c1.5,1.6,2.9,3.2,4.3,4.8l2,2.5,1.9,2.6c1.2,1.7,2.4,3.5,3.5,5.4s2.1,3.7,3.1,5.6,1.8,3.8,2.7,5.8a56.6,56.6,0,0,1,2.2,6.1,2.5,2.5,0,0,1-4.8,1.5h0Z" fill="#31323d"></path></g></g><g id="item_g"></g><g id="item_f"></g><g id="eye"><defs><linearGradient id="eyeColor1" x2="0%" y2="100%"><stop offset="0%" stop-color="#828282"></stop></linearGradient><linearGradient id="eyeColor2" x2="0%" y2="100%"><stop offset="0%" stop-color="#828282"></stop></linearGradient></defs><defs><clipPath id="eyeClipPath"><circle cx="1696" cy="1101.3" r="129.7" fill="#fff" stroke="#31323d" stroke-width="10" stroke-miterlimit="10" transform="translate(381.9 2638.3) rotate(-82.5)" stroke-linecap="round"></circle></clipPath><clipPath id="eyeClipPath2"><circle cx="1168.9" cy="1127" r="129.7" fill="#fff" stroke="#31323d" stroke-width="10" stroke-miterlimit="10" transform="translate(-137.7 163) rotate(-7.5)" stroke-linecap="round"></circle></clipPath></defs><circle cx="1696" cy="1101.3" r="129.7" fill="#fff" transform="translate(381.9 2638.3) rotate(-82.5)"></circle><g clip-path="url(#eyeClipPath)"><circle cx="1653.5" cy="1132.4" r="87.6" fill="url(#eyeColor1)" transform="translate(-134.2 226.5) rotate(-7.5)"></circle><circle cx="1657.1" cy="1133.7" r="64.7" fill="#31323d" transform="translate(-134.3 227) rotate(-7.5)"></circle><circle cx="1679.1" cy="1078.3" r="35.2" fill="#fff" transform="translate(-126.9 229.4) rotate(-7.5)"></circle></g><circle cx="1696" cy="1101.3" r="129.7" fill="none" stroke="#31323d" stroke-width="10" stroke-miterlimit="10" transform="translate(381.9 2638.3) rotate(-82.5)" stroke-linecap="round"></circle><path fill="none" stroke="#31323d" stroke-width="30" stroke-miterlimit="10" d="M1828.1 1011.3c-65.3 5.4-115.7-35.5-151.7-66.9" stroke-linecap="round"></path><circle cx="1168.9" cy="1127" r="129.7" fill="#fff" transform="translate(-137.7 163) rotate(-7.5)"></circle><g clip-path="url(#eyeClipPath2)"><circle cx="1211.4" cy="1158.2" r="87.6" fill="url(#eyeColor2)" transform="translate(-141.4 168.8) rotate(-7.5)"></circle><circle cx="1215" cy="1159.4" r="64.7" fill="#31323d" transform="translate(-141.5 169.3) rotate(-7.5)"></circle><circle cx="1237.1" cy="1104" r="35.2" fill="#fff" transform="translate(-134 171.7) rotate(-7.5)"></circle></g><circle cx="1168.9" cy="1127" r="129.7" fill="none" stroke="#31323d" stroke-width="10" stroke-miterlimit="10" transform="translate(-137.7 163) rotate(-7.5)" stroke-linecap="round"></circle><path fill="none" stroke="#31323d" stroke-width="30" stroke-miterlimit="10" d="M1036.8 1037c65.3 5.4 115.7-35.5 151.7-66.9" stroke-linecap="round"></path></g><g id="item_e"></g><g id="mouth"><path d="M1387.6,1449.1s7.9,72.2,68.5,66.4c58.7-5.7,61.4-73.9,61.4-73.9s-19.4,31.4-57.4,34.1S1387.6,1449.1,1387.6,1449.1Z" fill="#595959" opacity=".2" style="mix-blend-mode:multiply"></path><path d="M1371.7,1227.7a15,15,0,0,1,2.3-16.1c8.2-9.4,26.4-23.8,61.9-26.8s53.3,8,62,16.1a14.9,14.9,0,0,1,3.8,15.9h0a20.8,20.8,0,0,1-17.2,13.7c-10,1.1-23.6,5.2-31.4,18.4a13.2,13.2,0,0,1-1.7,2.3l-0.3.3a17.7,17.7,0,0,1-25.3.6h0s-8.2-11.9-35.2-11.9a20.7,20.7,0,0,1-18.7-12.1Z" fill="#31323d"></path><path d="M1447.5,1255.1v0.5l0.5,1.7c0.4,1.5,1.1,3.8,2.1,6.6a194.1,194.1,0,0,0,9.7,23.3c2.3,4.7,5,9.7,8.2,14.8a168.1,168.1,0,0,0,10.7,15.5,145.1,145.1,0,0,0,13.4,14.9,123,123,0,0,0,16,13.1c2.8,2,5.8,3.8,8.8,5.5s6.1,3.2,9.2,4.6a112.1,112.1,0,0,0,19.1,6.5,116.7,116.7,0,0,0,18.7,2.9,142,142,0,0,0,17.1.2l7.6-.6,3.5-.4,3.3-.5,6-1,5.1-1,7.1-1.6,2.5-.6h0.1a1.8,1.8,0,0,1,.9,3.4l-2.5.8-7.1,2-5.1,1.3-6.1,1.3-3.4.6-3.6.6c-2.5.4-5.1,0.7-7.8,1a147.7,147.7,0,0,1-17.8.7,123.3,123.3,0,0,1-19.9-2.1,119.7,119.7,0,0,1-20.7-5.9c-3.4-1.3-6.8-2.8-10.2-4.5s-6.6-3.5-9.8-5.4a132.8,132.8,0,0,1-17.9-13.2,155.9,155.9,0,0,1-15.2-15.3,179.8,179.8,0,0,1-12.3-16c-3.6-5.3-6.8-10.5-9.5-15.3a208,208,0,0,1-11.7-24.4c-1.2-3.1-2.1-5.5-2.7-7.2l-0.7-2-0.2-.7a7.5,7.5,0,1,1,14.3-4.4v0.3h0Z" fill="#31323d"></path><path d="M1318.9 1385.5h2.4l6.7-.3c2.9-.2 6.4-.6 10.3-1.2s8.4-1.5 13.1-2.8a115.8 115.8 0 0 0 15-5l2-.8 1.9-.9 3.9-1.8c2.6-1.4 5.2-2.7 7.8-4.3l1.9-1.2 1.9-1.3 3.8-2.7 1.8-1.4 1.8-1.5a45 45 0 0 0 3.6-3l3.4-3.2 3.2-3.5c2.2-2.3 4-4.9 6-7.3a21.1 21.1 0 0 0 1.4-1.9l1.3-2 1.3-2a19.7 19.7 0 0 0 1.2-2l2.3-4.1 1.1-2 1-2.1a90.4 90.4 0 0 0 3.7-8.5 88.6 88.6 0 0 0 2.9-8.6 167.8 167.8 0 0 0 4-16.8l1.2-8 .3-1.9c.1-.6.1-1.3.2-1.9l.3-3.7c.2-2.4.4-4.7.5-6.9l.2-6.3V1259a41.1 41.1 0 0 1 .1-4.7 27.3 27.3 0 0 1 1.3-6.6 17.2 17.2 0 0 1 1-2.4V1245a5.6 5.6 0 0 1 9.8-.1 16.7 16.7 0 0 1 1 2.4 29.4 29.4 0 0 1 1.4 6.9 40.9 40.9 0 0 1 .1 5l-.4 5.9-.4 6.7c-.2 2.4-.6 4.8-.9 7.4l-.5 3.9c-.1.7-.2 1.3-.3 2l-.4 2.1-1.6 8.5c-.7 2.9-1.5 5.9-2.3 8.9l-.6 2.3c-.2.8-.5 1.5-.8 2.3l-1.6 4.6c-1 3.1-2.4 6.2-3.7 9.3a101.9 101.9 0 0 1-4.5 9.2l-1.2 2.3-1.4 2.2-2.8 4.4a23.6 23.6 0 0 1-1.5 2.2l-1.6 2.1-1.6 2.1a25.3 25.3 0 0 1-1.6 2.1c-2.4 2.6-4.5 5.4-7.1 7.7l-3.8 3.6-4 3.3c-1.3 1.1-2.7 2.1-4.1 3.1s-2.7 2-4.2 2.9l-4.3 2.6-2.2 1.2-2.2 1.1c-2.8 1.6-5.8 2.8-8.7 4.1l-4.3 1.6-2.1.8-2.1.7a121.9 121.9 0 0 1-16.1 4 132.4 132.4 0 0 1-13.8 1.7c-4.1.2-7.7.3-10.7.2l-6.9-.4-1.8-.2h-.6a1.2 1.2 0 0 1 .2-2.3h0zM1520.1 1438.4l-.4 1.8c-.1.6-.2 1.3-.5 2.2l-.9 3.1c-.4 1.1-.8 2.3-1.4 3.6s-1.2 2.7-2 4.2a56.1 56.1 0 0 1-6.1 9.3 63 63 0 0 1-9.3 9.4l-2.9 2.2-3 2.1c-2.1 1.3-4.3 2.6-6.6 3.8s-4.7 2.2-7.2 3.1l-3.8 1.3-3.9 1.1a77.5 77.5 0 0 1-16.2 2.3 81.8 81.8 0 0 1-16.2-1 83.6 83.6 0 0 1-15.1-4l-.9-.3-.4-.2h-.5l-1.6-.7-3.4-1.5c-2.3-1.1-4.3-2.2-6.3-3.4a76.6 76.6 0 0 1-10.6-7.5 75.2 75.2 0 0 1-7.8-7.6 71.2 71.2 0 0 1-5.1-6.6c-.7-.9-1.2-1.8-1.7-2.6l-1.2-2-.9-1.7a2.5 2.5 0 0 1 4-3h.1l1.3 1.2 3.6 3.3c1.5 1.4 3.6 3 5.9 4.8s5 3.6 8 5.4a91.1 91.1 0 0 0 10.1 5.2l2.8 1.2 2.9 1.1 3 1 1.7.5 1.5.4a85.9 85.9 0 0 0 13 2.6 81.6 81.6 0 0 0 13.6.5 80.5 80.5 0 0 0 13.4-1.8l3.2-.8 3.2-.9c2.1-.6 4.1-1.4 6.1-2.2s3.9-1.7 5.7-2.6l2.7-1.4 2.5-1.5a65.7 65.7 0 0 0 8.8-6.6 60.7 60.7 0 0 0 6.6-6.8 72.3 72.3 0 0 0 4.5-5.9l1.5-2.3c.4-.6.8-1.4 1.1-1.9l.9-1.6A2.5 2.5 0 0 1 1520.1 1438.4z" fill="#31323d"></path><path d="M1542.7 1278.1l4-.8 11.4-2.1c9.9-1.7 24-3.8 41-5.4a545 545 0 0 1 58.3-2.4c10.7.1 21.7.6 32.9 1.5s22.5 2.3 33.7 4.2 22.4 4.2 33.2 7.1a301.1 301.1 0 0 1 31.3 10.2 259.9 259.9 0 0 1 27.9 12.9 220.6 220.6 0 0 1 23.4 14.5 202.8 202.8 0 0 1 18.1 14.5l3.7 3.4 3.3 3.2 3 3 2.7 2.9c1.7 1.8 3.1 3.5 4.4 4.9l3.1 3.7 2.6 3.2-2.7-3.1-3.2-3.6c-1.3-1.4-2.8-3.1-4.5-4.8l-2.7-2.8-3.1-3-3.4-3.1-3.8-3.3a201.6 201.6 0 0 0-18.4-13.9 218.7 218.7 0 0 0-23.5-13.8 257.3 257.3 0 0 0-27.9-12 297.5 297.5 0 0 0-31.2-9.2c-10.8-2.6-21.8-4.6-33-6.1s-22.3-2.6-33.4-3.2-21.9-.8-32.5-.6a537.3 537.3 0 0 0-57.4 4c-16.7 2-30.5 4.5-40.1 6.4l-11.1 2.4-3.9.9h0a5 5 0 0 1-2.3-9.7h.1zM1715.6 1228.8l-6.6.3-7.6.4-9.9.7-11.7 1-13 1.5c-4.5.6-9.1 1.2-13.8 2l-7.1 1.1-7.1 1.3-7.1 1.4-7 1.4-6.9 1.5-6.7 1.6-6.4 1.6-6.1 1.6-11.2 3.1-9.4 2.8-7.2 2.3-6.2 2.1h-.1a5 5 0 0 1-3.2-9.5h.3l6.5-1.7 7.5-1.9 9.7-2.3 11.6-2.5 6.3-1.2 6.6-1.2 6.9-1.2 7-1.1 7.2-1 7.2-.9 7.2-.8 7.2-.7c4.8-.5 9.5-.7 14-1.1l13.1-.6 11.7-.3H1709zM1556.6 1301.2l7.7-1.2 4.3-.4 5.1-.4c3.6 0 7.7-.2 12.1.3l3.4.2 3.5.5 3.6.5 3.7.7 3.8.7 3.8.9 3.9 1 3.9 1.2 3.9 1.3 3.9 1.5 3.9 1.6 3.9 1.7 2 .9 1.9 1 3.9 1.9 7.6 4.2c4.9 3 9.8 6 14.4 9.3s9 6.7 13.1 10.1 8 6.9 11.6 10.2 6.8 6.7 9.8 9.7 5.6 6 7.8 8.6 4.2 4.9 5.8 6.9c3.1 3.9 4.8 6.2 4.8 6.2s-1.8-2.2-5.1-5.9c-1.7-1.8-3.7-4.1-6.1-6.5s-5.2-5.2-8.3-8.1-6.5-6-10.2-9.1-7.7-6.3-12-9.5-8.7-6.3-13.4-9.2-9.6-5.7-14.5-8.3l-7.6-3.6-3.8-1.7-1.9-.8-1.9-.7-3.8-1.4-3.8-1.3-3.8-1.2-3.8-1-3.7-1-3.7-.8-3.6-.7-3.6-.5-3.5-.4-3.4-.3-3.3-.3h-3.1c-4.1-.2-7.8.2-11.2.4l-4.5.6-3.8.5-7.6 1.6a5 5 0 1 1-2-9.8h.3zM1345.9 1303.2l-15.5-3c-9.8-1.9-23.8-4.7-40.7-7.4-8.4-1.4-17.6-2.7-27.3-4s-20-2.3-30.6-3.2-21.6-1.4-32.8-1.6-22.6.1-33.9.8a334.9 334.9 0 0 0-33.7 3.9c-5.5.9-11 2-16.3 3.2s-10.6 2.6-15.7 4.2a200.6 200.6 0 0 0-52.8 24.1 165.1 165.1 0 0 0-18.6 14.1c-1.3 1.1-2.5 2.3-3.7 3.4l-3.4 3.2-3.1 3.1-2.7 2.9c-1.7 1.8-3.1 3.5-4.4 5l-1.7 2.1-1.4 1.8-2.5 3.2 2.5-3.3 1.3-1.8 1.7-2.1c1.2-1.5 2.6-3.3 4.3-5.1l2.6-3 3-3.2 3.3-3.4c1.2-1.1 2.3-2.4 3.7-3.5a166.3 166.3 0 0 1 18.3-14.7 202.9 202.9 0 0 1 52.8-25.9c5.1-1.7 10.4-3.2 15.8-4.6s10.9-2.7 16.4-3.7a339.4 339.4 0 0 1 34-4.9c11.5-1.1 23-1.6 34.3-1.8s22.5.1 33.3.7 21.2 1.4 31 2.4 19.1 2.1 27.7 3.3c17.1 2.3 31.2 4.7 41.1 6.4l15.5 2.6h0a5 5 0 1 1-1.7 9.9h-.1zM1171.2 1244.5l1.8-.3 5-.8 7.8-1.1 10.1-1.1c7.4-.7 16.2-1.1 25.6-1 4.7.1 9.5.2 14.5.5l7.4.6 7.4.8 7.5 1 7.4 1.2c4.9.8 9.6 1.9 14.2 2.9l6.8 1.7 6.4 1.8c4.2 1.2 8.1 2.4 11.7 3.6l9.7 3.5 7.4 2.9 4.7 2 1.7.7a5 5 0 1 1-4 9.2h-.3l-1.6-.8-4.4-2.2-7-3.3-9.2-3.9c-3.4-1.4-7.1-2.8-11.1-4.2l-6.1-2.1-6.5-2c-4.4-1.3-9-2.6-13.7-3.7l-7.1-1.6-7.2-1.4-7.3-1.2-7.2-1c-4.8-.6-9.6-1.1-14.2-1.4-9.2-.7-17.9-.8-25.3-.6l-10.1.4-7.8.6-5 .5zM1333.2 1327l-7.6-1.9-3.8-.6-2.1-.3-1.1-.2h-1.2l-5.3-.4h-9l-3.3.3c-2.2.1-4.5.6-6.8.9s-4.7 1-7.1 1.5l-1.8.4-1.8.5-3.7 1.1-3.7 1.3-3.8 1.4-7.5 3.2a163.1 163.1 0 0 0-14.8 7.9l-3.6 2.2-3.5 2.3c-2.4 1.5-4.6 3.2-6.9 4.8l-6.6 5c-2.1 1.7-4.3 3.4-6.3 5.1l-3 2.6-2.9 2.6-5.5 5.1-5.1 5-4.7 4.8c-3 3.1-5.6 6-7.9 8.6l-5.8 6.9c-3.2 3.9-4.9 6.2-4.9 6.2s1.6-2.4 4.5-6.4c1.5-2 3.3-4.5 5.5-7.2s4.6-5.8 7.4-9.1l4.4-5.1 4.9-5.3 5.3-5.4 2.8-2.8 2.9-2.8c1.9-1.9 4-3.7 6.1-5.5l6.4-5.4c2.2-1.7 4.4-3.6 6.8-5.3l3.5-2.6 3.6-2.5a168.4 168.4 0 0 1 14.8-9l7.7-3.8 3.9-1.7 3.9-1.6 3.9-1.4 1.9-.7 1.9-.6c2.6-.7 5-1.6 7.5-2s4.9-1.2 7.3-1.4l3.5-.5 1.7-.2h1.7l6.4-.4h8.5l2.5.3 4.5.5 7.7 1.4a5 5 0 0 1-1.8 9.8h-.3z" fill="#b3b4b7"></path></g><g id="item_d"></g><g id="item_c"></g><g id="item_b"></g><g id="item_a"></g></svg>