<svg xmlns="http://www.w3.org/2000/svg" xmlns:xlink="http://www.w3.org/1999/xlink" width="64" height="64"><defs><rect id="a" width="62" height="62" x="1" y="1" rx="31"/><path id="c" d="M25.614 2.363l.06-.008c.233 0 .762.602.762 1.059 0 1.058-.296 4.762-1.588 4.762-1.29 0-1.587-1.058-2.645-.847-1.059.212-.664 1.732-.53 2.434 1.059 6.703.706 10.054-1.058 10.054-4.233 0-2.645-5.83-2.645-6.879 0-.5.572-3.175-1.059-3.175-1.587 0-.529 2.117-2.116 2.117-1.588 0-1.131-3.704-2.117-5.292-.494-.796-1.473-1.47-2.401-1.984C5.415 4.372 1.483 3.488 0 2.332 1.735.98 6.822 0 12.827 0c6.006 0 11.093.98 12.827 2.332l-.04.031z"/></defs><g fill="none" fill-rule="evenodd"><mask id="b" fill="#fff"><use xlink:href="#a"/></mask><use fill="#CDEDF8" xlink:href="#a"/><path stroke="#0A496E" stroke-width="2" d="M13.463 35.113c-2.808-1.39-2.893-3.675-2.243-5.096.868-1.899 3.035-2.57 5.403-1.288m34.852 6.384c2.808-1.39 2.892-3.675 2.243-5.096-.869-1.899-3.036-2.57-5.403-1.288" mask="url(#b)"/><ellipse cx="32.002" cy="53.712" fill="#036A8E" fill-opacity=".19" mask="url(#b)" rx="13.904" ry="3.198" style="mix-blend-mode:darken"/><path fill="#0A496E" d="M40.772 46.202l1.822 5.02a1.749 1.749 0 0 1-1.044 2.235 1.75 1.75 0 0 1-2.234-1.044l-1.823-5.02M23.42 46.202l-1.822 5.02a1.749 1.749 0 0 0 1.043 2.235 1.749 1.749 0 0 0 2.235-1.044l1.823-5.02m7.321 3.987l-.039 2.806c0 .851-.785 1.548-1.744 1.548s-1.744-.697-1.744-1.548l.038-2.806s1.73-.4 3.488 0" mask="url(#b)"/><ellipse cx="32.457" cy="35.807" fill="#43D8F1" fill-rule="nonzero" rx="18.85" ry="15.844"/><path fill="#19A8CE" fill-rule="nonzero" d="M29 32c-3 .5-9.827-2-9.827 2.539 0 8.413 6.664 15.961 19.327 15.961-1.309.233-4.436 1.454-5.827 1.454-10.77 0-19.5-7.339-19.5-16.39 0-8.463 6.534-7.693 16.327-8.564 6.529-.58 6.362 1.086-.5 5z"/><path stroke="#19A8CE" stroke-width="1.5" d="M18.992 29.752c3.398 1.4 8.356 2.256 13.735 2.256 5.36 0 10.302-.85 13.7-2.242l-27.435-.014z"/><path fill="#CCFFFA" fill-rule="nonzero" d="M36.191 20.09c8.785 1.593 15.368 8.161 15.368 16.021 0 5.84-3.634 10.967-9.104 13.87 3.265-3.32 5.275-7.851 5.275-12.845 0-7.69-4.765-14.279-11.539-17.046z"/><ellipse cx="32.457" cy="35.807" stroke="#0A496E" stroke-width="1.5" rx="18.75" ry="15.64"/><ellipse cx="32.391" cy="24.344" fill="#7CECFF" fill-rule="nonzero" rx="18.5" ry="6.5"/><path fill="#9565FF" d="M23.755 13.276c1.325-.502 1.392-.629 1.934-2.094.527 1.411.594 1.556 1.97 2.132-1.384.59-1.476.69-1.934 2.094-.536-1.386-.603-1.494-1.97-2.132"/><path fill="#FF63E1" d="M36.301 12.643c1.775-.595 1.865-.746 2.59-2.485.707 1.675.797 1.847 2.64 2.53-1.854.7-1.977.819-2.591 2.485-.718-1.645-.808-1.773-2.639-2.53"/><path fill="#FCA13D" d="M29.153 7.738c1.035-.37 1.088-.464 1.511-1.547.412 1.043.464 1.15 1.54 1.576-1.082.436-1.154.51-1.512 1.547-.419-1.024-.471-1.104-1.54-1.576"/><path fill="#CCFFFA" fill-rule="nonzero" d="M48.938 27.243c-2.785 1.725-5.215 3.938-1.715.275 3.5-3.663-.813-5.443-6.187-7.234-.393-.131-2.944-.873-2.813-1.266.131-.393 3.095.399 3.5.5 10 2.5 10 6 7.215 7.725z"/><path stroke="#0A496E" stroke-width="1.5" d="M32.508 31.042c6.653 0 12.674-1.31 15.897-3.355 1.479-.938 2.22-1.94 2.22-2.895 0-3.25-8.088-6.25-18.117-6.25-10.029 0-18.118 3-18.118 6.25 0 1.204 1.19 2.48 3.466 3.581 3.437 1.663 8.813 2.669 14.652 2.669z"/><ellipse cx="32.557" cy="24.606" fill="#0A496E" fill-rule="nonzero" rx="14.026" ry="3.476"/><g transform="translate(20 22)"><mask id="d" fill="#fff"><use xlink:href="#c"/></mask><use fill="#FFF" fill-rule="nonzero" xlink:href="#c"/><g mask="url(#d)"><path fill="#45EFF3" d="M9.971 8.764s2.125-6.392 7.79-8.81L14.22-.739S9.086.472 6.254 7.037l3.717 1.727z"/><path fill="#9565FF" d="M6.077 8.246S8.2 1.854 13.866-.565l-3.54-.69S5.191-.048 2.358 6.517l3.718 1.728z"/><path fill="#FF63E1" d="M2.443 8.228s2.125-6.392 7.79-8.81l-3.541-.692S1.558-.064-1.274 6.5l3.717 1.728z"/><path fill="#FCA13D" d="M-1.79 8.228S.335 1.836 6-.582l-3.541-.692S-2.675-.064-5.507 6.5l3.717 1.728z"/><path fill="#FFE863" d="M13.689 9.11s2.124-6.392 7.789-8.811l-3.54-.691S12.803.818 9.97 7.382l3.72 1.728z"/><path fill="#FCA13D" d="M15.866 13.078s3.641-9.586 9.306-12.005l-3.54-.69c0-.673-5.766 1.443-9.483 10.968l3.717 1.727z"/><path fill="#FF63E1" d="M19.028 24.58c3.175 1.058 7.408-18.99 10.41-23.05l-3.54-.69s-5.812.69-9.516 11.04l2.646 12.7z"/></g><path fill="#000" fill-rule="nonzero" d="M8.92-.259c-3.284.706-5.4 1.94-6.35 3.704C1.62 5.21 1.082 5.494.96 4.3-.806 3.24-1.335 2.182-.629 1.124.077.066 3.26-.396 8.919-.259z" mask="url(#d)" style="mix-blend-mode:soft-light"/></g></g></svg>