<svg id="Layer_1" data-name="Layer 1" xmlns="http://www.w3.org/2000/svg" viewBox="0 0 200 200"><defs><style>.cls-19,.cls-8{fill:none;stroke-linecap:round}.cls-6{fill:#f4c458}.cls-19,.cls-8,.cls-9{stroke:#44392e}.cls-19,.cls-8{stroke-linejoin:round}.cls-8,.cls-9{stroke-width:2.36px}.cls-11,.cls-9{fill:#fff}.cls-10,.cls-9{stroke-miterlimit:10}.cls-10,.cls-12{fill:#44392e}.cls-10{stroke:#f930e7;stroke-width:3.23px}.cls-19{stroke-width:2.41px}</style></defs><path d="M98 7.33c52.59-1.13 96.11 39.36 97.21 90.42s-40.66 93.37-93.26 94.5-96.17-39.36-97.26-90.42C3.86 63 27.75 29.3 62.33 14.83" stroke-width="4.52" stroke="#ef52d1" fill="none" stroke-linecap="round"/><path d="M98 11.35c50.34-1.08 92 37.65 93 86.49s-38.9 89.31-89.21 90.39-91.93-37.65-93-86.49C8 61 35.56 26.13 73.91 15" stroke="#7c40ff" stroke-width="4.52" fill="none" stroke-linecap="round"/><path d="M98.11 15.13c48.16-1 88 36 89 82.79s-37.23 85.49-85.39 86.52-88-36-89-82.79C12 65 35.25 33.3 68.55 20.8" stroke="#45f0f4" stroke-width="4.52" fill="none" stroke-linecap="round"/><path d="M98.21 19.44c45.7-1 83.52 34.2 84.47 78.58s-35.33 81.14-81 82.12-83.52-34.21-84.47-78.58c-.68-31.81 17.77-59.71 45.11-73.32" stroke="#fcdf35" stroke-width="4.52" fill="none" stroke-linecap="round"/><path d="M134.77 144.59c11.85-9.34 17-17.75 17-17.75 6.69 1.27 10.5-1.19 10.5-1.19-5.78-4.85-7.71-8.13-7.71-8.13a16.28 16.28 0 0 0 14.31-1.61s-13.87-7.34-15.94-13.41C145.24 80 145.75 78 145.75 78c3.78-11 7-23.63 3.73-27.66-4.19-5.17-9.09 3.18-21.49 11.93 0 0-7.69-7-27.91-6.59-13.37.29-26.7 7.88-26.7 7.88-5.83-4.1-9.66-7.93-14.28-10.47-7.05-3.88-10.25-.13-7.48 8.66 1.11 3.56 2.92 11.35 4.69 18.29 1.28 5 0 3.85-3.65 19.29-.42 1.78-2.74 6.66-5.27 10.73-4.28 6.91-12.63 8.75-12.63 8.75a16.26 16.26 0 0 0 14.37 1s-1.79 3.37-7.36 8.46c0 0 3.92 2.3 10.54.74a87.83 87.83 0 0 0 16.85 17.2s12.81 9.36 33.07 9.29c21.97-.12 32.54-10.91 32.54-10.91z" fill="#ffee8a"/><path class="cls-6" d="M80.57 59.51s-24.16 23.92-20.22 55.74c4.34 35 41.88 40.21 41.88 40.21S72.56 157.68 52.31 129c0 0-7.05 2.69-10.54-.74 0 0 6.3-4.25 7.36-8.46 0 0-6.45 3.52-14.37-1A23.42 23.42 0 0 0 49 107.27c7.74-13.98 7.45-36.54 31.57-47.76z"/><path d="M121 58.65s27.94 22.81 25.36 54.76c-2.84 35.15-42.91 42-42.91 42s29.75 1 48.75-28.6c0 0 7.16 2.39 10.5-1.19 0 0-6.48-4-7.72-8.13 0 0 6.6 3.24 14.32-1.61A23.42 23.42 0 0 1 154.55 105c-8.34-13.62-9.01-36.18-33.55-46.35z" fill="#fffbcc"/><path class="cls-6" d="M69.46 67.74s-5-3.94-10.68-8c-4.47-3.2-6.46-3.24-7.48.43L57 81.81l4.68-3.12 3.76-6.52zm62.68-1.34s4.86-4.15 10.34-8.4c4.32-3.38 6.31-3.52 7.49.11l-4.74 21.85-4.81-2.96-4-6.35z"/><path class="cls-8" d="M52.31 129c-6.62 1.56-10.54-.74-10.54-.74 5.57-5.09 7.36-8.46 7.36-8.46a16.26 16.26 0 0 1-14.37-1A21.85 21.85 0 0 0 49 107.27c3.28-6.76 7.54-20 11.06-26.79 9-17.36 21.16-24.43 40-24.83 17.51-.37 32.2 6.12 42 23.08 3.8 6.6 8.63 19.68 12.19 26.29A21.86 21.86 0 0 0 169 115.91a16.26 16.26 0 0 1-14.31 1.6s1.93 3.29 7.71 8.14c0 0-3.82 2.46-10.5 1.19 0 0-16.61 27.91-49.2 28.61S52.31 129 52.31 129z"/><path class="cls-8" d="M73.21 62.3S62.83 54.36 60 52.19c-5.08-3.94-10.23-2-8.26 6l5.51 22.69m71.46-18.04s11.29-8.61 14.06-10.77c5.08-3.94 10.23-2.06 8.26 6-1.3 5.35-5.45 22.81-5.45 22.81"/><circle class="cls-9" cx="68.95" cy="93.83" r="17.36"/><circle class="cls-10" cx="69.05" cy="89.69" r="10.21"/><ellipse class="cls-11" cx="68.93" cy="82.66" rx="5" ry="4.98" transform="rotate(-45.03 68.924 82.65)"/><circle class="cls-9" cx="134.01" cy="93.83" r="17.36"/><circle class="cls-10" cx="134.11" cy="89.69" r="10.21"/><ellipse class="cls-11" cx="134" cy="82.66" rx="5" ry="4.98" transform="rotate(-45.03 133.986 82.65)"/><path class="cls-12" d="M111.39 124.29c0 5.85-4.38 12.28-9.77 12.28s-9.77-6.41-9.77-12.26l9.74-6.12z"/><path d="M109.52 132.59a11 11 0 0 0-15.93.15l8 3.49z" fill="#f930e7"/><path d="M94.2 132.93c.71-2.1 3.76-3.67 7.42-3.67 3.41 0 6.28 1.36 7.24 3.23" stroke-width="1.62" stroke-miterlimit="10" stroke="#44392e" fill="none" stroke-linecap="round"/><path stroke="#fff" stroke-width="6.16" stroke-linejoin="round" fill="none" stroke-linecap="round" d="M100.93 121.14h1.42"/><path class="cls-12" d="M127 121.77a15.33 15.33 0 0 1-8 3.41 21.64 21.64 0 0 1-8.69-.65 17.31 17.31 0 0 1-7.81-4.38 8.8 8.8 0 0 1-2.36-4.36 7.38 7.38 0 0 1-.14-1.3v-1l-.08-2.09a1.72 1.72 0 1 1 3.43-.12v.12l-.07 2.09v1a4 4 0 0 0 0 .78 5.83 5.83 0 0 0 1.41 3 14.85 14.85 0 0 0 6.37 4.06 19.65 19.65 0 0 0 7.8 1.07 13.73 13.73 0 0 0 7.34-2.6.65.65 0 0 1 .83 1z"/><path class="cls-12" d="M78.22 120.83a11.67 11.67 0 0 0 7.2 2.54 18.84 18.84 0 0 0 7.64-1.37 13.37 13.37 0 0 0 5.94-4.38 5 5 0 0 0 1-3c0-1.3-.09-2.73-.07-4.09a1.72 1.72 0 0 1 3.43 0c0 1.39 0 2.71-.08 4.17a8.12 8.12 0 0 1-1.86 4.66 15.89 15.89 0 0 1-7.52 4.81 20.88 20.88 0 0 1-8.59.93 13.09 13.09 0 0 1-7.86-3.45.59.59 0 0 1 0-.84.6.6 0 0 1 .77.02z"/><path d="M111.39 125.24c0 5.45-4.38 11-9.77 11s-9.77-5.54-9.77-11" stroke-width="2.7" stroke-miterlimit="10" stroke="#44392e" fill="none" stroke-linecap="round"/><path class="cls-12" d="M93.34 110.52a2 2 0 0 1 .45-2.08c1.13-1.15 3.56-2.83 8.07-2.87s6.64 1.58 7.66 2.73a2 2 0 0 1 .32 2.1 2.62 2.62 0 0 1-2.31 1.61 5 5 0 0 0-4.13 2.08 1.68 1.68 0 0 1-.24.29 2.18 2.18 0 0 1-3.2-.19s-.92-1.63-4.32-1.9a2.62 2.62 0 0 1-2.24-1.76zm-4.71 3.73a39.42 39.42 0 0 0-19.36.53 29.92 29.92 0 0 0-8.79 4.34 30.88 30.88 0 0 0-7 7 30.76 30.76 0 0 1 15.41-12.48A41.13 41.13 0 0 1 89 111.93a1.18 1.18 0 1 1-.34 2.34z"/><path class="cls-12" d="M88.83 117.13a36.07 36.07 0 0 0-6.58.22 16.44 16.44 0 0 0-6.12 2 12.4 12.4 0 0 0-4.52 4.65 21.32 21.32 0 0 0-2.22 6.32 21.51 21.51 0 0 1 1.7-6.59 13.37 13.37 0 0 1 4.39-5.35 18 18 0 0 1 6.45-2.77 38.59 38.59 0 0 1 6.9-.84 1.18 1.18 0 1 1 .11 2.36zm25.25-5.2a41.13 41.13 0 0 1 20.15 1.73 31.14 31.14 0 0 1 8.78 5 31.52 31.52 0 0 1 6.63 7.49 31 31 0 0 0-7-7 30 30 0 0 0-8.8-4.34 39.42 39.42 0 0 0-19.36-.53 1.16 1.16 0 0 1-1.39-.91 1.18 1.18 0 0 1 .91-1.4z"/><path class="cls-12" d="M114.29 114.77a38.48 38.48 0 0 1 6.9.84 18 18 0 0 1 6.45 2.77 13.48 13.48 0 0 1 4.4 5.35 21.49 21.49 0 0 1 1.69 6.59 21 21 0 0 0-2.22-6.32 12.45 12.45 0 0 0-4.51-4.63 16.48 16.48 0 0 0-6.13-2 36.07 36.07 0 0 0-6.58-.22 1.18 1.18 0 0 1-.11-2.36z"/><circle class="cls-11" cx="98.07" cy="13.18" r="8.72"/><g id="Group-9-Copy-4"><ellipse id="Oval" cx="97.81" cy="13.44" rx="5.43" ry="5.42" fill="#e6e6e6"/><path id="Oval-2" data-name="Oval" d="M101.76 16.46a5.8 5.8 0 0 1-5.91-1.08 5.14 5.14 0 0 1-.87-6c-2.51 1.78-2.39 6-.69 7.69s5.65 1.21 7.47-.61z" fill="#a0a0a0"/><path id="Oval-3" data-name="Oval" class="cls-11" d="M94.89 10a6 6 0 0 1 5.59.52 5.41 5.41 0 0 1 1.29 5.87c1.66-1.66 2.18-5.21.49-6.9s-5.71-1.18-7.37.51z"/><g id="Group-10"><ellipse id="Oval-4" data-name="Oval" class="cls-19" cx="98.3" cy="13.29" rx="5.47" ry="5.27"/></g></g><path class="cls-19" d="M57.61 34.45c-22.85 14-37.8 38.93-37.2 67 .92 42.63 37.25 76.43 81.16 75.5s78.78-36.27 77.86-78.9-36.1-75.5-81.16-75.5a9.56 9.56 0 0 1-9.82-9.41c0-5.16 3.61-9.08 9.43-9.08 55.41 0 99.47 40.74 100.6 93.58S156.4 194.31 102 195.48 2.5 154.74 1.37 101.9C.55 63.65 23 30.15 56 14.12"/><path id="Rectangle-20-Copy-11" d="M68.5 27.74c.38 2.15.82 3.5 2.18 4.25-1.31.39-1.84 1.92-2.18 3.92-.34-1.84-.9-3.5-2.19-3.92 1.21-.38 1.79-1.99 2.19-4.25z" fill="#fcdf35"/><path id="Rectangle-20-Copy-12" d="M76.94 18.56c.42 2.34.9 3.81 2.38 4.63-1.43.42-2 2.09-2.38 4.27-.37-2-1-3.82-2.38-4.27 1.32-.42 1.95-2.19 2.38-4.63z" fill="#45f0f4"/><path id="Rectangle-20-Copy-8" d="M67.87 4.1c.35 2 .75 3.32 2 4-1.2.37-1.68 1.82-2 3.72-.31-1.74-.81-3.32-2-3.72 1.13-.34 1.64-1.88 2-4z" fill="#ef52d1"/></svg>