<svg xmlns="http://www.w3.org/2000/svg" viewBox="0 0 3000 3000" xmlns:xlink="http://www.w3.org/1999/xlink"><g clip-path="url(#kittyClipPath)"><g id="tailFur"><path fill="#ecd1eb" d="M2003.6 1961c11.5 11.1 22.6 22 32.2 31.4 214.6 281.5 544.4 110.6 471.9-33-81-160.3-17.5-265.9-17.5-265.9 40.2-71 121.4-104.5 190.7-92.4 15.8 2.2 38.3 9.3 50.5 16.3 17.7 9.6 32.6 19.9 43.8 34.2 21.7 28 36.7 63.8 28 114.8l-1.5 5.8c-4.1 19.1-11.9 34.5-24.1 51.8-11.6 15.3-30.7 26-48.3 32.8-32.9 12.6-75.6 6.8-106.6-14.6s-44.2-63.9-31.9-98.2c10.5-36.1 52.7-57.7 86.6-45.4 0 0 17.4 5.7 14 20.4s-15.8 16.3-19.8 15.2c-22.9-7.7-44.9 10.6-44.9 31.6 0 40 31.2 49.8 44.3 52.6s77.5 7.1 90.2-63.8c15.6-86.9-75.8-103.9-75.8-103.9-55.6-9.8-115.1 15-139.3 69.9 0 0-47.3 94.9 11.5 179.2 124.9 179-82.6 516.9-589.3 233.9z"></path><defs><clipPath id="tailShadow__b"><path fill="none" d="M2003.6 1961c11.5 11.1 22.6 22 32.2 31.4 214.6 281.5 544.4 110.6 471.9-33-81-160.3-17.5-265.9-17.5-265.9 40.2-71 121.4-104.5 190.7-92.4 15.8 2.2 38.3 9.3 50.5 16.3 17.7 9.6 32.6 19.9 43.8 34.2 21.7 28 36.7 63.8 28 114.8l-1.5 5.8c-4.1 19.1-11.9 34.5-24.1 51.8-11.6 15.3-30.7 26-48.3 32.8-32.9 12.6-75.6 6.8-106.6-14.6s-44.2-63.9-31.9-98.2c10.5-36.1 52.7-57.7 86.6-45.4 0 0 17.4 5.7 14 20.4s-15.8 16.3-19.8 15.2c-22.9-7.7-44.9 10.6-44.9 31.6 0 40 31.2 49.8 44.3 52.6s77.5 7.1 90.2-63.8c15.6-86.9-75.8-103.9-75.8-103.9-55.6-9.8-115.1 15-139.3 69.9 0 0-47.3 94.9 11.5 179.2 124.9 179-82.6 516.9-589.3 233.9z"></path></clipPath><linearGradient id="tailShadow__a" x1="2219.56" x2="2219.56" y1="2291.47" y2="1848.89" gradientUnits="userSpaceOnUse"><stop offset="0" stop-color="gray"></stop><stop offset=".27" stop-color="#7d7d7d"></stop><stop offset=".46" stop-color="#747474"></stop><stop offset=".64" stop-color="#646464"></stop><stop offset=".8" stop-color="#4d4d4d"></stop><stop offset=".95" stop-color="#303030"></stop><stop offset="1" stop-color="#242424"></stop></linearGradient><linearGradient id="tailShadow__c" x1="2699.69" x2="2817.06" y1="1608.59" y2="1533.39" gradientUnits="userSpaceOnUse"><stop offset=".28" stop-color="#fff"></stop><stop offset="1" stop-color="#fff" stop-opacity="0"></stop></linearGradient><linearGradient id="tailShadow__d" x1="2610.96" x2="2701.62" y1="1900.09" y2="1765.57" gradientTransform="matrix(0.91, 0.3, -0.33, 1, 825, -789.24)" gradientUnits="userSpaceOnUse"><stop offset="0" stop-color="#fff" stop-opacity="0"></stop><stop offset=".72" stop-color="#fff"></stop></linearGradient><linearGradient id="tailShadow__e" x1="2591.65" x2="2781.26" y1="1841.23" y2="1787.48" xlink:href="#tailShadow__a"></linearGradient></defs><g clip-path="url(#tailShadow__b)" style="mix-blend-mode:multiply"><path fill="url(#tailShadow__a)" d="M2196.9 2120.2c-17.5 8.4-19.2 31.3-2 49.9 39.9 43.5 159.7 37.9 206.6 28.3 127.5-26.1 130.7-61.2 184.1-130.1l240.6-35.8-96 259-1117.2-48.1 196.5-394.5s351.2 218.8 387.4 271.3z" opacity=".4"></path></g><g clip-path="url(#tailShadow__b)" style="mix-blend-mode:overlay"><path fill="url(#tailShadow__c)" d="M2473.5 1838.8s7.1-185.7 144-209.3c166.5-28.8 188.7 129 188.7 129l6.1-211.4-196.7-57.2-207 87.1-28.9 102.3z" opacity=".5"></path><path fill="url(#tailShadow__d)" d="M2625.5 1746.5s-33.9 57.6 27 84c57.7 25 115-17.5 116.7-93s-76.7 26.8-101.4 16.5-42.3-7.5-42.3-7.5z" opacity=".5"></path><path fill="url(#tailShadow__e)" d="M2636.2 1693.5s-26.2 23.2-32 61c-4 25.6 6.6 87 79.5 92 118.4 8.1 140.5-135 140.5-135s29 263-93 227-192-99-160-186 36-62 65-59z" opacity=".4"></path></g></g><g id="tail"><path fill="none" stroke="#31323d" stroke-linecap="round" stroke-linejoin="round" stroke-width="12.5" d="M2003.6 1961c11.5 11.1 22.6 22 32.2 31.4 214.6 281.5 544.4 110.6 471.9-33-81-160.3-17.5-265.9-17.5-265.9 40.2-71 121.4-104.5 190.7-92.4 15.8 2.2 38.3 9.3 50.5 16.3 17.7 9.6 32.6 19.9 43.8 34.2 21.7 28 36.7 63.8 28 114.8l-1.5 5.8c-4.1 19.1-11.9 34.5-24.1 51.8-11.6 15.3-30.7 26-48.3 32.8-32.9 12.6-75.6 6.8-106.6-14.6s-44.2-63.9-31.9-98.2c10.5-36.1 52.7-57.7 86.6-45.4 0 0 17.4 5.7 14 20.4s-15.8 16.3-19.8 15.2c-22.9-7.7-44.9 10.6-44.9 31.6 0 40 31.2 49.8 44.3 52.6s77.5 7.1 90.2-63.8c15.6-86.9-75.8-103.9-75.8-103.9-55.6-9.8-115.1 15-139.3 69.9 0 0-47.3 94.9 11.5 179.2 124.9 179-82.6 516.9-589.3 233.9z"></path></g></g><g clip-path="url(#kittyClipPath)"><g id="bodyFur"><defs><clipPath id="bodyFur__a"><path fill="none" d="M1042.7 1400.2c-34-22-54.7-57.9-57.5-77.8-3.4-23.7 12-65.5 42.3-91.8s41.7-52.6 41.7-52.6l3.2-5.4a110.9 110.9 0 0 0 2.5-108.6 110.7 110.7 0 0 0-64.9-53.8c-15.9-4.9-31.4-9.6-48.7-28.4-14.1-15.4-17.4-68.7-43.8-98.9-66-75.4-95.1-100.9-100.7-155.4-13.3-130.7 115.8-91.2 162.3-70.9 120.4 52.3 177.7 95.4 205.4 132.4 29.9 39.9 34.5 49.9 80 58.4l.3-.2c14.1-10.6 29.7-18.4 47.2-18.2 25.2-25.2 60.8-23.5 98.4-9.3 12.5-10.1 14.6-15.6 35.8-16.9 16-1 24.6 7.8 40 14.7 28-12 58.5-12 85.7 18.5 22-5.6 31.9 8.8 43.2 20.9 8.2-5.9 29.5-10.2 42.1-38.4 22-49.5 55.9-131.6 146.8-200.9 37.9-29 166.6-91.7 166-36.4-.5 51.7 3.2 95-10 127.7-37.8 93.8-.5 164.6-36.5 236.6-11.2 22.4-47.6 47.1-79.3 52.6-102.3 17.9-97.5 64-92.1 84.2a95.3 95.3 0 0 0 5.9 16.5l17.9 38.7c12.8 29.8 31.3 56.6 54.8 78.1 3.1 2.9 6.3 5.6 9.4 8 20.3 16 45.1 46.5 41.3 71.3s-30.1 66.2-63.2 90.1a6.2 6.2 0 0 0-2.5 6.8 6.4 6.4 0 0 1 .2.7c1 6.2 17.6 103.2 52.6 175 37.2 76.3 51.8 90.3 64.4 160.8a1.7 1.7 0 0 1 .1.7 3.6 3.6 0 0 0 1.2 2.8c30 29.7 40.9 66.7 40.9 66.7l51.2 165.6a247.8 247.8 0 0 1-6.4 155.8l.8.3c47.4 13.8 136.8 46.1 179.8 75.5 26.1 17.8 10.1 55.9-23.2 55.3l-259.2-5.1h-2.3a242.9 242.9 0 0 1-65.2 28h-.1c2.8 13.3 12.3 21.1 28.1 21.9 18.2 1.1 23.7 18.6 24.4 25.6 2.3 21.2-5.8 34.7-27.8 36.9l-91.9 3a52.6 52.6 0 0 1-22.2-3.9 71.6 71.6 0 0 1-43.2-54.3l-3.4-20.7h-529.3l-4.4.4-4.9 26.2a72.2 72.2 0 0 1-8.8 23.9c-13.5 22.8-38.9 35.7-65.4 34.1l-84.2-5c-21.4-1.5-32-18.9-27.3-40.4 2.5-11.2 15.1-20.3 30.7-21.1 23.3-1.1 30.3-20.2 29.9-43.5v-3.3l-10.5-5.9a19.3 19.3 0 0 0-13.1-2.5l-2.6.2L770 2251c-33.3.6-49.7-38.2-23.2-55.3 53.1-34.3 143.2-68.1 182.5-77.8a2.5 2.5 0 0 0 1.8-2.6 1.3 1.3 0 0 0-.1-.6 248.8 248.8 0 0 1-11.8-115.1l17.3-90.7c4.8-22.9 12.5-41.8 21.7-57.2l1.8-2.9c-6.5-26.5 4.8-45.2 14.9-58.3l.8-1c1.5-68 34.5-124 61.1-203.4s7.5-184.9 7.5-184.9z"></path></clipPath></defs><g clip-path="url(#bodyFur__a)"><path fill="#ecd1eb" d="M715.6 567.3H2225v1824.09H715.6z"></path><path fill="#ecd1eb" d="M681.9 522.7h1611.5v1899.98H681.9z"></path><path fill="#585666" d="M1181.5 2294.7c1.7-6.6 5.2-56.8 22.7-141.2 10.4-50.5 16.8-83.5 22-105 38.7-162 16.1-179.6 50-276 23.1-65.9 47.1-131.2 111-162 7.6-3.7 65.8-30.8 125-7 57.6 23.1 81.2 80.6 105.3 141.9 29.1 74.1 19.9 99.7 53 285.3 6.9 38.6 13.7 77.2 20.7 115.8 4 22.6 5.9 45.3 10 68 9.4 53.2 11.6 54.1 11.3 56.2-9.7 78.5-486.6 140.6-531 24z"></path></g></g><g id="shadow" style="mix-blend-mode:multiply"><defs><clipPath id="bodyShadow__b"><path fill="none" d="M1042.7 1400.2c-34-22-54.7-57.9-57.5-77.8-3.4-23.7 12-65.5 42.3-91.8s41.7-52.6 41.7-52.6l3.2-5.4a110.9 110.9 0 0 0 2.5-108.6 110.7 110.7 0 0 0-64.9-53.8c-15.9-4.9-31.4-9.6-48.7-28.4-14.1-15.4-17.4-68.7-43.8-98.9-66-75.4-95.1-100.9-100.7-155.4-13.3-130.7 115.8-91.2 162.3-70.9 120.4 52.3 177.7 95.4 205.4 132.4 29.9 39.9 34.5 49.9 80 58.4l.3-.2c14.1-10.6 29.7-18.4 47.2-18.2 25.2-25.2 60.8-23.5 98.4-9.3 12.5-10.1 14.6-15.6 35.8-16.9 16-1 24.6 7.8 40 14.7 28-12 58.5-12 85.7 18.5 22-5.6 31.9 8.8 43.2 20.9 8.2-5.9 29.5-10.2 42.1-38.4 22-49.5 55.9-131.6 146.8-200.9 37.9-29 166.6-91.7 166-36.4-.5 51.7 3.2 95-10 127.7-37.8 93.8-.5 164.6-36.5 236.6-11.2 22.4-47.6 47.1-79.3 52.6-102.3 17.9-97.5 64-92.1 84.2a95.3 95.3 0 0 0 5.9 16.5l17.9 38.7c12.8 29.8 31.3 56.6 54.8 78.1 3.1 2.9 6.3 5.6 9.4 8 20.3 16 45.1 46.5 41.3 71.3s-30.1 66.2-63.2 90.1a6.2 6.2 0 0 0-2.5 6.8 6.4 6.4 0 0 1 .2.7c1 6.2 17.6 103.2 52.6 175 37.2 76.3 51.8 90.3 64.4 160.8a1.7 1.7 0 0 1 .1.7 3.6 3.6 0 0 0 1.2 2.8c30 29.7 40.9 66.7 40.9 66.7l51.2 165.6a247.8 247.8 0 0 1-6.4 155.8l.8.3c47.4 13.8 136.8 46.1 179.8 75.5 26.1 17.8 10.1 55.9-23.2 55.3l-259.2-5.1h-2.3a242.9 242.9 0 0 1-65.2 28h-.1c2.8 13.3 12.3 21.1 28.1 21.9 18.2 1.1 23.7 18.6 24.4 25.6 2.3 21.2-5.8 34.7-27.8 36.9l-91.9 3a52.6 52.6 0 0 1-22.2-3.9 71.6 71.6 0 0 1-43.2-54.3l-3.4-20.7h-529.3l-4.4.4-4.9 26.2a72.2 72.2 0 0 1-8.8 23.9c-13.5 22.8-38.9 35.7-65.4 34.1l-84.2-5c-21.4-1.5-32-18.9-27.3-40.4 2.5-11.2 15.1-20.3 30.7-21.1 23.3-1.1 30.3-20.2 29.9-43.5v-3.3l-10.5-5.9a19.3 19.3 0 0 0-13.1-2.5l-2.6.2L770 2251c-33.3.6-49.7-38.2-23.2-55.3 53.1-34.3 143.2-68.1 182.5-77.8a2.5 2.5 0 0 0 1.8-2.6 1.3 1.3 0 0 0-.1-.6 248.8 248.8 0 0 1-11.8-115.1l17.3-90.7c4.8-22.9 12.5-41.8 21.7-57.2l1.8-2.9c-6.5-26.5 4.8-45.2 14.9-58.3l.8-1c1.5-68 34.5-124 61.1-203.4s7.5-184.9 7.5-184.9z"></path></clipPath><linearGradient id="bodyShadow__a" x1="813.03" x2="1148.65" y1="811.89" y2="811.89" gradientUnits="userSpaceOnUse"><stop offset="0" stop-color="gray"></stop><stop offset=".14" stop-color="#797979"></stop><stop offset=".35" stop-color="#646464"></stop><stop offset=".6" stop-color="#434343"></stop><stop offset=".89" stop-color="#141414"></stop><stop offset="1"></stop></linearGradient><linearGradient id="bodyShadow__c" x1="1756.59" x2="2114.52" y1="770.45" y2="770.45" gradientTransform="matrix(-0.91, 0.41, 0.41, 0.91, 3303.47, -728.49)" xlink:href="#bodyShadow__a"></linearGradient></defs><g><g clip-path="url(#bodyShadow__b)"><path style="mix-blend-mode:multiply" fill="#7f7f7f" d="M1226.5 2040.4c-24.3 147.7 54.2 178.3 68.5 181.6 86.5 15.5 223.8 8.8 268.5-7 41.8-14.7 129.9-58.5 108-189.4l43 256.8h-533.6z" opacity=".2"></path><path style="mix-blend-mode:multiply" fill="#7f7f7f" d="M1854.3 2157.4s29.9-91.4 66.3-124.9c-39.4 75 14.1 92.7 28.1 87.7 53.7-19.2 74.9-66.7 79.2-150l65.3 116.3s-55 256-204 214l-38.7-18.1z" opacity=".2"></path><path style="mix-blend-mode:multiply" fill="url(#bodyShadow__a)" d="M844.4 645.4s28-9.6 115.8 26.1c52.1 21.4 95.4 48.7 138.8 88.2l36.7 45.8 10.5 25 2.5 38L1107 925l-8 20.5-41.2 23.3a83.6 83.6 0 0 1-56.7 9.3 83.4 83.4 0 0 1-63.1-53.8l-8.7-24.1-109.1-139.7s-12.6-39-4.3-73 28.5-42.1 28.5-42.1z" opacity=".3"></path><path style="mix-blend-mode:multiply" fill="url(#bodyShadow__c)" d="M1920.6 556.9s-34.1 7.1-126.1 105.2c-38.6 41.2-50 72-81.3 126.7l-13.4 62.7 45.7 37.3 17 26 1.6 32.3c6.7 11.3 16.8 17.2 29.4 19l21.6 2.3c39.8 4.2 79.6-9.4 107.8-37.7 6.8-6.9 12-13.6 14.4-19.4l8.2-69.2 11.7-64.6 7-81.4 5.8-114.9-13.2-22z" opacity=".3"></path><path fill="#7f7f7f" d="M1052.2 2254.4s-31.4-.7-81-.7" opacity=".2"></path><path style="mix-blend-mode:multiply" fill="#7f7f7f" d="M1410.4 816s-60.6 63.9-47.9 77.5v3.6c-30.1-27 33.7-76.7 30.5-86.5-.1 0 4.5.2 17.4 5.4z" opacity=".2"></path><path style="mix-blend-mode:multiply" fill="#7f7f7f" d="M1356.1 809.6c-15.6 9.7-20 19.9-22.5 31.9a156 156 0 0 1-33.7 68.1c-15.1 17.8-23.2 28.5-23.2 28.5-4.2-31.7 38.9-62.6 38.9-111 0 0 27.6-22.8 40.5-17.5z" opacity=".2"></path><path style="mix-blend-mode:multiply" fill="#7f7f7f" d="M1277.5 819.5l-80.2-13.5c8.4 42.5 4.5 67.8-11.9 80.8-57.9 46.2-66.5 87.3-96.2 109.2-27 19.8-59.2 22.7-59.2 22.7s-24.3 169.1-33.8 170.8c-19.4 3.3-38 146.1-28 216.7 0 0-47.8 419.7-76.2 569.3-31.7 166.4 17.2 278.2 79.2 278.2 49.6 0 81 .7 81 .7l-1.4-49c-4.9-88-29-150.8-52.6-176.8v-3.3c-7.1-30.8-13.2-66.2-9.2-98.8 6.3-50.9 7.6-71.2 53.9-142.1 0-.1-22.7-6.2-21.8-21 .7-12.8 13.4-45.4 14.5-64.4 22.1-87.8 59.7-159.2 59.8-159.5 4.1-26.2 18.6-26.1 12.7-76.3-2-16.3-42.7-67.8-71.6-107a77.8 77.8 0 0 1-9.7-75.1c10.4-26 27.2-59.5 52.3-86.1 0 0 58.4-102.6 65-131.5 23.8-104.2 55.6-140.7 99.6-161.1 21.1-9.7 37.6-54.7 45.6-69.2 13.1-23.7-11.8-13.7-11.8-13.7z" opacity=".2"></path><path style="mix-blend-mode:multiply" fill="#7f7f7f" d="M1592.6 834.5c0 2-3.9 66.3 56.8 96.3 0 0-6.6 7.7-31.2-2.3s-53.4-62-40.7-96.7c10.3 3.7 15.1 2.7 15.1 2.7z" opacity=".2"></path></g></g></g><g id="highlight" style="mix-blend-mode:overlay"><defs><clipPath id="bodyHighlight__b"><path fill="none" d="M1042.7 1400.2c-34-22-54.7-57.9-57.5-77.8-3.4-23.7 12-65.5 42.3-91.8s41.7-52.6 41.7-52.6l3.2-5.4a110.9 110.9 0 0 0 2.5-108.6 110.7 110.7 0 0 0-64.9-53.8c-15.9-4.9-31.4-9.6-48.7-28.4-14.1-15.4-17.4-68.7-43.8-98.9-66-75.4-95.1-100.9-100.7-155.4-13.3-130.7 115.8-91.2 162.3-70.9 120.4 52.3 177.7 95.4 205.4 132.4 29.9 39.9 34.5 49.9 80 58.4l.3-.2c14.1-10.6 29.7-18.4 47.2-18.2 25.2-25.2 60.8-23.5 98.4-9.3 12.5-10.1 14.6-15.6 35.8-16.9 16-1 24.6 7.8 40 14.7 28-12 58.5-12 85.7 18.5 22-5.6 31.9 8.8 43.2 20.9 8.2-5.9 29.5-10.2 42.1-38.4 22-49.5 55.9-131.6 146.8-200.9 37.9-29 166.6-91.7 166-36.4-.5 51.7 3.2 95-10 127.7-37.8 93.8-.5 164.6-36.5 236.6-11.2 22.4-47.6 47.1-79.3 52.6-102.3 17.9-97.5 64-92.1 84.2a95.3 95.3 0 0 0 5.9 16.5l17.9 38.7c12.8 29.8 31.3 56.6 54.8 78.1 3.1 2.9 6.3 5.6 9.4 8 20.3 16 45.1 46.5 41.3 71.3s-30.1 66.2-63.2 90.1a6.2 6.2 0 0 0-2.5 6.8 6.4 6.4 0 0 1 .2.7c1 6.2 17.6 103.2 52.6 175 37.2 76.3 51.8 90.3 64.4 160.8a1.7 1.7 0 0 1 .1.7 3.6 3.6 0 0 0 1.2 2.8c30 29.7 40.9 66.7 40.9 66.7l51.2 165.6a247.8 247.8 0 0 1-6.4 155.8l.8.3c47.4 13.8 136.8 46.1 179.8 75.5 26.1 17.8 10.1 55.9-23.2 55.3l-259.2-5.1h-2.3a242.9 242.9 0 0 1-65.2 28h-.1c2.8 13.3 12.3 21.1 28.1 21.9 18.2 1.1 23.7 18.6 24.4 25.6 2.3 21.2-5.8 34.7-27.8 36.9l-91.9 3a52.6 52.6 0 0 1-22.2-3.9 71.6 71.6 0 0 1-43.2-54.3l-3.4-20.7h-529.3l-4.4.4-4.9 26.2a72.2 72.2 0 0 1-8.8 23.9c-13.5 22.8-38.9 35.7-65.4 34.1l-84.2-5c-21.4-1.5-32-18.9-27.3-40.4 2.5-11.2 15.1-20.3 30.7-21.1 23.3-1.1 30.3-20.2 29.9-43.5v-3.3l-10.5-5.9a19.3 19.3 0 0 0-13.1-2.5l-2.6.2L770 2251c-33.3.6-49.7-38.2-23.2-55.3 53.1-34.3 143.2-68.1 182.5-77.8a2.5 2.5 0 0 0 1.8-2.6 1.3 1.3 0 0 0-.1-.6 248.8 248.8 0 0 1-11.8-115.1l17.3-90.7c4.8-22.9 12.5-41.8 21.7-57.2l1.8-2.9c-6.5-26.5 4.8-45.2 14.9-58.3l.8-1c1.5-68 34.5-124 61.1-203.4s7.5-184.9 7.5-184.9z"></path></clipPath><linearGradient id="bodyHighlight__a" x1="1906.29" x2="1906.29" y1="2464.39" y2="1214.47" gradientUnits="userSpaceOnUse"><stop offset="0" stop-color="#fff" stop-opacity="0"></stop><stop offset=".72" stop-color="#fff"></stop></linearGradient><linearGradient id="bodyHighlight__c" x1="889.77" x2="1074" y1="1726.98" y2="1726.98" xlink:href="#bodyHighlight__a"></linearGradient><linearGradient id="bodyHighlight__d" x1="2116.32" x2="2116.32" y1="2248.97" y2="2113.28" xlink:href="#bodyHighlight__a"></linearGradient><linearGradient id="bodyHighlight__e" x1="1044.74" x2="1044.74" y1="2253.08" y2="2117.39" gradientTransform="matrix(-1, 0, 0, 1, 1878.82, 0)" xlink:href="#bodyHighlight__a"></linearGradient><linearGradient id="bodyHighlight__f" x1="1743.61" x2="1743.61" y1="877.14" y2="462.96" xlink:href="#bodyHighlight__a"></linearGradient><linearGradient id="bodyHighlight__g" x1="1190.44" x2="1190.44" y1="908.91" y2="481.21" gradientTransform="matrix(-0.93, 0.37, 0.37, 0.93, 1915.64, -369.5)" xlink:href="#bodyHighlight__a"></linearGradient><linearGradient id="bodyHighlight__h" x1="1576.06" x2="1576.06" y1="931.34" y2="811.95" xlink:href="#bodyHighlight__a"></linearGradient><linearGradient id="bodyHighlight__i" x1="1654.64" x2="1654.64" y1="964.36" y2="835.25" xlink:href="#bodyHighlight__a"></linearGradient><linearGradient id="bodyHighlight__j" x1="1486.96" x2="1486.96" y1="898.06" y2="806.39" xlink:href="#bodyHighlight__a"></linearGradient></defs><g style="isolation:isolate"><g fill="none"><path d="M0 0h3000v3000H0z"></path><path d="M0 0h3000v3000H0z"></path></g><g clip-path="url(#bodyHighlight__b)" opacity=".6"><path style="mix-blend-mode:overlay" fill="url(#bodyHighlight__a)" d="M1796.8 1398.8c13.5 138 72.1 222.1 120.7 316-11.6-3.6-25.7-11.6-30.2-11.6 58.8 80.8 67.4 147.5 94.9 269.3 46.1 204.7-93.5 283.9-93.5 283.9l61.1-35.5s63-74.8 72.5-107.6c5.5-19.1 50.2-86 35.2-167.2-41.6-224.4-188.2-588.9-188.2-588.9 83.8-81.9-4.1-174.7-4.1-174.7l-7-21.1-37-58.9c-21.5-30.4-49-59-58-96l-10 33c-3 41-1.7 107.9 25.6 148 18.6 27.3 65.7 53.1 74 88.3 7.4 49.3-16.6 73.3-56 123z" opacity=".8"></path><path fill="url(#bodyHighlight__c)" d="M1073.2 1467.6a319.6 319.6 0 0 1-28.1 155.7c-19.8 43.4-42.3 91.7-51.1 146.7-.3 2.2 12.3-14.3 12.2-12-2.5 28.5-26.1 53.7-28.2 66.6-11.2 70.3-21.2 132.2-27.1 165.2-20 112 19.3 165 86 256-68.6-36.7-110.7-135-110.7-135-84-99.2-15.7-904.7 133.3-902.6-45.2 63.8-62.8 107.8-44.3 145.9 8.3 17 20.1 36.7 27.5 46.1 9.5 12.1 26.8 15.9 26.8 15.9z" opacity=".8"></path><path style="mix-blend-mode:overlay" fill="url(#bodyHighlight__d)" d="M1999.2 2162.4s113.2 21.1 98.3 83.6l92.7 3 43.3-6.5-4.3-68.5-206.9-60.7z" opacity=".8"></path><path style="mix-blend-mode:overlay" fill="url(#bodyHighlight__e)" d="M951.2 2166.5s-113.2 21.1-98.3 83.6l-92.7 3-43.3-6.5 4.3-68.5 206.9-60.7z" opacity=".8"></path><path style="mix-blend-mode:overlay" fill="url(#bodyHighlight__f)" d="M1877 463s7.5 33-46.5 94.5-98.3 111.8-131.7 182.6c-31 65.9-20.6 74.7-18.3 93.3 4.5 36.3 7.5 54-21 37.5s-51-30-49.5-66 147-322.4 267-341.9z" opacity=".8"></path><path style="mix-blend-mode:overlay" fill="url(#bodyHighlight__g)" d="M859.5 562.5s5.1 33.5 77.9 70.9 132.4 68.2 189.3 121.9c52.9 50 46.5 62 51.2 80.2 9 35.3 24.8 64.8 45.3 39s24.4-58.4 9.9-91.3-254.8-246.4-373.6-220.7z" opacity=".8"></path><path style="mix-blend-mode:overlay" fill="url(#bodyHighlight__h)" d="M1528.8 812c12 7.8 19.6 20.8 24.5 34.2s5.8 14.3 10.1 28 9.5 28.1 16.6 35.7c9.8 10.4 30.4 26.2 43.3 20.1-23.2-11.3-38.1-31.5-44.7-56.4-2.8-10.6-3.7-21.9-8.2-31.9s-14.2-18.9-25.2-18" opacity=".8"></path><path style="mix-blend-mode:overlay" fill="url(#bodyHighlight__i)" d="M1577.2 848.3c11.9 7.8 41.1 34.5 53 42.5 26 17.7 88.6 79 104.2 73.2-20.9-54.5-58.3-61.7-72.6-71.5-50.3-35.6-61-58.7-86.9-57.2" opacity=".8"></path><path style="mix-blend-mode:overlay" fill="url(#bodyHighlight__j)" d="M1485 850.4c8.8 6.5 18.2 12.3 26.2 19.8s14.7 17 16.3 27.9c3.2-12.2-.2-25.3-6.5-36.2s-15.2-19.9-24-28.8-15.2-15.3-24.5-20.6a45.8 45.8 0 0 0-20.1-6.1c-12.1-.5-6.4 5.5-1.2 11.8a202.1 202.1 0 0 0 33.8 32.2z" opacity=".8"></path></g></g></g><g id="bodyMask"></g><g id="body"><path fill="#31323d" d="M1848.9 2267.9c10.1-3.2 20.1-6.6 29.9-10.6a300.2 300.2 0 0 0 28.7-13.5c2.4-1.2 4.7-2.6 7-3.9l6.8-4 6.8-4.3 6.7-4.4a318.4 318.4 0 0 0 25.5-19.5 2.5 2.5 0 0 1 3.6 3.5 206.8 206.8 0 0 1-23.4 23.4l-6.4 5.3-6.7 5.1-6.8 4.7-7 4.6a219.8 219.8 0 0 1-29.7 15.4 187.3 187.3 0 0 1-31.8 10.3 6.3 6.3 0 0 1-3.3-12.1z"></path><path fill="#31323d" d="M1848.9 2267.9a241.8 241.8 0 0 0 109-64.2c5-5.1 9.8-10.4 14.3-15.8s8.8-11.2 12.9-17a243.1 243.1 0 0 0 42.8-118.9 251.3 251.3 0 0 0-.3-42.5c-.6-7.1-1.6-14.1-2.9-21.1-.6-3.5-1.4-7-2.1-10.5l-1.3-5.2-1.3-5.1c-.4-1.6-1-3.4-1.5-5.2l-1.7-5.2-3.2-10.5-6.4-20.9-25.6-83.9-12.8-41.9c-1-3.2-2.2-6.5-3.5-9.7s-2.8-6.5-4.3-9.7a168.2 168.2 0 0 0-10.4-18.5 173.2 173.2 0 0 0-26.7-32.4c-2.6-2.4-5.2-4.7-8-7s-5.5-4.3-8.4-6.3a153.5 153.5 0 0 0-18.4-10.9 2.5 2.5 0 0 1-1.1-3.4 2.4 2.4 0 0 1 2.9-1.3c14.5 3.8 28.2 11.2 40.1 20.7a147.4 147.4 0 0 1 30.2 33.8 226.3 226.3 0 0 1 11.2 19.7c1.6 3.4 3.2 6.9 4.7 10.4s2.8 7 4 10.8l13.1 41.9 26.2 83.7 6.5 21 3.3 10.5 1.6 5.2c.6 1.8 1.1 3.4 1.6 5.3l1.5 5.5 1.3 5.5c.8 3.6 1.7 7.3 2.3 11 1.4 7.4 2.5 14.8 3.3 22.3a261.3 261.3 0 0 1 .4 45.1 256 256 0 0 1-7.6 44.4 268.3 268.3 0 0 1-15.3 42.4 256.2 256.2 0 0 1-124.9 124.9 253.6 253.6 0 0 1-42.3 15.1 6.3 6.3 0 0 1-7.6-4.5 6.2 6.2 0 0 1 4.3-7.6z"></path><path fill="none" stroke="#31323d" stroke-linecap="round" stroke-miterlimit="10" stroke-width="12.5" d="M931.3 2117.4c-38.1 9.1-130.5 43.4-184.5 78.3-26.5 17.1-10.1 55.9 23.2 55.3l263.4-5.5"></path><path fill="#31323d" d="M840.4 2200.1a58.8 58.8 0 0 0-7.8 2.5 63.6 63.6 0 0 0-7.5 3.4c-4.7 2.7-8.9 6-11.7 10.1a20.7 20.7 0 0 0-3.8 13.3 37.6 37.6 0 0 0 4.5 14 6.3 6.3 0 0 1-2.6 8.5 6.4 6.4 0 0 1-8.5-2.6l-.3-.7a47.2 47.2 0 0 1-3.5-19.2 31.5 31.5 0 0 1 2.2-10 30.5 30.5 0 0 1 5.4-8.6 41.9 41.9 0 0 1 15.5-10.5 53.9 53.9 0 0 1 8.6-2.8 51.9 51.9 0 0 1 8.9-1.7 2.1 2.1 0 0 1 2.4 1.9 2.2 2.2 0 0 1-1.7 2.5z"></path><path fill="#31323d" d="M793 2202.1a21.9 21.9 0 0 0-3.4 1l-3.2 1.4a29.8 29.8 0 0 0-6 3.6 19.9 19.9 0 0 0-7.6 10.2 21.1 21.1 0 0 0-1 6.1 8.6 8.6 0 0 0 .1 1.6 9.2 9.2 0 0 0 .1 1.6c.1.5.1 1 .2 1.6l.3 1.6a51.7 51.7 0 0 0 5 12.6 6.4 6.4 0 0 1-2.6 8.5 6.3 6.3 0 0 1-8.5-2.6 2.1 2.1 0 0 1-.3-.7h-.1a61.9 61.9 0 0 1-3.9-16.2v-4.4a34.2 34.2 0 0 1 .4-4.4 28.8 28.8 0 0 1 2.6-8.5 24.7 24.7 0 0 1 5.1-7.2 28.6 28.6 0 0 1 6.8-5.2 41.3 41.3 0 0 1 7.5-3.2l3.9-1.1a25.7 25.7 0 0 1 4-.6 2.2 2.2 0 0 1 .8 4.3z"></path><path fill="none" stroke="#31323d" stroke-linecap="round" stroke-miterlimit="10" stroke-width="12.5" d="M2020.7 2120.2c47.4 13.8 136.8 46.1 179.8 75.5 26.1 17.8 10.1 55.9-23.2 55.3l-261.6-5.1"></path><path fill="#31323d" d="M2107.6 2193.7a64.1 64.1 0 0 1 8.9 2.1 55.8 55.8 0 0 1 8.6 3.2 43.9 43.9 0 0 1 15.4 11.2 29.7 29.7 0 0 1 5.4 8.7 34.4 34.4 0 0 1 2.2 10.1 47 47 0 0 1-3.5 19.5h-.1a6.2 6.2 0 1 1-11.6-4.5l.3-.7a36.5 36.5 0 0 0 4.4-14.3 21.2 21.2 0 0 0-3.8-13.7 37.8 37.8 0 0 0-11.7-10.7 73.9 73.9 0 0 0-7.4-3.8 62.2 62.2 0 0 0-7.9-2.8h-.1a2.2 2.2 0 0 1 .9-4.3z"></path><path fill="#31323d" d="M2155.1 2195.7a25.9 25.9 0 0 1 4 .9c1.4.3 2.7.8 4 1.2a47.4 47.4 0 0 1 7.5 3.7 31.1 31.1 0 0 1 6.6 5.5 27.8 27.8 0 0 1 5.1 7.4 31.7 31.7 0 0 1 2.6 8.6 576 576 0 0 1 .4 4.5v4.4a60.2 60.2 0 0 1-4 16.6 6.3 6.3 0 0 1-11.7-4.4l.3-.8a46.6 46.6 0 0 0 5-12.9 25.6 25.6 0 0 0-.4-12.9 23.6 23.6 0 0 0-7.6-10.8 36.8 36.8 0 0 0-6-4 31.3 31.3 0 0 0-3.2-1.5 27.9 27.9 0 0 0-3.4-1.2h-.1a2.1 2.1 0 0 1-1.5-2.7 2.2 2.2 0 0 1 2.4-1.6z"></path><path fill="#31323d" d="M1009 1756.2a101.5 101.5 0 0 1-7.7 11.6l-4.1 5.3c-1.4 1.7-2.7 3.5-4 5.3l-2 2.6-1 1.4-1.1 1.5-4.4 5.4q-4.4 5.3-8.1 10.5a103.3 103.3 0 0 0-6.6 11 73.3 73.3 0 0 0-4.7 11.7 75 75 0 0 0-2.9 25.7 2.6 2.6 0 0 1-2.4 2.7 2.8 2.8 0 0 1-2.5-1.5 53.4 53.4 0 0 1-3.4-29.4 65.5 65.5 0 0 1 4.3-14.5c1-2.3 2.1-4.6 3.2-6.8s2.4-4.3 3.7-6.4 2.7-4.1 4.2-6 2.9-3.9 4.4-5.7l4.3-5.4 2.2-2.6a29.8 29.8 0 0 1 2.3-2.7c1.6-1.9 3.3-3.6 5-5.3s3.5-3.3 5.4-4.9a45.1 45.1 0 0 1 12.6-7.3 2.6 2.6 0 0 1 3.4 1.6 2.6 2.6 0 0 1-.1 2.1z"></path><path fill="#31323d" d="M1043.5 1786.8l-7.9 3.1c-2.7 1.2-5.3 2.4-7.9 3.8a148.4 148.4 0 0 0-14.9 8.7 166.6 166.6 0 0 0-26.2 22.1c-15.8 16.6-27.6 36.4-35.8 57.8-2.1 5.3-3.8 10.8-5.4 16.3-.3 1.4-.7 2.8-1 4.2s-.8 2.8-1.1 4.2-1.1 5.6-1.7 8.6l-6.6 34.8-6.7 34.9-1.6 8.7-.9 4.3-.4 2.2-.2 2.1c-.4 2.7-.7 5.7-.9 8.5l-.4 4.3-.2 4.4a242.2 242.2 0 0 0 31.6 133.1 245.6 245.6 0 0 0 98.3 95.2 6.3 6.3 0 1 1-5.8 11.1 258.5 258.5 0 0 1-103.4-100.1 254.5 254.5 0 0 1-33.2-140l.3-4.5.3-4.6c.3-3 .6-6 1-9.1l.3-2.4.4-2.2.8-4.3 1.7-8.8 6.7-35 6.6-35.1c.6-2.9 1.1-5.8 1.8-8.8.3-1.5.7-3 1-4.5l1.2-4.4c1.5-6 3.4-11.8 5.4-17.6a166.4 166.4 0 0 1 16.2-33.1 145.9 145.9 0 0 1 10.9-14.9 160.9 160.9 0 0 1 12.7-13.4 177.6 177.6 0 0 1 14.2-11.8 168.1 168.1 0 0 1 15.5-9.8 146.8 146.8 0 0 1 16.6-7.7c2.9-1.1 5.7-2.1 8.7-3a79.1 79.1 0 0 1 9-2.1 2.5 2.5 0 0 1 2.9 2 2.6 2.6 0 0 1-1.7 2.8z"></path><path fill="none" stroke="#31323d" stroke-linecap="round" stroke-linejoin="round" stroke-width="12.5" d="M1615.1 856.9c8.2-5.9 29.5-10.2 42.1-38.4 22-49.5 55.9-131.6 146.8-200.9 37.9-29 166.6-91.7 166-36.4-.5 51.7 3.2 95-10 127.7-37.8 93.8-.5 164.6-36.5 236.6-11.2 22.4-47.6 47.1-79.3 52.6-102.3 17.9-97.5 64-92.1 84.2a95.3 95.3 0 0 0 5.9 16.5l17.9 38.7"></path><path fill="#31323d" d="M1914.5 570.1l-6.8 4.2-6.9 4.3-13.5 9.2c-9 6.2-17.7 12.7-26.3 19.4a527.7 527.7 0 0 0-48.7 43.4c-7.7 7.7-15.1 15.6-22.1 23.9s-13.7 16.8-20 25.5l-4.7 6.7-4.5 6.7-4.4 6.9c-1.5 2.3-2.9 4.7-4.3 7-5.8 9.3-11.5 18.7-16.9 28.1s-10.6 19.1-15.3 28.8c-2.3 4.9-4.6 9.8-6.6 14.7a120.6 120.6 0 0 0-4.9 14.7 63.1 63.1 0 0 0-.4 29.6 50.9 50.9 0 0 0 5.4 13.5 39.2 39.2 0 0 0 9.1 10.7l1.4 1.1 1.4 1 1.4.9 1.8 1 7.2 3.9a113.3 113.3 0 0 1 14.8 9.3 46 46 0 0 1 12.5 14.4 41.8 41.8 0 0 1 3.5 9.1 43.2 43.2 0 0 1 1.2 9.4c.1 1.5 0 3.1 0 4.6s-.2 3.1-.4 4.5l-.3 2.2-.3 1.8c-.1 1.2-.2 2.4-.2 3.6a24 24 0 0 0 3.1 13.1c4.4 8 14.2 13.5 24 16.2h.2a2.7 2.7 0 0 1 1.9 3.2 2.8 2.8 0 0 1-2.7 2l-4.5-.5-4.3-1a42.1 42.1 0 0 1-8.4-3 36 36 0 0 1-14.4-11.7 34.3 34.3 0 0 1-6-18.2 36.8 36.8 0 0 1 0-4.7 19.4 19.4 0 0 1 .2-2.4v-1.9c.2-1.2.1-2.5.2-3.7s0-2.4-.1-3.6a32.1 32.1 0 0 0-3.7-13.2 34.7 34.7 0 0 0-9.3-10.3 98.3 98.3 0 0 0-13.2-8l-7.4-3.9-1.9-1.1-2-1.2-2-1.3-2-1.5a53.6 53.6 0 0 1-12.3-14.2 62.9 62.9 0 0 1-7-17 75.6 75.6 0 0 1 .1-36 125.4 125.4 0 0 1 5.4-16.7c2.1-5.3 4.5-10.4 6.9-15.5 4.8-10.2 10.1-20 15.6-29.7s11.2-19.3 17-28.7l4.4-7 4.5-7.1 4.7-7 4.8-6.9a410.5 410.5 0 0 1 43.7-51.1 503 503 0 0 1 50.5-44.1c8.8-6.8 17.8-13.4 27.1-19.6 4.6-3.2 9.3-6.2 14-9.2l7.2-4.4 7.4-4.2a6.2 6.2 0 0 1 8.5 2.4 6.3 6.3 0 0 1-2.4 8.5z"></path><path fill="none" stroke="#31323d" stroke-linecap="round" stroke-linejoin="round" stroke-width="12.5" d="M1261.7 847c-45.5-8.5-47.3-18.1-77.2-58-27.7-37-85-80.1-205.4-132.4-46.5-20.3-175.6-59.8-162.3 70.9 5.6 54.5 34.7 80 100.7 155.4 26.4 30.2 29.7 83.5 43.8 98.9 17.3 18.8 32.8 23.5 48.7 28.4a110.7 110.7 0 0 1 64.9 53.8 110.9 110.9 0 0 1-2.5 108.6l-3.2 5.4"></path><path fill="#31323d" d="M850.1 636.1a239.3 239.3 0 0 1 29.3 2.3 236.8 236.8 0 0 1 28.8 5.8 272.9 272.9 0 0 1 27.8 9c9.1 3.4 18.1 7.3 26.8 11.4 17.5 8.3 34.5 17.5 51 27.3 8.3 4.9 16.5 9.9 24.6 14.9l12.2 7.7 6.1 3.9 6 4c16.1 10.9 31.5 22.9 45.4 36.8a188.9 188.9 0 0 1 19.4 22.4 209.9 209.9 0 0 1 15.6 25.1c2.2 4.4 4.4 8.8 6.4 13.2l3 6.5.2.5.2.4.4 1a17.2 17.2 0 0 1 .7 2.1 11.8 11.8 0 0 1 .7 2l.5 2.1a47.2 47.2 0 0 1 .5 16.3 70.2 70.2 0 0 1-3.6 15.2 106.9 106.9 0 0 1-6.1 13.8 115.9 115.9 0 0 1-7.5 12.8c-2.7 4.1-5.5 8.1-8.6 12l-4.6 5.7c-1.6 1.9-3.2 3.7-4.9 5.5l-.3.3h-.1l-3.4 3-3.3 3.3a76.8 76.8 0 0 0-5.9 6.9 37 37 0 0 0-4.5 7.6 15.9 15.9 0 0 0-1.5 7.9 2.5 2.5 0 0 1-2.2 2.8 2.6 2.6 0 0 1-2.7-1.8 19.9 19.9 0 0 1 .3-11.1 39.6 39.6 0 0 1 4.3-9.6 70 70 0 0 1 5.7-8.5l3.3-3.9c1.2-1.2 2.2-2.4 3.6-3.7l-.4.3 4.1-5.4 4.1-5.7c2.6-3.9 5.1-7.8 7.4-11.7s4.5-8.1 6.5-12.2a120.6 120.6 0 0 0 5-12.5 57.9 57.9 0 0 0 2.8-12.7 34.2 34.2 0 0 0-.5-12l-.3-1.5c-.2-.4-.3-.9-.5-1.3l-.5-1.4-.3-.6v-.3l-.2-.4-3-6.4c-2-4.3-4.1-8.4-6.3-12.5a187.4 187.4 0 0 0-14.8-23.3 210.5 210.5 0 0 0-18.2-20.7c-13.2-13-28.1-24.4-43.7-34.8l-5.8-3.9-6-3.8-12-7.6c-8.1-5-16.2-9.9-24.4-14.7-16.3-9.5-32.8-18.8-49.8-26.8s-34.3-15.2-52.2-20.1a235.4 235.4 0 0 0-54.9-8.6 6.3 6.3 0 0 1 .4-12.5z"></path><path fill="none" stroke="#31323d" stroke-linecap="round" stroke-miterlimit="10" stroke-width="12.5" d="M1185.2 2282.4h519.6"></path><path fill="#31323d" d="M1228.6 2040.8c-3.4 30.5-8.1 60.7-13.2 90.9-2.6 15.1-5.4 30.1-8.2 45.2l-8.3 45.1-16.6 90.4a75.9 75.9 0 0 1-8.8 23.5 75.1 75.1 0 0 1-16.1 19.4 77.9 77.9 0 0 1-45.9 18.8c-2.1.2-4.2.2-6.3.2h-6l-11.5-.7-22.9-1.3-45.9-2.8a56.5 56.5 0 0 1-6.4-.7 38.7 38.7 0 0 1-6.7-1.7 36.8 36.8 0 0 1-12.3-7.3 35.3 35.3 0 0 1-8.3-11.7 43.4 43.4 0 0 1-3.1-13.5 58.3 58.3 0 0 1 1-13.3 31.5 31.5 0 0 1 .9-3.6 36.8 36.8 0 0 1 1.5-3.5 29.7 29.7 0 0 1 4.1-6.3 36.8 36.8 0 0 1 11-8.7 45 45 0 0 1 12.7-4.6 49.5 49.5 0 0 1 6.6-.8l2.6-.2 2.3-.3a25.8 25.8 0 0 0 4.2-1.2 16.9 16.9 0 0 0 3.8-1.9c4.6-3 7.7-8.4 9.4-14.8a54.6 54.6 0 0 0 1.6-10.1 47.1 47.1 0 0 0 .3-5.3v-5.5l-1-22.9-1.8-45.8c-.6-15.3-1.3-30.5-1.8-45.8v.5c-.6-5-1.3-9.9-2.1-14.9s-1.6-9.8-2.6-14.7-2.1-9.7-3.4-14.4-2.7-9.5-4.3-14.2-3.5-9.3-5.5-13.8-4.3-8.9-6.6-13.3a195.2 195.2 0 0 0-16.5-24.9 2.3 2.3 0 0 1 .4-3.2 2.2 2.2 0 0 1 2.9.2 157.1 157.1 0 0 1 19.8 23.9c2.9 4.3 5.5 8.8 8 13.4a151.2 151.2 0 0 1 6.7 14.1q3 7.4 5.4 14.7t4.2 15c1.3 5.1 2.3 10.2 3.3 15.2s1.7 10.2 2.4 15.3v.5c.9 15.3 1.6 30.6 2.4 45.9l2.3 45.9 1.1 22.9.2 2.9v3.1c0 2.1-.1 4.1-.2 6.2a69.1 69.1 0 0 1-2 12.5 51 51 0 0 1-2 6.3 39.9 39.9 0 0 1-3.1 6.2 32.4 32.4 0 0 1-9.8 10.4 35.6 35.6 0 0 1-13.2 5.3l-3.3.5-1.7.2h-1.5a35.5 35.5 0 0 0-4.7.6 29.9 29.9 0 0 0-8.8 3.2 23.3 23.3 0 0 0-6.9 5.4 14.1 14.1 0 0 0-2.2 3.4 12.2 12.2 0 0 0-.7 1.7 19.3 19.3 0 0 0-.5 2 39.2 39.2 0 0 0-.7 9.6 27.7 27.7 0 0 0 2 8.7 20.2 20.2 0 0 0 4.9 6.9 20.5 20.5 0 0 0 7.3 4.3 31.5 31.5 0 0 0 4.4 1.1c1.6.2 2.9.4 5 .5l45.8 2.6 22.9 1.4 11.4.7h5.4l5.2-.2a64.3 64.3 0 0 0 37.6-15.2 61.6 61.6 0 0 0 13.1-15.7 66.5 66.5 0 0 0 7.4-19.3l17.3-90 8.7-45c2.9-15.1 5.8-30.1 8.9-45.1 6.2-30 12.7-59.9 20.7-89.5a2.2 2.2 0 0 1 2.7-1.6 2.1 2.1 0 0 1 1.6 2.6z"></path><path fill="#31323d" d="M1095.2 2319.6h-1.5l-1.7.2a17.3 17.3 0 0 0-3.2 1.1 21.2 21.2 0 0 0-5.7 3.6 30.1 30.1 0 0 0-7.8 11.3 56.8 56.8 0 0 0-3.9 13.7 118.3 118.3 0 0 0-1.4 14.6 6.3 6.3 0 0 1-6.5 6 6.2 6.2 0 0 1-6-6.5 2.5 2.5 0 0 1 .1-.8 109.3 109.3 0 0 1 3.6-15.8 70 70 0 0 1 6.6-15.2 37.8 37.8 0 0 1 11.4-12.5 27.7 27.7 0 0 1 7.8-3.6 20.4 20.4 0 0 1 4.3-.8h4.5a2.3 2.3 0 0 1 1.8 2.6 2 2 0 0 1-2 1.8z"></path><path fill="#31323d" d="M1052.7 2314.9h-.7l-.9.2-1.6.4-1.6.7-1.5.7a26.2 26.2 0 0 0-5.5 3.9 33.7 33.7 0 0 0-7.8 11.2c-1 2.1-1.6 4.4-2.4 6.6a8.5 8.5 0 0 0-.4 1.7l-.4 1.7c-.3 1.2-.6 2.3-.8 3.5s-.7 4.7-.9 7l-.5 7.2v.4a6.3 6.3 0 0 1-12.5-.7 1.9 1.9 0 0 1 .1-.8l1.5-7.9c.6-2.6 1.4-5.2 2.1-7.8s1-2.6 1.4-3.8l.7-1.9c.3-.7.5-1.3.8-1.9a63.7 63.7 0 0 1 3.9-7.3 40.7 40.7 0 0 1 11.1-12.3 35.3 35.3 0 0 1 7.5-3.8l2-.7 2-.5 2.1-.3h2.3a2.2 2.2 0 0 1 2.1 2.3 2.1 2.1 0 0 1-1.8 2.1z"></path><path fill="#31323d" d="M1673.7 2025.2c8.1 34.9 15 70 21.4 105.1l4.7 26.4 4.5 26.4 9.1 52.8 9.1 52.8 2.3 13.2a67.2 67.2 0 0 0 3.1 11.7 78.2 78.2 0 0 0 5.3 10.9 67 67 0 0 0 7.1 9.7 69.8 69.8 0 0 0 8.9 8.2 67.2 67.2 0 0 0 10.2 6.4c.8.5 1.8.8 2.7 1.3l2.7 1.1a38.6 38.6 0 0 0 5.5 1.7 41.3 41.3 0 0 0 11.6 1.3l53.2-1.8 26.7-.8 6.7-.2h6.6l2.7-.4 2.7-.5 2.6-.8 1.2-.5 1.2-.5a3.9 3.9 0 0 0 1.1-.6l1.1-.6 2-1.4c.5-.5 1.1-1 1.6-1.6l.7-.9.4-.4.3-.5a21.9 21.9 0 0 0 3.3-9.5 26.6 26.6 0 0 0 .3-2.8v-4.4c0-.5-.1-1-.1-1.5v-1.5c0-.2-.1-.5-.1-.7v-.6a23 23 0 0 0-1.3-5 23.7 23.7 0 0 0-2.3-4.8l-.6-1.1-.8-1c-.5-.7-1.1-1.2-1.6-1.9a20.7 20.7 0 0 0-3.8-2.8l-1-.5-1.1-.4-2.3-.7h-4l-1.9-.2a42.6 42.6 0 0 1-15.4-4.6 31.9 31.9 0 0 1-12-11.9 38.7 38.7 0 0 1-4.7-15.4 24.8 24.8 0 0 1-.2-3.8v-3.7l.2-6.7.6-26.9.6-26.8c0-1.1.1-2.3.2-3.4l.2-3.5.6-6.9.8-6.8c.3-2.3.6-4.5 1-6.8a261.4 261.4 0 0 1 14.1-52.9c.7-2.1 1.6-4.2 2.5-6.3l2.7-6.3c.9-2.1 1.9-4.2 2.8-6.2s1.9-4.2 3-6.2c4.2-8.1 8.5-16 13.4-23.7a271.6 271.6 0 0 1 33.4-42.6 2.2 2.2 0 0 1 3.2-.1 2.2 2.2 0 0 1 .2 2.9 375.6 375.6 0 0 0-28.7 44.6c-4.3 7.7-8.1 15.6-11.7 23.6-1 2-1.8 4-2.7 6s-1.7 4-2.5 6.1l-2.3 6.1c-.8 2.1-1.6 4.1-2.2 6.2a278.7 278.7 0 0 0-12.7 50.7c-.4 2.1-.6 4.3-.8 6.5l-.7 6.5c-.3 2.1-.3 4.3-.5 6.4l-.2 3.3c-.1 1-.2 2.1-.2 3.2l-.3 26.8-.4 26.7v6.7a7.1 7.1 0 0 0 .1 1.5v1.5a29.6 29.6 0 0 0 3.3 12.9 17.3 17.3 0 0 0 6.8 6.6 27 27 0 0 0 10.2 2.9h1.4l1.7.2 2.1.2h1.1l1 .3a32.5 32.5 0 0 1 4.2 1.1l2 .8 2 1a32.6 32.6 0 0 1 7 5.2 41.2 41.2 0 0 1 2.8 3.1l1.2 1.7 1.1 1.8a39.9 39.9 0 0 1 3.5 7.2 50.9 50.9 0 0 1 2.1 7.9v1.1a2.8 2.8 0 0 1 .1.9l.2 1.9c0 .6.1 1.2.1 1.8v3.8c0 .6-.1 1.3-.1 1.9s-.2 2.6-.4 3.9a35.2 35.2 0 0 1-5.4 15.5l-.6.9-.7.9-1.4 1.7c-1 1.1-2.1 2.1-3.1 3l-3.5 2.6-1.8 1-1.9 1-1.9.8a6.2 6.2 0 0 1-1.9.7c-1.2.4-2.5.9-3.8 1.2l-3.8.8-4 .6h-3.4l-3.4.2-6.7.2-26.8.9-53.9 1.7a63.3 63.3 0 0 1-15-1.7 61.8 61.8 0 0 1-7.3-2.3l-3.4-1.5a33.6 33.6 0 0 1-3.3-1.6 90 90 0 0 1-12.5-7.8 82.2 82.2 0 0 1-19.4-21.9 80.9 80.9 0 0 1-6.3-13.3 78.1 78.1 0 0 1-3.7-14.2l-2.2-13.2-8.6-52.9-8.6-52.9-4.3-26.4-4.1-26.5c-5.4-35.3-10.4-70.7-14-106.4a2.2 2.2 0 0 1 2-2.4 2.3 2.3 0 0 1 2.2 1.2z"></path><path fill="#31323d" d="M1783.1 2307.4h2.4l2.3.2 4.5.8a32.5 32.5 0 0 1 8.4 3.5 37.6 37.6 0 0 1 13.3 12.7c.9 1.3 1.6 2.7 2.4 4l1.9 4.2a72.5 72.5 0 0 1 2.7 8.7 83.7 83.7 0 0 1 2.4 17.8 6.2 6.2 0 0 1-5.9 6.5 6.3 6.3 0 0 1-6.6-6v-.7a82.3 82.3 0 0 0-.2-15.7 47.2 47.2 0 0 0-1.4-7.5c-.3-1.2-.8-2.4-1.2-3.6a36.5 36.5 0 0 0-1.4-3.5 31.8 31.8 0 0 0-9.4-11.5 33.6 33.6 0 0 0-6.7-3.7l-3.7-1.1-1.9-.4-1.8-.3h-.2a2.2 2.2 0 0 1-2-2.4 2.3 2.3 0 0 1 2.1-2z"></path><path fill="#31323d" d="M1833.8 2304.2h2.4l2.3.2 4.4.8a34.7 34.7 0 0 1 8.5 3.5 37.6 37.6 0 0 1 13.3 12.7 41 41 0 0 1 2.3 4 38.9 38.9 0 0 1 1.9 4.2 73.2 73.2 0 0 1 2.8 8.7 98.8 98.8 0 0 1 2.4 17.8 6.3 6.3 0 0 1-6 6.5 6.2 6.2 0 0 1-6.5-5.9v-.8a82.3 82.3 0 0 0-.2-15.7 66.3 66.3 0 0 0-1.5-7.5c-.3-1.2-.7-2.4-1.1-3.6a36.8 36.8 0 0 0-1.5-3.5 29.9 29.9 0 0 0-9.4-11.5 27 27 0 0 0-6.7-3.6 25.3 25.3 0 0 0-3.6-1.2l-1.9-.4-1.8-.3h-.2a2.2 2.2 0 0 1-2-2.4 2.1 2.1 0 0 1 2.1-2z"></path><path fill="#31323d" d="M1125 978.9a24 24 0 0 1 1.1-8.5 46.8 46.8 0 0 1 3.2-7.6 92.7 92.7 0 0 1 8.6-13.4c3.2-4.2 6.6-8.2 10.1-12.1s7.1-7.5 10.8-11.1 7.5-7.2 11.4-10.6 7.7-6.8 11.7-10.1c7.9-6.6 16-12.9 24.2-19.1l1.6-1.2 1.4-1.1 2.8-2.3 5.6-4.9q5.6-4.9 11.1-10.2c7.5-7 15.2-14 23.5-20.5a132.4 132.4 0 0 1 13-9.2 110.4 110.4 0 0 1 14.4-7.7 73.9 73.9 0 0 1 32.5-6.5l-4.5 1.8a70.8 70.8 0 0 1 23.8-15.8 76.6 76.6 0 0 1 27.8-5.6 119.4 119.4 0 0 1 27.5 2.8 177.1 177.1 0 0 1 26 7.8l-6.1 1c2.6-2.1 5.1-4.3 7.9-6.7s2.8-2.4 4.5-3.6a39.2 39.2 0 0 1 5.3-3.2 41.4 41.4 0 0 1 11.7-3.6 55.8 55.8 0 0 1 5.7-.8l2.7-.2h2.9a41.6 41.6 0 0 1 12.2 1.4 53.6 53.6 0 0 1 11 4.3l9.4 5.1c3 1.6 5.9 3.1 8.9 4.5h-5a102.5 102.5 0 0 1 24.2-7.1 74.7 74.7 0 0 1 25.8.6 72.6 72.6 0 0 1 23.8 10 91.8 91.8 0 0 1 19 16.6l-6.1-1.9a40.7 40.7 0 0 1 15.7-1.4 36.9 36.9 0 0 1 15.2 5.7c8.9 5.9 14.5 13.5 20.4 19.5l4.4 4.1 2.2 1.8 2.7 1.9 10.9 7.8 21.6 15.9 10.8 7.9 10.8 8 10.7 8 5.4 4 2.7 2 2.8 2.1a112.5 112.5 0 0 1 19.7 19.9 63.8 63.8 0 0 1 7.4 12.3 33.5 33.5 0 0 1 3.1 14.3 2.6 2.6 0 0 1-2.6 2.5 2.7 2.7 0 0 1-2.4-1.9 35.3 35.3 0 0 0-5.2-10.9 73.6 73.6 0 0 0-8-9.7 154.6 154.6 0 0 0-19.5-16.5l-21.8-15.3-11-7.7-11-7.8-21.8-15.5-10.9-7.9-2.7-2a24.3 24.3 0 0 1-3-2.4 66 66 0 0 1-5.4-5.1c-3.3-3.4-6.2-6.8-9.1-9.9a49.4 49.4 0 0 0-8.7-8 23.3 23.3 0 0 0-9.5-4 31.2 31.2 0 0 0-10.9.5h-.3a6 6 0 0 1-5.9-2 83.2 83.2 0 0 0-16.5-14.4 58 58 0 0 0-19.6-8.2 59.1 59.1 0 0 0-21.4-.5 90.7 90.7 0 0 0-21.1 6.2 6.2 6.2 0 0 1-5 0c-6.8-3-13.1-6.9-18.9-9.8a39.7 39.7 0 0 0-8.5-3.4 27.4 27.4 0 0 0-8.6-1h-2.3l-2.5.2-4.7.7a28.8 28.8 0 0 0-8.3 2.5 19.3 19.3 0 0 0-3.6 2.2l-3.7 2.9c-2.6 2.2-5.3 4.7-8.2 6.9a6.2 6.2 0 0 1-6.1 1 176.7 176.7 0 0 0-24.2-7.3 108.7 108.7 0 0 0-24.6-2.5 68.1 68.1 0 0 0-23.4 4.6 60.2 60.2 0 0 0-19.6 13.1 5.9 5.9 0 0 1-4.4 1.9h-.1a66.3 66.3 0 0 0-26.8 6.4 110.7 110.7 0 0 0-12.6 6.9c-4 2.6-8 5.5-11.9 8.5-7.7 6.1-15.2 12.8-22.7 19.6-3.8 3.5-7.6 6.9-11.6 10.3-2 1.7-4 3.4-6.1 5a39.2 39.2 0 0 1-3.2 2.5l-3.2 2.3c-16.3 11.9-32.4 24.3-47.6 37.4-3.8 3.3-7.6 6.6-11.2 10s-7.1 7-10.5 10.7a89.2 89.2 0 0 0-9.1 11.4 35 35 0 0 0-3.5 6.2 19.5 19.5 0 0 0-1.9 6.4 2.4 2.4 0 0 1-2.7 2.2 2.5 2.5 0 0 1-2.3-2.4z"></path><path fill="#31323d" d="M1317.5 826a42.1 42.1 0 0 1 3 8.4 34.4 34.4 0 0 1 .9 9 47.6 47.6 0 0 1-3.9 16.3 77 77 0 0 1-3.3 7.1c-1.2 2.4-2.5 4.7-3.8 6.9-2.7 4.4-5.7 8.6-8.7 12.7-5.9 8.1-11.9 15.7-16.3 24.2a66.6 66.6 0 0 0-5.1 13.2 53.8 53.8 0 0 0-1.2 7 39.8 39.8 0 0 0 .1 6.9 2.5 2.5 0 0 1-2.3 2.7 2.5 2.5 0 0 1-2.7-2.1 42 42 0 0 1-.5-7.9 51.6 51.6 0 0 1 .8-7.9 68.3 68.3 0 0 1 4.8-14.9 125.6 125.6 0 0 1 7.2-13.6l8.1-12.6c2.7-4.2 5.2-8.3 7.5-12.5 1.1-2.1 2.1-4.2 3-6.4s1.8-4.4 2.6-6.6a39.5 39.5 0 0 0 2.2-12.7 23.7 23.7 0 0 0-3.4-11.3 6.2 6.2 0 1 1 10.7-6.4l.2.4z"></path><path fill="#31323d" d="M1415.3 823.6l-31.4 35.5-7.8 8.8c-2.6 3-5.2 5.9-7.3 8.8a26.4 26.4 0 0 0-4.7 9.5 14.9 14.9 0 0 0 .6 9.8 2.5 2.5 0 0 1-1.2 3.3 2.4 2.4 0 0 1-3.2-1 20.6 20.6 0 0 1-2-13.3 26.8 26.8 0 0 1 1.8-6.3 38.1 38.1 0 0 1 2.9-5.7 110.8 110.8 0 0 1 7.1-10l7.1-9.4 28.4-37.9a6.1 6.1 0 0 1 8.7-1.2 6.2 6.2 0 0 1 1.3 8.7z"></path><path fill="#31323d" d="M1487.4 813.9a101.4 101.4 0 0 1 8.3 9.2c2.6 3.1 5 6.1 7.5 8.9l1.9 2 2 2 4.3 4.3c2.8 2.8 5.6 5.8 8.3 9a84 84 0 0 1 7.3 10.1 55.3 55.3 0 0 1 5.1 11.7 40.9 40.9 0 0 1 1.9 12.6 34.3 34.3 0 0 1-2.6 12.6 2.4 2.4 0 0 1-3.3 1.3 2.5 2.5 0 0 1-1.4-3.1h.1c2.3-6.9 1.5-14.5-1.1-21.2s-7.2-12.8-12.5-18.2a104.7 104.7 0 0 0-8.4-7.8l-4.4-3.8-2.4-2-2.3-2.1c-3-2.8-5.8-5.8-8.6-8.6a84.2 84.2 0 0 0-8.2-7.7 6.3 6.3 0 1 1 8.1-9.6l.3.3z"></path><path fill="#31323d" d="M1571 827.3a60.6 60.6 0 0 1 7.5 14.2 100.1 100.1 0 0 1 4.4 14.5c2.3 9.7 3.9 19 6.9 27.7a76.2 76.2 0 0 0 34.5 41.1 3.5 3.5 0 0 1 1.3 4.8 3.5 3.5 0 0 1-4.6 1.4 84.2 84.2 0 0 1-40.3-43.9c-3.8-9.5-5.9-19.2-8.5-28.2s-5.9-17.5-11.1-24a6.3 6.3 0 0 1 9.7-7.9c0 .1.1.2.1.3z"></path><path fill="#31323d" d="M1074.9 1180.5l-1.4 2.9-1.4 2.7c-.9 1.8-1.9 3.5-2.9 5.2-2 3.4-4.2 6.8-6.4 10a176.4 176.4 0 0 1-14.8 18.5c-2.7 2.9-5.4 5.8-8.2 8.6l-2.1 2-2.2 2-4.3 4a115.4 115.4 0 0 0-14.6 15.8 128 128 0 0 0-20.2 38.1 89.5 89.5 0 0 0-4.5 20.6 66.5 66.5 0 0 0 .1 10 47 47 0 0 0 2.5 9.6 102.7 102.7 0 0 0 9.3 19.2 144.5 144.5 0 0 0 12.7 17.8 139.8 139.8 0 0 0 32.3 29.1l4.6 2.9 5.1 3.2a115 115 0 0 1 9.7 7.1c3.1 2.5 6 5.2 8.8 7.9s5.6 5.6 8.2 8.6 5.1 6 7.4 9.1 4.6 6.4 6.7 9.7a140.6 140.6 0 0 1 11.1 20.6 2.6 2.6 0 0 1-1.4 3.3 2.5 2.5 0 0 1-3-1h-.1l-3.1-4.5-3.3-4.6c-2.3-3-4.6-5.9-7-8.8s-4.8-5.7-7.3-8.5-5-5.4-7.7-8a160.6 160.6 0 0 0-16.6-14.3 101.8 101.8 0 0 0-9-6.1c-1.5-1-3.1-1.9-4.7-2.8s-3.5-1.9-5.1-3a155.6 155.6 0 0 1-36-31.2 157.3 157.3 0 0 1-14-19.2 115.6 115.6 0 0 1-10.8-21.7 61.9 61.9 0 0 1-3.2-12.5 69.9 69.9 0 0 1-.2-12.9 106.8 106.8 0 0 1 5.1-24 134 134 0 0 1 9.5-22 117.1 117.1 0 0 1 6.2-10.3 115.6 115.6 0 0 1 7-9.8 124 124 0 0 1 16.5-17.5l4.2-3.7 2.1-1.9 2-1.9c2.7-2.5 5.2-5.2 7.7-7.8a176.8 176.8 0 0 0 14-17.1c2.1-2.9 4.1-6 6.1-9.1.9-1.5 1.9-3.1 2.7-4.6s.9-1.6 1.3-2.4l1.1-2.2v-.2a6.2 6.2 0 0 1 8.3-3 6.3 6.3 0 0 1 3.2 8.1z"></path><path fill="#31323d" d="M1766.3 1456c.1-2.3.2-4.4.5-6.5s.6-4.3 1-6.4a107.9 107.9 0 0 1 3.3-12.4 88.8 88.8 0 0 1 11.9-23.1 82.5 82.5 0 0 1 18.6-18.7l2.8-1.9 2.6-1.8 2.5-1.6 2.5-1.6c3.2-2.3 6.3-4.7 9.4-7.3a182.7 182.7 0 0 0 32.2-35.2 157.1 157.1 0 0 0 12.2-20.4 99.8 99.8 0 0 0 8.2-21.6l.3-1.3.2-1.4a24.2 24.2 0 0 0 .3-2.5 21.7 21.7 0 0 0 0-5.1 39.5 39.5 0 0 0-2.2-10.4 80.7 80.7 0 0 0-10.7-20 129.6 129.6 0 0 0-15.2-17.9c-2.8-2.8-5.7-5.4-8.7-7.9l-4.9-3.9-4.9-4.2a230.7 230.7 0 0 1-58.5-82.8 6.8 6.8 0 0 1 3.6-8.8 6.7 6.7 0 0 1 8.7 3.5 236.5 236.5 0 0 0 23.7 41.9 220.8 220.8 0 0 0 31.9 35.7l4.5 3.8 4.8 3.9c3.4 2.8 6.6 5.7 9.7 8.8a146.1 146.1 0 0 1 16.8 19.9 97.8 97.8 0 0 1 12.3 23.6 57.3 57.3 0 0 1 2.8 13.8 45.7 45.7 0 0 1 0 7.4c-.2 1.2-.3 2.5-.5 3.6l-.4 1.7-.3 1.6a111 111 0 0 1-9.5 24.7 190.2 190.2 0 0 1-13.6 21.9c-2.5 3.4-5.1 6.8-7.8 10.1s-5.5 6.5-8.4 9.6a164.7 164.7 0 0 1-18.9 17.5c-3.3 2.7-6.8 5.2-10.4 7.6l-2.7 1.7-2.8 1.7-2.5 1.6-2.5 1.5a88 88 0 0 0-9.1 7 79.4 79.4 0 0 0-8 8.4 88.6 88.6 0 0 0-12.4 19.9 106.7 106.7 0 0 0-4.4 11.1c-.6 1.9-1.2 3.8-1.7 5.8s-1 3.9-1.3 5.7a2.5 2.5 0 0 1-2.9 2.1 2.6 2.6 0 0 1-2.1-2.4z"></path><path fill="none" stroke="#31323d" stroke-linecap="round" stroke-miterlimit="10" stroke-width="12.5" d="M1044.3 1401.2s19.2 105.6-7.5 184.9-59.6 135.4-61.1 203.4"></path><path fill="none" stroke="#31323d" stroke-linecap="round" stroke-miterlimit="10" stroke-width="12.5" d="M1815.8 1392.1s16.5 101.2 52.7 175.4c37.3 76.4 51.8 90.3 64.5 161.2"></path></g></g><g id="eye"><defs><linearGradient id="eyeColor1" x2="0%" y2="100%"><stop offset="0%" stop-color="#828282"></stop></linearGradient><linearGradient id="eyeColor2" x2="0%" y2="100%"><stop offset="0%" stop-color="#828282"></stop></linearGradient></defs><defs><clipPath id="eyeClipPath"><circle cx="1696" cy="1101.3" r="129.7" transform="rotate(-68.1 1696.37388916 1101.3227275)" fill="#fff" stroke="#31323d" stroke-linecap="round" stroke-miterlimit="10" stroke-width="10"></circle></clipPath><clipPath id="eyeClipPath2"><circle cx="1168.9" cy="1127" r="129.7" transform="rotate(-23.1 1170.57230332 1127.99609272)" fill="#fff" stroke="#31323d" stroke-linecap="round" stroke-miterlimit="10" stroke-width="10"></circle></clipPath></defs><path fill="none" d="M3000 3010L0 3000 0 0 3000 10 3000 3010z"></path><circle cx="1696" cy="1101.3" r="129.7" transform="rotate(-68.1 1696.37388916 1101.3227275)" fill="#fff"></circle><g clip-path="url(#eyeClipPath)"><circle cx="1686.2" cy="1102.4" r="105.1" transform="rotate(-83.2 1685.61181377 1102.48410147)" fill="url(#eyeColor1)"></circle><circle cx="1682.8" cy="1103.5" r="83" transform="rotate(-83.2 1682.21022125 1103.59307204)" fill="#31323d"></circle><circle cx="1738.2" cy="1045.5" r="44.2" transform="rotate(-83.2 1737.6065591 1045.62246994)" fill="#fff"></circle></g><circle cx="1696" cy="1101.3" r="129.7" transform="rotate(-68.1 1696.37388916 1101.3227275)" fill="none" stroke="#31323d" stroke-linecap="round" stroke-miterlimit="10" stroke-width="10"></circle><path d="M1763.9 938.4c-69.4-36-117.5-25.9-164.1 24M1109.8 968.4c69.4-36 117.5-25.9 164.1 24" fill="none" stroke="#31323d" stroke-linecap="round" stroke-miterlimit="10" stroke-width="30"></path><circle cx="1168.9" cy="1127" r="129.7" transform="rotate(-23.1 1170.57230332 1127.99609272)" fill="#fff"></circle><g clip-path="url(#eyeClipPath2)"><circle cx="1180.2" cy="1126.6" r="105.1" transform="rotate(-7.5 1185.37964878 1131.12230357)" fill="url(#eyeColor2)"></circle><circle cx="1177.2" cy="1128.5" r="83" transform="rotate(-7.5 1182.94109102 1133.26086132)" fill="#31323d"></circle><circle cx="1216.4" cy="1058.6" r="44.2" transform="rotate(-7.5 1222.01945732 1063.0398658)" fill="#fff"></circle></g><circle cx="1168.9" cy="1127" r="129.7" transform="rotate(-23.1 1170.57230332 1127.99609272)" fill="none" stroke="#31323d" stroke-linecap="round" stroke-miterlimit="10" stroke-width="10"></circle><path d="M1795.8 1183.6a129.4 129.4 0 0 1-207-9.8s38.7-10.9 103.5-7.4S1795.8 1183.6 1795.8 1183.6zM1068.9 1209.7a129.4 129.4 0 0 0 207-9.8s-38.7-10.9-103.5-7.4S1068.9 1209.7 1068.9 1209.7z" fill="#ecd1eb"></path><path d="M1795.8 1183.6a129.4 129.4 0 0 1-207-9.8s38.7-10.9 103.5-7.4S1795.8 1183.6 1795.8 1183.6zM1068.9 1209.7a129.4 129.4 0 0 0 207-9.8s-38.7-10.9-103.5-7.4S1068.9 1209.7 1068.9 1209.7z" fill="none" stroke="#31323d" stroke-linecap="round" stroke-miterlimit="10" stroke-width="10"></path></g><g id="mouth"><path d="M1376.1,1398.1s3.7,72.6,64.6,70.2c58.9-2.3,65.5-70.3,65.5-70.3s-21.2,30.3-59.3,30.7S1376.1,1398.1,1376.1,1398.1Z" fill="#595959" opacity=".2" style="mix-blend-mode:multiply"></path><path d="M1441.1,1206.7l0.7,4.9c0.2,1.5.5,3.5,0.8,5.6l1.2,7.1,1.5,8.4c0.6,3,1.2,6.1,1.9,9.3l1.1,4.9,0.6,2.5,0.6,2.5,1.3,5.1,1.4,5.1c0.5,1.7,1,3.4,1.5,5.1s1,3.4,1.6,5l1.7,4.9,1.8,4.7c0.6,1.6,1.2,3,1.8,4.5s1.2,2.9,1.8,4.3l1.8,4,1.8,3.7c1.1,2.4,2.4,4.5,3.4,6.4l2.8,4.8,2.6,4.1h0a1.5,1.5,0,0,1-2.4,1.7l-3.1-3.9-3.4-4.6c-1.2-1.8-2.7-3.9-4.1-6.2l-2.3-3.6-2.3-3.9c-0.8-1.3-1.5-2.8-2.3-4.2s-1.6-2.9-2.3-4.4l-2.3-4.7-2.2-4.8c-0.8-1.6-1.5-3.3-2.2-4.9s-1.5-3.3-2.1-5l-2-5.1-1.9-5.1-0.9-2.5-0.9-2.5-1.7-4.9c-1-3.2-2.1-6.4-3-9.4l-2.5-8.5-2-7.2c-0.6-2.2-1-4-1.4-5.5l-1.2-4.8a7.5,7.5,0,1,1,14.6-3.7Z" fill="#31323d"></path><path d="M1395,1323.2l0.9-1.2,2.5-3.5,1.6-2.5c0.6-.9,1.3-1.9,1.9-3l2-3.5c0.7-1.2,1.3-2.6,2-4l1.1-2.1,1-2.3c0.7-1.5,1.4-3.1,2.1-4.8l2-5.1c0.6-1.8,1.2-3.6,1.9-5.4s1.2-3.8,1.7-5.7,1.2-3.9,1.6-5.9l1.5-6,1.3-6.1c0.5-2,.8-4.1,1.2-6.1s0.7-4.1,1.1-6.1l0.9-6,0.4-3,0.3-2.9c0.4-3.9.9-7.6,1.2-11.2s0.6-7,.8-10.1l0.5-8.5,0.2-6.6,0.2-5.7v-0.2a7.5,7.5,0,0,1,15,.5c0,0.2,0,.4-0.1.7l-0.7,5.9-0.8,6.7-1.3,8.7c-0.4,3.2-1.1,6.6-1.7,10.3s-1.4,7.5-2.2,11.4l-0.6,3-0.7,3-1.4,6.1c-0.5,2.1-1.1,4.1-1.6,6.2s-1.1,4.2-1.8,6.2l-1.9,6.2-2.1,6.1c-0.7,2-1.5,4-2.2,5.9s-1.5,3.9-2.3,5.7l-2.4,5.5-2.5,5.1c-0.8,1.7-1.8,3.2-2.6,4.8l-1.2,2.3-1.3,2.1c-0.9,1.4-1.6,2.7-2.5,3.9l-2.4,3.4c-0.7,1.1-1.5,2.1-2.2,3l-1.9,2.5-2.8,3.2-1,1.1A1.5,1.5,0,0,1,1395,1323.2Z" fill="#31323d"></path><path d="M1368.2,1174.4a15,15,0,0,1,3.6-15.9c9-8.8,28.2-21.6,63.8-21.8s52.5,12.2,60.5,21a14.9,14.9,0,0,1,2.5,16.1h0a20.8,20.8,0,0,1-18.3,12.3c-10,.3-23.9,3.3-32.7,15.8a13.2,13.2,0,0,1-1.9,2.2l-0.3.3a17.7,17.7,0,0,1-25.3-1.5h0s-7.3-12.5-34.1-14.6a20.7,20.7,0,0,1-17.7-13.5v-0.3Z" fill="#31323d"></path><path d="M1509.9,1395l-0.5,1.8c-0.2.6-.3,1.3-0.6,2.1l-1.1,3-1.6,3.6c-0.7,1.3-1.3,2.7-2.2,4a56.1,56.1,0,0,1-6.6,9,63,63,0,0,1-9.9,8.9l-3,2-3.2,1.9c-2.2,1.2-4.4,2.4-6.8,3.4s-4.8,1.9-7.4,2.7l-3.9,1.1-3.9.9a77.5,77.5,0,0,1-16.3,1.3,81.8,81.8,0,0,1-16.2-2,83.6,83.6,0,0,1-14.9-4.9l-0.9-.4-0.4-.2h-0.5l-1.6-.8-3.3-1.7c-2.2-1.2-4.2-2.4-6.1-3.7a76.6,76.6,0,0,1-10.2-8.1,75.2,75.2,0,0,1-7.4-8,71.1,71.1,0,0,1-4.7-6.9c-0.6-1-1.1-1.9-1.5-2.7l-1-2-0.8-1.7a2.5,2.5,0,0,1,4.1-2.8h0.1l1.2,1.3,3.4,3.6c1.5,1.5,3.4,3.2,5.6,5.1s4.8,3.8,7.7,5.8a91.1,91.1,0,0,0,9.8,5.7l2.7,1.3,2.8,1.2,3,1.2,1.6,0.6,1.4,0.5a85.9,85.9,0,0,0,12.8,3.3,81.6,81.6,0,0,0,13.5,1.3,80.6,80.6,0,0,0,13.5-1l3.3-.6,3.2-.7c2.1-.5,4.2-1.1,6.2-1.8s3.9-1.4,5.8-2.3l2.7-1.3,2.6-1.4a65.7,65.7,0,0,0,9.2-6.1,60.7,60.7,0,0,0,7-6.4,72.2,72.2,0,0,0,4.8-5.6l1.6-2.2c0.5-.6.9-1.3,1.2-1.8l1-1.5A2.5,2.5,0,0,1,1509.9,1395Z" fill="#31323d"></path><path d="M1486.7,1248.7l4.1,0.2,11.6,0.7c10,0.7,24.2,2,41.1,4.6a545.1,545.1,0,0,1,57.2,11.7c10.3,2.7,20.9,5.8,31.6,9.4s21.3,7.6,31.7,12.1,20.7,9.5,30.5,14.9a301.1,301.1,0,0,1,27.9,17.4,260,260,0,0,1,24,19.2,220.6,220.6,0,0,1,19.2,19.7,202.8,202.8,0,0,1,14.1,18.4l2.7,4.2,2.5,4,2.2,3.7,1.9,3.4c1.2,2.1,2.2,4.1,3.1,5.8s1.6,3.2,2.2,4.4l1.7,3.7-1.8-3.6c-0.6-1.2-1.3-2.6-2.3-4.3s-2-3.6-3.2-5.7l-2-3.4-2.3-3.6-2.6-3.9-2.8-4.1a201.6,201.6,0,0,0-14.5-17.9,218.6,218.6,0,0,0-19.6-19,257.2,257.2,0,0,0-24.2-18.3,297.5,297.5,0,0,0-28-16.4c-9.8-5.1-20.1-9.7-30.5-13.9s-21.1-7.8-31.6-11.1-21.1-6-31.4-8.4a537.4,537.4,0,0,0-56.7-9.9c-16.7-2-30.7-3-40.5-3.4l-11.3-.4h-4.1a5,5,0,1,1,.1-10h0.1Z" fill="#31323D"></path><path d="M1654.6,1234.4l-1.5-1.1-4.3-2.9-6.8-4.2c-2.7-1.6-5.7-3.2-9.2-4.9l-5.4-2.5-2.9-1.3-3-1.2-3.1-1.2-3.2-1.1-3.3-1.1-3.4-1c-2.3-.7-4.6-1.2-7-1.8s-4.8-1-7.2-1.5-4.9-.7-7.4-1.1-5-.5-7.5-0.7-5-.2-7.5-0.3h-7.5l-3.7.2-3.6.3c-2.4.3-4.8,0.5-7,.9-4.6.7-9,1.7-13.2,2.7s-8,2.2-11.5,3.5l-5,1.8-4.4,1.8-7.1,3.3-4.4,2.3-1.5.9h-0.1a5,5,0,1,1-4.8-8.8h0.3l1.7-.8,4.9-2.2,7.7-3,4.8-1.7,5.4-1.6c3.8-1.1,7.9-2,12.4-2.9s9.1-1.6,14-1.9c2.4-.3,4.9-0.3,7.4-0.5h11.4l3.9,0.3c2.6,0.2,5.2.3,7.7,0.8s5.2,0.6,7.7,1.2,5.1,0.9,7.5,1.6,4.9,1.2,7.3,2,4.7,1.4,7,2.3l3.4,1.2,3.3,1.3,3.2,1.3,3,1.4,3,1.4,2.8,1.4,5.3,2.9c3.3,1.9,6.3,3.8,8.9,5.5s4.8,3.3,6.6,4.7l4.1,3.2Z" fill="#31323D"></path><path d="M1494.6,1274.5l7.8,0.7,4.3,0.7,5.1,0.9c3.5,0.9,7.5,1.7,11.7,3.1l3.2,1,3.3,1.3,3.4,1.3,3.4,1.5,3.5,1.6c1.2,0.5,2.3,1.2,3.5,1.8l3.5,1.9,3.5,2.1,3.5,2.2,3.4,2.4,3.4,2.5,3.4,2.6,1.7,1.3,1.6,1.4,3.3,2.8c2.2,1.9,4.2,3.9,6.3,5.9,4.1,4.1,8.1,8.2,11.7,12.5s7.1,8.6,10.3,12.9,6.1,8.6,8.8,12.7,5,8.1,7.2,11.8,4,7.2,5.5,10.2,2.9,5.8,4,8.1c2.1,4.5,3.1,7.2,3.1,7.2s-1.2-2.6-3.5-7c-1.2-2.2-2.6-4.8-4.4-7.8s-3.8-6.3-6.1-9.9-4.9-7.4-7.8-11.3-6-8-9.3-12.1-7-8.2-10.8-12.1-7.9-7.8-12.1-11.6l-6.5-5.3-3.3-2.5-1.7-1.2-1.7-1.2-3.4-2.3-3.4-2.2-3.4-2.1-3.4-1.9-3.4-1.8-3.4-1.6c-1.1-.5-2.2-1.1-3.4-1.5l-3.3-1.3-3.3-1.3-3.2-1.1-3.1-1-3-.8c-3.9-1.1-7.7-1.7-10.9-2.3l-4.5-.5-3.8-.4-7.8-.3a5,5,0,0,1,.4-10h0.3Z" fill="#31323D"></path><path d="M1378.3,1255.9h-15.8c-10,0-24.3,0-41.3.6-8.5.3-17.8,0.7-27.5,1.4s-20,1.6-30.6,2.8-21.5,2.8-32.5,4.8-22.1,4.4-33.1,7.3a334.8,334.8,0,0,0-32.3,10.3c-5.2,1.9-10.4,4.1-15.4,6.3s-9.9,4.6-14.6,7.1a200.5,200.5,0,0,0-47.2,33.9,165.1,165.1,0,0,0-15.5,17.4c-1.1,1.3-2,2.7-3,4l-2.7,3.8-2.4,3.6-2.1,3.4c-1.3,2.1-2.4,4.1-3.4,5.8l-1.3,2.4-1,2-1.9,3.7,1.8-3.7,1-2,1.2-2.4c0.9-1.7,1.9-3.7,3.2-5.9l2-3.4,2.3-3.7c0.8-1.3,1.7-2.6,2.6-3.9s1.8-2.8,2.9-4.1a166.3,166.3,0,0,1,15.1-18,202.9,202.9,0,0,1,46.8-35.6c4.7-2.7,9.6-5.2,14.6-7.6s10.1-4.7,15.4-6.8a339.3,339.3,0,0,1,32.4-11.3c11-3.3,22.2-6,33.3-8.4s22.1-4.2,32.8-5.8,21-2.7,30.9-3.7,19.2-1.6,27.8-2.1c17.2-1,31.6-1.4,41.6-1.7l15.7-.4h0a5,5,0,0,1,.3,10h-0.1Z" fill="#31323D"></path><path d="M1203.3,1240.3l1.5-1.2,4.3-3.4,3.2-2.3,1.8-1.3,2-1.3c2.7-1.9,5.9-3.8,9.5-5.8l5.6-3,6.1-3c4.3-1.9,8.9-3.8,13.7-5.4l3.7-1.2,3.8-1.1,3.8-1.1,3.9-.9,4-.9,4-.7,4.1-.6,4.1-.5,2.1-.2h2.1l4-.2h8.2l8.1,0.3,7.9,0.7c2.6,0.4,5.1.6,7.6,1.1l3.7,0.6,3.5,0.8c4.7,1,9,2.2,13,3.4s7.6,2.6,10.7,3.8l4.4,1.8,3.7,1.7,5.1,2.5,1.8,0.9a5,5,0,1,1-4.6,8.9h-0.3l-1.6-1-4.6-2.6-3.4-1.8-4-2c-2.9-1.4-6.2-2.8-9.9-4.2s-7.7-2.8-12.1-4l-3.3-.9-3.4-.8c-2.3-.6-4.7-1-7.1-1.5l-7.5-1.1-7.7-.7-3.9-.2h-11.9l-4,.2-4,.4-3.9.4-3.9.6-3.9.6-3.8.8-3.7.8-3.7,1c-4.8,1.3-9.4,2.9-13.7,4.5l-6.2,2.6-5.7,2.7c-3.6,1.8-6.9,3.5-9.7,5.2l-2.1,1.2-1.9,1.2-3.3,2.1-4.5,3.1Z" fill="#31323D"></path><path d="M1370.4,1281.7l-7.8-.3-3.8.2h-3.3l-1.2.2-5.2.7-5.7,1.2-1.5.3-1.5.4-3.1.9c-2.2.5-4.3,1.4-6.5,2.2s-4.4,1.9-6.7,2.9l-1.7.8-1.7.9-3.4,1.8-3.4,2-3.4,2.1-6.7,4.6a163.1,163.1,0,0,0-13,10.6l-3.1,2.9-3,3c-2,1.9-3.9,4-5.9,6l-5.5,6.2c-1.7,2.1-3.5,4.1-5.2,6.2l-2.5,3.1-2.4,3.1c-1.6,2-3,4.1-4.4,6.1l-4.1,5.9-3.6,5.6c-2.3,3.6-4.3,7-6.1,10s-3.2,5.7-4.4,7.9c-2.4,4.4-3.6,7-3.6,7s1.1-2.7,3.2-7.2c1.1-2.3,2.4-5,4-8.1s3.4-6.6,5.6-10.3l3.4-5.8,3.8-6.1c1.3-2.1,2.7-4.2,4.1-6.4l2.2-3.3,2.3-3.3c1.5-2.2,3.2-4.4,4.9-6.6l5.3-6.6c1.9-2.1,3.7-4.4,5.6-6.5l2.9-3.2,3-3.1a168.4,168.4,0,0,1,12.8-11.7l6.8-5.2,3.5-2.4c1.2-.8,2.3-1.6,3.5-2.3l3.5-2.1,1.7-1,1.8-.9c2.4-1.2,4.6-2.5,7-3.5s4.6-2.1,6.9-2.8l3.4-1.2,1.6-.6,1.6-.4,6.2-1.6,5.7-1,1.3-.2h1.3l2.5-.2,4.5-.4h7.9a5,5,0,0,1,.1,10h-0.3Z" fill="#31323D"></path></g></svg>