<svg width="64" height="64" xmlns="http://www.w3.org/2000/svg" xmlns:xlink="http://www.w3.org/1999/xlink"><defs><linearGradient x1="50%" y1="0%" x2="50%" y2="99.49%" id="b"><stop stop-color="#FFF594" offset="0%"/><stop stop-color="#FEDE89" offset="100%"/></linearGradient><rect id="a" x="0" y="0" width="62" height="62" rx="31"/><path d="M27.992 2.37C25.962.987 20.612 0 14.329 0 7.887 0 2.425 1.038.52 2.476c-.168.127.494 6.024.672 5.991C7.194 7.37 11.53 6.82 14.2 6.82c2.6 0 6.97.52 13.112 1.56.357.06.837-5.902.679-6.01z" id="d"/></defs><g fill="none" fill-rule="evenodd"><g transform="translate(1 1)"><mask id="c" fill="#fff"><use xlink:href="#a"/></mask><use fill="url(#b)" xlink:href="#a"/><ellipse fill="#000" style="mix-blend-mode:soft-light" mask="url(#c)" cx="31.5" cy="52.5" rx="14.5" ry="2.5"/></g><g transform="translate(12.525 12)"><path d="M33.431 25.622l1.44-18.818c0-3.288-6.663-6.379-14.884-6.379-8.22 0-14.884 3.091-14.884 6.38l1.44 18.817h26.888z" fill="#FDD531"/><g transform="translate(5.71 16.656)"><mask id="e" fill="#fff"><use xlink:href="#d"/></mask><g mask="url(#e)"><path fill="#45F0F4" d="M13.074-.5h6.476L14.547 9.91H8.071z"/><path d="M6.66-.5h6.475L8.132 9.91c-4.15 1.183-6.309 1.183-6.476 0C1.332 7.623 3 4.153 6.659-.5z" fill="#FCDF35"/><path fill="#7C40FF" d="M19.489-.5h6.476L20.962 9.91h-6.476z"/><path fill="#EF52D1" d="M25.162.49l4.285.675-.29 7.198h-7.523z"/><path d="M.244-.5H6.72C4.401 3.723 2.734 7.194 1.717 9.91c-1.304 1.183-3.463 1.183-6.476 0L.244-.5z" fill="#FFB880"/></g></g><ellipse fill="#FFF" cx="19.988" cy="30.274" rx="19.562" ry="6.006"/></g><path d="M43.062 36.687l1.936.672 1.815-18.845c-.637-.716-1.101-1.242-1.987-1.703l-1.764 19.876z" fill="#FFF" style="mix-blend-mode:hard-light"/><path d="M24.187 36.375l-4.94 1.58-1.31-20.393c.425-.477 2.196-1.602 5.313-3.375l.937 22.188z" fill="#000" style="mix-blend-mode:soft-light"/><path d="M31.755 48.28c10.386 0 18.534-2.41 18.534-5.382 0-2.972-7.672-5.467-18.058-5.467s-19.28 1.547-19.28 5.467 8.419 5.382 18.804 5.382z" fill="#FFAF10"/><g transform="translate(12.159 12)"><path d="M33.361 25.622l1.877-19.436C32.608 2.855 26.66.476 20.354.476c-6.306 0-12.493 2.14-14.885 5.71l1.877 19.436" stroke="#781919" stroke-width="1.5" stroke-linejoin="round"/><ellipse stroke="#781919" stroke-width="1.2" cx="20.354" cy="30.274" rx="19.562" ry="6.305"/><path d="M39.916 29.92c0-3.482-8.759-6.67-19.562-6.67C9.55 23.25.79 26.438.79 29.92" stroke="#781919" stroke-width="1.25" stroke-linecap="round"/><path d="M34.318 19.58c-2.184-1.39-7.968-2.873-13.885-2.873-5.866 0-11.935 1.535-14.036 2.982" stroke="#781919" stroke-width="1.5"/><ellipse fill="#781919" cx="20.354" cy="30.727" rx="13.417" ry="3.629"/></g><path d="M52.685 35.878c2.014-.704 2.115-.882 2.94-2.94.8 1.982.902 2.185 2.992 2.994-2.103.828-2.243.968-2.939 2.939-.814-1.946-.916-2.098-2.993-2.993zM34.55 15.5c3.372-1.206 3.544-1.504 4.95-4.95 1.307 3.294 1.473 3.632 4.95 4.95-3.523 1.415-3.758 1.65-4.95 4.95-1.33-3.235-1.496-3.488-4.95-4.95zM7.19 22.587c1.973-.69 2.073-.864 2.88-2.88.785 1.942.885 2.14 2.934 2.933-2.062.812-2.198.95-2.88 2.88-.799-1.906-.898-2.055-2.934-2.933z" fill="#FFF"/></g></svg>