<svg width="64" height="64" xmlns="http://www.w3.org/2000/svg" xmlns:xlink="http://www.w3.org/1999/xlink"><defs><rect id="a" x="1" y="1" width="62" height="62" rx="31"/><path d="M32.759.5v4c0 2.761-7.164 5-16 5-8.837 0-16-2.239-16-5v-4h32z" id="c"/><linearGradient x1="50%" y1="0%" x2="50%" y2="100%" id="e"><stop stop-color="#FFF" offset="0%"/><stop stop-color="#FFF" stop-opacity=".666" offset="76.33%"/><stop stop-color="#FFF" stop-opacity="0" offset="100%"/></linearGradient></defs><g fill="none" fill-rule="evenodd"><mask id="b" fill="#fff"><use xlink:href="#a"/></mask><use fill="#FEDFF9" xlink:href="#a"/><ellipse fill="#C68EBD" fill-rule="nonzero" mask="url(#b)" cx="31.937" cy="49.968" rx="16.5" ry="5.156"/><g mask="url(#b)"><g transform="translate(15 41)" stroke="#7D3367" stroke-width="1.5" fill-rule="nonzero"><ellipse cx="17" cy="5.313" rx="16.25" ry="4.563"/><path d="M2.146 6.58v.452c0 2.026 6.617 4.094 14.75 4.094s14.75-2.068 14.75-4.094V6.58c-2.578 1.937-8.206 3.14-14.75 3.14-6.544 0-12.172-1.203-14.75-3.14z" fill="#BD5FDE"/></g><g transform="translate(15.241 40.5)"><mask id="d" fill="#fff"><use xlink:href="#c"/></mask><use fill="#BD5FDE" fill-rule="nonzero" xlink:href="#c"/><path fill="#45F0F4" mask="url(#d)" d="M15.833-1h6.476L17.306 9.41H10.83z"/><path d="M9.418-1h6.476L10.891 9.41c-4.15 1.183-6.309 1.183-6.476 0C4.09 7.123 5.759 3.653 9.418-1z" fill="#FCDF35" mask="url(#d)"/><path fill="#7C40FF" mask="url(#d)" d="M22.248-1h6.476L23.721 9.41h-6.476z"/><path fill="#EF52D1" mask="url(#d)" d="M27.668.752l4.285.675-.29 7.198H24.14z"/><path d="M3.003-1H9.48C7.16 3.223 5.493 6.694 4.476 9.41c-1.304 1.183-3.463 1.183-6.476 0L3.003-1z" fill="#FBBB76" mask="url(#d)"/></g><path d="M47.25 40.75h-30.5V46c0 2.112 6.841 4.25 15.25 4.25 8.409 0 15.25-2.138 15.25-4.25v-5.25z" stroke="#7D3367" stroke-width="1.5" fill-rule="nonzero"/><g transform="translate(16 34)" fill-rule="nonzero"><ellipse stroke="#7D3367" stroke-width="1.5" fill="#EDA0FF" cx="16" cy="6" rx="15.25" ry="5.25"/><ellipse fill="#BD5FDE" opacity=".759" cx="16" cy="6.107" rx="8" ry="2.313"/></g></g><g mask="url(#b)"><path d="M31.86 33.231l-5.18 3.745a.75.75 0 0 1-1.165-.797l1.557-5.986a.25.25 0 0 0-.082-.256l-4.37-3.62a.75.75 0 0 1 .443-1.326l5.756-.272a.25.25 0 0 0 .222-.16l2.266-5.963a.75.75 0 0 1 1.403 0l2.266 5.962a.25.25 0 0 0 .222.161l5.756.272a.75.75 0 0 1 .443 1.327l-4.372 3.621a.25.25 0 0 0-.084.251l1.446 6.003a.75.75 0 0 1-1.175.779l-5.057-3.739a.25.25 0 0 0-.295-.002z" fill="#FFFF5E"/><path stroke="#FFF" stroke-width="2" stroke-linecap="round" stroke-linejoin="round" fill-rule="nonzero" d="M31.904 18.943l2.582 6.704 5.929.207-4.521 4.15 1.782 5.937"/><path stroke="#FFDC37" stroke-width="2" stroke-linecap="round" stroke-linejoin="round" fill-rule="nonzero" d="M32.167 18.803l-2.731 6.819-6.366.313 4.769 3.931-1.86 6.598 5.65-3.436"/><path d="M31.861 33.208l-5.18 3.744a.75.75 0 0 1-1.166-.796l1.558-5.987a.25.25 0 0 0-.082-.255l-4.37-3.62a.75.75 0 0 1 .443-1.326l5.756-.272a.25.25 0 0 0 .222-.161l2.266-5.962a.75.75 0 0 1 1.402 0l2.267 5.962a.25.25 0 0 0 .222.16l5.756.273a.75.75 0 0 1 .443 1.327l-4.373 3.62a.25.25 0 0 0-.083.252l1.446 6.003a.75.75 0 0 1-1.175.778l-5.057-3.738a.25.25 0 0 0-.295-.002z" stroke="#7D3367" stroke-width="1.5"/></g><g mask="url(#b)"><path d="M30.872 8.751l.5.974-1.089.115C22.057 10.703 15.75 17.664 15.75 26v20c0 2.687 7.262 5.25 16.25 5.25S48.25 48.687 48.25 46V26c0-8.27-6.211-15.197-14.358-16.141l-1.088-.126.51-.969a1.375 1.375 0 1 0-2.442-.013z" stroke="#7D3367" stroke-width="1.5" fill-opacity=".16" fill="#FFF" fill-rule="nonzero"/><path d="M7.083 32.502H4V20.97h.014c.183-4.71 2.128-8.627 4.758-9.971-.946 2.136-1.548 4.734-1.667 7.558h-.022v13.944z" fill="url(#e)" fill-rule="nonzero" opacity=".972" transform="translate(15 6)"/><path d="M38 17.492c1.022-.358 1.074-.448 1.492-1.492.406 1.005.458 1.109 1.519 1.52-1.068.42-1.138.49-1.492 1.49-.413-.987-.465-1.064-1.519-1.518z" fill="#FFF"/></g></g></svg>