<svg width="25" height="25" xmlns="http://www.w3.org/2000/svg"><defs><linearGradient id="a" x1="96.89%" x2="-3.986%" y1="69.427%" y2="69.427%"><stop offset="0%" stop-color="#FFAEAE"/><stop offset="35.014%" stop-color="#FF6DDF"/><stop offset="59.301%" stop-color="#C087FF"/><stop offset="100%" stop-color="#00BDFF"/></linearGradient><linearGradient id="b" x1="96.89%" x2="-3.986%" y1="69.427%" y2="69.427%"><stop offset="0%" stop-color="#FFAEAE"/><stop offset="35.014%" stop-color="#FF7AE2"/><stop offset="59.301%" stop-color="#C087FF"/><stop offset="100%" stop-color="#00FFE9"/></linearGradient></defs><g fill="none" fill-rule="evenodd" transform="translate(2 3)"><ellipse cx="10.5" cy="18.5" fill="#AF00A8" opacity=".25" rx="7.5" ry="1.5"/><path fill="url(#a)" d="M11.31 1.647l7.682 8.96-3.71 1.583H4.186L.51 10.607l7.77-8.968a2 2 0 0 1 3.03.008z" transform="rotate(-180 10.174 8.83)"/><path fill="url(#b)" d="M5.114 16.575l-4.836-5.87 3.776 1.202 10.997.25 3.842-1.253-4.273 5.67z" transform="rotate(-180 10.174 8.83)"/><path fill="#FFF" d="M15.233 1.081l4.439 5.641-3.445-1.187H5.363L1.454 6.722 5.926 1.28z" opacity=".254"/><g fill="#000"><path d="M6.482 1.477l8.592.106L5.05 5.521z" style="mix-blend-mode:soft-light"/><path d="M5.76 1.774L1.388 7.052l8.744 9.435L2.945 6.49z" style="mix-blend-mode:soft-light"/></g><path fill="#FFF" d="M14.895 1.477H6.08l10.245 4.044z" opacity=".5" style="mix-blend-mode:soft-light"/><path fill="#FFF" d="M14.703 1.28l1.508 4.205h-1.508z" style="mix-blend-mode:overlay"/><path fill="#FFF" d="M12.576 5.6l-1.963 11.02L16.16 5.6z" style="mix-blend-mode:soft-light"/><path fill="#000" d="M8.059 5.406l2.65 11.198L5.013 5.406z" opacity=".752" style="mix-blend-mode:soft-light"/><path fill="#FFF" d="M5.098 5.502l5.233 11.48L3.74 6.03l2.066-4.336zm9.556.115l1.474-.115-5.664 11.282z" style="mix-blend-mode:overlay"/><path fill="#FFF" d="M15.664 2.17l2.22 3.926-6.692 10.358 8.877-9.666z" style="mix-blend-mode:overlay"/><g stroke="#8E218A"><path stroke-linecap="square" stroke-linejoin="round" d="M6.203 1.52L4.933 5.6l5.539 11.217M15.11 1.488l1.192 4.113-5.54 11.216"/><path stroke-linecap="round" d="M1.59 7.085L4.9 5.47h11.328l3.467 1.424"/><path stroke-linejoin="round" d="M10.65 17.601L1.72 7.498a1 1 0 0 1-.028-1.292l3.502-4.318a2 2 0 0 1 1.553-.74h7.743a2 2 0 0 1 1.543.727l3.568 4.33a1 1 0 0 1-.022 1.298L10.65 17.601z"/></g><path d="M6.226 5.422c-1.27.557-1.402.829-1.402 2.33-.915-1.114-.915-1.114-2.452-1.093 1.276-.836 1.484-1.106 1.484-3.167.484 1.457.765 1.93 2.37 1.93z" fill="#FFF"/></g></svg>