<svg width="24" height="24" xmlns="http://www.w3.org/2000/svg" xmlns:xlink="http://www.w3.org/1999/xlink"><defs><ellipse id="a" cx="10.656" cy="11.196" rx="10.549" ry="10.554"/><ellipse id="c" cx="10.656" cy="11.196" rx="10.549" ry="10.554"/><ellipse id="e" cx="10.656" cy="11.196" rx="10.549" ry="10.554"/></defs><g fill="none" fill-rule="evenodd"><ellipse cx="10.656" cy="11.196" rx="10.549" ry="10.554" fill="#EF52D1" transform="translate(1.35 .708)"/><g transform="translate(1.35 .708)"><mask id="b" fill="#fff"><use xlink:href="#a"/></mask><path d="M11.91.835c-1.212 3.229-.44 5.199-3.87 8.565-1.633 1.602-5.224 2.753-8.61 6.22-4.68 4.79-.712 6.99 11.903 6.6l10.31-14.731L17.786.098c-2.726-2.685-4.685-2.439-5.877.737h.001z" fill="#7C40FF" mask="url(#b)"/></g><g transform="translate(1.35 .708)"><mask id="d" fill="#fff"><use xlink:href="#c"/></mask><path d="M19.24 3.889c-2.18 5.254.83 7.787-9.753 12.961-1.752.857-3.34 1.8-5.486 3.552-7.949 6.489-1.353 5.702 19.787-2.359C22.528 4.335 21.012-.383 19.239 3.89l.001-.001z" fill="#EF52D1" mask="url(#d)"/></g><g transform="translate(1.35 .708)"><mask id="f" fill="#fff"><use xlink:href="#e"/></mask><path d="M21.578 9.124c-3.15 4.781-2.793 4.98-6.215 7.062-3.42 2.081-5.182 3.993-6.214 7.062-.688 2.045 3.455.16 12.43-5.658 2.1-8.832 2.1-11.654 0-8.466h-.001z" fill="#7C40FF" mask="url(#f)"/></g><g fill="#000"><path d="M19.44 18.877c-3.849 1.193-9.543.497-12.312-2.382-2.769-2.878-3.993-8.36-1.837-11.9-4.663 3.237-3.896 11.428-.547 14.777 3.349 3.349 11.659 3.351 14.697-.495z"/><path d="M19.44 18.877c-3.849 1.193-9.543.497-12.312-2.382-2.769-2.878-3.993-8.36-1.837-11.9-4.663 3.237-3.896 11.428-.547 14.777 3.349 3.349 11.659 3.351 14.697-.495z" fill-opacity=".098"/></g><path d="M6.161 3.807c3.85-1.194 8.736-.466 11.775 2.2 3.04 2.666 3.53 7.73 1.795 11.886 3.347-3.347 3.346-10.734-.003-14.083S9.508.46 6.161 3.807z" fill="#FFF"/><g transform="translate(-4 -4.514)"><ellipse cx="16.007" cy="16.418" rx="15.549" ry="15.554"/><ellipse cx="11.007" cy="11.418" rx="10.549" ry="10.554" transform="translate(5 5)" stroke="#2A2825" stroke-width="1.901"/></g></g></svg>