<svg width="20" height="20" xmlns="http://www.w3.org/2000/svg"><g fill="none" fill-rule="evenodd"><g transform="translate(1 2)"><path fill="#F2924A" d="M.5 1L13 .745l3.926 3.348L4.53 15.409.5 12.311z"/><path stroke="#979797" fill="#FFF" d="M6.5 12.5h3v1h-3z"/><path fill="#FFDB98" d="M.5 1L13 .745l3.926 3.348H4.806z"/><rect fill="#FFBC74" x="4.5" y="4" width="13" height="12" rx="1"/></g><path d="M12.671 3l2.156 1.692a.25.25 0 0 1-.089.438l-2.695.73v.454l4.306.818a1 1 0 0 1 .806.865l1.119 9.469.122.306V6.19l-4.237-3.444L12.671 3z" fill="#FFF"/><path d="M3.84 14.48l1.66 1.155-.159 1.736-3.748-3.06L2 3l.559 9.2a3 3 0 0 0 1.281 2.28z" fill="#C86829"/><path d="M6 7l.736 8.692a1 1 0 0 0 .966.915l10.572.313v.546l-12.657.357L6 7z" fill="#F2924A"/><path d="M6.5 2.97l3.703 3.123v4.657c0 .138.112.25.25.25h2.797a.25.25 0 0 0 .25-.25V5.5l-3.23-2.65-3.77.12z" fill="#25282A"/><path d="M5.564 17.653l-3.691-2.974A1 1 0 0 1 1.5 13.9V3.738a1 1 0 0 1 1-1h10.925a2 2 0 0 1 1.283.466l3.566 2.985" stroke="#25282A" stroke-linecap="round"/><path d="M5.5 6h12.25a.75.75 0 0 1 .75.75v10.5a.75.75 0 0 1-.75.75H6.25a.75.75 0 0 1-.75-.75V6z" stroke="#25282A"/><path d="M2.248 3.5L5.564 6" stroke="#25282A" stroke-linecap="square"/></g></svg>