<svg xmlns="http://www.w3.org/2000/svg" viewBox="0 0 554.41 168.93"><defs><style>.cls-1{fill:#fff}.cls-10,.cls-11{fill:none}.cls-11{stroke-linecap:round}.cls-10,.cls-11{stroke:#2a2825}.cls-8{fill:#fcdf35}.cls-10,.cls-11{stroke-width:1.9px}.cls-11{stroke-linejoin:round}.cls-12{fill:#2a2825}.cls-14{fill:#7c40ff}.cls-16{fill:#45f0f4}.cls-19{fill:#ffa039}.cls-21{fill-opacity:.1}.cls-23{stroke:#fff;stroke-width:3.99px}.cls-25{fill:#ef52d1}</style><mask id="mask" x="441.26" y="13.4" width="24.06" height="23.91" maskUnits="userSpaceOnUse"><g id="mask-2"><ellipse id="path-1" class="cls-1" cx="454.36" cy="26.29" rx="10.53" ry="10.51"/></g></mask><mask id="mask-2-2" x="443.83" y="15.78" width="23.63" height="28.04" maskUnits="userSpaceOnUse"><g id="mask-2-3" data-name="mask-2"><ellipse id="path-1-2" data-name="path-1" class="cls-1" cx="454.36" cy="26.29" rx="10.53" ry="10.51"/></g></mask><mask id="mask-3" x="443.83" y="15.78" width="23" height="23.3" maskUnits="userSpaceOnUse"><g id="mask-2-4" data-name="mask-2"><ellipse id="path-1-3" data-name="path-1" class="cls-1" cx="454.36" cy="26.29" rx="10.53" ry="10.51"/></g></mask></defs><g style="isolation:isolate"><g id="Layer_1" data-name="Layer 1"><g id="Screens"><g id="kittyverse"><g id="Group-13"><g id="Group-11"><g id="img_patternRainbow-Copy" data-name="img/patternRainbow-Copy"><g id="patternRainbow" stroke-width="4.4" stroke-linecap="round" fill="none"><path id="Line-2" d="M211.87 27.15l-113.65 117" stroke="#ef52d1"/><path id="Line-2-2" data-name="Line-2" d="M210.29 34.64L94 154.86" stroke="#7c40ff"/><path id="Line-2-3" data-name="Line-2" d="M212.86 38.11l-100.49 104" stroke="#45f0f4"/><path id="Line-2-4" data-name="Line-2" d="M221.83 35.11L121.41 139" stroke="#fcdf35"/></g></g></g><g id="Group"><path id="Path-6" d="M102.46 135.33Q206.25 28.74 209 26.15c5.34-5.09 10-3.45 13-1.41s5.33 8.44 1.54 13.06q-3.8 4.61-92.9 95.87" stroke-width="1.91" stroke="#2a2825" stroke-linecap="round" fill="none"/><ellipse id="Oval-5" class="cls-1" cx="216.23" cy="32.06" rx="8.38" ry="8.36" transform="rotate(-45 216.231 32.064)"/></g><g id="Group-9-Copy-2"><ellipse id="Oval" class="cls-8" cx="105.52" cy="49.78" rx="8.32" ry="8.3"/><path id="Oval-2" data-name="Oval" d="M112.32 54.83c-3.3 1.13-7.7.83-10-1.53a8.59 8.59 0 0 1-1-9.91c-4 2.89-3.85 9.69-1.11 12.43s9.17 1.95 12.11-.99z" fill="#f8a317"/><path id="Oval-3" data-name="Oval" class="cls-1" d="M101.94 43.61a9 9 0 0 1 8.56 1.77c2.34 2.06 3.12 6.08 1.82 9.25 2.54-2.54 2.59-8.35 0-10.93s-7.83-2.63-10.38-.09z"/><g id="Group-10"><ellipse id="Oval-4" data-name="Oval" class="cls-10" cx="106.27" cy="49.55" rx="8.37" ry="8.06"/><path id="Path-7" class="cls-11" d="M94.52 51.61a16.12 16.12 0 0 0-3 2.9c-4.46 6 15.16-1.84 25.48-10.08"/><ellipse id="Oval-2-Copy" class="cls-12" cx="120.96" cy="41.48" rx="2.11" ry="2.11"/></g></g><path id="KittyVerse-2" data-name="KittyVerse" d="M43.19 46.13v30.68a1.73 1.73 0 0 0 3 1.13l28.46-32.72a1.72 1.72 0 0 1 1.3-.6h11.8a1.73 1.73 0 0 1 1.72 1.73A1.71 1.71 0 0 1 89 47.5l-27.59 31a1.72 1.72 0 0 0-.08 2.19l29.23 38a1.73 1.73 0 0 1-1.37 2.78h-12a1.74 1.74 0 0 1-1.37-.67L52.37 90.22A1.72 1.72 0 0 0 50 89.9a1.75 1.75 0 0 0-.24.23l-6.09 7a1.69 1.69 0 0 0-.43 1.13v21.54a1.72 1.72 0 0 1-1.72 1.72h-9.64a1.72 1.72 0 0 1-1.73-1.72V46.35a1.73 1.73 0 0 1 1.73-1.73h9.8a1.51 1.51 0 0 1 1.51 1.51zM113 67.62v52.13a1.72 1.72 0 0 1-1.72 1.72h-9.09a1.72 1.72 0 0 1-1.72-1.72V67.62a1.72 1.72 0 0 1 1.72-1.72h9.09a1.72 1.72 0 0 1 1.72 1.72zm114.67 75.12h-8.43a1.73 1.73 0 0 1-1.6-2.36l6.71-16.79a1.74 1.74 0 0 0 0-1.25l-20.44-54.11a1.72 1.72 0 0 1 1-2.22 1.77 1.77 0 0 1 .6-.11h9.71a1.71 1.71 0 0 1 1.62 1.15l12.5 35.17a1.73 1.73 0 0 0 2.2 1 1.69 1.69 0 0 0 1-1.05l12.28-35.15a1.72 1.72 0 0 1 1.63-1.16h9.19a1.72 1.72 0 0 1 1.72 1.72 1.88 1.88 0 0 1-.11.62l-28 73.4a1.72 1.72 0 0 1-1.58 1.14zm70.55-21.27h-10a1.73 1.73 0 0 1-1.62-1.11L258.79 47a1.72 1.72 0 0 1 1-2.22 1.62 1.62 0 0 1 .61-.12h10a1.74 1.74 0 0 1 1.6 1.1l19.78 54.36a1.72 1.72 0 0 0 2.21 1 1.7 1.7 0 0 0 1-1l19.78-54.36a1.74 1.74 0 0 1 1.62-1.14H326a1.74 1.74 0 0 1 1.73 1.73 1.62 1.62 0 0 1-.12.61l-27.78 73.4a1.72 1.72 0 0 1-1.61 1.11zm64.1-17.27h7.9a1.73 1.73 0 0 1 1.73 1.72 1.9 1.9 0 0 1-.12.63q-6.34 16.17-22.61 16.17c-15.55 0-26.33-11.76-26.33-28.91 0-16.65 10.91-29.16 26.08-29.16 15.67 0 24.2 11.14 24.2 27.41v2.78a1.72 1.72 0 0 1-1.72 1.72h-34.37a1.74 1.74 0 0 0-1.73 1.73v.19a21.64 21.64 0 0 0 .39 2.44c1.66 7.13 6.72 11.29 13.47 11.29q8.59 0 11.52-7a1.7 1.7 0 0 1 1.59-1.01zm-13.22-29c-6.11 0-10.84 3.34-12.89 9.67 0 .12-.08.25-.12.4a1.72 1.72 0 0 0 1.19 2.13 1.49 1.49 0 0 0 .47.07h21.15a1.72 1.72 0 0 0 1.72-1.73 1.34 1.34 0 0 0 0-.2v-.24c-.88-5.77-4.71-10.14-11.52-10.14zM416 67v9.11a1.72 1.72 0 0 1-1.72 1.72 1.65 1.65 0 0 1-.54-.09 17.19 17.19 0 0 0-5.13-1c-5.14 0-9.91 2.88-11.16 8.89v34.2a1.72 1.72 0 0 1-1.73 1.72h-9.09a1.72 1.72 0 0 1-1.72-1.72V67.62a1.72 1.72 0 0 1 1.72-1.72h9.09a1.72 1.72 0 0 1 1.73 1.72v4c2.13-4.13 7-7 12.41-7a20.21 20.21 0 0 1 4.83.64A1.73 1.73 0 0 1 416 67zm7.45 38.48h9.48a1.73 1.73 0 0 1 1.59 1 9.88 9.88 0 0 0 .88 1.7c2 2.83 5.43 4.27 9.73 4.27 5.77 0 9.53-2.26 9.53-6.64 0-3-1.88-4.63-6.52-5.75L436.6 97.3c-7.9-1.87-13.79-6.13-13.79-15.26 0-10 8.9-17.4 21.07-17.4 11.64 0 18.79 5 21.52 13.28.09.26.18.57.28.95a1.73 1.73 0 0 1-1.23 2.13 2.3 2.3 0 0 1-.45 0h-9a1.74 1.74 0 0 1-1.57-1 8.43 8.43 0 0 0-.94-1.64c-1.68-2.15-4.56-3.49-8.78-3.49-4.39 0-8.9 2-8.9 6.38 0 2.51 1.75 4.13 5.77 5.14l11.78 2.75c9.53 2.25 14.3 7.63 14.3 15.77 0 11-9.16 17.77-21.7 17.77-11.31 0-19.6-4.9-22.66-13.22a16.46 16.46 0 0 1-.56-1.92 1.72 1.72 0 0 1 1.26-2.04 1.92 1.92 0 0 1 .44-.05zm90.2-1.25h7.84a1.72 1.72 0 0 1 1.72 1.72 1.63 1.63 0 0 1-.14.68q-6.87 16.13-22.5 16.12c-15.55 0-26.33-11.76-26.33-28.91 0-16.65 10.91-29.16 26.08-29.16 15.67 0 24.2 11.14 24.2 27.41v2.78a1.72 1.72 0 0 1-1.73 1.72h-34.4a1.73 1.73 0 0 0-1.72 1.73 1.09 1.09 0 0 0 0 .18c.06.54.11 1 .17 1.32 1.38 7.82 6.61 12.42 13.71 12.42q8.42 0 11.5-7a1.73 1.73 0 0 1 1.59-1.04zm-12.34-29c-6.1 0-10.82 3.33-12.88 9.63l-.13.44a1.72 1.72 0 0 0 1.19 2.13 1.49 1.49 0 0 0 .47.07h21.14a1.73 1.73 0 0 0 1.73-1.73 1.5 1.5 0 0 0 0-.2 2.54 2.54 0 0 0 0-.29c-.91-5.77-4.74-10.12-11.53-10.12z" fill="#1a1a19"/><g id="Group-9"><g id="Group-14"><g id="Oval-5-2" data-name="Oval"><ellipse id="path-1-4" data-name="path-1" class="cls-14" cx="454.36" cy="26.29" rx="10.53" ry="10.51"/></g><g mask="url(#mask)"><path id="Path-4" class="cls-16" d="M455.61 16c-1.21 3.21-.44 5.17-3.86 8.52-1.63 1.6-5.22 2.74-8.59 6.19q-7 7.17 11.87 6.58l10.29-14.69-3.84-7.36q-4.08-4-5.87.76z"/></g><g mask="url(#mask-2-2)"><path id="Path-3" class="cls-8" d="M462.92 19c-2.65 6.37-9.35 3.92-14.55 18.48q-5.19 14.55 19.09-4.39-1.87-20.45-4.54-14.09z"/></g><g mask="url(#mask-3)"><path id="Path-5" class="cls-19" d="M465.26 24.23c-3.15 4.76-2.79 5-6.2 7s-5.18 4-6.21 7q-1 3.06 12.41-5.63 3.14-13.14 0-8.37z"/></g></g><path id="Oval-6" data-name="Oval" class="cls-1" d="M448.54 18.24c3.84-1.2 8.71-.48 11.74 2.18s3.5 7.7 1.77 11.84c3.34-3.34 3.35-10.7 0-14s-10.17-3.36-13.51-.02z"/><g id="Oval-7" data-name="Oval" style="mix-blend-mode:overlay"><path id="path-3-2" data-name="path-3" d="M461.76 33.22c-3.84 1.2-9.51.51-12.27-2.36s-4-8.32-1.82-11.86c-4.65 3.24-3.89 11.4-.56 14.73s11.62 3.33 14.65-.51z"/><path id="path-3-3" data-name="path-3" class="cls-21" d="M461.76 33.22c-3.84 1.2-9.51.51-12.27-2.36s-4-8.32-1.82-11.86c-4.65 3.24-3.89 11.4-.56 14.73s11.62 3.33 14.65-.51z"/></g><g id="Oval-8" data-name="Oval" opacity=".15"><path id="path-3-4" data-name="path-3" d="M461.76 33.22c-3.84 1.2-9.51.51-12.27-2.36s-4-8.32-1.82-11.86c-4.65 3.24-3.89 11.4-.56 14.73s11.62 3.33 14.65-.51z"/><path id="path-3-5" data-name="path-3" class="cls-21" d="M461.76 33.22c-3.84 1.2-9.51.51-12.27-2.36s-4-8.32-1.82-11.86c-4.65 3.24-3.89 11.4-.56 14.73s11.62 3.33 14.65-.51z"/></g><g id="Group-10-2" data-name="Group-10"><ellipse id="Oval-9" data-name="Oval" class="cls-10" cx="454.36" cy="26.29" rx="10.53" ry="10.51"/><path id="Path-2" class="cls-10" d="M443.92 27.38c-11.56 9.08-10.84 12.69 11.6.67s22.48-16.54 6.75-8.95"/></g></g><path id="Path" class="cls-23" d="M128.4 78.28h-5.06a3.71 3.71 0 0 1-3.72-3.72v-6.94a3.71 3.71 0 0 1 3.72-3.71h5.06V52.73a3.72 3.72 0 0 1 3.72-3.73h9.09a3.72 3.72 0 0 1 3.71 3.72v11.19h8.82a3.71 3.71 0 0 1 3.72 3.71v6.94a3.71 3.71 0 0 1-3.72 3.72h-8.82v26.79c0 3.21 1.41 4.52 4.66 4.52a11.93 11.93 0 0 0 4-1 3.71 3.71 0 0 1 5.11 3.45v7.5a3.73 3.73 0 0 1-2.54 3.53 28.67 28.67 0 0 1-8.86 1.7c-11.55 0-18.92-6.63-18.92-18.27z"/><path id="Path-2-2" data-name="Path" class="cls-23" d="M169.54 78.28h-5.06a3.71 3.71 0 0 1-3.71-3.72v-6.94a3.71 3.71 0 0 1 3.71-3.71h5.06V52.73a3.73 3.73 0 0 1 3.72-3.73h9.09a3.72 3.72 0 0 1 3.72 3.72v11.19h8.82a3.71 3.71 0 0 1 3.72 3.71v6.94a3.71 3.71 0 0 1-3.72 3.72h-8.82v26.79c0 3.21 1.41 4.52 4.65 4.52a11.82 11.82 0 0 0 4-1 3.71 3.71 0 0 1 5.11 3.45v7.5a3.72 3.72 0 0 1-2.54 3.53 28.61 28.61 0 0 1-8.85 1.7c-11.55 0-18.93-6.63-18.93-18.27z"/><g id="Group-9-2" data-name="Group-9"><ellipse id="Oval-10" data-name="Oval" class="cls-19" cx="477.7" cy="41.59" rx="5.42" ry="5.41"/><path id="Oval-11" data-name="Oval" d="M481.64 44.6c-2 .69-4.75.51-6.15-1a5.3 5.3 0 0 1-.61-6.11c-2.5 1.78-2.38 6-.69 7.66s5.64 1.26 7.45-.55z" fill="#de5e1b"/><path id="Oval-12" data-name="Oval" class="cls-1" d="M474.42 38.47c2.4-1.15 4.75-1.16 6.12 0a5.77 5.77 0 0 1 1.66 6.18c1.65-1.65 1.62-5.34-.06-7s-6.06-.84-7.72.82z"/><g id="Group-10-3" data-name="Group-10"><ellipse id="Oval-13" data-name="Oval" class="cls-10" cx="478.2" cy="41.43" rx="5.45" ry="5.25"/></g></g><g id="Group-9-Copy-3"><ellipse id="Oval-14" data-name="Oval" class="cls-25" cx="325.99" cy="135.29" rx="6.86" ry="6.85"/><path id="Oval-15" data-name="Oval" d="M331 139.1c-2.58.88-5.7.47-7.47-1.37s-2.61-5.17-1.09-7.57c-3.17 2.26-3 7.57-.87 9.71s7.11 1.53 9.43-.77z" fill="#b72495"/><path id="Oval-16" data-name="Oval" d="M323 130.2a8.18 8.18 0 0 1 7.45 1.45c1.93 1.7 2.27 4.9 1.2 7.51 2.09-2.09 2.05-6.76-.08-8.89a6.58 6.58 0 0 0-8.57-.07z" fill="#ffeefc"/><g id="Group-10-4" data-name="Group-10"><ellipse id="Oval-17" data-name="Oval" class="cls-10" cx="326.62" cy="135.1" rx="6.91" ry="6.65"/></g></g><g id="Group-9-Copy-4"><ellipse id="Oval-18" data-name="Oval" cx="215.83" cy="32.23" rx="5.69" ry="5.68" fill="#e6e6e6"/><path id="Oval-19" data-name="Oval" d="M220 35.39a6.11 6.11 0 0 1-6.2-1.13 5.38 5.38 0 0 1-.91-6.29c-2.63 1.87-2.5 6.28-.72 8.06s5.89 1.27 7.83-.64z" fill="#a0a0a0"/><path id="Oval-20" data-name="Oval" class="cls-1" d="M212.77 28.59a6.29 6.29 0 0 1 5.86.55 5.65 5.65 0 0 1 1.37 6.14c1.74-1.74 2.28-5.45.51-7.22s-6-1.21-7.74.53z"/><g id="Group-10-5" data-name="Group-10"><ellipse id="Oval-21" data-name="Oval" cx="216.35" cy="32.07" rx="5.73" ry="5.52" stroke-width="1.8" stroke="#2a2825" fill="none"/></g></g><path id="Rectangle-20-Copy-6" class="cls-8" d="M381.6 15.37c.64 3.13 1.37 5.11 3.63 6.2-2.18.57-3.05 2.8-3.63 5.72-.55-2.69-1.47-5.11-3.62-5.72 2.02-.57 3.02-2.94 3.62-6.2z"/><path id="Rectangle-20-Copy-11" class="cls-8" d="M130.77 140.46c.45 2.52 1 4.11 2.56 5-1.54.45-2.16 2.25-2.56 4.6-.4-2.16-1.05-4.11-2.56-4.6 1.41-.46 2.09-2.37 2.56-5z"/><path id="Rectangle-20-Copy-12" class="cls-16" d="M111.41 148.46c.56 3.15 1.2 5.14 3.2 6.23-1.93.57-2.69 2.82-3.2 5.76-.5-2.71-1.31-5.14-3.2-5.76 1.79-.56 2.62-2.95 3.2-6.23z"/><path id="Rectangle-20-Copy-9" class="cls-14" d="M310.38 135.67c.74 3.66 1.59 6 4.24 7.24-2.55.67-3.57 3.28-4.24 6.7-.65-3.15-1.73-6-4.24-6.7 2.34-.65 3.47-3.43 4.24-7.24z"/><path id="Rectangle-20-Copy-7" class="cls-16" d="M500.19 8.46c.76 3.86 1.62 6.29 4.31 7.63-2.59.7-3.62 3.45-4.31 7.05-.66-3.31-1.76-6.29-4.31-7 2.38-.73 3.53-3.66 4.31-7.68z"/><path id="Rectangle-20-Copy-5" class="cls-16" d="M91.36 18.79c.69 3.53 1.48 5.76 3.93 7-2.36.65-3.3 3.16-3.93 6.46-.6-3-1.6-5.77-3.93-6.46 2.17-.64 3.22-3.33 3.93-7z"/><path id="Rectangle-20-Copy-10" class="cls-25" d="M479.53 125c.75 4 1.6 6.43 4.23 7.8-2.54.72-3.55 3.52-4.23 7.2-.65-3.38-1.72-6.43-4.22-7.2 2.34-.75 3.46-3.75 4.22-7.8z"/><g id="Group-24"><g id="Group-9-Copy"><ellipse id="Oval-22" data-name="Oval" class="cls-16" cx="367.18" cy="37.09" rx="9.03" ry="9.01"/><path id="Oval-23" data-name="Oval" d="M374.57 42.57c-3.58 1.22-8.36.9-10.82-1.66a9.33 9.33 0 0 1-1.08-10.76c-4.4 3.13-4.18 10.52-1.21 13.49s9.92 2.12 13.11-1.07z" fill="#2aa7d6"/><path id="Oval-24" data-name="Oval" class="cls-1" d="M363.3 30.39a10.79 10.79 0 0 1 9.8 1.9c2.54 2.24 3 6.45 1.57 9.89 2.76-2.76 2.71-8.89-.09-11.7s-8.52-2.85-11.28-.09z"/><g id="Group-10-6" data-name="Group-10"><ellipse id="Oval-25" data-name="Oval" class="cls-10" cx="368" cy="36.83" rx="9.09" ry="8.75"/><path id="Path-7-2" data-name="Path-7" class="cls-11" d="M358 35.48a31.81 31.81 0 0 1-4.42-4.14c-5-6.71 16 2.79 27.61 12"/></g></g><circle id="Oval-2-2" data-name="Oval-2" class="cls-12" cx="384.67" cy="46.49" r="2.1"/></g><ellipse id="Oval-2-Copy-3" class="cls-12" cx="339.74" cy="139.99" rx="2.53" ry="2.53"/><ellipse id="Oval-2-Copy-2" class="cls-12" cx="488.48" cy="38.22" rx="2.1" ry="2.1"/><path id="Rectangle-20-Copy-8" class="cls-25" d="M89 132.46c.48 2.82 1 4.6 2.76 5.57-1.66.52-2.32 2.52-2.76 5.15-.43-2.42-1.13-4.59-2.76-5.15 1.49-.49 2.23-2.64 2.76-5.57z"/></g></g></g></g></g></svg>