<svg id="Layer_1" data-name="Layer 1" xmlns="http://www.w3.org/2000/svg" xmlns:xlink="http://www.w3.org/1999/xlink" viewBox="0 0 1705.3 1705.3"><defs><style>.cls-1,.cls-15,.cls-20{fill:none}.cls-4{clip-path:url(#clip-path-2)}.cls-7,.cls-8{fill:#f5c953}.cls-7{opacity:.88}.cls-11,.cls-7{isolation:isolate}.cls-11{fill:#ffffbc;opacity:.75}.cls-15,.cls-20{stroke:#31323d;stroke-linecap:round;stroke-miterlimit:10}.cls-15{stroke-width:12.82px}.cls-16{fill:#31323d}.cls-17{fill:#fff}.cls-19{fill:#ef52d1}.cls-20{stroke-width:10.25px}</style><clipPath id="clip-path"><circle class="cls-1" cx="852.65" cy="852.65" r="852.65"/></clipPath><clipPath id="clip-path-2"><path class="cls-1" d="M1649.94 1759.3c-44.09-30.1-135.71-63.23-184.37-77.4l-.8-.31a254.31 254.31 0 0 0 6.52-159.8l-179.23-583.06c14.92-15.56 23.87-26.27 23.87-26.27 43.49 27.87 112.5-3.58 140.53-18.63a3.23 3.23 0 0 0-1.56-6.07c-55 0-133.18-42.64-133.18-42.64 62.27 16.48 86.16-1.17 94.1-10.73a3.25 3.25 0 0 0-.45-4.56 3.28 3.28 0 0 0-1.89-.73c-20.08-.91-88.2-12.64-137.82-125.48-6.81-15.49-14-30.81-21.78-45.83-15-28.92-39.74-74.66-68.28-120.09l1.37-7.29 51.29-210.59c6.81-28-25.11-49.14-48.22-32l-134.55 99.87-2.12 2.7-5-3.22A246.75 246.75 0 0 0 992 365.12c-1.12-.29-2.25-.56-3.38-.83 10.38-29.29 41.98-45.42 41.98-45.42-36.79-34.55-102.52 19.9-102.52 19.9-37.93-36.65 17.84-105.27 17.84-105.27-66.4-30.18-115.71 87.61-115.71 87.61-4.75-57.8-88.21-66.5-88.21-66.5 27.83 30.43 13.94 85 13.94 85-39.08-38.29-113.5-2.48-113.5-2.48 30.42 3 50.12 16.08 62.34 28.7l-3.1.85a247 247 0 0 0-81 40l-134.33-83.32c-23.87-14.8-53.47 7.52-45.8 34.55l58.95 207.72 4.29 15.23c-14 33.36-24.69 63.42-30.52 80.53q-5.47 16.05-12.41 31.55C419 802.86 327.22 840.23 296.67 849.88a3.23 3.23 0 0 0 .11 6.19c21.15 5.82 74.7 17.88 113.78-21.58 0 0-38.21 53-85.35 72a3.22 3.22 0 0 0 .88 6.21c16.93 1.6 49.1.7 90-19.08 0 0-22.3 30.87-41.84 45.54a3.25 3.25 0 0 0 2.32 5.81c15.9-1.71 35.32-5.22 46.61-12.25l.54 12.47c.51 12 8.77 24.79 21.89 37.58l-109.44 575.4a255.26 255.26 0 0 0 12.94 120.48l-.62.33c-39.07 9.31-133.75 44.52-189.15 80.3-27.18 17.55-10.4 57.3 23.75 56.67l273.7-5.35q6.93 4.25 14.14 8.07l.16 3.44c.41 23.9-6.82 43.46-30.7 44.66-15.94.81-28.9 10.16-31.41 21.59-4.86 22.07 6 39.87 27.9 41.46l86.43 5.14c27.08 1.61 53.21-11.62 67-35a73.44 73.44 0 0 0 9-24.51l5.13-27.3h547.1l3.56 21.22a73.34 73.34 0 0 0 44.24 55.68 54.71 54.71 0 0 0 22.82 4.07l94.19-3.12c22.59-2.25 30.88-16.1 28.56-37.86-.76-7.13-6.4-25.15-25.1-26.19-16.2-.89-25.88-8.82-28.79-22.46a253 253 0 0 0 67-28.79l268.09 5.24c34.23.66 50.56-38.4 23.83-56.64z"/></clipPath><linearGradient id="linear-gradient" x1="909.91" y1="1889.06" x2="909.91" y2="18.66" gradientTransform="matrix(1 0 0 -1 0 1974)" gradientUnits="userSpaceOnUse"><stop offset=".03" stop-color="#fff1a0"/><stop offset=".97" stop-color="#fae67d"/></linearGradient><linearGradient id="linear-gradient-2" x1="876.39" y1="780.06" x2="876.39" y2="-.39" gradientTransform="matrix(1 0 0 -1 0 1974)" gradientUnits="userSpaceOnUse"><stop offset="0" stop-color="#fff"/><stop offset="1" stop-color="#f9ffff"/></linearGradient><linearGradient id="linear-gradient-3" x1="1563.65" y1="160.08" x2="1563.65" y2="299.22" gradientTransform="matrix(1 0 0 -1 0 1974)" gradientUnits="userSpaceOnUse"><stop offset="0" stop-color="#fff" stop-opacity="0"/><stop offset=".72" stop-color="#fff"/></linearGradient><linearGradient id="linear-gradient-4" x1="-6174.89" y1="155.86" x2="-6174.89" y2="295" gradientTransform="rotate(180 -2963.025 987)" xlink:href="#linear-gradient-3"/><linearGradient id="linear-gradient-5" x1="333.46" y1="575.3" x2="470.93" y2="575.3" xlink:href="#linear-gradient-3"/><clipPath id="clip-path-5"><path class="cls-1" d="M718 662.12c0 98-33.74 119.21-88.43 109a245.89 245.89 0 0 0-81.68-1.89c-58 8.74-96.45-14.94-95.89-103.17.46-72.39 57.69-132.44 130.07-134C655.54 530.41 718 588.64 718 662.12z"/></clipPath><clipPath id="clip-path-6"><path class="cls-1" d="M1007.05 643.83c0 97.95 33.75 119.21 88.44 109a245.89 245.89 0 0 1 81.68-1.9c58 8.74 96.44-14.94 95.89-103.17-.46-72.39-57.7-132.44-130.07-134-73.46-1.63-135.94 56.59-135.94 130.07z"/></clipPath></defs><g id="Layer_326" data-name="Layer 326"><circle cx="852.65" cy="852.65" r="852.65" fill="#ffd9ff"/><g clip-path="url(#clip-path)"><g class="cls-4"><path fill="url(#linear-gradient)" d="M136.04 84.94h1547.73v1870.4H136.04z"/><path d="M579.89 1974.39l125.71-634.06a181.74 181.74 0 0 1 175-146.33 181.73 181.73 0 0 1 182.05 149.33l110.23 608.76z" fill="url(#linear-gradient-2)"/></g><g class="cls-4"><path class="cls-7" d="M440.43 977.46c-5.55 0 43.81 36.66 63 46.79-25.87 6.28-38.27 70.6-38.32 70.93-20.64 136.53-34.4 336.31-40.88 388.43a935.65 935.65 0 0 0-7 100.92l-.05 3.46c24.1 26.62 48.84 91 53.93 181.3l1.35 50.2s-32.14-.76-83.06-.76c-63.58 0-113.64-114.56-81.17-285.25"/><path class="cls-8" d="M377.45 938.81A103 103 0 0 0 426.31 909a3.44 3.44 0 0 1 5.86 3.25 196.29 196.29 0 0 1-20.09 46.39 5.35 5.35 0 0 1-2 2.24 1.88 1.88 0 0 1-2.56-.73m-80.59-50.46c17.52-4.8 34-12.6 50.47-20.37 16.73-7.92 34.11-16.39 47.64-28.65a3.44 3.44 0 0 1 5.4 4.07 136 136 0 0 1-45 50.87M301 853.83c28.3-3.2 56.42-9.62 82.38-21.34 20.27-9.16 36.95-23.16 53.31-38.45a1.72 1.72 0 0 1 2.56 2.29Q425.26 815 410 832.62c-11.44 13.25-24.52 26.73-41.63 30.45"/><path d="M1235.91 329.44s-18-44.34-83.62 24.84c-34.58 41.53-70.68 55.4-70.68 55.4L1187 530.41zm-788.3 53.33s-9.61-39.88 35.61-21.31c19 7.79 52 41.67 65.11 57.42l22.56 35.89-67 120.31z" style="isolation:isolate" opacity=".9" fill="#f5c953"/><path d="M651.18 1600.06c-24.92 151.48 55.65 182.84 70.27 186.2 88.7 15.87 229.52 9 275.31-7.13 42.85-15.12 133.22-60 110.74-194.27l44.07 263.32H604.48z" fill="#eff6f9"/><path class="cls-7" d="M1294.94 1720s30.64-93.7 68-128c-40.45 76.88 14.41 95.08 28.76 90 55.07-19.67 76.86-68.38 81.26-153.86l66.91 119.26s-56.39 262.5-209.18 219.43l-39.69-18.55z"/><path class="cls-8" d="M707 376.78A121.57 121.57 0 0 1 736.25 414a4.76 4.76 0 0 0 9-2.39c-.94-15.87-3.88-31.37-12.11-44.76-16-26.06-49.63-37.67-79.95-33.68-7.79 1-16.22 2.83-23.11-1m122.13-1.62A292.52 292.52 0 0 1 771.35 392a4.75 4.75 0 0 0 9.1.79c8-21.28 11.66-44.23 8.91-66.74-3.41-27.9-17.21-54.94-39.63-71.88-4.91-3.71-11-7.07-16.94-5.46M830.26 303a182.61 182.61 0 0 0 .22 35.3 4.75 4.75 0 0 0 9.19 1.09c8.59-22.94 22.87-43.78 40.34-61.06 22.36-22.1 49.8-38.62 78.76-50.86-22.2-14.21-52.52-14.53-75-.8-7.55 4.61-14.48 11-17.26 19.44M934.16 307a366.87 366.87 0 0 0-10.5 54.89 4.75 4.75 0 0 0 8.2 3.79c25.72-27.69 63.57-44 101.41-43 2.19.06 4.6.12 5.71-2.86a6.9 6.9 0 0 0 .26-3.52c-1.58-10.11-9.54-18-18.47-22.91a57.58 57.58 0 0 0-46.77-3.32"/><path class="cls-8" d="M508.34 571.66s45.22-161.94 196.43-205.82l17.4 26c-83.61 24.24-171.79 138.77-186.83 185.94S478.2 717 407.51 781.4"/></g><g class="cls-4"><path class="cls-11" d="M1262 970.88c67.14 197.65 123.92 434.67 151.56 557.38 47.28 209.94-83.31 293.26-83.31 293.26l62.65-36.36s64.61-76.68 74.34-110.38c21.27-73.71 142.54-33.81 120.17-151.42-32.46-170.69-271.48-610.9-271.48-610.9s-55.12 54.91-53.93 58.42z"/><path d="M1443.5 1725.12s116.13 21.64 100.87 85.73l95 3.07 44.43-6.66-4.44-70.24-212.09-62.24z" fill="url(#linear-gradient-3)"/><path d="M369 1729.34s-116.15 21.66-100.89 85.72l-95 3.08-44.43-6.67 4.44-70.24L345.24 1679z" style="isolation:isolate" opacity=".7" fill="url(#linear-gradient-4)"/><path class="cls-11" d="M1340.39 854.7a240.88 240.88 0 0 1-54.58-25.56 2.5 2.5 0 0 0-3.24 3.74c28 32.77 64.64 59.28 107 65.18 20 2.79 40.31.89 60.39-1.12 6.47-.65 13.28-1.44 18.49-5.31m-38.81-61.26a145.58 145.58 0 0 1-46.62 1c-44.72-6.24-84.56-33.3-114.1-67.45s-44.8-75.15-63.19-116.39a1064.82 1064.82 0 0 0-64-121.9 395.36 395.36 0 0 0-122.4-125c-8.17-5.25-40.44-16.8-46.16-24.65 0 0-.75-5.16 4.94-13 5.47-7.58 39.4 6.64 47.51 11.29 98.44 56.39 91.56 68.72 135.86 133.3 38.1 55.53 92.37 150.21 129.54 227"/><path d="M461.76 996.74L365.81 1512s-54.89 179.39 104.83 286l.29 20.66S343.24 1760 334 1598.05s102.56-619.31 102.56-619.31z" fill="url(#linear-gradient-5)"/></g><path class="cls-15" d="M1055.49 387.71L1190 287.84c23.11-17.16 55 4 48.22 32L1187 530.41l-1.37 7.29M620.72 406.65l-134.37-83.29c-23.87-14.8-53.47 7.52-45.8 34.55l58.95 207.72 4.29 15.23m788.27 357.87l179.23 583.06c40 141.43-46.33 282-180.24 317.73M471 1818.73c-91.42-48.26-149.35-149.91-134.82-260.54l109-573"/><path class="cls-16" d="M653.43 1600.49c-3.5 31.26-8.37 62.26-13.64 93.19-2.63 15.46-5.51 30.88-8.33 46.31l-8.46 46.28-17 92.73a79.94 79.94 0 0 1-9.09 24.07 77.56 77.56 0 0 1-16.5 19.93 80.74 80.74 0 0 1-47.07 19.28c-2.15.14-4.3.23-6.46.19-1.07 0-2.15 0-3.23-.09l-1.54-.07-1.46-.09-11.76-.67-23.5-1.36-47-2.85a61 61 0 0 1-6.6-.69 44 44 0 0 1-6.88-1.78 36.48 36.48 0 0 1-12.58-7.48 35.48 35.48 0 0 1-8.48-12 41.31 41.31 0 0 1-3.19-13.85 52 52 0 0 1 1-13.58 31.51 31.51 0 0 1 .94-3.68 28.46 28.46 0 0 1 1.51-3.66 31.24 31.24 0 0 1 4.19-6.36 38.59 38.59 0 0 1 11.24-9 46.67 46.67 0 0 1 13-4.66 50.22 50.22 0 0 1 6.8-.89l2.62-.19c.79-.11 1.59-.18 2.35-.35a22.3 22.3 0 0 0 4.39-1.2 19 19 0 0 0 3.85-2c4.73-3.07 7.94-8.56 9.65-15.16a60.48 60.48 0 0 0 1.68-10.36c.12-1.8.23-3.61.24-5.44v-2.65l-.12-2.94-.95-23.49-1.9-47c-.61-15.66-1.31-31.32-1.81-47v.51q-.9-7.65-2.09-15.23c-.77-5-1.63-10.08-2.65-15.07s-2.2-9.93-3.51-14.83-2.78-9.75-4.47-14.53-3.54-9.48-5.6-14.12-4.35-9.16-6.79-13.63a202.42 202.42 0 0 0-16.91-25.61 2.3 2.3 0 0 1 3.44-3 160.19 160.19 0 0 1 20.24 24.52 155 155 0 0 1 8.24 13.74 158.55 158.55 0 0 1 6.88 14.49c2.06 4.95 3.9 10 5.56 15s3 10.24 4.3 15.41 2.37 10.38 3.33 15.59 1.74 10.44 2.46 15.67v.51c.92 15.68 1.63 31.36 2.43 47l2.35 47 1.17 23.52.14 2.94c0 1.07.05 2.2 0 3.22 0 2.09-.1 4.21-.23 6.32a74.51 74.51 0 0 1-2 12.85 56.49 56.49 0 0 1-2.08 6.46 45.22 45.22 0 0 1-3.14 6.31 34 34 0 0 1-10.08 10.7 35.94 35.94 0 0 1-13.5 5.42c-1.17.24-2.31.38-3.47.53-.57.07-1.14.1-1.71.14l-1.53.12a34.59 34.59 0 0 0-4.86.65 32.86 32.86 0 0 0-9 3.24 24.57 24.57 0 0 0-7 5.62 17 17 0 0 0-2.26 3.44 14.46 14.46 0 0 0-.73 1.78 15.35 15.35 0 0 0-.49 2 37.54 37.54 0 0 0-.72 9.81 27.08 27.08 0 0 0 2.07 9 20.71 20.71 0 0 0 5 7 21.94 21.94 0 0 0 7.53 4.42 30.23 30.23 0 0 0 4.5 1.13 43.57 43.57 0 0 0 5.1.49l46.95 2.73 23.48 1.44 11.73.72 1.47.09h1.4c.88 0 1.76.09 2.65.08 1.76 0 3.53 0 5.3-.14a66.05 66.05 0 0 0 38.69-15.38 63.2 63.2 0 0 0 13.44-16.14 66.51 66.51 0 0 0 7.55-19.73l17.82-92.27 8.92-46.21c3-15.4 5.91-30.82 9.08-46.19 6.34-30.73 13.07-61.39 21.19-91.79a2.3 2.3 0 0 1 4.5.85zm456.33-16.01c8.37 35.74 15.36 71.72 21.93 107.76l4.81 27 4.66 27.08 9.33 54.16 9.32 54.16 2.34 13.53a74.33 74.33 0 0 0 3.23 12 66.29 66.29 0 0 0 32.24 36.1c.9.52 1.87.87 2.8 1.31s1.89.87 2.79 1.21a47.47 47.47 0 0 0 17.49 3.08l54.6-1.88 27.39-.85 6.85-.22 3.43-.1 1.71-.06a14.35 14.35 0 0 0 1.61-.09l2.74-.38 2.81-.6c.93-.2 1.76-.55 2.66-.8a7 7 0 0 0 1.25-.48l1.22-.52a5.6 5.6 0 0 0 1.14-.59l1.11-.62c.71-.43 1.31-1 2-1.42a8.11 8.11 0 0 0 1.7-1.66l.75-.93.39-.45.31-.51a22.85 22.85 0 0 0 3.36-9.76 24.91 24.91 0 0 0 .26-2.86c0-.49.07-1 .07-1.46v-3c0-.51-.07-1-.1-1.53l-.12-1.53a2.92 2.92 0 0 0-.06-.74l-.08-.6a28.42 28.42 0 0 0-1.36-5.22 26.83 26.83 0 0 0-2.33-4.9l-.7-1.12c-.25-.35-.53-.68-.78-1a21.18 21.18 0 0 0-1.65-1.9 17.39 17.39 0 0 0-3.85-2.85c-.35-.17-.68-.39-1-.55l-1.12-.42a13.23 13.23 0 0 0-2.33-.67l-.6-.15-.63-.07-1.27-.15-.68-.08-1-.09-2-.19a42.78 42.78 0 0 1-15.72-4.73 32.38 32.38 0 0 1-12.36-12.22c-.74-1.25-1.29-2.57-1.91-3.86-.46-1.32-1-2.64-1.37-4a47.22 47.22 0 0 1-1.51-8c-.09-1.3-.28-2.63-.26-3.92v-3.8l.16-6.88.57-27.46.62-27.52c0-1.13.13-2.33.2-3.51l.27-3.54c.19-2.36.32-4.73.56-7.07l.86-7c.3-2.32.54-4.66 1-7a275 275 0 0 1 14.44-54.23c.78-2.2 1.72-4.34 2.62-6.5l2.71-6.46c.94-2.14 2-4.23 3-6.35s1.94-4.25 3-6.32c4.3-8.28 8.78-16.45 13.81-24.29a280.35 280.35 0 0 1 34.2-43.76 2.3 2.3 0 1 1 3.5 3 390.37 390.37 0 0 0-29.44 45.67c-4.39 7.88-8.33 16-12 24.19-1 2-1.78 4.13-2.67 6.19s-1.79 4.12-2.61 6.21l-2.38 6.3c-.79 2.1-1.61 4.18-2.28 6.33a283.89 283.89 0 0 0-13 52c-.4 2.2-.61 4.42-.86 6.64l-.76 6.65c-.21 2.21-.31 4.41-.47 6.62l-.22 3.31c-.06 1.11-.18 2.19-.16 3.35l-.36 27.43-.36 27.43-.09 6.86v3.06c0 1 .16 2 .23 2.93a25.73 25.73 0 0 0 3.13 10.3 18.1 18.1 0 0 0 7 6.78 28.7 28.7 0 0 0 10.48 3l1.46.12 1.76.17 2.14.25 1.07.13c.36.06.72.16 1.08.24a28.68 28.68 0 0 1 4.26 1.2l2.09.81c.68.3 1.33.67 2 1a30.87 30.87 0 0 1 7.16 5.27 37 37 0 0 1 2.87 3.26c.44.57.89 1.13 1.29 1.71l1.14 1.78a40.42 40.42 0 0 1 3.59 7.47 41 41 0 0 1 2.11 8l.15 1.1c0 .36.06.64.09 1l.15 1.89c0 .64.11 1.26.13 1.9v3.88c0 .64-.06 1.31-.09 2a35.78 35.78 0 0 1-.35 4 37.15 37.15 0 0 1-5.61 15.94l-.6.94-.7.88-1.42 1.74c-1 1.11-2.11 2.12-3.2 3.13a23.1 23.1 0 0 1-3.58 2.59l-1.88 1.08a13.77 13.77 0 0 1-1.9 1l-1.93.85a17.82 17.82 0 0 1-2 .75c-1.3.4-2.61.89-3.91 1.18s-2.59.6-3.91.85l-4.07.55a13.64 13.64 0 0 1-1.81.12l-1.72.06-3.44.12-6.88.25-27.53 1-55.25 1.73a62.9 62.9 0 0 1-15.4-1.8 60.54 60.54 0 0 1-7.44-2.34c-1.24-.47-2.37-1-3.51-1.51s-2.32-1-3.41-1.62a80.61 80.61 0 0 1-32.65-30.5 83.53 83.53 0 0 1-6.49-13.6 85 85 0 0 1-3.81-14.56l-2.12-13.71-8.82-54.24-8.81-54.24-4.41-27.12-4.26-27.15c-5.52-36.22-10.63-72.5-14.35-109a2.29 2.29 0 0 1 4.51-.75z"/><path class="cls-15" d="M348.49 1679c-39.07 9.31-133.75 44.52-189.15 80.3-27.18 17.55-10.4 57.3 23.75 56.67l287.55-5.62m994.93-128.45c48.66 14.17 140.28 47.3 184.37 77.4 26.73 18.24 10.4 57.3-23.75 56.67l-268.25-5.24"/><path class="cls-16" d="M717.15 394.35c-.3-.82-.7-1.81-1.1-2.71s-.84-1.84-1.3-2.74c-.91-1.81-1.9-3.59-3-5.33a83.31 83.31 0 0 0-7-9.89 81.65 81.65 0 0 0-17.9-16 83.49 83.49 0 0 0-21.57-10 101.2 101.2 0 0 0-23.48-4.09h-.13a6.39 6.39 0 0 1-2-12.14c1.34-.63 2.47-1.12 3.69-1.65s2.41-1 3.61-1.49c2.42-1 4.84-1.87 7.28-2.73q7.32-2.58 14.84-4.59a157.44 157.44 0 0 1 30.91-5.17 97.13 97.13 0 0 1 31.89 3 69.65 69.65 0 0 1 15.27 6.28 68.15 68.15 0 0 1 7 4.55 71.19 71.19 0 0 1 6.33 5.44l-10.69 3c.17-.68.37-1.61.54-2.44l.5-2.59c.32-1.74.6-3.5.85-5.26.5-3.53.86-7.08 1.1-10.63a119.76 119.76 0 0 0-.49-21.17 80.48 80.48 0 0 0-4.73-20.07 53.83 53.83 0 0 0-10.3-17l-.22-.27a6.36 6.36 0 0 1 5.62-10.43l2.06.29 1.94.31c1.29.22 2.56.45 3.83.7q3.82.75 7.57 1.66 7.51 1.83 14.86 4.32a131.83 131.83 0 0 1 28.22 13.23c8.85 5.63 17.07 12.77 23.21 21.71a68.43 68.43 0 0 1 4.14 7 63.85 63.85 0 0 1 3.16 7.49 62.26 62.26 0 0 1 3.18 15.81l-8.84-1.41c1.36-3.28 2.76-6.31 4.23-9.42s3-6.13 4.57-9.15c3.16-6 6.52-12 10.13-17.79a198.52 198.52 0 0 1 25-32.84 117.83 117.83 0 0 1 15.86-13.91A77.11 77.11 0 0 1 904.84 226a56.83 56.83 0 0 1 33.2-1.9 68.76 68.76 0 0 1 10.55 3.62 6.3 6.3 0 0 1 2.46 9.7l-.14.18c-.64.78-1.38 1.76-2.06 2.67s-1.39 1.88-2.07 2.83q-2 2.86-4 5.81-3.87 5.88-7.27 12a131.69 131.69 0 0 0-11 25.43c-2.63 8.69-3.94 17.67-2.87 26.07a37 37 0 0 0 3.55 11.85 36 36 0 0 0 3.21 5.24 40.6 40.6 0 0 0 4.12 4.67l-8.55-.32c1.08-.88 2-1.59 3-2.35s2-1.48 3-2.2c2-1.44 4-2.83 6-4.19q6-4.11 12.42-7.71a145 145 0 0 1 27-12.12c9.51-3 19.78-5 30.43-4a50.2 50.2 0 0 1 15.65 4 48 48 0 0 1 7.18 3.92 54.3 54.3 0 0 1 6.36 5.06 6.38 6.38 0 0 1-1.7 10.49l-.12.05-2.49 1-2.58 1.16q-2.58 1.2-5.12 2.5-5.1 2.61-10 5.6a120.58 120.58 0 0 0-18.28 13.57A70.14 70.14 0 0 0 980.56 366a43.49 43.49 0 0 0-5.82 21.2 2.57 2.57 0 0 1-5.13.22 49.68 49.68 0 0 1 4.65-24.57 78.46 78.46 0 0 1 14.12-20.53 129.66 129.66 0 0 1 18.55-16.32q5-3.63 10.21-6.87c1.75-1.08 3.51-2.13 5.31-3.15.9-.51 1.8-1 2.72-1.51s1.8-1 2.89-1.48l-1.83 10.55a35.47 35.47 0 0 0-21.61-9.55c-8.22-.73-16.91.76-25.33 3.47a133.24 133.24 0 0 0-24.57 11.07q-5.93 3.38-11.62 7.2c-1.89 1.28-3.76 2.58-5.6 3.92l-2.73 2c-.88.67-1.82 1.41-2.58 2l-.07.06a6.37 6.37 0 0 1-8.47-.39 54.42 54.42 0 0 1-5.5-6.25 48.37 48.37 0 0 1-9.15-23 65.62 65.62 0 0 1 0-16.07 90.69 90.69 0 0 1 3.27-15.29 144.19 144.19 0 0 1 12.06-28q3.64-6.6 7.78-12.88c1.37-2.1 2.79-4.16 4.25-6.21.73-1 1.47-2 2.23-3.06s1.49-2 2.38-3.09l2.32 9.88a56.35 56.35 0 0 0-8.37-3.09 44.5 44.5 0 0 0-26.17 1 65.82 65.82 0 0 0-16.4 8.38 105.59 105.59 0 0 0-14.6 12.26 187.78 187.78 0 0 0-24.3 30.54q-5.37 8.26-10.14 16.94c-1.59 2.88-3.12 5.8-4.61 8.73s-2.94 5.95-4.21 8.83a4.63 4.63 0 0 1-8.84-1.43 50.73 50.73 0 0 0-9.56-25.21 69.36 69.36 0 0 0-20.71-18.17 121.12 121.12 0 0 0-26.12-11.27c-4.57-1.41-9.23-2.6-13.92-3.6-2.35-.49-4.71-.94-7.06-1.33-1.18-.19-2.36-.37-3.53-.53l-1.75-.23-1.65-.18 5.39-10.7a66.81 66.81 0 0 1 12.79 21 93.23 93.23 0 0 1 5.47 23.23 133.45 133.45 0 0 1 .5 23.48c-.26 3.87-.65 7.73-1.2 11.58q-.4 2.88-.93 5.76l-.56 2.89c-.2 1-.39 1.88-.67 3a6.39 6.39 0 0 1-10.66 3 53.16 53.16 0 0 0-23.11-13.1 84.35 84.35 0 0 0-27.67-2.57 143.67 143.67 0 0 0-28.31 4.76q-7 1.86-13.86 4.29-3.43 1.2-6.79 2.55c-1.12.44-2.24.9-3.34 1.37s-2.24 1-3.16 1.41l-2.15-12.15a112.17 112.17 0 0 1 25.81 6.56 93.07 93.07 0 0 1 23.21 13 89.72 89.72 0 0 1 25 30.27q1.49 2.91 2.73 6c.41 1 .81 2 1.18 3.07a32.74 32.74 0 0 1 1 3.24 2.56 2.56 0 1 1-4.88 1.56z"/><path class="cls-16" d="M1223.11 998.06c7.75-7.15 15.59-14.11 23.11-21.45s15-14.61 22.39-22.08 14.57-15.07 21.65-22.78c3.54-3.86 7.07-7.72 10.54-11.63s7-7.86 10.21-11.77a6.41 6.41 0 0 1 8.36-1.29c9.4 6 20.61 9 32.14 9.78s23.44-.62 35.09-3.16a222.59 222.59 0 0 0 34.4-10.75q8.45-3.36 16.68-7.24 4.11-1.94 8.18-4l4-2.08 2-1.06 1-.54.25-.14-.11.06a3 3 0 0 0-.46.34 3.8 3.8 0 0 0-1.24 2.42 3.48 3.48 0 0 0 .7 2.31 3.76 3.76 0 0 0 2.18 1.5 5 5 0 0 0 .56.09h-1.41c-1.63-.06-3.29 0-4.91-.15l-4.88-.33a183.82 183.82 0 0 1-19.12-2.78c-6.29-1.22-12.48-2.72-18.59-4.42s-12.17-3.54-18.15-5.57c-12-4-23.69-8.61-35.22-13.62q-8.64-3.75-17.15-7.8c-5.7-2.72-11.25-5.46-17-8.5a7.12 7.12 0 0 1 5.15-13.17h.08c13.66 3.57 27.57 6.11 41.29 6.42a94 94 0 0 0 20.09-1.59 52.61 52.61 0 0 0 17.76-6.8 33.65 33.65 0 0 0 6.84-5.7l.7-.81a4.08 4.08 0 0 0-.32 4.71 4.07 4.07 0 0 0 1.19 1.22 4.23 4.23 0 0 0 1.64.64h.08l-.74-.05a8.23 8.23 0 0 1-1.49-.09 107.8 107.8 0 0 1-22.92-4.45 139.92 139.92 0 0 1-40.85-20.62 190.73 190.73 0 0 1-33-30.86A257.91 257.91 0 0 1 1288 743.7c-3.76-6.41-7.33-12.93-10.64-19.56-1.62-3.34-3.34-6.62-4.83-10l-2.31-5-1.15-2.52-1.09-2.48c-5.84-13.18-11.94-26.22-18.46-39-13.26-25.66-27.14-51.14-41.52-76.14s-29.54-49.72-45.46-73.77-32.84-47.44-51.65-68.88a241.45 241.45 0 0 0-30.72-29.09q-8.3-6.6-17.15-12.46l-18.19-11.87.45.27a244.14 244.14 0 0 0-31.62-14.42c-5.43-2-10.94-3.85-16.51-5.47-1.41-.39-2.76-.8-4.22-1.18s-2.89-.77-4.33-1.22l-8.66-2.59a6.41 6.41 0 1 1 3.62-12.3l8.49 2.46c1.41.42 2.85.79 4.28 1.16s2.93.79 4.39 1.19c5.89 1.64 11.71 3.53 17.47 5.6a253.26 253.26 0 0 1 33.5 14.93 3.38 3.38 0 0 1 .41.24l18.35 11.84q9.36 6.12 18.16 13a256.13 256.13 0 0 1 32.58 30.56c19.63 22.15 36.85 45.9 53.2 70.16s31.5 49.23 46.1 74.48 28.53 50.83 41.93 76.8c6.68 13.08 12.9 26.36 18.83 39.73l1.1 2.51 1.12 2.42 2.22 4.86c1.44 3.26 3.09 6.41 4.65 9.6 3.18 6.36 6.59 12.59 10.17 18.7a244.41 244.41 0 0 0 24.4 34.49 176.49 176.49 0 0 0 30.49 28.46A140.82 140.82 0 0 0 1373 810a120.62 120.62 0 0 0 19 7.76 93.5 93.5 0 0 0 19.75 3.91c.41 0 .82.06 1.23.08h1a7.61 7.61 0 0 1 1.07.11 10.4 10.4 0 0 1 4.15 1.61 10.63 10.63 0 0 1 3.08 3.15 11 11 0 0 1 1.51 4.06 10.53 10.53 0 0 1-.29 4.43 10.77 10.77 0 0 1-2 3.84c-.36.41-.72.84-1.09 1.24a47.57 47.57 0 0 1-9.85 8.21 66.94 66.94 0 0 1-22.69 8.71 107.27 107.27 0 0 1-23.25 1.81c-15.36-.4-30.21-3.22-44.61-7l5.23-13.14c5.22 2.8 10.78 5.57 16.26 8.21s11.07 5.19 16.68 7.64c11.2 4.89 22.56 9.39 34.07 13.34 5.75 2 11.55 3.79 17.37 5.44s11.68 3.1 17.56 4.27a175 175 0 0 0 17.64 2.67l4.4.31c1.47.12 2.92.1 4.37.16h2.1a10.86 10.86 0 0 1 1.71.26 10 10 0 0 1 5.92 4.06 10.08 10.08 0 0 1 1.73 6.7 10 10 0 0 1-1 3.54 9.76 9.76 0 0 1-2.26 2.92 9.89 9.89 0 0 1-1.4 1l-.36.21-.25.15-.27.13-1 .56-2.1 1.1-4.23 2.15q-4.25 2.11-8.55 4.12-8.61 4-17.47 7.48a236.71 236.71 0 0 1-36.56 11.2c-12.55 2.67-25.56 4.16-38.76 3.23a90.58 90.58 0 0 1-19.84-3.33 72.6 72.6 0 0 1-18.48-8.46l8.37-1.28c-3.56 4.15-7.08 8.08-10.7 12s-7.28 7.78-11 11.58q-11.16 11.43-23 22.18c-3.92 3.6-7.91 7.13-11.93 10.61l-6.12 5.13c-2 1.72-4.09 3.41-6.18 5-8.28 6.68-16.86 13-25.66 19a2.57 2.57 0 0 1-3.19-4zm-720.93 28.41c-9.48-5.08-18.82-10.46-27.92-16.28a254.94 254.94 0 0 1-26.38-19.14 147.05 147.05 0 0 1-12.1-11.32 88.34 88.34 0 0 1-10.58-13.34 48.52 48.52 0 0 1-7-16.68c-.14-.78-.28-1.57-.37-2.37-.06-.4-.09-.8-.13-1.2l-.09-1.12-.29-4-.58-8 9.79 5.16a67.77 67.77 0 0 1-15.06 6.59 138.36 138.36 0 0 1-15.14 3.77c-5.05 1-10.1 1.74-15.14 2.36l-3.79.44h-1a8.21 8.21 0 0 1-4.07-.71 9.62 9.62 0 0 1-4.22-3.53 9.82 9.82 0 0 1-1.63-5.06 9.45 9.45 0 0 1 1.45-5.43 10 10 0 0 1 1.79-2.09l.5-.41.24-.18.34-.27 1.36-1a171 171 0 0 0 20.38-20.07q4.82-5.45 9.4-11.16c3-3.77 6.07-7.69 8.87-11.51l8 9.52a208.66 208.66 0 0 1-52.37 17.5 157.93 157.93 0 0 1-27.78 2.73h-3.52c-1.18 0-2.34 0-3.52-.11s-2.34-.09-3.52-.2l-1.77-.14-.88-.07a10.21 10.21 0 0 1-2.26-.47 9.5 9.5 0 0 1-4.22-2.86 9.76 9.76 0 0 1-1.8-9.3 9.55 9.55 0 0 1 4.84-5.57l.52-.24.32-.14.36-.16 1.46-.62c1-.43 2-.8 2.9-1.28 3.85-1.76 7.61-3.78 11.32-5.92s7.32-4.49 10.84-7 7-5.07 10.38-7.81 6.69-5.54 9.92-8.47q9.72-8.74 18.58-18.49 4.43-4.85 8.64-9.87 2.1-2.52 4.13-5.08c1.34-1.68 2.72-3.46 3.91-5.08l9.75 8.25a97.8 97.8 0 0 1-44.93 26.07c-16.92 4.51-34.52 4.65-51.36 2.23-4.22-.6-8.41-1.37-12.55-2.28-2.08-.45-4.14-.94-6.18-1.45l-3.07-.8-1.52-.41-.38-.1-.44-.14a5.08 5.08 0 0 1-.51-.17 10.94 10.94 0 0 1-2-1.06 9.66 9.66 0 0 1-2.4-13.46 9.28 9.28 0 0 1 4.28-3.4l.5-.19.33-.11.35-.11 1.42-.46 2.82-.94q5.64-2 11.2-4.19a261.22 261.22 0 0 0 42.59-22 257.47 257.47 0 0 0 37.84-29.39 251.27 251.27 0 0 0 31.61-35.95 258.39 258.39 0 0 0 24.26-41.31c1.69-3.63 3.33-7.29 4.85-11q1.17-2.76 2.25-5.57l.55-1.4.27-.7.22-.51.07-.17.16-.35 1.22-2.76q4.82-11.07 8.89-22.46l2-5.71 2-5.85 4.11-11.65q4.16-11.62 8.54-23.18 8.76-23.1 18.42-45.87C507 557.05 513.75 542 521 527.17s15-29.49 23.59-43.75 17.87-28.16 28.87-41.06c2.74-3.2 5.71-6.38 8.6-9.34l8.59-8.89c1.38-1.49 3-2.95 4.53-4.41s3.1-2.92 4.69-4.29 3.12-2.81 4.75-4.15l4.85-4a254.59 254.59 0 0 1 88.9-46.3 6.41 6.41 0 0 1 4.22 12.11l-.59.17a242.16 242.16 0 0 0-84.41 44l-4.6 3.83c-1.54 1.26-3 2.62-4.51 3.93s-3 2.66-4.38 4-2.88 2.65-4.28 4.17l-8.5 8.79c-2.83 2.91-5.46 5.72-8 8.75C573 462.79 564 476.21 555.71 490s-15.91 28.21-23.08 42.8-13.87 29.43-20.26 44.42-12.44 30.14-18.23 45.39q-4.33 11.45-8.46 23l-4.07 11.54-2 5.78-2 5.89q-4.22 11.77-9.21 23.26l-1.4 2.8-.16.36-.07.18c-.16.36.11-.3.06-.16l-.29.73-.57 1.46c-.75 2-1.54 3.9-2.35 5.83-1.6 3.88-3.32 7.71-5.08 11.51a270.49 270.49 0 0 1-25.48 43.37A263.66 263.66 0 0 1 399.83 796a274.14 274.14 0 0 1-84.4 53.92q-5.85 2.36-11.83 4.42l-3 1-1.51.48-.37.12.14-.06a2.66 2.66 0 0 0 .64-.35 3.31 3.31 0 0 0 1.05-1.24 2.93 2.93 0 0 0 .32-1.39 3 3 0 0 0-.34-1.38 3.28 3.28 0 0 0-1.08-1.23 2.79 2.79 0 0 0-.66-.35l-.14-.05h-.08l.36.1 1.45.39 2.89.75c1.92.48 3.85.94 5.78 1.36 3.87.84 7.75 1.56 11.64 2.12 15.54 2.23 31.41 2 46.24-1.94A84.89 84.89 0 0 0 406 830a6.4 6.4 0 0 1 9.71 8.29c-1.45 2-2.82 3.74-4.26 5.56s-2.87 3.57-4.33 5.33q-4.41 5.25-9 10.31c-6.17 6.73-12.62 13.21-19.44 19.35-3.4 3.07-6.89 6.07-10.48 8.94s-7.27 5.66-11.06 8.32-7.71 5.15-11.71 7.55a128.74 128.74 0 0 1-12.43 6.51c-1.05.52-2.16.94-3.24 1.42l-1.62.7c-1 .4 0 .06.3-.29a3.31 3.31 0 0 0 1-1.47 3 3 0 0 0 .11-1.54 3 3 0 0 0-.7-1.45 3.31 3.31 0 0 0-1.47-1 2.65 2.65 0 0 0-.62-.14l.79.06 1.57.13c1.05.1 2.12.12 3.17.18s2.13.07 3.19.09 2.12 0 3.19 0a145.17 145.17 0 0 0 25.55-2.52 195.68 195.68 0 0 0 49.11-16.43h.06a6.4 6.4 0 0 1 7.92 9.55c-3.06 4.18-6.11 8.1-9.28 12s-6.42 7.8-9.77 11.6a182.56 182.56 0 0 1-22 21.61l-1.58 1.23-.4.3-.09.08.14-.11a3.48 3.48 0 0 0 .58-.69 3.3 3.3 0 0 0 .51-1.89 3 3 0 0 0-.5-1.56 3.18 3.18 0 0 0-1.42-1.17 3.37 3.37 0 0 0-.93-.25h-.44l3.6-.42c4.79-.59 9.56-1.31 14.25-2.21a127.27 127.27 0 0 0 13.72-3.41 55.52 55.52 0 0 0 12.16-5.25h.08a6.41 6.41 0 0 1 8.79 2.17 6.58 6.58 0 0 1 .92 3.05l.1 8 .05 4v1.68a14.42 14.42 0 0 0 .15 1.6 37.27 37.27 0 0 0 4.62 13 79.44 79.44 0 0 0 8.62 12.3 141.59 141.59 0 0 0 10.67 11.24 245.87 245.87 0 0 0 24.38 20c8.56 6.23 17.44 12.08 26.5 17.65a2.57 2.57 0 0 1-2.55 4.45z"/><path class="cls-17" d="M718 662.12c0 98-33.74 119.21-88.43 109a245.89 245.89 0 0 0-81.68-1.89c-58 8.74-96.45-14.94-95.89-103.17.46-72.39 57.69-132.44 130.07-134C655.54 530.41 718 588.64 718 662.12z"/><g clip-path="url(#clip-path-5)"><circle class="cls-19" cx="592.64" cy="653.65" r="79"/><circle class="cls-16" cx="591.33" cy="653.77" r="59.61"/><circle class="cls-17" cx="624.82" cy="606.98" r="31.69"/></g><path class="cls-20" d="M718 662.12c0 98-33.74 119.21-88.43 109a245.89 245.89 0 0 0-81.68-1.89c-58 8.74-96.45-14.94-95.89-103.17.46-72.39 57.69-132.44 130.07-134C655.54 530.41 718 588.64 718 662.12z"/><path class="cls-17" d="M1007.05 643.83c0 97.95 33.75 119.21 88.44 109a245.89 245.89 0 0 1 81.68-1.9c58 8.74 96.44-14.94 95.89-103.17-.46-72.39-57.7-132.44-130.07-134-73.46-1.63-135.94 56.59-135.94 130.07z"/><g clip-path="url(#clip-path-6)"><circle class="cls-19" cx="1135.42" cy="638.37" r="79"/><circle class="cls-16" cx="1135.42" cy="638.37" r="59.61"/><circle class="cls-17" cx="1185.76" cy="592.69" r="31.69"/></g><path class="cls-20" d="M1007.05 643.83c0 97.95 33.75 119.21 88.44 109a245.89 245.89 0 0 1 81.68-1.9c58 8.74 96.44-14.94 95.89-103.17-.46-72.39-57.7-132.44-130.07-134-73.46-1.63-135.94 56.59-135.94 130.07z"/><g id="mouth"><path d="M805.1 962.92s3.7 72.6 64.6 70.2c58.9-2.3 65.5-70.3 65.5-70.3s-21.2 30.3-59.3 30.7-70.8-30.6-70.8-30.6z" style="isolation:isolate" fill="#595959" opacity=".2"/><path class="cls-16" d="M870.1 771.52l.7 4.9c.2 1.5.5 3.5.8 5.6l1.2 7.1 1.5 8.4c.6 3 1.2 6.1 1.9 9.3l1.1 4.9.6 2.5.6 2.5 1.3 5.1 1.4 5.1 1.5 5.1c.5 1.7 1 3.4 1.6 5l1.7 4.9 1.8 4.7c.6 1.6 1.2 3 1.8 4.5s1.2 2.9 1.8 4.3l1.8 4 1.8 3.7c1.1 2.4 2.4 4.5 3.4 6.4l2.8 4.8 2.6 4.1a1.5 1.5 0 0 1-.76 2 1.52 1.52 0 0 1-1.64-.28l-3.1-3.9-3.4-4.6c-1.2-1.8-2.7-3.9-4.1-6.2l-2.3-3.6-2.3-3.9c-.8-1.3-1.5-2.8-2.3-4.2s-1.6-2.9-2.3-4.4l-2.3-4.7-2.2-4.8c-.8-1.6-1.5-3.3-2.2-4.9s-1.5-3.3-2.1-5l-2-5.1-1.9-5.1-.9-2.5-.9-2.5-1.7-4.9c-1-3.2-2.1-6.4-3-9.4l-2.5-8.5-2-7.2c-.6-2.2-1-4-1.4-5.5l-1.2-4.8a7.53 7.53 0 1 1 14.6-3.7z"/><path class="cls-16" d="M824 888l.9-1.2 2.5-3.5 1.6-2.5c.6-.9 1.3-1.9 1.9-3l2-3.5c.7-1.2 1.3-2.6 2-4l1.1-2.1 1-2.3q1.05-2.25 2.1-4.8l2-5.1c.6-1.8 1.2-3.6 1.9-5.4a54 54 0 0 0 1.7-5.7c.5-1.9 1.2-3.9 1.6-5.9l1.5-6 1.3-6.1c.5-2 .8-4.1 1.2-6.1s.7-4.1 1.1-6.1l.9-6 .4-3 .3-2.9c.4-3.9.9-7.6 1.2-11.2s.6-7 .8-10.1l.5-8.5.2-6.6.2-5.7v-.2a7.5 7.5 0 1 1 15 .5 2.08 2.08 0 0 1-.1.7l-.7 5.9-.8 6.7-1.3 8.7c-.4 3.2-1.1 6.6-1.7 10.3s-1.4 7.5-2.2 11.4l-.6 3-.7 3-1.4 6.1c-.5 2.1-1.1 4.1-1.6 6.2a60.24 60.24 0 0 1-1.8 6.2l-1.9 6.2-2.1 6.1c-.7 2-1.5 4-2.2 5.9s-1.5 3.9-2.3 5.7l-2.4 5.5-2.5 5.1c-.8 1.7-1.8 3.2-2.6 4.8l-1.2 2.3-1.3 2.1c-.9 1.4-1.6 2.7-2.5 3.9l-2.4 3.4c-.7 1.1-1.5 2.1-2.2 3l-1.9 2.5-2.8 3.2-1 1.1a1.69 1.69 0 0 1-2.35.35A1.66 1.66 0 0 1 824 888z"/><path class="cls-16" d="M797.2 739.22a15 15 0 0 1 3.6-15.9c9-8.8 28.2-21.6 63.8-21.8s52.5 12.2 60.5 21a14.92 14.92 0 0 1 2.5 16.1 20.8 20.8 0 0 1-18.3 12.3c-10 .3-23.9 3.3-32.7 15.8a13.29 13.29 0 0 1-1.9 2.2l-.3.3a17.71 17.71 0 0 1-25-1.17l-.29-.33s-7.3-12.5-34.1-14.6a20.69 20.69 0 0 1-17.7-13.5v-.3zm141.7 220.6l-.5 1.8c-.2.6-.3 1.3-.6 2.1l-1.1 3-1.6 3.6a40.9 40.9 0 0 1-2.2 4 57 57 0 0 1-6.6 9 63.35 63.35 0 0 1-9.9 8.9l-3 2-3.2 1.9a71.85 71.85 0 0 1-6.8 3.4c-2.4 1-4.8 1.9-7.4 2.7l-3.9 1.1-3.9.9a77.48 77.48 0 0 1-16.3 1.3 82.31 82.31 0 0 1-31.1-6.9l-.9-.4-.4-.2h-.5l-1.6-.8-3.3-1.7a70.22 70.22 0 0 1-6.1-3.7 77.35 77.35 0 0 1-10.2-8.1 74.69 74.69 0 0 1-7.4-8 71.66 71.66 0 0 1-4.7-6.9q-.9-1.5-1.5-2.7l-1-2-.8-1.7a2.5 2.5 0 0 1 4.1-2.8h.1l1.2 1.3 3.4 3.6c1.5 1.5 3.4 3.2 5.6 5.1a88.73 88.73 0 0 0 17.5 11.5l2.7 1.3 2.8 1.2 3 1.2 1.6.6 1.4.5a85.27 85.27 0 0 0 12.8 3.3 81.54 81.54 0 0 0 13.5 1.3 80.27 80.27 0 0 0 13.5-1l3.3-.6 3.2-.7a60.24 60.24 0 0 0 6.2-1.8 57.79 57.79 0 0 0 5.8-2.3l2.7-1.3 2.6-1.4a65.49 65.49 0 0 0 9.2-6.1 62.35 62.35 0 0 0 7-6.4c1.69-1.79 3.29-3.65 4.8-5.6l1.6-2.2a13.41 13.41 0 0 0 1.2-1.8l1-1.5a2.55 2.55 0 1 1 4.7 2zm-23.2-146.3l4.1.2 11.6.7c10 .7 24.2 2 41.1 4.6a543.38 543.38 0 0 1 57.2 11.7c10.3 2.7 20.9 5.8 31.6 9.4s21.3 7.6 31.7 12.1 20.7 9.5 30.5 14.9a303 303 0 0 1 27.9 17.4 260.38 260.38 0 0 1 24 19.2 221.78 221.78 0 0 1 19.2 19.7 206 206 0 0 1 14.1 18.4l2.7 4.2 2.5 4 2.2 3.7 1.9 3.4c1.2 2.1 2.2 4.1 3.1 5.8s1.6 3.2 2.2 4.4l1.7 3.7-1.8-3.6c-.6-1.2-1.3-2.6-2.3-4.3s-2-3.6-3.2-5.7l-2-3.4-2.3-3.6-2.6-3.9-2.8-4.1a201 201 0 0 0-14.5-17.9 219.74 219.74 0 0 0-19.6-19 257.64 257.64 0 0 0-24.2-18.3 298.09 298.09 0 0 0-28-16.4c-9.8-5.1-20.1-9.7-30.5-13.9s-21.1-7.8-31.6-11.1-21.1-6-31.4-8.4a536.47 536.47 0 0 0-56.7-9.9c-16.7-2-30.7-3-40.5-3.4l-11.3-.4h-4.1a5 5 0 0 1 .1-10h.1zm167.9-14.3l-1.5-1.1-4.3-2.9-6.8-4.22c-2.7-1.6-5.7-3.2-9.2-4.9l-5.4-2.5-2.9-1.3-3-1.2-3.1-1.2-3.2-1.1-3.3-1.1-3.4-1c-2.3-.7-4.6-1.2-7-1.8s-4.8-1-7.2-1.5-4.9-.7-7.4-1.1-5-.5-7.5-.7-5-.2-7.5-.3h-7.5l-3.7.2-3.6.3c-2.4.3-4.8.5-7 .9-4.6.7-9 1.7-13.2 2.7a98.31 98.31 0 0 0-11.5 3.5l-5 1.8-4.4 1.8-7.1 3.3-4.4 2.3-1.5.9h-.1a5 5 0 1 1-4.8-8.8h.3l1.7-.8 4.9-2.2 7.7-3 4.8-1.7 5.4-1.6c3.8-1.1 7.9-2 12.4-2.9a103.29 103.29 0 0 1 14-1.9c2.4-.3 4.9-.3 7.4-.5h11.4l3.9.3a64.2 64.2 0 0 1 7.7.8c2.5.5 5.2.6 7.7 1.2s5.1.9 7.5 1.6 4.9 1.2 7.3 2 4.7 1.4 7 2.3l3.4 1.2 3.3 1.3 3.2 1.3 3 1.4 3 1.4 2.8 1.4 5.3 2.9c3.3 1.9 6.3 3.8 8.9 5.5s4.8 3.3 6.6 4.7l4.1 3.2zm-160 40.1l7.8.7 4.3.7 5.1.9c3.5.9 7.5 1.7 11.7 3.1l3.2 1L959 847l3.4 1.3 3.4 1.5 3.5 1.6c1.2.5 2.3 1.2 3.5 1.8l3.5 1.9 3.5 2.1 3.5 2.2 3.4 2.4 3.4 2.5 3.4 2.6 1.7 1.3 1.6 1.4 3.3 2.8c2.2 1.9 4.2 3.9 6.3 5.9 4.1 4.1 8.1 8.2 11.7 12.5s7.1 8.6 10.3 12.9 6.1 8.6 8.8 12.7 5 8.1 7.2 11.8 4 7.2 5.5 10.2 2.9 5.8 4 8.1c2.1 4.5 3.1 7.2 3.1 7.2s-1.2-2.6-3.5-7c-1.2-2.2-2.6-4.8-4.4-7.8s-3.8-6.3-6.1-9.9-4.9-7.4-7.8-11.3-6-8-9.3-12.1-7-8.2-10.8-12.1-7.9-7.8-12.1-11.6l-6.5-5.3-3.3-2.5-1.7-1.2-1.7-1.2-3.4-2.3-3.4-2.2-3.4-2.1-3.4-1.9-3.4-1.8-3.4-1.6a35.44 35.44 0 0 0-3.4-1.5l-3.3-1.3-3.3-1.3-3.2-1.1-3.1-1-3-.8c-3.9-1.1-7.7-1.7-10.9-2.3l-4.5-.5-3.8-.4-7.8-.3a5 5 0 0 1 .4-10h.1zm-116.3-18.6h-15.8c-10 0-24.3 0-41.3.6-8.5.3-17.8.7-27.5 1.4s-20 1.6-30.6 2.8-21.5 2.8-32.5 4.8-22.1 4.4-33.1 7.3a331.25 331.25 0 0 0-32.3 10.3c-5.2 1.9-10.4 4.1-15.4 6.3s-9.9 4.6-14.6 7.1a200.47 200.47 0 0 0-47.2 33.9 165.07 165.07 0 0 0-15.5 17.4c-1.1 1.3-2 2.7-3 4l-2.7 3.8-2.4 3.6-2.1 3.4c-1.3 2.1-2.4 4.1-3.4 5.8l-1.3 2.4-1 2-1.9 3.7 1.8-3.7 1-2 1.2-2.4c.9-1.7 1.9-3.7 3.2-5.9l2-3.4 2.3-3.7c.8-1.3 1.7-2.6 2.6-3.9s1.8-2.8 2.9-4.1a165.39 165.39 0 0 1 15.1-18 202.49 202.49 0 0 1 46.8-35.6c4.7-2.7 9.6-5.2 14.6-7.6s10.1-4.7 15.4-6.8a340.22 340.22 0 0 1 32.4-11.3c11-3.3 22.2-6 33.3-8.4s22.1-4.2 32.8-5.8 21-2.7 30.9-3.7 19.2-1.6 27.8-2.1c17.2-1 31.6-1.4 41.6-1.7l15.7-.4a5 5 0 0 1 .3 10h-.1zm-175-15.6l1.5-1.2 4.3-3.4 3.2-2.3 1.8-1.3 2-1.3a107.09 107.09 0 0 1 9.5-5.8l5.6-3 6.1-3c4.3-1.9 8.9-3.8 13.7-5.4l3.7-1.2 3.8-1.1 3.8-1.1 3.9-.9 4-.9 4-.7 4.1-.6 4.1-.5 2.1-.2h2.1l4-.2h8.2l8.1.3 7.9.7c2.6.4 5.1.6 7.6 1.1l3.7.6 3.5.8c4.7 1 9 2.2 13 3.4s7.6 2.6 10.7 3.8l4.4 1.8 3.7 1.7 5.1 2.5 1.8.9a5 5 0 1 1-4.6 8.9h-.3l-1.6-1-4.6-2.6-3.4-1.8-4-2q-4.35-2.1-9.9-4.2c-3.7-1.4-7.7-2.8-12.1-4l-3.3-.9-3.4-.8c-2.3-.6-4.7-1-7.1-1.5l-7.5-1.1-7.7-.7-3.9-.2H712l-4 .2-4 .4-3.9.4-3.9.6-3.9.6-3.8.8-3.7.8-3.7 1c-4.8 1.3-9.4 2.9-13.7 4.5l-6.2 2.6-5.7 2.7c-3.6 1.8-6.9 3.5-9.7 5.2l-2.1 1.2-1.9 1.2-3.3 2.1-4.5 3.1zm167.1 41.4l-7.8-.3-3.8.2h-3.3l-1.2.2-5.2.7-5.7 1.2-1.5.3-1.5.4-3.1.9a55.21 55.21 0 0 0-6.5 2.2c-2.2.8-4.4 1.9-6.7 2.9l-1.7.8-1.7.9-3.4 1.8-3.4 2-3.4 2.1-6.7 4.6a165.08 165.08 0 0 0-13 10.6l-3.1 2.9-3 3c-2 1.9-3.9 4-5.9 6l-5.5 6.2c-1.7 2.1-3.5 4.1-5.2 6.2l-2.5 3.1-2.4 3.1c-1.6 2-3 4.1-4.4 6.1l-4.1 5.9-3.6 5.6c-2.3 3.6-4.3 7-6.1 10s-3.2 5.7-4.4 7.9c-2.4 4.4-3.6 7-3.6 7s1.1-2.7 3.2-7.2c1.1-2.3 2.4-5 4-8.1s3.4-6.6 5.6-10.3l3.4-5.8 3.8-6.1c1.3-2.1 2.7-4.2 4.1-6.4l2.2-3.3 2.3-3.3c1.5-2.2 3.2-4.4 4.9-6.6l5.3-6.6c1.9-2.1 3.7-4.4 5.6-6.5l2.9-3.2 3-3.1a166.8 166.8 0 0 1 12.8-11.7l6.8-5.2 3.5-2.4c1.2-.8 2.3-1.6 3.5-2.3l3.5-2.1 1.7-1 1.8-.9c2.4-1.2 4.6-2.5 7-3.5s4.6-2.1 6.9-2.8l3.4-1.2 1.6-.6 1.6-.4 6.2-1.6 5.7-1 1.3-.2h1.3l2.5-.2 4.5-.4h7.9a5 5 0 0 1 .1 10h-.3z"/></g></g></g></svg>